<?xml version="1.0" encoding="UTF-8"?>
<svg id="Layer_1" xmlns="http://www.w3.org/2000/svg" version="1.1" viewBox="0 0 557.53 462">
  <!-- Generator: Adobe Illustrator 30.0.0, SVG Export Plug-In . SVG Version: 2.1.1 Build 123)  -->
  <defs>
    <style>
      .st0 {
        fill: #fff;
        isolation: isolate;
      }

      .st0, .st1 {
        stroke: #fff;
        stroke-miterlimit: 10;
      }
    </style>
  </defs>
  <path class="st1" d="M389.99,255.6c-3.58,1.75-8.45,3.52-10.83,3.93-3.01.52-4.8,1.5-5.92,3.24-.89,1.38-5.18,6.77-9.55,12-4.37,5.22-9.24,10.96-10.82,12.75-1.58,1.79-2.87,3.59-2.86,4,0,.41.34,1.33.75,2.05.6,1.06,1.24,1.06,3.52,0h0c1.54-.72,3-2.09,3.25-3.05s1.13-1.75,1.96-1.75,2.06-.9,2.75-2c.69-1.11,1.59-2.01,2-2,.41,0,3.34-2,6.5-4.44s8.99-7.5,12.96-11.25c3.96-3.75,7.23-7.37,7.25-8.06s.38-1.24.79-1.22c.41.01,3.45-2.43,6.75-5.44s5.67-5.83,5.27-6.28c-.39-.44-2.19.35-4,1.76-1.8,1.42-6.2,4.01-9.77,5.76h0Z"/>
  <path class="st1" d="M347.17,287.27c-.47.55-1.58,3.03-2.47,5.5-.9,2.48-2.18,5.85-2.85,7.5s-1.34,3.68-1.49,4.5c-.14.82-.8,4.43-1.47,8-.66,3.57-1.25,9.43-1.3,13-.06,3.57.13,9.43.42,13l.52,6.5c1.97-6.97,3.41-11.7,4.46-15s2.62-8.25,3.47-11c1.09-3.51,1.55-9.17,1.56-19,0-7.82-.37-13.56-.85-13Z"/>
  <path class="st1" d="M421.11,225.52c-1.59,3.16-4.51,7.89-6.5,10.5s-3.62,4.95-3.62,5.2,5.51-5.19,12.25-12.1c6.73-6.9,12.58-13.18,13-13.95.51-.95.18-1.4-1-1.41-.97,0-3.89,1.34-6.5,3-3.55,2.25-5.48,4.47-7.63,8.76h0Z"/>
  <path class="st1" d="M329.07,293.27c-2.42,3.85-5,7.94-5.74,9.08-.74,1.15-1.13,2.4-.87,2.78s1.95.42,3.75.09c1.8-.32,4.24-1.35,5.42-2.27,1.69-1.34,2.26-3.17,2.75-8.93.33-3.99.27-7.36-.16-7.5-.42-.13-2.74,2.9-5.15,6.75h0Z"/>
  <path class="st1" d="M345.59,386.13c-1.04,2.83-3.18,10.09-4.74,16.14-2.53,9.75-2.85,12.64-2.78,25.5.08,13.27.27,14.74,2.25,17.35,2.02,2.65,2.42,2.77,5.67,1.77h0c1.92-.59,4.57-2.09,5.89-3.35,2.05-1.95,2.3-2.9,1.8-6.77-.32-2.47-1.12-11.47-1.78-20-.65-8.53-1.59-15.95-2.08-16.5-.5-.55-.87-5.5-.82-11,.04-5.5-.28-9.61-.72-9.14-.43.48-1.64,3.18-2.69,6h0Z"/>
  <path class="st1" d="M339.52,353.77c-.96,5.46-1.51,15.29-1.54,27.5-.02,10.45.15,18.78.4,18.5.24-.28,2.47-6.57,4.95-14l4.5-13.5c.22-27.13.23-37.93.17-41.5l-.12-6.5c-3.14,7.75-4.69,12.47-5.46,15.5s-2.08,9.32-2.9,14h0Z"/>
  <path class="st1" d="M227.99,352.52c-2.48,1.65-6.3,4.88-8.5,7.19-2.2,2.3-6.14,7.31-8.75,11.12-2.61,3.82-4.75,7.39-4.75,7.94s.34.98.75.97c.41-.02,2.67-1.26,5.02-2.75,2.35-1.5,9.1-5.96,15-9.93,5.9-3.96,13.65-8.98,17.23-11.15,3.58-2.18,9.08-4.79,12.24-5.8s5.75-2.18,5.75-2.59c0-.41-5.39-.75-11.99-.75-8.22,0-12.87.44-14.75,1.38-1.51.76-4.78,2.73-7.25,4.37h0Z"/>
  <path class="st1" d="M337.24,291.96c-.2,5.87-.23,10.73-.06,10.78s1.61-3.41,3.21-7.69c1.59-4.28,3.21-8.23,3.6-8.78.38-.55,1.42-3.25,2.31-6,.99-3.07,1.33-6.08.9-7.79l-.71-2.78c-5.52,6.64-7.52,9.25-8,10.07s-1.04,6.31-1.25,12.19Z"/>
  <path class="st1" d="M353.87,273.35c-.89,1.06-2.03,2.82-2.52,3.92s-.76,3.8-.59,6l.3,4c6.1-6.97,7.87-9.22,7.87-9.5s1.7-2.32,3.78-4.54,5.26-5.82,7.06-8c1.81-2.18,3.02-4.19,2.69-4.46-.32-.27-3.37.11-6.78.85-3.4.74-7.43,1.97-8.94,2.75-1.61.82-3.17,2.75-3.77,4.65-.56,1.79-1.01,3.32-1,3.4s.81-.11,1.77-.42c1.62-.53,1.63-.43.13,1.35Z"/>
  <path class="st1" d="M330.74,314.78c.41.01,1.04-2.13,1.4-4.75.37-2.62.59-4.85.5-4.95-.08-.11-3.3.91-7.15,2.25-6.13,2.14-8.12,3.53-15.93,11.19-4.9,4.81-9.52,9.31-10.25,10s-1.32,1.47-1.32,1.75.45.5,1,.5,2.23-.47,3.75-1.05c1.51-.57,3.2-1.58,3.75-2.25.55-.66,3.13-2.21,5.75-3.45,2.61-1.24,5.31-2.25,6-2.24.68,0,3.61-1.58,6.5-3.5,2.88-1.93,5.58-3.5,6-3.5Z"/>
  <path class="st1" d="M410.49,14.75c-3.71.01-9.06,1-14,2.6-4.4,1.42-11.15,2.98-15,3.47s-12.4.9-19,.91c-11.52.03-12.46-.14-23.5-4.05-6.33-2.24-13.75-4.74-16.5-5.56-3.37-1-7.28-1.31-12-.95-3.85.3-11.5,1.67-17,3.04-5.5,1.38-13.15,3.93-17,5.66s-14.42,6.71-23.5,11.07-18.75,8.58-21.5,9.39c-2.75.8-7.36,1.46-10.25,1.45s-7.39.73-10,1.63-7.84,3.49-11.62,5.75c-3.79,2.26-10.04,7.04-13.9,10.61s-9.41,9.65-12.33,13.5-7.24,8.84-9.6,11.1c-2.37,2.25-7,5.91-10.3,8.13s-10.73,6.25-16.5,8.94c-7.01,3.27-12.29,6.54-15.89,9.86-2.96,2.73-6.39,6.54-7.61,8.47-1.23,1.93-3.69,6.2-5.48,9.5s-4.66,8.11-6.38,10.68c-1.73,2.58-6.18,7.87-9.89,11.75-5.94,6.22-8.46,7.94-21,14.3-11,5.57-15.69,8.59-20.57,13.25-3.48,3.31-7.27,8.04-8.42,10.52-1.15,2.48-2.46,7.54-2.92,11.25s-1.73,8.44-2.82,10.5-5.34,8.02-9.45,13.25c-4.82,6.14-7.89,11.09-8.68,14-.93,3.46-.95,5.88-.06,10.5.63,3.3,1.15,7.46,1.16,9.25s-.86,5.61-1.92,8.5c-1.07,2.89-2.87,8.4-4.02,12.25-1.14,3.85-2.02,7.23-1.96,7.5.07.28.51,1.63.99,3,.48,1.38,1.11,4.98,1.4,8h0c.41,4.12,1.54,7.06,4.53,11.75,2.19,3.44,3.99,6.48,3.99,6.75s1.1,1.96,2.44,3.75,3.63,5.95,5.08,9.25c1.46,3.3,3.62,7.08,4.81,8.39,1.2,1.32,5.54,4.6,9.67,7.28,4.12,2.69,7.95,4.88,8.5,4.86.55-.01,3.92,1.36,7.5,3.06,4.48,2.13,8.52,5.17,13,9.81,5.13,5.3,7.35,6.88,10.5,7.48,2.2.41,8.72.43,14.5.04,8.37-.56,12.12-.34,18.5,1.08,4.53,1.01,10.17,3.1,13,4.83,2.75,1.68,6.35,4.01,8,5.18,1.65,1.16,6.6,3.77,11,5.79,6.76,3.11,9.08,3.68,15,3.71,3.85.01,10.37-.81,14.5-1.83,4.34-1.07,9.71-3.29,12.74-5.27,3.03-1.97,6-4.89,7.02-6.91.98-1.93,3.64-6.2,5.91-9.5,2.26-3.3,5.4-7.18,6.97-8.63,1.58-1.45,6.46-5.19,10.86-8.3,5.38-3.81,10.3-6.35,15-7.76,3.86-1.15,9.69-2.07,13-2.05,3.3.03,10.27-1.07,15.5-2.42,5.22-1.36,11.3-3.32,13.5-4.36,2.2-1.04,6.47-3.27,9.5-4.95,3.02-1.67,8.35-5.4,11.83-8.29,3.49-2.88,8.22-7.49,10.53-10.24,2.3-2.75,5.33-6.57,6.73-8.5,1.4-1.93,4.99-7.77,7.98-13,3.36-5.87,7.72-11.75,11.43-15.39,3.3-3.24,7.58-6.9,9.5-8.12s6.87-3.7,11-5.52c5.44-2.4,9.69-3.49,15.5-3.99,7.24-.61,8.76-1.13,16-5.54,5.21-3.16,11.25-8.18,17.32-14.4,5.12-5.25,9.91-10.89,10.64-12.54s2.62-4.46,4.19-6.24c2.1-2.38,4.43-3.63,8.85-4.73,3.3-.82,8.16-2.51,10.81-3.76,3.84-1.81,5.21-3.17,6.84-6.77,1.12-2.48,2.79-6.01,3.7-7.86s3.3-4.77,5.31-6.5c2.02-1.73,9.44-6.03,16.5-9.57,7.06-3.53,16.21-7.83,20.34-9.54,4.12-1.71,10.87-5.23,15-7.82,4.12-2.59,9.19-6.28,11.25-8.21,2.06-1.92,3.75-3.95,3.75-4.5s.9-1.45,2-2,3.81-4.71,6.03-9.25c2.82-5.78,4.02-9.52,4-12.5-.02-2.34-.65-5.49-1.41-7s-2-3.25-2.75-3.87-3.37-4.44-5.82-8.5l-4.46-7.38c-1.53-27.36-1.88-29.24-5.28-37.75-2.02-5.09-5.47-12.18-7.66-15.75s-4.47-7.14-5.06-7.93c-.6-.79-4.01-4.31-7.59-7.81-3.58-3.51-9.2-7.75-12.5-9.42-4.87-2.47-7.6-3.13-14.5-3.51-6.96-.39-9.58-.08-14.5,1.67-3.62,1.28-9.57,2.34-15,2.65-8.05.46-9.69.24-15.5-2.08-4.48-1.78-8.37-2.59-12.5-2.59h0ZM301.93,164.27c-1.22-3.85-2.58-7.45-3.03-8s-2.61-6.4-4.8-13-4.01-12.35-4.05-12.78h0c-.03-.43.64-.2,1.51.5.86.7,2.48,4.43,3.59,8.28,1.12,3.85,3.49,10.6,5.28,15s4.33,11.15,5.65,15,4.11,10.15,6.2,14c2.1,3.85,4.91,10.04,6.26,13.75,1.34,3.71,2.45,6.98,2.45,7.25s-.45.27-1,0-1.72-2.19-2.59-4.25-4.21-9.37-7.42-16.25c-3.22-6.87-6.84-15.65-8.05-19.5h0ZM453.06,162.27c-.01.55-1.94,2.56-4.29,4.47-2.35,1.9-9,5.34-14.78,7.64-5.78,2.29-14.33,5.76-19,7.71-4.67,1.94-12.33,5.51-17,7.92-4.67,2.42-10.97,5.97-14,7.9s-7.75,6.13-10.5,9.32-7.5,8.33-10.56,11.42c-3.05,3.09-8,7.33-11,9.43-2.99,2.09-9.27,5.63-13.94,7.87-4.67,2.23-10.53,5-13,6.15-2.48,1.15-9.9,6.17-16.5,11.16-6.6,4.99-15.36,11.3-19.47,14.04-4.11,2.73-15.81,11.23-26,18.88-10.39,7.8-21.6,15.34-25.53,17.17-3.85,1.8-12.17,5.11-18.5,7.36-8.05,2.87-13.12,5.37-16.9,8.33-2.97,2.33-8.19,7.83-11.61,12.23-3.41,4.4-6.72,9.01-7.35,10.25s-1.81,2.25-2.64,2.25-1.5-.22-1.5-.5h0c0-.27,2.14-3.47,4.75-7.1s5.97-8.02,7.46-9.75,2.75-3.6,2.8-4.15c.06-.55,2.67-2.87,5.8-5.16s7.94-4.93,10.69-5.86,9.5-3.47,15-5.64c5.5-2.16,12.92-5.75,16.5-7.97s7.85-5.01,9.51-6.2c1.65-1.19,7.95-6,14-10.69,6.04-4.68,16.84-12.48,23.99-17.33,7.15-4.86,16.15-11.28,20-14.27,3.85-3,8.8-6.46,11-7.7,2.2-1.25,7.15-3.52,11-5.05s11.46-5.79,16.91-9.46c5.45-3.67,11.64-8.47,13.75-10.67,2.12-2.2,3.85-4.34,3.84-4.75,0-.41,1.91-2.84,4.25-5.38,2.34-2.55,6.72-6.54,9.75-8.86,3.03-2.33,10.67-6.73,17-9.78,6.33-3.06,16-7.58,21.5-10.05,5.5-2.48,11.35-4.83,13-5.23s5.7-2.04,9-3.66c3.3-1.61,6.8-3.69,7.78-4.61.98-.93,1.75-1.23,1.71-.68s.64.32,1.51-.5,1.58-1.05,1.57-.5ZM419.74,94.33c.13.24-5.49,7.01-12.5,15.04-7.02,8.03-13.73,15.8-14.92,17.25-1.19,1.46-4.14,5.13-6.55,8.15-2.42,3.02-7.56,9.77-11.42,15-3.86,5.23-12.46,18.05-19.1,28.5-6.65,10.45-12.46,19.88-12.92,20.97-.71,1.65-.58,1.81.84,1,.92-.54,4.07-3.04,7-5.58,2.92-2.53,9.82-7.94,15.32-12.03,5.5-4.08,13.37-9.6,17.5-12.26,4.12-2.65,10.08-6.58,13.25-8.71,3.16-2.14,5.97-3.89,6.25-3.89s2.86-1.53,5.75-3.39c2.88-1.86,11.32-6.42,18.75-10.13,7.42-3.7,16.87-8.03,21-9.62,4.12-1.59,13.57-4.68,21-6.87,7.42-2.19,14.85-4.41,16.5-4.93s9.07-2.1,16.5-3.49c8.75-1.65,13.85-2.2,14.5-1.57.55.53.77,1.16.5,1.39-.28.23-1.85.66-3.5.96s-5.93,1.04-9.5,1.65c-3.58.62-11,2.2-16.5,3.52-5.5,1.33-14.28,3.74-19.5,5.37-5.23,1.64-14,4.74-19.5,6.91s-14.73,6.3-20.5,9.19c-5.78,2.89-15,7.92-20.5,11.18s-13.63,8.27-18.06,11.13-11.18,7.44-15,10.19c-3.82,2.74-9,6.56-11.51,8.5-2.52,1.93-8.82,6.91-14,11.06-5.19,4.16-10.21,8.66-11.17,10-1.55,2.19-1.58,2.68-.25,4.7.82,1.24,1.5,3.26,1.52,4.5s-.81,3.38-1.85,4.75c-1.04,1.38-4.2,4.41-7.03,6.75-4.26,3.51-5.5,4.08-7.15,3.25-1.1-.55-3.02-1.49-4.25-2.08-1.94-.93-2.74-.61-5.75,2.31-1.93,1.87-5.3,4.68-7.5,6.26s-6.93,5.43-10.5,8.56c-3.58,3.12-8.53,8.23-11,11.36-2.48,3.12-4.84,5.66-5.25,5.64-.42-.03-.75-.73-.75-1.55s1.43-3.41,3.18-5.75,8.18-9.2,14.29-15.25c6.22-6.16,12.97-11.88,15.35-13,2.33-1.1,4.22-2.56,4.21-3.25-.02-.69-.37-1.25-.78-1.24-.42,0-11.1,5.12-23.75,11.38-16.71,8.26-25.06,13.01-30.5,17.37-4.13,3.29-9.42,8.07-11.75,10.61-2.34,2.55-4.25,4.07-4.25,3.38s3.83-5.19,8.5-10,9.06-8.76,9.75-8.77c.68,0,2.37-1.09,3.75-2.4,1.37-1.32,5.08-3.78,8.25-5.49,3.16-1.7,6.2-3.09,6.75-3.09s3.58-1.57,6.75-3.5c3.16-1.92,6.65-3.48,7.75-3.45,1.1.02,2.67-.68,3.5-1.55.82-.87,1.83-1.57,2.25-1.54.41.02,2.1-.86,3.75-1.96s2.88-2.23,2.75-2.51c-.14-.27-4.53-.03-9.75.55-5.23.58-14.23,1.97-20,3.09-5.78,1.12-16.8,4.09-24.5,6.61-7.7,2.51-19.18,6.79-25.5,9.5-6.33,2.71-12.8,5.14-14.39,5.39-2.07.33-2.75.1-2.42-.83h0c.26-.72,1.11-1.32,1.89-1.35s4.45-1.49,8.17-3.25c3.71-1.76,7.2-3.2,7.75-3.2s2.01-.64,3.25-1.43c1.23-.79,9.22-3.75,17.75-6.58,8.52-2.83,18.2-5.76,21.5-6.52,3.3-.76,10.95-2.12,17-3.02,6.05-.91,14.72-1.71,19.28-1.8,6.15-.11,8.53-.54,9.23-1.65.53-.82.96-2.06.97-2.75.01-.7-2.09-1.67-4.73-2.2-2.62-.53-7.9-1.44-11.75-2.04-3.85-.59-14.65-1.17-24-1.29s-22.63-.04-29.5.19c-6.94.22-12.73,0-13-.5-.28-.5,2.87-1.22,7-1.6,4.12-.37,15.82-.9,26-1.16,11.68-.3,23.1,0,31,.84,6.87.72,14.41,2.03,16.75,2.91,2.96,1.11,4.7,1.3,5.75.6,1.2-.8-.16-2.23-6.88-7.25-4.6-3.44-13.24-10.3-19.18-15.25-5.95-4.95-13.88-11.93-17.63-15.5-3.75-3.57-6.59-6.61-6.32-6.75.28-.14,4.83,3.46,10.12,8s13.05,11.21,17.25,14.82,11.01,9.12,15.14,12.25c4.12,3.12,7.64,5.56,7.81,5.43.17-.14-.17-6.1-.75-13.25-.59-7.15-1.3-23.8-1.59-37-.3-13.2-.76-25.57-1.03-27.5-.34-2.48-.21-3.06.48-2,.53.82,1.21,6.23,1.52,12,.3,5.77,1.02,17.93,1.59,27,.58,9.07,1.48,21.68,2,28,.51,6.32.94,11.84.95,12.25s.69.75,1.52.75,2.52-2.3,3.85-5.25c1.29-2.89,3.58-9.3,5.08-14.25,1.51-4.95,4.16-13.13,5.9-18.18,1.85-5.37,3.58-8.9,4.17-8.51.59.4.69.16.25-.57-.42-.68.16-3.6,1.27-6.49s2.49-5.48,3.06-5.75,1.24-2.07,1.48-4c.25-1.93.9-3.61,1.44-3.75.55-.14,1.22-1.82,1.5-3.75.27-1.93.95-3.5,1.5-3.5s.72,1.01.38,2.25-2.28,6.52-4.33,11.75c-2.04,5.23-6.08,16.93-8.98,26-2.9,9.07-6.46,19.86-7.92,23.97-1.46,4.11-2.77,7.82-2.9,8.25-.14.43.42.78,1.25.78s4.12-4.47,7.5-10.25c3.3-5.64,8.42-14.07,11.38-18.75s6.06-9.18,6.89-10c.84-.82,2.58-3.47,3.87-5.88,1.3-2.41,3.03-4.76,3.86-5.22.82-.46,1.16-.85.75-.87-.42-.02.25-1.49,1.47-3.28s2.57-3.7,2.99-4.25c.42-.55,2.24-2.76,4.03-4.92,1.79-2.15,4.04-4.74,5.01-5.75.96-1.01,1.75-2.28,1.75-2.83s.45-.77,1-.5,1.31-.51,1.68-1.75c.38-1.24,2.07-3.7,3.75-5.47,1.69-1.77,3.63-3.91,4.32-4.75.68-.84,1.23-1.87,1.22-2.28-.02-.41,1.11-1.31,2.5-2s2.85-2.04,3.24-3c.4-.96,2.53-3.58,4.75-5.82s6.29-6.6,9.04-9.69c2.75-3.09,5.11-5.42,5.25-5.18h0Z"/>
  <path class="st1" d="M317.4,200.02c.87,2.06,2.04,3.98,2.59,4.25s1,.27,1,0-1.11-3.54-2.45-7.25c-1.35-3.71-4.16-9.9-6.26-13.75-2.09-3.85-4.88-10.15-6.2-14s-3.86-10.6-5.65-15-4.16-11.15-5.28-15c-1.11-3.85-2.73-7.58-3.59-8.28-.87-.7-1.54-.93-1.51-.5h0c.04.43,1.86,6.18,4.05,12.78s4.35,12.45,4.8,13c.45.55,1.81,4.15,3.03,8,1.21,3.85,4.83,12.63,8.05,19.5,3.21,6.88,6.55,14.19,7.42,16.25h0Z"/>
  <path class="st0" d="M317.4,200.02c.87,2.06,2.04,3.98,2.59,4.25s1,.27,1,0-1.11-3.54-2.45-7.25c-1.35-3.71-4.16-9.9-6.26-13.75-2.09-3.85-4.88-10.15-6.2-14s-3.86-10.6-5.65-15-4.16-11.15-5.28-15c-1.11-3.85-2.73-7.58-3.59-8.28-.87-.7-1.54-.93-1.51-.5h0c.04.43,1.86,6.18,4.05,12.78s4.35,12.45,4.8,13c.45.55,1.81,4.15,3.03,8,1.21,3.85,4.83,12.63,8.05,19.5,3.21,6.88,6.55,14.19,7.42,16.25h0Z"/>
  <path class="st1" d="M449.98,163.27c.04-.55-.73-.25-1.71.68-.98.92-4.48,3-7.78,4.61-3.3,1.62-7.35,3.26-9,3.66s-7.5,2.75-13,5.23c-5.5,2.47-15.17,6.99-21.5,10.05-6.33,3.05-13.97,7.45-17,9.78-3.03,2.32-7.41,6.31-9.75,8.86-2.34,2.54-4.25,4.97-4.25,5.38s-1.72,2.55-3.84,4.75c-2.11,2.2-8.3,7-13.75,10.67s-13.06,7.93-16.91,9.46-8.8,3.8-11,5.05c-2.2,1.24-7.15,4.7-11,7.7-3.85,2.99-12.85,9.41-20,14.27-7.15,4.85-17.95,12.65-23.99,17.33-6.05,4.69-12.35,9.5-14,10.69-1.66,1.19-5.93,3.98-9.51,6.2s-11,5.81-16.5,7.97c-5.5,2.17-12.25,4.71-15,5.64-2.75.93-7.56,3.57-10.69,5.86s-5.74,4.61-5.8,5.16c-.05.55-1.31,2.42-2.8,4.15-1.49,1.73-4.85,6.12-7.46,9.75s-4.75,6.83-4.75,7.1h0c0,.28.67.5,1.5.5s2.01-1.01,2.64-2.25,3.94-5.85,7.35-10.25c3.42-4.4,8.64-9.9,11.61-12.23,3.78-2.96,8.85-5.46,16.9-8.33,6.33-2.25,14.65-5.56,18.5-7.36,3.93-1.83,15.14-9.37,25.53-17.17,10.19-7.65,21.89-16.15,26-18.88,4.11-2.74,12.87-9.05,19.47-14.04s14.02-10.01,16.5-11.16c2.47-1.15,8.33-3.92,13-6.15,4.67-2.24,10.95-5.78,13.94-7.87,3-2.1,7.95-6.34,11-9.43,3.06-3.09,7.81-8.23,10.56-11.42s7.47-7.39,10.5-9.32,9.33-5.48,14-7.9c4.67-2.41,12.33-5.98,17-7.92,4.67-1.95,13.22-5.42,19-7.71,5.78-2.3,12.43-5.74,14.78-7.64,2.35-1.91,4.28-3.92,4.29-4.47s-.7-.32-1.57.5-1.55,1.05-1.51.5h0Z"/>
  <path class="st0" d="M449.98,163.27c.04-.55-.73-.25-1.71.68-.98.92-4.48,3-7.78,4.61-3.3,1.62-7.35,3.26-9,3.66s-7.5,2.75-13,5.23c-5.5,2.47-15.17,6.99-21.5,10.05-6.33,3.05-13.97,7.45-17,9.78-3.03,2.32-7.41,6.31-9.75,8.86-2.34,2.54-4.25,4.97-4.25,5.38s-1.72,2.55-3.84,4.75c-2.11,2.2-8.3,7-13.75,10.67s-13.06,7.93-16.91,9.46-8.8,3.8-11,5.05c-2.2,1.24-7.15,4.7-11,7.7-3.85,2.99-12.85,9.41-20,14.27-7.15,4.85-17.95,12.65-23.99,17.33-6.05,4.69-12.35,9.5-14,10.69-1.66,1.19-5.93,3.98-9.51,6.2s-11,5.81-16.5,7.97c-5.5,2.17-12.25,4.71-15,5.64-2.75.93-7.56,3.57-10.69,5.86s-5.74,4.61-5.8,5.16c-.05.55-1.31,2.42-2.8,4.15-1.49,1.73-4.85,6.12-7.46,9.75s-4.75,6.83-4.75,7.1h0c0,.28.67.5,1.5.5s2.01-1.01,2.64-2.25,3.94-5.85,7.35-10.25c3.42-4.4,8.64-9.9,11.61-12.23,3.78-2.96,8.85-5.46,16.9-8.33,6.33-2.25,14.65-5.56,18.5-7.36,3.93-1.83,15.14-9.37,25.53-17.17,10.19-7.65,21.89-16.15,26-18.88,4.11-2.74,12.87-9.05,19.47-14.04s14.02-10.01,16.5-11.16c2.47-1.15,8.33-3.92,13-6.15,4.67-2.24,10.95-5.78,13.94-7.87,3-2.1,7.95-6.34,11-9.43,3.06-3.09,7.81-8.23,10.56-11.42s7.47-7.39,10.5-9.32,9.33-5.48,14-7.9c4.67-2.41,12.33-5.98,17-7.92,4.67-1.95,13.22-5.42,19-7.71,5.78-2.3,12.43-5.74,14.78-7.64,2.35-1.91,4.28-3.92,4.29-4.47s-.7-.32-1.57.5-1.55,1.05-1.51.5h0Z"/>
  <path class="st1" d="M359.99,17.2c-6.33.04-12.85-.22-14.5-.57s-6.38-1.87-10.5-3.37c-4.13-1.5-9.75-3.35-12.5-4.12-2.75-.76-7.14-1.38-9.75-1.37-2.61,0-8.01.48-12,1.06-3.99.58-11.53,2.43-16.75,4.1-5.23,1.68-18.05,7.34-28.5,12.59-10.45,5.24-20.35,9.95-22,10.46-1.65.5-8.4,1.28-15,1.72-8.29.55-13.24,1.38-16,2.68-2.2,1.04-5.8,3.16-8,4.73-2.2,1.56-7.55,6.74-11.9,11.5-4.34,4.76-9.58,10.91-11.64,13.66s-4.62,5.9-5.7,7-3.6,3.46-5.61,5.25-6.91,5.36-10.9,7.95c-3.99,2.58-11.08,6.47-15.75,8.65-6.3,2.94-10.26,5.67-15.29,10.56-4.15,4.03-8.58,9.7-11.4,14.59-2.53,4.4-6.52,10.7-8.86,14-2.35,3.3-7.01,8.81-10.36,12.25-4.47,4.58-8.16,7.22-13.84,9.88-4.26,1.99-10.9,5.68-14.75,8.2s-10.38,7.99-14.5,12.16l-7.5,7.57c-2.9,15.45-4.4,21.51-5.2,23.44-.79,1.93-3.55,5.53-6.12,8.01-2.57,2.49-6.17,7.44-7.99,11-2.83,5.54-3.24,7.22-2.81,11.49.28,2.75.79,7.7,1.13,11,.5,4.74.18,7.26-1.51,12-1.18,3.3-3.01,9.37-4.08,13.5-1.07,4.12-1.89,8.85-1.83,10.5h0c.06,1.65.54,4.8,1.07,7,.52,2.2,1.9,6.25,3.06,9,1.16,2.75,3.1,6.35,4.32,8,1.22,1.65,4.11,6.83,6.41,11.5,2.31,4.68,5.63,10.25,7.38,12.39,1.74,2.14,6.09,5.99,9.67,8.56s7.85,5.4,9.5,6.29,6.3,3.11,10.34,4.94c5.34,2.41,8.36,4.55,11.05,7.82,2.3,2.79,5.96,5.61,9.66,7.42,5.35,2.62,6.45,2.83,10.95,2.02,2.75-.5,9.5-.86,15-.81,7.33.06,11.33.61,15,2.03,2.75,1.06,7.62,3.71,10.81,5.89,3.2,2.17,6.63,4.4,7.62,4.95,1,.55,2.66,1.76,3.69,2.68,1.03.92,4.92,3.06,8.63,4.75,5.39,2.45,8.11,3.07,13.5,3.08,3.71.01,10.35-.91,14.75-2.03,4.8-1.22,10.8-3.72,15-6.23,3.85-2.31,9.02-5.22,11.5-6.47,2.47-1.25,6.3-3.4,8.5-4.78s5.58-3.35,7.5-4.38,4.17-2.62,5-3.54,1.84-1.65,2.25-1.62c.41.02,2.66-1.43,5-3.23s6.95-4.8,10.25-6.68,7.35-3.76,9-4.16c1.65-.41,7.5-2.36,13-4.34,5.5-1.98,11.12-4.64,12.5-5.92,1.37-1.27,4.75-3.55,7.5-5.06,2.75-1.5,8.37-3.85,12.5-5.2,4.12-1.36,7.72-2.85,8-3.3.27-.45,3.54-2.22,7.25-3.94s7.65-2.9,8.75-2.63c1.1.28,2,.05,2-.5s.56-1.01,1.25-1.03c.69-.01,2.05-.8,3.02-1.75,1.45-1.4,2-1.48,3-.42.94.99,1.23,12.91,1.23,50,0,26.78-.34,50.39-.75,52.45-.6,3-.45,3.75.75,3.75s1.5,1.76,1.51,9.75c.01,5.36.27,10.65.57,11.75.47,1.71-.42,3.56-.42,3.56,0,0,.45,1.29,3.2,1.29,2.75-.01,3.95.1,6.15-.54,2.2-.63,4.67-1.71,5.5-2.39.83-.68,3.75-1.94,6.5-2.8.41-1.81-1.5-2.12-1.51-6.37,0-2.61-.65-12.4-1.43-21.75-.79-9.35-1.72-20.82-2.07-25.5s-.83-8.84-1.06-9.25c-.24-.41-.43-19.65-.43-42.75,0-32.22.29-42.31,1.25-43.33.69-.73,3.31-3.09,5.84-5.25,2.52-2.16,6.12-5.14,8-6.62,1.87-1.49,5.88-4.6,8.91-6.91s21.4-20.22,40.83-39.8c23.35-23.53,36.1-37.11,37.62-40.09,1.27-2.48,4.16-6.19,6.43-8.25,2.26-2.06,5.81-4.79,7.87-6.06,2.06-1.26,9.6-4.69,16.75-7.61s17.72-7.58,23.5-10.35,12.97-6.87,16-9.11,6.83-5.44,8.45-7.1,3.87-5.04,5-7.52c1.61-3.53,2.05-6.55,2.05-14,0-7.83-.4-10.29-2.24-14-1.23-2.48-4.13-7.43-6.43-11-4.11-6.35-4.22-6.76-4.88-17.5-.36-6.05-1.47-13.7-2.46-17-.98-3.3-4.24-10.73-7.24-16.5s-6.84-12.52-8.53-15-6.25-7.66-10.14-11.52c-3.9-3.86-9.33-8.19-12.08-9.61-2.75-1.43-7.47-3.32-10.5-4.19s-7.75-1.43-10.5-1.23c-2.75.19-5.9.58-7,.86s-4.03,1.03-6.5,1.67-8.1.98-12.5.76c-6.12-.3-10.47-1.31-18.5-4.26l-10.5-3.86c-11.63,2.01-20.17,4.43-26.5,6.67-10.82,3.83-12.18,4.08-23,4.14h-.01ZM261.98,347.52c0,.41-2.59,1.58-5.75,2.59s-8.66,3.62-12.24,5.8c-3.58,2.17-11.33,7.19-17.23,11.15-5.9,3.97-12.65,8.43-15,9.93-2.35,1.49-4.61,2.73-5.02,2.75-.41.01-.75-.42-.75-.97s2.14-4.12,4.75-7.94c2.61-3.81,6.55-8.82,8.75-11.12,2.2-2.31,6.02-5.54,8.5-7.19,2.47-1.64,5.74-3.61,7.25-4.37,1.88-.94,6.53-1.38,14.75-1.38,6.6,0,12,.34,11.99.75h0ZM318.24,321.78c-.69-.01-3.39,1-6,2.24-2.62,1.24-5.2,2.79-5.75,3.45-.55.67-2.24,1.68-3.75,2.25-1.52.58-3.2,1.05-3.75,1.05s-1-.22-1-.5.59-1.06,1.32-1.75,5.35-5.19,10.25-10c7.81-7.66,9.8-9.05,15.93-11.19,3.85-1.34,7.07-2.36,7.15-2.25.09.1-.13,2.33-.5,4.95-.36,2.62-.99,4.76-1.4,4.75-.42,0-3.12,1.57-6,3.5-2.89,1.92-5.82,3.5-6.5,3.5ZM353.74,272c-.96.31-1.76.5-1.77.42-.01-.08.44-1.61,1-3.4.6-1.9,2.16-3.83,3.77-4.65,1.51-.78,5.54-2.01,8.94-2.75,3.41-.74,6.46-1.12,6.78-.85.33.27-.88,2.28-2.69,4.46-1.8,2.18-4.98,5.78-7.06,8s-3.78,4.26-3.78,4.54-1.77,2.53-7.87,9.5l-.3-4c-.17-2.2.1-4.9.59-6s1.63-2.86,2.52-3.92c1.5-1.78,1.49-1.88-.13-1.35ZM347.2,272.48c.43,1.71.09,4.72-.9,7.79-.89,2.75-1.93,5.45-2.31,6-.39.55-2.01,4.5-3.6,8.78-1.6,4.28-3.04,7.74-3.21,7.69-.17-.05-.14-4.91.06-10.78.21-5.88.77-11.37,1.25-12.19s2.48-3.43,8-10.07l.71,2.78ZM334.38,294.02c-.49,5.76-1.06,7.59-2.75,8.93-1.18.92-3.62,1.95-5.42,2.27-1.8.33-3.49.29-3.75-.09s.13-1.63.87-2.78c.74-1.14,3.32-5.23,5.74-9.08,2.41-3.85,4.73-6.88,5.15-6.75.43.14.49,3.51.16,7.5h0ZM349,389.27c-.05,5.5.32,10.45.82,11,.49.55,1.43,7.97,2.08,16.5.66,8.53,1.46,17.53,1.78,20,.5,3.87.25,4.82-1.8,6.77-1.32,1.26-3.97,2.76-5.89,3.35h0c-3.25,1-3.65.88-5.67-1.77-1.98-2.61-2.17-4.08-2.25-17.35-.07-12.86.25-15.75,2.78-25.5,1.56-6.05,3.7-13.31,4.74-16.14,1.05-2.82,2.26-5.52,2.69-6,.44-.47.76,3.64.72,9.14h0ZM348,330.77c.06,3.57.05,14.37-.17,41.5l-4.5,13.5c-2.48,7.43-4.71,13.72-4.95,14-.25.28-.42-8.05-.4-18.5.03-12.21.58-22.04,1.54-27.5.82-4.68,2.13-10.97,2.9-14s2.32-7.75,5.46-15.5l.12,6.5h0ZM348.02,300.27c-.01,9.83-.47,15.49-1.56,19-.85,2.75-2.42,7.7-3.47,11s-2.49,8.03-4.46,15l-.52-6.5c-.29-3.57-.48-9.43-.42-13,.05-3.57.64-9.43,1.3-13,.67-3.57,1.33-7.18,1.47-8,.15-.82.82-2.85,1.49-4.5.67-1.65,1.95-5.02,2.85-7.5.89-2.47,2-4.95,2.47-5.5.48-.56.85,5.18.85,13ZM403.76,248.08c.4.45-1.97,3.27-5.27,6.28s-6.34,5.45-6.75,5.44c-.41-.02-.77.53-.79,1.22-.02.69-3.29,4.31-7.25,8.06-3.97,3.75-9.8,8.81-12.96,11.25s-6.09,4.44-6.5,4.44c-.41-.01-1.31.89-2,2-.69,1.1-1.93,2-2.75,2s-1.71.79-1.96,1.75-1.71,2.33-3.25,3.05h0c-2.28,1.06-2.92,1.06-3.52,0-.41-.72-.75-1.64-.75-2.05-.01-.41,1.28-2.21,2.86-4s6.45-7.53,10.82-12.75c4.37-5.23,8.66-10.62,9.55-12,1.12-1.74,2.91-2.72,5.92-3.24,2.38-.41,7.25-2.18,10.83-3.93,3.57-1.75,7.97-4.34,9.77-5.76,1.81-1.41,3.61-2.2,4-1.76h0ZM436.24,215.17c-.42.77-6.27,7.05-13,13.95-6.74,6.91-12.25,12.35-12.25,12.1s1.63-2.59,3.62-5.2,4.91-7.34,6.5-10.5c2.15-4.29,4.08-6.51,7.63-8.76,2.61-1.66,5.53-3.01,6.5-3,1.18,0,1.51.46,1,1.41h0ZM438.49,19.42c5.43-.31,11.38-1.37,15-2.65,4.92-1.75,7.54-2.06,14.5-1.67,6.9.38,9.63,1.04,14.5,3.51,3.3,1.67,8.92,5.91,12.5,9.42,3.58,3.5,6.99,7.02,7.59,7.81.59.79,2.87,4.36,5.06,7.93s5.64,10.66,7.66,15.75c3.4,8.51,3.75,10.39,5.28,37.75l4.46,7.38c2.45,4.06,5.07,7.88,5.82,8.5s1.99,2.36,2.75,3.87,1.39,4.66,1.41,7c.02,2.98-1.18,6.72-4,12.5-2.22,4.54-4.93,8.7-6.03,9.25-1.1.55-2,1.45-2,2s-1.69,2.58-3.75,4.5c-2.06,1.93-7.13,5.62-11.25,8.21-4.13,2.59-10.88,6.11-15,7.82-4.13,1.71-13.28,6.01-20.34,9.54-7.06,3.54-14.48,7.84-16.5,9.57-2.01,1.73-4.4,4.65-5.31,6.5s-2.58,5.38-3.7,7.86c-1.63,3.6-3,4.96-6.84,6.77-2.65,1.25-7.51,2.94-10.81,3.76-4.42,1.1-6.75,2.35-8.85,4.73-1.57,1.78-3.46,4.59-4.19,6.24-.73,1.65-5.52,7.29-10.64,12.54-6.07,6.22-12.11,11.24-17.32,14.4-7.24,4.41-8.76,4.93-16,5.54-5.81.5-10.06,1.59-15.5,3.99-4.13,1.82-9.08,4.3-11,5.52s-6.2,4.88-9.5,8.12c-3.71,3.64-8.07,9.52-11.43,15.39-2.99,5.23-6.58,11.07-7.98,13-1.4,1.93-4.43,5.75-6.73,8.5-2.31,2.75-7.04,7.36-10.53,10.24-3.48,2.89-8.81,6.62-11.83,8.29-3.03,1.68-7.3,3.91-9.5,4.95s-8.28,3-13.5,4.36c-5.23,1.35-12.2,2.45-15.5,2.42-3.31-.02-9.14.9-13,2.05-4.7,1.41-9.62,3.95-15,7.76-4.4,3.11-9.28,6.85-10.86,8.3-1.57,1.45-4.71,5.33-6.97,8.63-2.27,3.3-4.93,7.57-5.91,9.5-1.02,2.02-3.99,4.94-7.02,6.91-3.03,1.98-8.4,4.2-12.74,5.27-4.13,1.02-10.65,1.84-14.5,1.83-5.92-.03-8.24-.6-15-3.71-4.4-2.02-9.35-4.63-11-5.79-1.65-1.17-5.25-3.5-8-5.18-2.83-1.73-8.47-3.82-13-4.83-6.38-1.42-10.13-1.64-18.5-1.08-5.78.39-12.3.37-14.5-.04-3.15-.6-5.37-2.18-10.5-7.48-4.48-4.64-8.52-7.68-13-9.81-3.58-1.7-6.95-3.07-7.5-3.06-.55.02-4.38-2.17-8.5-4.86-4.13-2.68-8.47-5.96-9.67-7.28-1.19-1.31-3.35-5.09-4.81-8.39-1.45-3.3-3.74-7.46-5.08-9.25s-2.44-3.47-2.44-3.75-1.8-3.31-3.99-6.75c-2.99-4.69-4.12-7.63-4.53-11.75h0c-.29-3.02-.92-6.62-1.4-8-.48-1.37-.92-2.72-.99-3-.06-.27.82-3.65,1.96-7.5,1.15-3.85,2.95-9.36,4.02-12.25,1.06-2.89,1.93-6.71,1.92-8.5,0-1.79-.53-5.95-1.16-9.25-.89-4.62-.87-7.04.06-10.5.79-2.91,3.86-7.86,8.68-14,4.11-5.23,8.36-11.19,9.45-13.25s2.36-6.79,2.82-10.5,1.77-8.77,2.92-11.25,4.94-7.21,8.42-10.52c4.88-4.66,9.57-7.68,20.57-13.25,12.54-6.36,15.06-8.08,21-14.3,3.71-3.88,8.16-9.17,9.89-11.75,1.72-2.57,4.59-7.38,6.38-10.68s4.25-7.57,5.48-9.5c1.22-1.93,4.65-5.74,7.61-8.47,3.6-3.32,8.88-6.59,15.89-9.86,5.77-2.69,13.2-6.72,16.5-8.94s7.93-5.88,10.3-8.13c2.36-2.26,6.68-7.25,9.6-11.1,2.92-3.85,8.47-9.93,12.33-13.5s10.11-8.35,13.9-10.61c3.78-2.26,9.01-4.85,11.62-5.75s7.11-1.64,10-1.63,7.5-.65,10.25-1.45c2.75-.81,12.42-5.03,21.5-9.39s19.65-9.34,23.5-11.07c3.85-1.73,11.5-4.28,17-5.66,5.5-1.37,13.15-2.74,17-3.04,4.72-.36,8.63-.05,12,.95,2.75.82,10.17,3.32,16.5,5.56,11.04,3.91,11.98,4.08,23.5,4.05,6.6-.01,15.15-.42,19-.91s10.6-2.05,15-3.47c4.94-1.6,10.29-2.59,14-2.6,4.13,0,8.02.81,12.5,2.59,5.81,2.32,7.45,2.54,15.5,2.08h0Z"/>
  <path class="st0" d="M359.99,17.2c-6.33.04-12.85-.22-14.5-.57s-6.38-1.87-10.5-3.37c-4.13-1.5-9.75-3.35-12.5-4.12-2.75-.76-7.14-1.38-9.75-1.37-2.61,0-8.01.48-12,1.06-3.99.58-11.53,2.43-16.75,4.1-5.23,1.68-18.05,7.34-28.5,12.59-10.45,5.24-20.35,9.95-22,10.46-1.65.5-8.4,1.28-15,1.72-8.29.55-13.24,1.38-16,2.68-2.2,1.04-5.8,3.16-8,4.73-2.2,1.56-7.55,6.74-11.9,11.5-4.34,4.76-9.58,10.91-11.64,13.66s-4.62,5.9-5.7,7-3.6,3.46-5.61,5.25-6.91,5.36-10.9,7.95c-3.99,2.58-11.08,6.47-15.75,8.65-6.3,2.94-10.26,5.67-15.29,10.56-4.15,4.03-8.58,9.7-11.4,14.59-2.53,4.4-6.52,10.7-8.86,14-2.35,3.3-7.01,8.81-10.36,12.25-4.47,4.58-8.16,7.22-13.84,9.88-4.26,1.99-10.9,5.68-14.75,8.2s-10.38,7.99-14.5,12.16l-7.5,7.57c-2.9,15.45-4.4,21.51-5.2,23.44-.79,1.93-3.55,5.53-6.12,8.01-2.57,2.49-6.17,7.44-7.99,11-2.83,5.54-3.24,7.22-2.81,11.49.28,2.75.79,7.7,1.13,11,.5,4.74.18,7.26-1.51,12-1.18,3.3-3.01,9.37-4.08,13.5-1.07,4.12-1.89,8.85-1.83,10.5h0c.06,1.65.54,4.8,1.07,7,.52,2.2,1.9,6.25,3.06,9,1.16,2.75,3.1,6.35,4.32,8,1.22,1.65,4.11,6.83,6.41,11.5,2.31,4.68,5.63,10.25,7.38,12.39,1.74,2.14,6.09,5.99,9.67,8.56s7.85,5.4,9.5,6.29,6.3,3.11,10.34,4.94c5.34,2.41,8.36,4.55,11.05,7.82,2.3,2.79,5.96,5.61,9.66,7.42,5.35,2.62,6.45,2.83,10.95,2.02,2.75-.5,9.5-.86,15-.81,7.33.06,11.33.61,15,2.03,2.75,1.06,7.62,3.71,10.81,5.89,3.2,2.17,6.63,4.4,7.62,4.95,1,.55,2.66,1.76,3.69,2.68,1.03.92,4.92,3.06,8.63,4.75,5.39,2.45,8.11,3.07,13.5,3.08,3.71.01,10.35-.91,14.75-2.03,4.8-1.22,10.8-3.72,15-6.23,3.85-2.31,9.02-5.22,11.5-6.47,2.47-1.25,6.3-3.4,8.5-4.78s5.58-3.35,7.5-4.38,4.17-2.62,5-3.54,1.84-1.65,2.25-1.62c.41.02,2.66-1.43,5-3.23s6.95-4.8,10.25-6.68,7.35-3.76,9-4.16c1.65-.41,7.5-2.36,13-4.34,5.5-1.98,11.12-4.64,12.5-5.92,1.37-1.27,4.75-3.55,7.5-5.06,2.75-1.5,8.37-3.85,12.5-5.2,4.12-1.36,7.72-2.85,8-3.3.27-.45,3.54-2.22,7.25-3.94s7.65-2.9,8.75-2.63c1.1.28,2,.05,2-.5s.56-1.01,1.25-1.03c.69-.01,2.05-.8,3.02-1.75,1.45-1.4,2-1.48,3-.42.94.99,1.23,12.91,1.23,50,0,26.78-.34,50.39-.75,52.45-.6,3-.45,3.75.75,3.75s1.5,1.76,1.51,9.75c.01,5.36.27,10.65.57,11.75.47,1.71-.42,3.56-.42,3.56,0,0,.45,1.29,3.2,1.29,2.75-.01,3.95.1,6.15-.54,2.2-.63,4.67-1.71,5.5-2.39.83-.68,3.75-1.94,6.5-2.8.41-1.81-1.5-2.12-1.51-6.37,0-2.61-.65-12.4-1.43-21.75-.79-9.35-1.72-20.82-2.07-25.5s-.83-8.84-1.06-9.25c-.24-.41-.43-19.65-.43-42.75,0-32.22.29-42.31,1.25-43.33.69-.73,3.31-3.09,5.84-5.25,2.52-2.16,6.12-5.14,8-6.62,1.87-1.49,5.88-4.6,8.91-6.91s21.4-20.22,40.83-39.8c23.35-23.53,36.1-37.11,37.62-40.09,1.27-2.48,4.16-6.19,6.43-8.25,2.26-2.06,5.81-4.79,7.87-6.06,2.06-1.26,9.6-4.69,16.75-7.61s17.72-7.58,23.5-10.35,12.97-6.87,16-9.11,6.83-5.44,8.45-7.1,3.87-5.04,5-7.52c1.61-3.53,2.05-6.55,2.05-14,0-7.83-.4-10.29-2.24-14-1.23-2.48-4.13-7.43-6.43-11-4.11-6.35-4.22-6.76-4.88-17.5-.36-6.05-1.47-13.7-2.46-17-.98-3.3-4.24-10.73-7.24-16.5s-6.84-12.52-8.53-15-6.25-7.66-10.14-11.52c-3.9-3.86-9.33-8.19-12.08-9.61-2.75-1.43-7.47-3.32-10.5-4.19s-7.75-1.43-10.5-1.23c-2.75.19-5.9.58-7,.86s-4.03,1.03-6.5,1.67-8.1.98-12.5.76c-6.12-.3-10.47-1.31-18.5-4.26l-10.5-3.86c-11.63,2.01-20.17,4.43-26.5,6.67-10.82,3.83-12.18,4.08-23,4.14h-.01ZM261.98,347.52c0,.41-2.59,1.58-5.75,2.59s-8.66,3.62-12.24,5.8c-3.58,2.17-11.33,7.19-17.23,11.15-5.9,3.97-12.65,8.43-15,9.93-2.35,1.49-4.61,2.73-5.02,2.75-.41.01-.75-.42-.75-.97s2.14-4.12,4.75-7.94c2.61-3.81,6.55-8.82,8.75-11.12,2.2-2.31,6.02-5.54,8.5-7.19,2.47-1.64,5.74-3.61,7.25-4.37,1.88-.94,6.53-1.38,14.75-1.38,6.6,0,12,.34,11.99.75h0ZM318.24,321.78c-.69-.01-3.39,1-6,2.24-2.62,1.24-5.2,2.79-5.75,3.45-.55.67-2.24,1.68-3.75,2.25-1.52.58-3.2,1.05-3.75,1.05s-1-.22-1-.5.59-1.06,1.32-1.75,5.35-5.19,10.25-10c7.81-7.66,9.8-9.05,15.93-11.19,3.85-1.34,7.07-2.36,7.15-2.25.09.1-.13,2.33-.5,4.95-.36,2.62-.99,4.76-1.4,4.75-.42,0-3.12,1.57-6,3.5-2.89,1.92-5.82,3.5-6.5,3.5ZM353.74,272c-.96.31-1.76.5-1.77.42-.01-.08.44-1.61,1-3.4.6-1.9,2.16-3.83,3.77-4.65,1.51-.78,5.54-2.01,8.94-2.75,3.41-.74,6.46-1.12,6.78-.85.33.27-.88,2.28-2.69,4.46-1.8,2.18-4.98,5.78-7.06,8s-3.78,4.26-3.78,4.54-1.77,2.53-7.87,9.5l-.3-4c-.17-2.2.1-4.9.59-6s1.63-2.86,2.52-3.92c1.5-1.78,1.49-1.88-.13-1.35ZM347.2,272.48c.43,1.71.09,4.72-.9,7.79-.89,2.75-1.93,5.45-2.31,6-.39.55-2.01,4.5-3.6,8.78-1.6,4.28-3.04,7.74-3.21,7.69-.17-.05-.14-4.91.06-10.78.21-5.88.77-11.37,1.25-12.19s2.48-3.43,8-10.07l.71,2.78ZM334.38,294.02c-.49,5.76-1.06,7.59-2.75,8.93-1.18.92-3.62,1.95-5.42,2.27-1.8.33-3.49.29-3.75-.09s.13-1.63.87-2.78c.74-1.14,3.32-5.23,5.74-9.08,2.41-3.85,4.73-6.88,5.15-6.75.43.14.49,3.51.16,7.5h0ZM349,389.27c-.05,5.5.32,10.45.82,11,.49.55,1.43,7.97,2.08,16.5.66,8.53,1.46,17.53,1.78,20,.5,3.87.25,4.82-1.8,6.77-1.32,1.26-3.97,2.76-5.89,3.35h0c-3.25,1-3.65.88-5.67-1.77-1.98-2.61-2.17-4.08-2.25-17.35-.07-12.86.25-15.75,2.78-25.5,1.56-6.05,3.7-13.31,4.74-16.14,1.05-2.82,2.26-5.52,2.69-6,.44-.47.76,3.64.72,9.14h0ZM348,330.77c.06,3.57.05,14.37-.17,41.5l-4.5,13.5c-2.48,7.43-4.71,13.72-4.95,14-.25.28-.42-8.05-.4-18.5.03-12.21.58-22.04,1.54-27.5.82-4.68,2.13-10.97,2.9-14s2.32-7.75,5.46-15.5l.12,6.5h0ZM348.02,300.27c-.01,9.83-.47,15.49-1.56,19-.85,2.75-2.42,7.7-3.47,11s-2.49,8.03-4.46,15l-.52-6.5c-.29-3.57-.48-9.43-.42-13,.05-3.57.64-9.43,1.3-13,.67-3.57,1.33-7.18,1.47-8,.15-.82.82-2.85,1.49-4.5.67-1.65,1.95-5.02,2.85-7.5.89-2.47,2-4.95,2.47-5.5.48-.56.85,5.18.85,13ZM403.76,248.08c.4.45-1.97,3.27-5.27,6.28s-6.34,5.45-6.75,5.44c-.41-.02-.77.53-.79,1.22-.02.69-3.29,4.31-7.25,8.06-3.97,3.75-9.8,8.81-12.96,11.25s-6.09,4.44-6.5,4.44c-.41-.01-1.31.89-2,2-.69,1.1-1.93,2-2.75,2s-1.71.79-1.96,1.75-1.71,2.33-3.25,3.05h0c-2.28,1.06-2.92,1.06-3.52,0-.41-.72-.75-1.64-.75-2.05-.01-.41,1.28-2.21,2.86-4s6.45-7.53,10.82-12.75c4.37-5.23,8.66-10.62,9.55-12,1.12-1.74,2.91-2.72,5.92-3.24,2.38-.41,7.25-2.18,10.83-3.93,3.57-1.75,7.97-4.34,9.77-5.76,1.81-1.41,3.61-2.2,4-1.76h0ZM436.24,215.17c-.42.77-6.27,7.05-13,13.95-6.74,6.91-12.25,12.35-12.25,12.1s1.63-2.59,3.62-5.2,4.91-7.34,6.5-10.5c2.15-4.29,4.08-6.51,7.63-8.76,2.61-1.66,5.53-3.01,6.5-3,1.18,0,1.51.46,1,1.41h0ZM438.49,19.42c5.43-.31,11.38-1.37,15-2.65,4.92-1.75,7.54-2.06,14.5-1.67,6.9.38,9.63,1.04,14.5,3.51,3.3,1.67,8.92,5.91,12.5,9.42,3.58,3.5,6.99,7.02,7.59,7.81.59.79,2.87,4.36,5.06,7.93s5.64,10.66,7.66,15.75c3.4,8.51,3.75,10.39,5.28,37.75l4.46,7.38c2.45,4.06,5.07,7.88,5.82,8.5s1.99,2.36,2.75,3.87,1.39,4.66,1.41,7c.02,2.98-1.18,6.72-4,12.5-2.22,4.54-4.93,8.7-6.03,9.25-1.1.55-2,1.45-2,2s-1.69,2.58-3.75,4.5c-2.06,1.93-7.13,5.62-11.25,8.21-4.13,2.59-10.88,6.11-15,7.82-4.13,1.71-13.28,6.01-20.34,9.54-7.06,3.54-14.48,7.84-16.5,9.57-2.01,1.73-4.4,4.65-5.31,6.5s-2.58,5.38-3.7,7.86c-1.63,3.6-3,4.96-6.84,6.77-2.65,1.25-7.51,2.94-10.81,3.76-4.42,1.1-6.75,2.35-8.85,4.73-1.57,1.78-3.46,4.59-4.19,6.24-.73,1.65-5.52,7.29-10.64,12.54-6.07,6.22-12.11,11.24-17.32,14.4-7.24,4.41-8.76,4.93-16,5.54-5.81.5-10.06,1.59-15.5,3.99-4.13,1.82-9.08,4.3-11,5.52s-6.2,4.88-9.5,8.12c-3.71,3.64-8.07,9.52-11.43,15.39-2.99,5.23-6.58,11.07-7.98,13-1.4,1.93-4.43,5.75-6.73,8.5-2.31,2.75-7.04,7.36-10.53,10.24-3.48,2.89-8.81,6.62-11.83,8.29-3.03,1.68-7.3,3.91-9.5,4.95s-8.28,3-13.5,4.36c-5.23,1.35-12.2,2.45-15.5,2.42-3.31-.02-9.14.9-13,2.05-4.7,1.41-9.62,3.95-15,7.76-4.4,3.11-9.28,6.85-10.86,8.3-1.57,1.45-4.71,5.33-6.97,8.63-2.27,3.3-4.93,7.57-5.91,9.5-1.02,2.02-3.99,4.94-7.02,6.91-3.03,1.98-8.4,4.2-12.74,5.27-4.13,1.02-10.65,1.84-14.5,1.83-5.92-.03-8.24-.6-15-3.71-4.4-2.02-9.35-4.63-11-5.79-1.65-1.17-5.25-3.5-8-5.18-2.83-1.73-8.47-3.82-13-4.83-6.38-1.42-10.13-1.64-18.5-1.08-5.78.39-12.3.37-14.5-.04-3.15-.6-5.37-2.18-10.5-7.48-4.48-4.64-8.52-7.68-13-9.81-3.58-1.7-6.95-3.07-7.5-3.06-.55.02-4.38-2.17-8.5-4.86-4.13-2.68-8.47-5.96-9.67-7.28-1.19-1.31-3.35-5.09-4.81-8.39-1.45-3.3-3.74-7.46-5.08-9.25s-2.44-3.47-2.44-3.75-1.8-3.31-3.99-6.75c-2.99-4.69-4.12-7.63-4.53-11.75h0c-.29-3.02-.92-6.62-1.4-8-.48-1.37-.92-2.72-.99-3-.06-.27.82-3.65,1.96-7.5,1.15-3.85,2.95-9.36,4.02-12.25,1.06-2.89,1.93-6.71,1.92-8.5,0-1.79-.53-5.95-1.16-9.25-.89-4.62-.87-7.04.06-10.5.79-2.91,3.86-7.86,8.68-14,4.11-5.23,8.36-11.19,9.45-13.25s2.36-6.79,2.82-10.5,1.77-8.77,2.92-11.25,4.94-7.21,8.42-10.52c4.88-4.66,9.57-7.68,20.57-13.25,12.54-6.36,15.06-8.08,21-14.3,3.71-3.88,8.16-9.17,9.89-11.75,1.72-2.57,4.59-7.38,6.38-10.68s4.25-7.57,5.48-9.5c1.22-1.93,4.65-5.74,7.61-8.47,3.6-3.32,8.88-6.59,15.89-9.86,5.77-2.69,13.2-6.72,16.5-8.94s7.93-5.88,10.3-8.13c2.36-2.26,6.68-7.25,9.6-11.1,2.92-3.85,8.47-9.93,12.33-13.5s10.11-8.35,13.9-10.61c3.78-2.26,9.01-4.85,11.62-5.75s7.11-1.64,10-1.63,7.5-.65,10.25-1.45c2.75-.81,12.42-5.03,21.5-9.39s19.65-9.34,23.5-11.07c3.85-1.73,11.5-4.28,17-5.66,5.5-1.37,13.15-2.74,17-3.04,4.72-.36,8.63-.05,12,.95,2.75.82,10.17,3.32,16.5,5.56,11.04,3.91,11.98,4.08,23.5,4.05,6.6-.01,15.15-.42,19-.91s10.6-2.05,15-3.47c4.94-1.6,10.29-2.59,14-2.6,4.13,0,8.02.81,12.5,2.59,5.81,2.32,7.45,2.54,15.5,2.08h0Z"/>
  <path class="st1" d="M414.49,99.51c-2.75,3.09-6.82,7.45-9.04,9.69-2.22,2.24-4.35,4.86-4.75,5.82-.39.96-1.85,2.31-3.24,3-1.39.69-2.52,1.59-2.5,2,.01.41-.54,1.44-1.22,2.28-.69.84-2.63,2.98-4.32,4.75-1.68,1.77-3.37,4.23-3.75,5.47-.37,1.24-1.13,2.02-1.68,1.75s-1-.05-1,.5-.79,1.82-1.75,2.83c-.97,1.01-3.22,3.6-5.01,5.75-1.79,2.16-3.61,4.37-4.03,4.92s-1.77,2.46-2.99,4.25-1.89,3.26-1.47,3.28c.41.02.07.41-.75.87-.83.46-2.56,2.81-3.86,5.22-1.29,2.41-3.03,5.06-3.87,5.88-.83.82-3.93,5.32-6.89,10-2.96,4.68-8.08,13.11-11.38,18.75-3.38,5.78-6.66,10.25-7.5,10.25s-1.39-.35-1.25-.78c.13-.43,1.44-4.14,2.9-8.25s5.02-14.9,7.92-23.97c2.9-9.07,6.94-20.77,8.98-26,2.05-5.23,3.99-10.51,4.33-11.75s.17-2.25-.38-2.25-1.23,1.57-1.5,3.5c-.28,1.93-.95,3.61-1.5,3.75-.54.14-1.19,1.82-1.44,3.75-.24,1.93-.91,3.73-1.48,4s-1.95,2.86-3.06,5.75-1.69,5.81-1.27,6.49c.44.73.34.97-.25.57-.59-.39-2.32,3.14-4.17,8.51-1.74,5.05-4.39,13.23-5.9,18.18-1.5,4.95-3.79,11.36-5.08,14.25-1.33,2.95-3.01,5.25-3.85,5.25s-1.51-.34-1.52-.75c-.01-.41-.44-5.93-.95-12.25-.52-6.32-1.42-18.93-2-28-.57-9.07-1.29-21.23-1.59-27-.31-5.77-.99-11.18-1.52-12-.69-1.06-.82-.48-.48,2,.27,1.93.73,14.3,1.03,27.5.29,13.2,1,29.85,1.59,37,.58,7.15.92,13.11.75,13.25-.17.13-3.69-2.31-7.81-5.43-4.13-3.13-10.94-8.64-15.14-12.25s-11.96-10.28-17.25-14.82c-5.29-4.54-9.84-8.14-10.12-8-.27.14,2.57,3.18,6.32,6.75s11.68,10.55,17.63,15.5c5.94,4.95,14.58,11.81,19.18,15.25,6.72,5.02,8.08,6.45,6.88,7.25-1.05.7-2.79.51-5.75-.6-2.34-.88-9.88-2.19-16.75-2.91-7.9-.83-19.32-1.14-31-.84-10.18.26-21.88.79-26,1.16-4.13.38-7.28,1.1-7,1.6.27.5,6.06.72,13,.5,6.87-.23,20.15-.31,29.5-.19s20.15.7,24,1.29c3.85.6,9.13,1.51,11.75,2.04,2.64.53,4.74,1.5,4.73,2.2,0,.69-.44,1.93-.97,2.75-.7,1.11-3.08,1.54-9.23,1.65-4.56.09-13.23.89-19.28,1.8-6.05.9-13.7,2.26-17,3.02-3.3.76-12.98,3.69-21.5,6.52-8.53,2.83-16.52,5.79-17.75,6.58-1.24.79-2.7,1.43-3.25,1.43s-4.04,1.44-7.75,3.2c-3.72,1.76-7.39,3.22-8.17,3.25s-1.63.63-1.89,1.35h0c-.33.93.35,1.16,2.42.83,1.59-.25,8.06-2.68,14.39-5.39,6.32-2.71,17.8-6.99,25.5-9.5,7.7-2.52,18.72-5.49,24.5-6.61,5.77-1.12,14.77-2.51,20-3.09,5.22-.58,9.61-.82,9.75-.55.13.28-1.1,1.41-2.75,2.51s-3.34,1.98-3.75,1.96c-.42-.03-1.43.67-2.25,1.54-.83.87-2.4,1.57-3.5,1.55-1.1-.03-4.59,1.53-7.75,3.45-3.17,1.93-6.2,3.5-6.75,3.5s-3.59,1.39-6.75,3.09c-3.17,1.71-6.88,4.17-8.25,5.49-1.38,1.31-3.07,2.39-3.75,2.4-.69,0-5.08,3.96-9.75,8.77-4.67,4.81-8.5,9.31-8.5,10s1.91-.83,4.25-3.38c2.33-2.54,7.62-7.32,11.75-10.61,5.44-4.36,13.79-9.11,30.5-17.37,12.65-6.26,23.33-11.38,23.75-11.38.41,0,.76.55.78,1.24,0,.69-1.88,2.15-4.21,3.25-2.38,1.12-9.13,6.84-15.35,13-6.11,6.05-12.54,12.91-14.29,15.25s-3.18,4.93-3.18,5.75.33,1.52.75,1.55c.41.02,2.77-2.52,5.25-5.64,2.47-3.13,7.42-8.24,11-11.36,3.57-3.13,8.3-6.98,10.5-8.56s5.57-4.39,7.5-6.26c3.01-2.92,3.81-3.24,5.75-2.31,1.23.59,3.15,1.53,4.25,2.08,1.65.83,2.89.26,7.15-3.25,2.83-2.34,5.99-5.37,7.03-6.75,1.04-1.37,1.87-3.51,1.85-4.75s-.7-3.26-1.52-4.5c-1.33-2.02-1.3-2.51.25-4.7.96-1.34,5.98-5.84,11.17-10,5.18-4.15,11.48-9.13,14-11.06,2.51-1.94,7.69-5.76,11.51-8.5,3.82-2.75,10.57-7.33,15-10.19s12.56-7.87,18.06-11.13c5.5-3.26,14.72-8.29,20.5-11.18,5.77-2.89,15-7.02,20.5-9.19s14.27-5.27,19.5-6.91c5.22-1.63,14-4.04,19.5-5.37,5.5-1.32,12.92-2.9,16.5-3.52,3.57-.61,7.85-1.35,9.5-1.65s3.22-.73,3.5-.96c.27-.23.05-.86-.5-1.39-.65-.63-5.75-.08-14.5,1.57-7.43,1.39-14.85,2.97-16.5,3.49s-9.08,2.74-16.5,4.93c-7.43,2.19-16.88,5.28-21,6.87-4.13,1.59-13.58,5.92-21,9.62-7.43,3.71-15.87,8.27-18.75,10.13-2.89,1.86-5.48,3.39-5.75,3.39s-3.09,1.75-6.25,3.89c-3.17,2.13-9.13,6.06-13.25,8.71-4.13,2.66-12,8.18-17.5,12.26-5.5,4.09-12.4,9.5-15.32,12.03-2.93,2.54-6.08,5.04-7,5.58-1.42.81-1.55.65-.84-1,.46-1.09,6.27-10.52,12.92-20.97,6.64-10.45,15.24-23.27,19.1-28.5,3.86-5.23,9-11.98,11.42-15,2.41-3.02,5.36-6.69,6.55-8.15,1.19-1.45,7.9-9.22,14.92-17.25,7.01-8.03,12.63-14.8,12.5-15.04-.14-.24-2.5,2.09-5.25,5.18h0Z"/>
  <path class="st0" d="M414.49,99.51c-2.75,3.09-6.82,7.45-9.04,9.69-2.22,2.24-4.35,4.86-4.75,5.82-.39.96-1.85,2.31-3.24,3-1.39.69-2.52,1.59-2.5,2,.01.41-.54,1.44-1.22,2.28-.69.84-2.63,2.98-4.32,4.75-1.68,1.77-3.37,4.23-3.75,5.47-.37,1.24-1.13,2.02-1.68,1.75s-1-.05-1,.5-.79,1.82-1.75,2.83c-.97,1.01-3.22,3.6-5.01,5.75-1.79,2.16-3.61,4.37-4.03,4.92s-1.77,2.46-2.99,4.25-1.89,3.26-1.47,3.28c.41.02.07.41-.75.87-.83.46-2.56,2.81-3.86,5.22-1.29,2.41-3.03,5.06-3.87,5.88-.83.82-3.93,5.32-6.89,10-2.96,4.68-8.08,13.11-11.38,18.75-3.38,5.78-6.66,10.25-7.5,10.25s-1.39-.35-1.25-.78c.13-.43,1.44-4.14,2.9-8.25s5.02-14.9,7.92-23.97c2.9-9.07,6.94-20.77,8.98-26,2.05-5.23,3.99-10.51,4.33-11.75s.17-2.25-.38-2.25-1.23,1.57-1.5,3.5c-.28,1.93-.95,3.61-1.5,3.75-.54.14-1.19,1.82-1.44,3.75-.24,1.93-.91,3.73-1.48,4s-1.95,2.86-3.06,5.75-1.69,5.81-1.27,6.49c.44.73.34.97-.25.57-.59-.39-2.32,3.14-4.17,8.51-1.74,5.05-4.39,13.23-5.9,18.18-1.5,4.95-3.79,11.36-5.08,14.25-1.33,2.95-3.01,5.25-3.85,5.25s-1.51-.34-1.52-.75c-.01-.41-.44-5.93-.95-12.25-.52-6.32-1.42-18.93-2-28-.57-9.07-1.29-21.23-1.59-27-.31-5.77-.99-11.18-1.52-12-.69-1.06-.82-.48-.48,2,.27,1.93.73,14.3,1.03,27.5.29,13.2,1,29.85,1.59,37,.58,7.15.92,13.11.75,13.25-.17.13-3.69-2.31-7.81-5.43-4.13-3.13-10.94-8.64-15.14-12.25s-11.96-10.28-17.25-14.82c-5.29-4.54-9.84-8.14-10.12-8-.27.14,2.57,3.18,6.32,6.75s11.68,10.55,17.63,15.5c5.94,4.95,14.58,11.81,19.18,15.25,6.72,5.02,8.08,6.45,6.88,7.25-1.05.7-2.79.51-5.75-.6-2.34-.88-9.88-2.19-16.75-2.91-7.9-.83-19.32-1.14-31-.84-10.18.26-21.88.79-26,1.16-4.13.38-7.28,1.1-7,1.6.27.5,6.06.72,13,.5,6.87-.23,20.15-.31,29.5-.19s20.15.7,24,1.29c3.85.6,9.13,1.51,11.75,2.04,2.64.53,4.74,1.5,4.73,2.2,0,.69-.44,1.93-.97,2.75-.7,1.11-3.08,1.54-9.23,1.65-4.56.09-13.23.89-19.28,1.8-6.05.9-13.7,2.26-17,3.02-3.3.76-12.98,3.69-21.5,6.52-8.53,2.83-16.52,5.79-17.75,6.58-1.24.79-2.7,1.43-3.25,1.43s-4.04,1.44-7.75,3.2c-3.72,1.76-7.39,3.22-8.17,3.25s-1.63.63-1.89,1.35h0c-.33.93.35,1.16,2.42.83,1.59-.25,8.06-2.68,14.39-5.39,6.32-2.71,17.8-6.99,25.5-9.5,7.7-2.52,18.72-5.49,24.5-6.61,5.77-1.12,14.77-2.51,20-3.09,5.22-.58,9.61-.82,9.75-.55.13.28-1.1,1.41-2.75,2.51s-3.34,1.98-3.75,1.96c-.42-.03-1.43.67-2.25,1.54-.83.87-2.4,1.57-3.5,1.55-1.1-.03-4.59,1.53-7.75,3.45-3.17,1.93-6.2,3.5-6.75,3.5s-3.59,1.39-6.75,3.09c-3.17,1.71-6.88,4.17-8.25,5.49-1.38,1.31-3.07,2.39-3.75,2.4-.69,0-5.08,3.96-9.75,8.77-4.67,4.81-8.5,9.31-8.5,10s1.91-.83,4.25-3.38c2.33-2.54,7.62-7.32,11.75-10.61,5.44-4.36,13.79-9.11,30.5-17.37,12.65-6.26,23.33-11.38,23.75-11.38.41,0,.76.55.78,1.24,0,.69-1.88,2.15-4.21,3.25-2.38,1.12-9.13,6.84-15.35,13-6.11,6.05-12.54,12.91-14.29,15.25s-3.18,4.93-3.18,5.75.33,1.52.75,1.55c.41.02,2.77-2.52,5.25-5.64,2.47-3.13,7.42-8.24,11-11.36,3.57-3.13,8.3-6.98,10.5-8.56s5.57-4.39,7.5-6.26c3.01-2.92,3.81-3.24,5.75-2.31,1.23.59,3.15,1.53,4.25,2.08,1.65.83,2.89.26,7.15-3.25,2.83-2.34,5.99-5.37,7.03-6.75,1.04-1.37,1.87-3.51,1.85-4.75s-.7-3.26-1.52-4.5c-1.33-2.02-1.3-2.51.25-4.7.96-1.34,5.98-5.84,11.17-10,5.18-4.15,11.48-9.13,14-11.06,2.51-1.94,7.69-5.76,11.51-8.5,3.82-2.75,10.57-7.33,15-10.19s12.56-7.87,18.06-11.13c5.5-3.26,14.72-8.29,20.5-11.18,5.77-2.89,15-7.02,20.5-9.19s14.27-5.27,19.5-6.91c5.22-1.63,14-4.04,19.5-5.37,5.5-1.32,12.92-2.9,16.5-3.52,3.57-.61,7.85-1.35,9.5-1.65s3.22-.73,3.5-.96c.27-.23.05-.86-.5-1.39-.65-.63-5.75-.08-14.5,1.57-7.43,1.39-14.85,2.97-16.5,3.49s-9.08,2.74-16.5,4.93c-7.43,2.19-16.88,5.28-21,6.87-4.13,1.59-13.58,5.92-21,9.62-7.43,3.71-15.87,8.27-18.75,10.13-2.89,1.86-5.48,3.39-5.75,3.39s-3.09,1.75-6.25,3.89c-3.17,2.13-9.13,6.06-13.25,8.71-4.13,2.66-12,8.18-17.5,12.26-5.5,4.09-12.4,9.5-15.32,12.03-2.93,2.54-6.08,5.04-7,5.58-1.42.81-1.55.65-.84-1,.46-1.09,6.27-10.52,12.92-20.97,6.64-10.45,15.24-23.27,19.1-28.5,3.86-5.23,9-11.98,11.42-15,2.41-3.02,5.36-6.69,6.55-8.15,1.19-1.45,7.9-9.22,14.92-17.25,7.01-8.03,12.63-14.8,12.5-15.04-.14-.24-2.5,2.09-5.25,5.18h0Z"/>
</svg>