<?xml version="1.0" encoding="UTF-8"?>
<svg id="Layer_1" xmlns="http://www.w3.org/2000/svg" version="1.1" viewBox="0 0 532.34 505.54">
  <!-- Generator: Adobe Illustrator 30.0.0, SVG Export Plug-In . SVG Version: 2.1.1 Build 123)  -->
  <defs>
    <style>
      .st0 {
        fill: #fff;
        isolation: isolate;
      }

      .st0, .st1 {
        stroke: #fff;
        stroke-miterlimit: 10;
      }
    </style>
  </defs>
  <path class="st1" d="M285.24,279.67c-2.08,1.88-4.01,3.97-4.29,4.65s-.37,2.3-.2,3.59c.17,1.3.54,3.04.81,3.86.3.89,2.05-1.74,4.32-6.5,2.1-4.4,3.66-8.22,3.48-8.5-.18-.27-2.04,1.03-4.12,2.9h0Z"/>
  <path class="st1" d="M292.06,292.77c-1.83,6.88-4.86,16.89-6.72,22.25-2.39,6.9-3.58,12.44-4.05,18.93-.37,5.04-.41,8.98-.09,8.75.32-.24,1.81-4.93,3.3-10.43s3.56-14.05,4.6-19,3.04-13.72,4.43-19.5c1.4-5.78,2.39-11.18,2.2-12-.18-.82-1.84,4.13-3.67,11Z"/>
  <path class="st1" d="M281.1,395.52c-.76-.5-2.26,2.3-4.55,8.5-1.88,5.09-3.9,12.18-4.49,15.75-.59,3.58-1.98,13.25-3.09,21.5-1.12,8.25-2.02,17.59-2.02,20.75.01,3.16.35,5.75.76,5.76.41,0,1.43-.78,2.25-1.75h0c.82-.97,3.07-3.78,5-6.24,2.86-3.65,3.7-5.86,4.61-12,.6-4.13,1.17-11.57,1.25-16.52.09-5.94-.17-8.49-.79-7.5-.52.83-1.87,4.65-3.01,8.5s-2.51,8.35-3.05,10c-.54,1.65-.99,4.01-1,5.25,0,1.24-.57,4.28-1.26,6.76s-1.59,4.51-2,4.5-.47-1.92-.12-4.26,1.7-8.41,3-13.5,3.69-13.41,5.3-18.5c1.61-5.1,3.24-13.06,3.64-17.75.51-5.99.38-8.72-.43-9.25h0Z"/>
  <path class="st1" d="M282.45,349.27c-.84,2.2-2.2,5.46-3.01,7.25s-1.48,5.39-1.47,8c0,2.61-.63,9.25-1.41,14.75s-1.68,12.87-2,16.39c-.37,4.11-.23,6.16.41,5.75.54-.35,2.12-4.35,3.49-8.89,1.38-4.54,2.93-11.62,3.45-15.75.51-4.12,1.19-12.9,1.51-19.5.55-11.56.51-11.85-.97-8h0Z"/>
  <path class="st1" d="M282.82,315.29c.35.21,1.87-3.31,3.38-7.82,1.5-4.51,3.6-12.25,4.66-17.2,1.05-4.95,2.63-10.91,3.51-13.25.87-2.34,1.25-4.25.84-4.26s-3.45,5.28-6.75,11.75c-4,7.83-6.05,14.86-6.14,21.08-.07,5.12.15,9.49.5,9.7h0Z"/>
  <path class="st1" d="M444.21,67.39c-2.06.34-5.77,1.78-8.25,3.2s-7.2,4.89-10.5,7.7-8.02,6.58-10.5,8.38c-2.48,1.79-6.08,3.93-8,4.74-1.92.82-6.65,2.14-10.5,2.96-3.85.81-10.15,1.7-14,1.97s-8.8.72-11,1c-2.2.27-7.13,1.72-10.95,3.21-4.77,1.87-8.38,4.15-11.5,7.28-2.5,2.51-6.13,5.73-8.05,7.16-1.93,1.42-5.98,3.35-9,4.27-3.02.93-11.13,2-18,2.37-9.62.53-13.42,1.16-16.5,2.72-2.71,1.39-5.29,4.02-8,8.2-2.2,3.39-5.35,8.29-7,10.88-2.3,3.62-4.52,5.5-9.5,8.06-3.58,1.83-8.98,3.72-12,4.19s-7.08,1.65-9,2.62c-1.93.98-5.98,3.89-9,6.48-4.45,3.8-6.65,4.92-11.5,5.83-3.3.62-9.26,1.58-13.25,2.14-4.88.69-11.82.69-21.25.02-7.7-.55-15.01-1.4-16.25-1.89s-6.52-1.44-11.75-2.11c-7.3-.94-10.77-.96-15-.06-3.02.63-8.2,2.34-11.5,3.78s-7.55,3.78-9.45,5.2c-1.89,1.42-5.83,5.62-8.75,9.33-3.16,4.02-8.23,8.8-12.55,11.82-3.99,2.79-8.54,5.38-10.12,5.75s-3.04,1.02-3.25,1.43c-.21.41-1.62.74-3.13.73-1.51,0-4.78.67-7.25,1.52-2.48.85-5.51,1.53-6.75,1.52s-3.94.93-6,2.08c-2.06,1.16-5.21,3.18-7,4.5s-4.04,3.78-5,5.48c-.96,1.69-4.45,4.87-7.75,7.07-3.88,2.58-7.59,4.19-10.5,4.55-2.6.32-6.61,1.92-9.5,3.78-2.75,1.78-7.14,5.66-9.75,8.62-2.62,2.97-6.22,8.1-8,11.4-1.79,3.3-3.83,7.57-4.53,9.5-.7,1.93-1.04,4.74-.75,6.25s.08,2.97-.47,3.25c-.55.27-1,2.08-1,4.02,0,2.85.5,3.73,2.62,4.63,1.67.7,10.09,1.05,23.25.97h0c11.35-.08,28.95-.03,39.13.11,13.71.19,23.68-.31,38.5-1.93,11-1.2,24.27-2.43,29.5-2.73,5.23-.3,16.02-.8,24-1.11,7.98-.3,18.32-.76,23-1.02,4.68-.25,13.23-.91,19-1.45s14.1-.98,18.5-.96c4.4.01,7.77-.18,7.5-.43s-6.35-1.37-13.5-2.5c-7.15-1.12-16.82-2.54-21.5-3.15-4.68-.6-11.65-1.76-15.5-2.56-3.85-.81-11.73-2.13-17.5-2.95s-17.25-2.36-25.5-3.43-19.28-2-24.5-2.06c-5.23-.06-11.53.35-14,.9-2.48.56-6.07,1.42-8,1.91s-9.35,2.95-16.5,5.46c-7.15,2.51-15.93,5.31-19.5,6.21-3.57.91-6.95,1.64-7.5,1.61-.55-.02-1.12-.38-1.27-.79s1.87-1.12,4.5-1.57c2.62-.46,6.79-1.48,9.27-2.28,2.47-.79,5.4-1.86,6.5-2.37s6.05-2.28,11-3.94c4.95-1.65,13.5-4.05,19-5.32,8.72-2.01,11.47-2.21,21.5-1.61,6.32.38,22.98,2.31,37,4.29s27.98,4.22,31,4.97c3.02.76,6.18,1.36,7,1.34s4.43.28,8,.66,9.2,1.15,12.5,1.72c3.3.56,9.15,1.41,13,1.88s13.98,1.79,22.5,2.92c8.52,1.14,15.73,1.86,16,1.61.27-.26-2.65-1.92-6.5-3.7-3.85-1.77-9.02-4.64-11.5-6.38s-9.45-6.18-15.5-9.86c-6.05-3.69-13.02-8.28-15.5-10.2s-5.4-4.27-6.5-5.22-3.8-2.9-6-4.34c-2.2-1.43-6.93-4.28-10.5-6.32-3.57-2.04-10.32-5-15-6.58s-9.85-3.33-11.5-3.89-6.71-2.15-11.25-3.54c-4.54-1.38-8.25-2.75-8.25-3.02s1.69-.21,3.75.15c2.06.35,5.44,1.25,7.5,2,3.48,1.25,3.69,1.22,2.85-.4-.49-.96-2.22-4.68-3.83-8.25s-4.02-9.31-5.35-12.75-2.19-6.48-1.92-6.76,1.6,2.09,2.93,5.25c1.34,3.17,4.3,9.81,6.57,14.76l4.13,9c9.97,4.03,15.55,6.06,18.83,7.1,3.28,1.05,10.11,4.38,15.17,7.4,5.07,3.03,13.41,8.71,18.54,12.63,5.13,3.93,15.18,10.78,22.33,15.23,7.15,4.45,17.05,10.15,22,12.67s10.91,4.78,13.25,5.03c3.17.33,4.38.06,4.75-1.06.27-.82-1.45-4.09-3.83-7.25-2.38-3.16-6.52-8.9-9.18-12.75-2.67-3.85-9.34-16-14.82-27-5.49-11-10.75-21.13-11.7-22.5-.95-1.38-5.61-4.52-10.37-7-4.75-2.48-8.41-4.61-8.12-4.75.28-.14,1.31.16,2.27.66.96.49,4.84,2.41,8.61,4.25,4.12,2,7.94,4.74,9.57,6.84,1.49,1.93,3.53,5.3,4.53,7.5s3.93,8.27,6.51,13.5c2.59,5.22,6.2,12.2,8.04,15.5,1.83,3.3,6.42,10.5,10.18,16,3.77,5.5,7.96,11.24,9.33,12.75,1.65,1.83,2.9,2.46,3.73,1.87.69-.48,2.88-5.54,4.88-11.25,2-5.7,6.15-18.25,9.22-27.87,3.07-9.63,6.03-19.3,6.58-21.5.54-2.2,1-11.65,1.01-21s-.42-21.05-.96-26c-.54-4.95-1.19-12.38-1.45-16.5l-.47-7.5c2.3,13.95,3.53,24.75,4.23,33l1.25,15c4.11-10.07,7.99-19.3,11.27-27,3.29-7.7,7.96-18.27,10.37-23.5,2.42-5.23,4.95-9.84,5.61-10.25.67-.41,1.21-.41,1.21,0s-1.62,4.12-3.59,8.25c-1.97,4.12-4.41,9.07-5.43,11-1.01,1.93-3.72,8-6.03,13.5-2.3,5.5-6.22,14.73-8.69,20.5-2.48,5.77-4.69,12.07-4.91,14-.23,1.93-.9,7.1-1.49,11.5s-3.31,14.98-6.04,23.5c-2.73,8.53-6.5,20.11-8.39,25.75-1.89,5.64-3.09,10.25-2.68,10.25s6.44-5.74,13.4-12.75c6.96-7.01,16.68-17.25,21.6-22.75,4.93-5.5,13.71-16.3,19.53-24s12.34-16.25,14.48-19,9.07-11.98,15.4-20.5,15.48-21.35,20.34-28.5c4.85-7.15,12.05-17.5,16.01-23,3.95-5.5,10.31-14.73,14.14-20.5,3.82-5.77,9.74-14.66,13.15-19.75s6.2-9.48,6.2-9.75-1.69-.22-3.75.12h0ZM252.44,182.77c-1.38,5.23-3.29,11.88-4.25,14.78-.95,2.9-2.12,5.2-2.59,5.09-.47-.1-.54-.9-.17-1.78.38-.87,2.23-6.88,4.11-13.34,1.88-6.46,3.42-13.1,3.42-14.75s.45-3,1-3,1,.79,1,1.75-1.14,6.02-2.52,11.25Z"/>
  <path class="st1" d="M468.71,9.26c-.69-.28-7.33.13-14.75.92-7.42.78-18.67,2.62-25,4.1-10.03,2.34-12.27,2.56-17.5,1.68-3.83-.65-8.72-2.55-13.5-5.27-6.5-3.69-8.3-4.26-13.5-4.28-4.29-.02-8.99.99-16.5,3.54-5.77,1.96-15.45,6.01-21.5,9s-15.27,8.33-20.5,11.87c-5.23,3.54-10.25,6.89-11.16,7.44-.92.56-3.84,2.56-6.5,4.45-2.66,1.88-6.86,4.82-9.34,6.51-2.48,1.69-8.1,5.81-12.5,9.14-4.4,3.33-16.32,11.87-26.5,18.97s-20.98,13.91-24,15.15c-3.02,1.23-7.08,2.26-9,2.27-1.93.02-5.3.52-7.5,1.12-2.2.6-7.83,3.63-12.5,6.73-4.68,3.09-10.52,7.7-13,10.24s-8.77,9.26-14,14.94-11.75,11.98-14.5,14-6.58,4.17-8.5,4.78c-1.93.61-5.75,1.41-8.5,1.79-2.75.37-6.35,1.36-8,2.19s-6.38,4.32-10.5,7.76c-4.13,3.43-13.14,12.03-20.03,19.1-6.89,7.08-14.54,14.21-17,15.85s-5.37,3.47-6.47,4.07c-1.1.59-6.73,3.01-12.5,5.37-5.78,2.36-14.1,6.03-18.5,8.17-4.81,2.34-11.08,6.59-15.73,10.65-4.25,3.72-10.16,9.46-13.13,12.76-2.97,3.3-6.81,8.7-8.53,12s-3.11,6.45-3.08,7c.02.55,1.17-.35,2.55-2,1.39-1.65,4.64-5.43,7.22-8.41h0c2.59-2.98,7.06-6.91,9.95-8.75,3.2-2.04,6.52-3.34,8.5-3.33,1.99,0,5.39-1.33,8.75-3.44,3.02-1.9,7.78-6.06,10.57-9.26,3.46-3.96,7.12-6.84,11.5-9.03,3.54-1.78,7.78-3.24,9.43-3.26,1.65-.02,5.02-.65,7.5-1.4,2.47-.74,8.32-3.17,13-5.39,5.02-2.38,10.34-5.84,13-8.44,2.47-2.42,5.74-6.29,7.25-8.59,1.51-2.31,4.89-5.76,7.5-7.67s7.67-4.69,11.25-6.17c5.97-2.48,7.56-2.7,19.5-2.64,9.38.05,14.25.52,17.5,1.7,2.48.9,9.45,1.92,15.5,2.26,9.55.55,12.12.34,19.5-1.63,4.67-1.25,12.77-4.09,18-6.31s11.07-5.1,13-6.39c1.92-1.3,4.62-2.37,6-2.38,1.37,0,6.32-.9,11-1.98,5.29-1.22,9.95-3,12.34-4.72,2.1-1.53,4.57-3.9,5.48-5.27.9-1.38,2.48-4.3,3.51-6.5,1.02-2.2,3.06-5.52,4.52-7.38,1.46-1.86,4.34-4.22,6.4-5.25s7.01-2.5,11-3.28c3.99-.77,11.07-1.73,15.75-2.13,4.67-.4,10.75-1.6,13.5-2.66,2.76-1.06,7.24-4.07,10-6.71,2.75-2.63,6.35-5.71,8-6.84,1.65-1.14,5.48-2.98,8.5-4.1,3.1-1.15,9.42-2.32,14.5-2.67,4.95-.35,10.35-.83,12-1.06,1.65-.24,5.92-1.11,9.5-1.94,3.58-.82,8.98-2.97,12-4.76,3.02-1.8,9.12-6.4,13.55-10.24,5.66-4.91,10.42-8,16-10.4,4.37-1.88,10.31-5.14,13.2-7.25s6.69-5.97,8.45-8.58,4.84-8.57,6.85-13.25,3.94-10.86,4.3-13.75c.46-3.69.2-6.29-.85-8.75-.83-1.93-2.06-3.73-2.75-4.01h0Z"/>
  <path class="st0" d="M471.65,8.27l-2.27-4c-12.34.24-23.12,1.53-31.92,3.02-13.1,2.21-17.54,2.57-24.5,1.99-6.66-.55-10.45-1.55-17.5-4.61-4.95-2.15-10.8-4.18-13-4.53-2.73-.42-6.38.08-11.5,1.56-4.13,1.2-9.07,2.88-11,3.73-1.93.84-5.52,2.48-8,3.64-2.48,1.16-7.09,3.59-10.25,5.4-3.16,1.82-5.75,3.75-5.75,4.3s-.68,1-1.5,1-3.86,1.44-6.75,3.2c-2.89,1.75-7.11,4.57-9.39,6.25-2.27,1.68-4.97,3.63-6,4.33-1.02.71-6.86,4.76-12.98,9-6.12,4.25-13.77,9.72-17,12.16s-9.3,7.39-13.47,11c-4.17,3.61-11.82,9.25-17,12.54s-13.12,7.46-17.66,9.25c-4.54,1.8-9.26,3.27-10.5,3.26-1.24,0-6.86,2.25-12.5,5-9.31,4.55-11.28,6.04-21.5,16.29-6.19,6.21-14.18,14.45-17.75,18.33-3.57,3.87-8.75,8.29-11.5,9.82-3.29,1.84-7.47,3.09-12.25,3.68-4.94.61-8.61,1.73-11.5,3.53-2.34,1.45-7.63,5.57-11.75,9.14-4.13,3.57-9.3,8.56-11.5,11.09-2.2,2.54-6.7,7.46-10,10.95-3.3,3.49-8.25,8.05-11,10.14-2.75,2.08-7.14,4.97-9.75,6.41-2.61,1.45-8.24,3.58-12.5,4.74-4.26,1.15-10.9,3.71-14.75,5.68-3.85,1.97-11.28,6.07-16.5,9.1-5.22,3.04-11.46,7.34-13.87,9.57-2.4,2.22-6.08,6.97-8.19,10.54-2.11,3.57-5.02,10.1-6.47,14.5-2.05,6.23-2.69,10.32-2.88,18.5-.14,5.78-.1,11.96.08,13.75.22,2.14,1.1,3.66,2.58,4.44,1.46.77,12.39,1.48,31.25,2.04,15.95.47,33.72.83,39.5.8,5.77-.04,11.4-.23,12.5-.44s5.82-.69,10.5-1.06c4.68-.38,11.65-1.08,15.5-1.57,3.85-.48,20.27-1.57,36.5-2.43,16.23-.85,37.6-2.04,47.5-2.65s23.85-1.26,31-1.44c7.95-.21,18.8.32,27.93,1.36l14.93,1.7c1.3,4.65,1.56,9.23,1.41,13.17-.15,3.95.07,7.51.48,7.92s.75,5.51.75,11.33-.4,14.18-.9,18.58-1.43,14.07-2.05,21.5c-.63,7.42-1.8,18.45-2.59,24.5s-1.94,15.72-2.55,21.5-2,14.1-3.09,18.5c-1.08,4.4-2.59,14.52-3.34,22.5-.75,7.97-1.62,16.64-1.92,19.25-.34,2.87-.16,4.75.44,4.75.55,0,1,.9,1,2,0,1.22.68,2.02,1.75,2.05.96.02,3.44-1.78,5.5-4,2.06-2.23,4.83-5.74,6.15-7.8,1.83-2.85,2.66-6.15,3.47-13.75.59-5.5,1.3-23.28,1.59-39.5.28-16.22.98-34.22,1.56-40,.57-5.78,1.73-16.35,2.57-23.5s2.2-17.28,3.02-22.5,2.61-14.22,3.99-20,3.4-14.32,4.5-19,1.75-9.74,1.45-11.25c-.49-2.44.71-4.02,10.7-14.1,6.19-6.24,14.85-15.48,19.25-20.55,4.4-5.06,8.9-10.25,10-11.52s4.48-5.58,7.5-9.57,8.21-10.69,11.52-14.88c3.31-4.2,12.13-15.95,19.59-26.13,7.47-10.18,16.19-22.32,19.39-27s8.28-12.1,11.3-16.5c3.02-4.4,6.44-9.13,7.62-10.5,1.17-1.38,4.66-6.32,7.73-11,3.08-4.68,8.87-13.45,12.86-19.5s9.33-13.88,11.87-17.4c2.54-3.53,6.37-7.8,8.51-9.5,2.14-1.71,5.77-5.8,8.07-9.1s4.71-7.57,5.35-9.5c.65-1.93,1.8-5.98,2.57-9,1.05-4.13,1.17-7.37.49-13-.54-4.54-1.8-9.08-3.18-11.5h0ZM281.53,404.77c-.4,4.69-2.03,12.65-3.64,17.75-1.61,5.09-4,13.41-5.3,18.5s-2.65,11.16-3,13.5-.29,4.25.12,4.26,1.31-2.02,2-4.5,1.26-5.52,1.26-6.76c.01-1.24.46-3.6,1-5.25s1.91-6.15,3.05-10c1.14-3.85,2.49-7.67,3.01-8.5.62-.99.88,1.56.79,7.5-.08,4.95-.65,12.39-1.25,16.52-.91,6.14-1.75,8.35-4.61,12-1.93,2.46-4.18,5.27-5,6.24h0c-.82.97-1.84,1.75-2.25,1.75-.41-.01-.75-2.6-.76-5.76,0-3.16.9-12.5,2.02-20.75,1.11-8.25,2.5-17.92,3.09-21.5.59-3.57,2.61-10.66,4.49-15.75,2.29-6.2,3.79-9,4.55-8.5.81.53.94,3.26.43,9.25h0ZM283.42,357.27c-.32,6.6-1,15.38-1.51,19.5-.52,4.13-2.07,11.21-3.45,15.75-1.37,4.54-2.95,8.54-3.49,8.89-.64.41-.78-1.64-.41-5.75.32-3.52,1.22-10.89,2-16.39.78-5.5,1.41-12.14,1.41-14.75-.01-2.61.66-6.21,1.47-8s2.17-5.05,3.01-7.25c1.48-3.85,1.52-3.56.97,8h0ZM285.88,285.27c-2.27,4.76-4.02,7.39-4.32,6.5-.27-.82-.64-2.56-.81-3.86-.17-1.29-.08-2.91.2-3.59s2.21-2.77,4.29-4.65c2.08-1.87,3.94-3.17,4.12-2.9.18.28-1.38,4.1-3.48,8.5h0ZM295.21,272.76c.41.01.03,1.92-.84,4.26-.88,2.34-2.46,8.3-3.51,13.25-1.06,4.95-3.16,12.69-4.66,17.2-1.51,4.51-3.03,8.03-3.38,7.82s-.57-4.58-.5-9.7c.09-6.21,2.14-13.23,6.14-21.08,3.3-6.47,6.34-11.76,6.75-11.75h0ZM293.53,293.77c-1.39,5.78-3.39,14.55-4.43,19.5-1.04,4.95-3.11,13.5-4.6,19s-2.98,10.19-3.3,10.43c-.32.23-.28-3.71.09-8.75.47-6.49,1.66-12.03,4.05-18.93,1.86-5.36,4.89-15.37,6.72-22.25,1.83-6.87,3.49-11.82,3.67-11,.19.82-.8,6.22-2.2,12ZM441.76,77.02c-3.41,5.09-9.33,13.98-13.15,19.75-3.83,5.77-10.19,15-14.14,20.5-3.96,5.5-11.16,15.85-16.01,23-4.86,7.15-14.01,19.98-20.34,28.5s-13.26,17.75-15.4,20.5-8.66,11.3-14.48,19-14.6,18.5-19.53,24c-4.92,5.5-14.64,15.74-21.6,22.75-6.96,7.01-12.99,12.75-13.4,12.75s.79-4.61,2.68-10.25c1.89-5.64,5.66-17.22,8.39-25.75,2.73-8.52,5.45-19.1,6.04-23.5s1.26-9.57,1.49-11.5c.22-1.93,2.43-8.23,4.91-14,2.47-5.77,6.39-15,8.69-20.5,2.31-5.5,5.02-11.57,6.03-13.5,1.02-1.93,3.46-6.88,5.43-11,1.97-4.13,3.59-7.84,3.59-8.25s-.54-.41-1.21,0c-.66.41-3.19,5.02-5.61,10.25-2.41,5.23-7.08,15.8-10.37,23.5-3.28,7.7-7.16,16.93-11.27,27l-1.25-15c-.7-8.25-1.93-19.05-4.23-33l.47,7.5c.26,4.12.91,11.55,1.45,16.5s.97,16.65.96,26-.47,18.8-1.01,21c-.55,2.2-3.51,11.87-6.58,21.5-3.07,9.62-7.22,22.17-9.22,27.87-2,5.71-4.19,10.77-4.88,11.25-.83.59-2.08-.04-3.73-1.87-1.37-1.51-5.56-7.25-9.33-12.75-3.76-5.5-8.35-12.7-10.18-16-1.84-3.3-5.45-10.28-8.04-15.5-2.58-5.23-5.51-11.3-6.51-13.5s-3.04-5.57-4.53-7.5c-1.63-2.1-5.45-4.84-9.57-6.84-3.77-1.84-7.65-3.76-8.61-4.25-.96-.5-1.99-.8-2.27-.66-.29.14,3.37,2.27,8.12,4.75,4.76,2.48,9.42,5.62,10.37,7,.95,1.37,6.21,11.5,11.7,22.5,5.48,11,12.15,23.15,14.82,27,2.66,3.85,6.8,9.59,9.18,12.75s4.1,6.43,3.83,7.25c-.37,1.12-1.58,1.39-4.75,1.06-2.34-.25-8.3-2.51-13.25-5.03s-14.85-8.22-22-12.67c-7.15-4.45-17.2-11.3-22.33-15.23-5.13-3.92-13.47-9.6-18.54-12.63-5.06-3.02-11.89-6.35-15.17-7.4-3.28-1.04-8.86-3.07-18.83-7.1l-4.13-9c-2.27-4.95-5.23-11.59-6.57-14.76-1.33-3.16-2.66-5.53-2.93-5.25-.27.28.59,3.32,1.92,6.76,1.33,3.44,3.74,9.18,5.35,12.75,1.61,3.57,3.34,7.29,3.83,8.25.84,1.62.63,1.65-2.85.4-2.06-.75-5.44-1.65-7.5-2-2.06-.36-3.75-.42-3.75-.15s3.71,1.64,8.25,3.02c4.54,1.39,9.6,2.98,11.25,3.54s6.82,2.31,11.5,3.89,11.43,4.54,15,6.58c3.57,2.04,8.3,4.89,10.5,6.32,2.2,1.44,4.9,3.39,6,4.34s4.02,3.3,6.5,5.22,9.45,6.51,15.5,10.2c6.05,3.68,13.02,8.12,15.5,9.86s7.65,4.61,11.5,6.38c3.85,1.78,6.77,3.44,6.5,3.7-.27.25-7.48-.47-16-1.61-8.52-1.13-18.65-2.45-22.5-2.92s-9.7-1.32-13-1.88c-3.3-.57-8.93-1.34-12.5-1.72s-7.18-.68-8-.66-3.98-.58-7-1.34c-3.02-.75-16.98-2.99-31-4.97s-30.68-3.91-37-4.29c-10.03-.6-12.78-.4-21.5,1.61-5.5,1.27-14.05,3.67-19,5.32-4.95,1.66-9.9,3.43-11,3.94s-4.03,1.58-6.5,2.37c-2.48.8-6.65,1.82-9.27,2.28-2.63.45-4.65,1.16-4.5,1.57s.72.77,1.27.79c.55.03,3.93-.7,7.5-1.61,3.57-.9,12.35-3.7,19.5-6.21,7.15-2.51,14.57-4.97,16.5-5.46s5.52-1.35,8-1.91c2.47-.55,8.77-.96,14-.9,5.22.06,16.25.99,24.5,2.06s19.73,2.61,25.5,3.43,13.65,2.14,17.5,2.95c3.85.8,10.82,1.96,15.5,2.56,4.68.61,14.35,2.03,21.5,3.15,7.15,1.13,13.23,2.25,13.5,2.5s-3.1.44-7.5.43c-4.4-.02-12.73.42-18.5.96-5.77.54-14.32,1.2-19,1.45-4.68.26-15.02.72-23,1.02-7.98.31-18.77.81-24,1.11s-18.5,1.53-29.5,2.73c-14.82,1.62-24.79,2.12-38.5,1.93-10.18-.14-27.78-.19-39.13-.11h0c-13.16.08-21.58-.27-23.25-.97-2.12-.9-2.62-1.78-2.62-4.63,0-1.94.45-3.75,1-4.02.55-.28.76-1.74.47-3.25s.05-4.32.75-6.25,2.74-6.2,4.53-9.5c1.78-3.3,5.38-8.43,8-11.4,2.61-2.96,7-6.84,9.75-8.62,2.89-1.86,6.9-3.46,9.5-3.78,2.91-.36,6.62-1.97,10.5-4.55,3.3-2.2,6.79-5.38,7.75-7.07.96-1.7,3.21-4.16,5-5.48,1.79-1.32,4.94-3.34,7-4.5,2.06-1.15,4.76-2.09,6-2.08s4.27-.67,6.75-1.52c2.47-.85,5.74-1.53,7.25-1.52,1.51,0,2.92-.32,3.13-.73.21-.41,1.67-1.06,3.25-1.43s6.13-2.96,10.12-5.75c4.32-3.02,9.39-7.8,12.55-11.82,2.92-3.71,6.86-7.91,8.75-9.33,1.9-1.42,6.15-3.76,9.45-5.2s8.48-3.15,11.5-3.78c4.23-.9,7.7-.88,15,.06,5.23.67,10.51,1.62,11.75,2.11s8.55,1.34,16.25,1.89c9.43.67,16.37.67,21.25-.02,3.99-.56,9.95-1.52,13.25-2.14,4.85-.91,7.05-2.03,11.5-5.83,3.02-2.59,7.07-5.5,9-6.48,1.92-.97,5.98-2.15,9-2.62s8.42-2.36,12-4.19c4.98-2.56,7.2-4.44,9.5-8.06,1.65-2.59,4.8-7.49,7-10.88,2.71-4.18,5.29-6.81,8-8.2,3.08-1.56,6.88-2.19,16.5-2.72,6.87-.37,14.98-1.44,18-2.37,3.02-.92,7.07-2.85,9-4.27,1.92-1.43,5.55-4.65,8.05-7.16,3.12-3.13,6.73-5.41,11.5-7.28,3.82-1.49,8.75-2.94,10.95-3.21,2.2-.28,7.15-.73,11-1s10.15-1.16,14-1.97c3.85-.82,8.58-2.14,10.5-2.96,1.92-.81,5.52-2.95,8-4.74,2.48-1.8,7.2-5.57,10.5-8.38s8.02-6.28,10.5-7.7,6.19-2.86,8.25-3.2,3.75-.39,3.75-.12-2.79,4.66-6.2,9.75h0ZM472.31,22.02c-.36,2.89-2.29,9.07-4.3,13.75-2.01,4.68-5.09,10.64-6.85,13.25s-5.56,6.47-8.45,8.58-8.83,5.37-13.2,7.25c-5.58,2.4-10.34,5.49-16,10.4-4.43,3.84-10.53,8.44-13.55,10.24-3.02,1.79-8.42,3.94-12,4.76-3.58.83-7.85,1.7-9.5,1.94-1.65.23-7.05.71-12,1.06-5.08.35-11.4,1.52-14.5,2.67-3.02,1.12-6.85,2.96-8.5,4.1-1.65,1.13-5.25,4.21-8,6.84-2.76,2.64-7.24,5.65-10,6.71-2.75,1.06-8.83,2.26-13.5,2.66-4.68.4-11.76,1.36-15.75,2.13-3.99.78-8.94,2.25-11,3.28s-4.94,3.39-6.4,5.25-3.5,5.18-4.52,7.38c-1.03,2.2-2.61,5.12-3.51,6.5-.91,1.37-3.38,3.74-5.48,5.27-2.39,1.72-7.05,3.5-12.34,4.72-4.68,1.08-9.63,1.97-11,1.98-1.38,0-4.08,1.08-6,2.38-1.93,1.29-7.77,4.17-13,6.39s-13.33,5.06-18,6.31c-7.38,1.97-9.95,2.18-19.5,1.63-6.05-.34-13.02-1.36-15.5-2.26-3.25-1.18-8.12-1.65-17.5-1.7-11.94-.06-13.53.16-19.5,2.64-3.58,1.48-8.64,4.26-11.25,6.17s-5.99,5.36-7.5,7.67c-1.51,2.3-4.78,6.17-7.25,8.59-2.66,2.6-7.98,6.06-13,8.44-4.68,2.22-10.53,4.65-13,5.39-2.48.75-5.85,1.38-7.5,1.4-1.65.02-5.89,1.48-9.43,3.26-4.38,2.19-8.04,5.07-11.5,9.03-2.79,3.2-7.55,7.36-10.57,9.26-3.36,2.11-6.76,3.44-8.75,3.44-1.98,0-5.3,1.29-8.5,3.33-2.89,1.84-7.36,5.77-9.95,8.75h0c-2.58,2.98-5.83,6.76-7.22,8.41-1.38,1.65-2.53,2.55-2.55,2-.03-.55,1.36-3.7,3.08-7,1.72-3.3,5.56-8.7,8.53-12s8.88-9.04,13.13-12.76c4.65-4.06,10.92-8.31,15.73-10.65,4.4-2.14,12.72-5.81,18.5-8.17,5.77-2.36,11.4-4.78,12.5-5.37,1.1-.6,4.01-2.43,6.47-4.07,2.46-1.64,10.11-8.77,17-15.85,6.89-7.07,15.9-15.67,20.03-19.1,4.12-3.44,8.85-6.93,10.5-7.76s5.25-1.82,8-2.19c2.75-.38,6.57-1.18,8.5-1.79,1.92-.61,5.75-2.76,8.5-4.78s9.27-8.32,14.5-14c5.23-5.68,11.52-12.4,14-14.94s8.32-7.15,13-10.24c4.67-3.1,10.3-6.13,12.5-6.73,2.2-.6,5.57-1.1,7.5-1.12,1.92-.01,5.98-1.04,9-2.27,3.02-1.24,13.82-8.05,24-15.15s22.1-15.64,26.5-18.97,10.02-7.45,12.5-9.14,6.68-4.63,9.34-6.51c2.66-1.89,5.58-3.89,6.5-4.45.91-.55,5.93-3.9,11.16-7.44s14.45-8.88,20.5-11.87,15.73-7.04,21.5-9c7.51-2.55,12.21-3.56,16.5-3.54,5.2.02,7,.59,13.5,4.28,4.78,2.72,9.67,4.62,13.5,5.27,5.23.88,7.47.66,17.5-1.68,6.33-1.48,17.58-3.32,25-4.1,7.42-.79,14.06-1.2,14.75-.92s1.92,2.08,2.75,4.01c1.05,2.46,1.31,5.06.85,8.75Z"/>
  <path class="st0" d="M253.96,169.77c-.55,0-1,1.35-1,3s-1.54,8.29-3.42,14.75-3.73,12.47-4.11,13.34c-.37.88-.3,1.68.17,1.78.47.11,1.64-2.19,2.59-5.09.96-2.9,2.87-9.55,4.25-14.78s2.52-10.29,2.52-11.25-.45-1.75-1-1.75Z"/>
</svg>