<?xml version="1.0" encoding="UTF-8"?>
<svg id="Layer_1" xmlns="http://www.w3.org/2000/svg" version="1.1" viewBox="0 0 469 591.53">
  <!-- Generator: Adobe Illustrator 30.0.0, SVG Export Plug-In . SVG Version: 2.1.1 Build 123)  -->
  <defs>
    <style>
      .st0, .st1 {
        stroke: #fff;
        stroke-miterlimit: 10;
      }

      .st1 {
        fill: #fff;
      }
    </style>
  </defs>
  <path class="st0" d="M355.99,550.06c.75,1.22.91,1.13.85-.5-.04-1.1-.49-3.8-1-6s-1.34-7.6-1.85-12c-.5-4.4-1.93-12.27-3.17-17.5-1.74-7.36-2.39-8.94-2.9-7-.36,1.37-.47,4.98-.25,8s1.98,11.8,3.9,19.5c1.93,7.7,3.92,14.67,4.42,15.5Z"/>
  <path class="st0" d="M358.63,498.56c-.03-1.65-.23-3.9-.43-5-.21-1.1-1.19-4.25-2.19-7s-3.33-10.5-5.18-17.23-3.58-11.98-3.86-11.67c-.28.3-.36,2.88-.19,5.73.18,2.84,1.01,7.87,1.85,11.17.84,3.3,2.13,8.92,2.85,12.5.73,3.58,2.38,10.45,3.66,15.27,1.28,4.82,2.67,8.76,3.08,8.75.41-.01.75-1.37.75-3.02s-.45-3.23-1-3.5c-.59-.29-.64-1.02-.14-1.75.48-.69.84-2.6.8-4.25Z"/>
  <path class="st0" d="M354.06,514.56h0c-.04.55.37,3.7.92,7,.55,3.3,1.28,8.25,1.61,11,.34,2.75.99,5.67,1.46,6.5.53.92.85-1.81.83-7-.03-6.8-.5-9.5-2.39-13.5-1.29-2.75-2.39-4.55-2.43-4h0Z"/>
  <path class="st0" d="M350.61,553.56h0c-.35-1.1-.89-3.8-1.2-6-.3-2.2-.75-4.34-1-4.75-.24-.41-.89-.52-1.44-.25-.58.29-.93,4.58-.84,10.25.09,5.36.54,10.54,1,11.5s1.29,2.65,1.84,3.75.66,2.5.25,3.11-.08,1.48.75,1.94c.83.45,1.84.62,2.25.38.41-.23.69-.99.61-1.68s-.46-4.63-.86-8.75c-.39-4.13-1-8.4-1.36-9.5Z"/>
  <path class="st0" d="M323.12,122.62c-1.84,1.06-5.94,4.87-9.1,8.44-3.17,3.57-8.52,10.66-11.9,15.75s-6.15,9.7-6.15,10.25.79.21,1.75-.75c.97-.96,3.86-4.9,6.43-8.75s5.49-7.91,6.49-9.02c1.01-1.11,4.98-5.59,8.83-9.95,5.86-6.63,6.45-7.6,3.65-5.97h0Z"/>
  <path class="st0" d="M352.97,444.56c.57.29,1-1,1-3s-.45-3.5-1-3.5-1,1.35-1,3,.45,3.23,1,3.5Z"/>
  <path class="st0" d="M11.19,184.33c-.7,2.88-1.03,6.8-.74,8.73.3,1.93,1.89,5.64,3.53,8.25,1.65,2.61,4.68,5.82,6.74,7.14,2.06,1.31,4.9,3.67,6.31,5.25,1.4,1.57,3.68,4.43,5.05,6.36,1.38,1.93,3.64,5.98,5.03,9s3.84,9.1,5.43,13.5c1.6,4.4,4.49,11.15,6.42,15,2.97,5.93,4.46,7.65,9.76,11.25,4.23,2.88,7.79,4.46,11,4.9,2.61.35,7.67,1.83,11.25,3.28,3.58,1.46,9.65,5.09,13.5,8.08,3.85,2.98,7.82,6.12,8.83,6.96s6.89,7.83,13.09,15.53c7.23,8.99,13.55,15.73,17.67,18.85,3.52,2.66,9.56,6.35,13.41,8.19,3.85,1.85,11.16,4.73,16.25,6.41,7.2,2.38,11.02,3.05,17.25,3.05s9.49-.57,15.25-2.79c3.99-1.53,11.53-5.74,16.75-9.35,5.22-3.61,12-8.99,15.06-11.96s7.88-9.22,10.71-13.9c2.84-4.68,5.18-8.84,5.19-9.25.02-.41,2.02-3.56,4.45-7,2.42-3.44,6.17-8.27,8.33-10.75s6.36-6.09,9.34-8.04,8.12-4.64,11.42-5.99c5.35-2.18,7.41-2.44,19-2.38,7.27.04,18.29.89,25,1.93,6.94,1.07,17.69,1.87,25.5,1.91,12.2.06,13.98-.16,18.5-2.3,3.28-1.56,8.03-5.52,13.78-11.5,4.83-5.02,8.77-9.47,8.75-9.88-.01-.41,1-2.21,2.26-4,1.27-1.79,3.96-6.63,5.99-10.75,2.02-4.13,5.15-11.49,6.95-16.37,1.8-4.87,4.07-9.6,5.05-10.5.98-.89,1.79-2.08,1.79-2.63.01-.55,1.37-2.57,3.03-4.5,1.65-1.93,6.02-6.54,9.71-10.26,3.68-3.73,6.91-6.75,7.19-6.74.28.02,2.48-1.66,4.91-3.73,2.42-2.07,6.39-5.79,8.82-8.27,2.43-2.48,5.97-6.75,7.86-9.5,3.25-4.72,3.4-5.33,2.82-11-.34-3.3-2.63-12.07-5.09-19.5-2.45-7.43-5.94-19.13-7.74-26-1.81-6.87-3.99-13.85-4.85-15.5-.86-1.65-3.06-4.42-4.89-6.16-1.84-1.74-8.51-5.63-14.84-8.64s-15.1-8.17-19.5-11.45c-4.63-3.46-10.11-8.75-13-12.54-2.75-3.61-6.13-7.02-7.5-7.58-1.39-.57-14.06-1.2-28.5-1.42-25.11-.38-26.26-.49-33.5-3.06-4.13-1.47-10.65-4.55-14.5-6.86s-9.47-5.82-12.5-7.82c-3.03-1.99-7.41-4.37-9.75-5.3-2.34-.92-6.28-1.67-8.75-1.67s-6.64.72-9.25,1.6c-2.61.88-9.92,4.45-16.25,7.94-6.33,3.49-14.2,7.24-17.5,8.33s-7.8,2.27-10,2.62c-3,.47-6.37-.13-13.5-2.41-6.36-2.04-11.57-3.05-15.75-3.06-5.7-.02-6.68.31-11.12,3.73-2.68,2.06-5.98,5.1-7.33,6.75-1.36,1.65-4.73,6.38-7.49,10.5-2.75,4.13-6.2,8.06-7.66,8.75s-4,1.25-5.65,1.25-4.24.62-5.75,1.37-5.67,3.77-9.25,6.71c-3.58,2.93-8.97,7.76-12,10.72-3.03,2.97-8.09,7.15-11.25,9.3-3.16,2.14-8,4.8-10.75,5.9s-9.16,2.67-14.25,3.5c-5.09.82-12.51,1.49-16.5,1.5-4.83,0-8.48.58-10.94,1.75-2.79,1.32-4.22,2.97-5.87,6.75-1.21,2.75-3.15,8.37-4.31,12.5-1.16,4.12-2.12,8.74-2.12,10.25,0,1.51-.94,6.69-2.07,11.5-1.13,4.81-2.93,10.77-4,13.25s-2.17,4.27-2.45,4l-24.49,23c.28.02-.07,2.4-.78,5.27h0ZM353.87,101.99c1.87-.79,4.02-2.33,4.76-3.43.99-1.46,1.36-1.6,1.38-.5h0c.02.82-.81,2.62-1.84,4-1.03,1.37-4.08,3.57-6.79,4.88-2.7,1.3-7.38,3.95-10.41,5.89-3.03,1.93-9.04,6.94-13.37,11.12-4.33,4.19-10.4,10.76-13.48,14.61-3.09,3.85-6.97,9.07-8.63,11.6s-5.94,7.88-9.52,11.88-7.63,8.68-9,10.4c-1.38,1.72-5.65,6.15-9.5,9.86-5.09,4.9-9.87,8.22-17.5,12.18-7,3.63-15.17,6.79-24.5,9.47-7.7,2.21-18.28,4.96-23.5,6.11s-11.43,2.63-13.79,3.29c-2.78.78-4.1,1.65-3.75,2.46.31.71-.21,1.31-1.21,1.38-.96.07-2.9.18-4.31.25-1.47.07-4.79,2.04-7.79,4.62-2.88,2.48-5.44,4.16-5.69,3.75s.66-2.55,2.04-4.75c1.37-2.2,3.51-4.63,4.75-5.41,1.24-.77,4.5-2.14,7.25-3.04s6.35-2.24,8-3c1.65-.75,4.8-2.1,7-3,2.2-.91,7.15-2.26,11-3.01s9.92-1.63,13.5-1.97,9.65-1.56,13.5-2.71c3.85-1.15,9.92-3.65,13.5-5.56,3.58-1.9,7.4-3.98,8.5-4.63,1.1-.64,4.02-2.74,6.5-4.67,2.47-1.93,5.5-4.63,6.73-6,1.24-1.38,6.63-9.02,11.98-17,5.36-7.98,12.22-17.88,15.24-22,3.03-4.13,8.23-10.2,11.56-13.5,4.1-4.06,8.64-7.26,14.03-9.89,4.38-2.13,10.66-5.76,13.96-8.06,3.3-2.3,7.53-4.83,9.4-5.62h0ZM263.53,160.56c.33-3.3,1.27-10.05,2.07-15,.81-4.95,1.88-11.7,2.39-15,.5-3.3,2.33-10.95,4.08-17,1.74-6.05,4.23-13.81,5.53-17.25s4-9.51,6-13.5c1.99-3.99,6.01-11.3,8.92-16.25,2.92-4.95,7.4-11.25,9.98-14,2.57-2.75,3.7-3.65,2.52-2h0c-1.18,1.65-3.64,5.25-5.45,8-1.82,2.75-4.47,7.03-5.89,9.5-1.43,2.47-4.04,7.43-5.8,11-1.75,3.57-4.31,8.97-5.67,12-1.37,3.03-3.56,8.65-4.89,12.5-1.32,3.85-3.25,10.6-4.3,15-1.04,4.4-2.84,13.63-3.99,20.5-1.15,6.88-2.34,15.88-2.66,20-.31,4.13-.78,8.18-1.04,9-.41,1.33-.57,1.33-1.44,0-.54-.83-.7-4.16-.36-7.5h0ZM165.22,94.64c.41-.32,3.11.6,6,2.03,2.89,1.44,7.95,4.24,11.25,6.23,3.3,1.99,12.75,9.23,21,16.08,8.25,6.86,18.15,15.47,22,19.14,3.85,3.67,10.15,9.38,14,12.69,3.85,3.3,8.18,7.3,9.63,8.88,1.44,1.58,2.87,3.55,3.17,4.37.3.82.58,2.06.62,2.75s-.37,1.25-.92,1.25-1.61-1.24-2.36-2.75-5.35-6.35-10.21-10.75c-4.87-4.4-12.25-11.19-16.39-15.1-4.15-3.9-8.89-8.24-10.54-9.65-1.65-1.4-8.85-7.32-16-13.15-7.15-5.82-16.5-12.51-20.78-14.85s-8.55-4.78-9.5-5.42c-.94-.64-1.38-1.43-.97-1.75ZM148.97,135.46c.28-.25,5.9.89,12.5,2.52,6.6,1.63,15.6,4.09,20,5.47,4.4,1.37,14.08,4.3,21.5,6.51,7.42,2.2,16.2,4.95,19.5,6.09,3.3,1.15,9.83,3.74,14.5,5.77,4.67,2.02,9.17,4.26,10,4.97.83.72,5.21,4.22,18,14.27l-3.12-5.25c-1.71-2.89-4.7-8.4-6.64-12.25s-5.52-13.07-7.95-20.5c-2.58-7.88-5.23-18.7-6.38-26-1.07-6.87-2.45-16.32-3.05-21-.61-4.68-.84-12.77-.52-18,.32-5.22,1.27-11.64,2.12-14.25s1.99-4.75,2.54-4.75c.63,0,.67.65.09,1.75-.49.96-1.46,5.57-2.14,10.25-.75,5.2-.98,12-.58,17.5.36,4.95,1.34,13.28,2.16,18.5.83,5.23,2.01,11.98,2.61,15,.61,3.02,2.69,10.68,4.63,17,1.94,6.32,4.84,14.43,6.44,18,1.61,3.57,4.75,9.88,6.98,14,3.06,5.65,4.27,7.13,4.92,6,.47-.82.87-2.74.87-4.25.01-1.51,1.42-6.91,3.13-12s3.69-10.6,4.4-12.25,2.97-7.05,5.03-12,5.54-12.37,7.74-16.5c2.2-4.12,8.06-14.02,13.03-22,4.98-7.97,10.84-16.97,13.04-20,2.2-3.02,7.86-9.45,12.57-14.27,4.72-4.83,8.95-8.69,9.41-8.59s-3.48,4.83-8.75,10.52-11.98,14.05-14.91,18.59c-2.94,4.54-8.04,12.53-11.34,17.75s-7.84,12.88-10.08,17c-2.24,4.13-6.2,12.68-8.78,19-2.59,6.32-6.04,15.1-7.66,19.5-1.63,4.4-3.52,11.82-4.21,16.5-1.03,6.98-1.55,8.46-2.92,8.25-1.11-.16-1.5.26-1.18,1.25.28.82.16,1.7-.25,1.95-.41.24-3.26-1.9-6.33-4.75-3.06-2.86-9.02-7.56-13.25-10.45-4.46-3.06-12.79-7.3-19.92-10.15-6.74-2.7-19.9-7.24-29.25-10.1s-21.05-6.3-26-7.65c-4.95-1.34-12.15-3.36-16-4.48s-6.78-2.23-6.5-2.47ZM85.22,180.17c1.24-.5,8.1-1.85,15.25-3.02,7.15-1.16,17.28-2.76,22.5-3.55,5.22-.8,13.33-1.75,18-2.12s13-.61,18.5-.52c5.5.08,14.72.61,20.5,1.18,5.78.57,10.61,1.45,10.75,1.97s.59.74,1,.49,4.58.2,9.25,1c4.67.81,10.97,2.09,14,2.86,3.03.78,9.78,2.97,15,4.89s10.74,3.77,12.25,4.11c1.51.35,2.75,1.07,2.75,1.62s-.79.97-1.75.96-7.6-2.06-14.75-4.56c-7.6-2.66-19.23-5.72-28-7.37-8.25-1.56-18.15-3.35-22-3.99-3.85-.65-13.53-1.1-21.5-1-7.97.09-21.03,1.04-29,2.09-7.97,1.06-20.35,2.99-27.5,4.28-7.15,1.3-14.01,2.63-15.25,2.96-1.24.34-2.25.16-2.25-.39s1.01-1.4,2.25-1.89Z"/>
  <path class="st0" d="M356.97,565.61c-.55-.3-1.05-1.56-1.12-2.8-.09-1.82-.26-1.68-.88.75-.42,1.65-.82,4.69-.88,6.75-.07,2.06.38,4.09.99,4.5s1.51.08,1.99-.75.88-2.94.88-4.7c.01-1.76-.43-3.45-.98-3.75h0Z"/>
  <path class="st0" d="M301.47,265.06c-1.38-.55-3.63-1-5-1s-2.51.34-2.52.75c-.02.41,1.84,1.43,4.12,2.25,2.44.88,5.85,3.39,8.27,6.09,2.27,2.52,5.34,6.12,6.83,8,1.48,1.87,2.7,3.18,2.71,2.91,0-.27-.71-1.85-1.6-3.5s-3.57-5.59-5.96-8.75c-2.39-3.16-5.48-6.2-6.85-6.75h0Z"/>
  <path class="st0" d="M323.34,294.81c1.44,3.99,2.85,7.25,3.13,7.25s.47-.56.43-1.25-.87-3.5-1.85-6.25-2.3-6.24-2.93-7.75-1.6-2.98-2.15-3.25-1,.08-1,.8.39,1.73.87,2.25c.47.52,2.05,4.21,3.5,8.2Z"/>
  <path class="st0" d="M336.07,340.51c.55.58.9.31.9-.7,0-.91-.35-1.97-.78-2.37-.43-.39-.9-2.1-1.05-3.8h0c-.15-1.69-1.07-4.88-2.05-7.08-.98-2.2-2.13-5.35-2.55-7-.42-1.65-1.4-3.9-2.17-5-1.04-1.47-1.42-1.6-1.43-.5-.01.82,1.84,6.9,4.11,13.5s4.53,12.43,5.02,12.95h0Z"/>
  <path class="st0" d="M345.41,435.56c.2,2.75,1.35,8.6,2.56,13s2.6,9.91,3.1,12.25c.49,2.34,1.32,5.04,1.84,6,.51.96,1.75,4.77,2.75,8.47.99,3.7,1.86,6.62,1.92,6.5.05-.12.33-1.57.62-3.22.28-1.65.1-4.58-.4-6.5-.51-1.92-1.19-4.17-1.52-5-.34-.83-.77-2.24-.97-3.15s-.99-3.16-1.75-5-1.85-5.15-2.41-7.35-2.16-7.83-3.57-12.5c-2.39-7.98-2.52-8.19-2.17-3.5Z"/>
  <path class="st0" d="M346.02,409.56c-.43-.55-1.56-3.28-2.5-6.06s-2.01-5.15-2.38-5.27c-.37-.11-.32,2.17.12,5.06.43,2.9,1.93,8.87,3.34,13.27,1.4,4.4,3.15,9.35,3.89,11l1.35,3c-.03-4.65-.71-9.15-1.53-13-.83-3.85-1.86-7.45-2.29-8h0Z"/>
  <path class="st0" d="M340.48,379.56c1.27,3.3,2.91,8.14,3.65,10.76.74,2.61,1.68,4.75,2.09,4.75.41-.01.69-.35.62-.76-.06-.41-.44-2.55-.82-4.75-.39-2.2-2.22-8.74-4.07-14.52h0c-1.85-5.79-3.72-10.63-4.17-10.75-.45-.13-.54,1.91-.21,4.52.33,2.61,1.64,7.45,2.91,10.75h0Z"/>
  <path class="st1" d="M265.33,168.06c.26-.82.73-4.87,1.04-9,.32-4.12,1.51-13.12,2.66-20,1.15-6.87,2.95-16.1,3.99-20.5,1.05-4.4,2.98-11.15,4.3-15,1.33-3.85,3.52-9.47,4.89-12.5,1.36-3.03,3.92-8.43,5.67-12,1.76-3.57,4.37-8.53,5.8-11,1.42-2.47,4.07-6.75,5.89-9.5,1.81-2.75,4.27-6.35,5.45-8h0c1.18-1.65.05-.75-2.52,2-2.58,2.75-7.06,9.05-9.98,14-2.91,4.95-6.93,12.26-8.92,16.25-2,3.99-4.7,10.06-6,13.5s-3.79,11.2-5.53,17.25c-1.75,6.05-3.58,13.7-4.08,17-.51,3.3-1.58,10.05-2.39,15-.8,4.95-1.74,11.7-2.07,15-.34,3.34-.18,6.67.36,7.5.87,1.33,1.03,1.33,1.44,0Z"/>
  <path class="st1" d="M316.48,125.56c-3.33,3.3-8.53,9.37-11.56,13.5-3.02,4.12-9.88,14.02-15.24,22-5.35,7.98-10.74,15.62-11.98,17-1.23,1.37-4.26,4.07-6.73,6-2.48,1.93-5.4,4.03-6.5,4.67-1.1.65-4.92,2.73-8.5,4.63-3.58,1.91-9.65,4.41-13.5,5.56s-9.92,2.37-13.5,2.71c-3.58.34-9.65,1.22-13.5,1.97s-8.8,2.1-11,3.01c-2.2.9-5.35,2.25-7,3-1.65.76-5.25,2.1-8,3s-6.01,2.27-7.25,3.04c-1.24.78-3.38,3.21-4.75,5.41-1.38,2.2-2.29,4.34-2.04,4.75s2.81-1.27,5.69-3.75c3-2.58,6.32-4.55,7.79-4.62,1.41-.07,3.35-.18,4.31-.25,1-.07,1.52-.67,1.21-1.38-.35-.81.97-1.68,3.75-2.46,2.36-.66,8.57-2.14,13.79-3.29s15.8-3.9,23.5-6.11c9.33-2.68,17.5-5.84,24.5-9.47,7.63-3.96,12.41-7.28,17.5-12.18,3.85-3.71,8.12-8.14,9.5-9.86,1.37-1.72,5.42-6.4,9-10.4s7.86-9.35,9.52-11.88,5.54-7.75,8.63-11.6c3.08-3.85,9.15-10.42,13.48-14.61,4.33-4.18,10.34-9.19,13.37-11.12,3.03-1.94,7.71-4.59,10.41-5.89,2.71-1.31,5.76-3.51,6.79-4.88,1.03-1.38,1.86-3.18,1.84-4h0c-.02-1.1-.39-.96-1.38.5-.74,1.1-2.89,2.64-4.76,3.43s-6.1,3.32-9.4,5.62-9.58,5.93-13.96,8.06c-5.39,2.63-9.93,5.83-14.03,9.89h0ZM319.47,128.59c-3.85,4.36-7.82,8.84-8.83,9.95-1,1.11-3.92,5.17-6.49,9.02-2.57,3.85-5.46,7.79-6.43,8.75-.96.96-1.75,1.3-1.75.75s2.77-5.16,6.15-10.25,8.73-12.18,11.9-15.75c3.16-3.57,7.26-7.38,9.1-8.44,2.8-1.63,2.21-.66-3.65,5.97h0Z"/>
  <path class="st1" d="M155.47,137.93c3.85,1.12,11.05,3.14,16,4.48,4.95,1.35,16.65,4.79,26,7.65s22.51,7.4,29.25,10.1c7.13,2.85,15.46,7.09,19.92,10.15,4.23,2.89,10.19,7.59,13.25,10.45,3.07,2.85,5.92,4.99,6.33,4.75.41-.25.53-1.13.25-1.95-.32-.99.07-1.41,1.18-1.25,1.37.21,1.89-1.27,2.92-8.25.69-4.68,2.58-12.1,4.21-16.5,1.62-4.4,5.07-13.18,7.66-19.5,2.58-6.32,6.54-14.87,8.78-19,2.24-4.12,6.78-11.78,10.08-17s8.4-13.21,11.34-17.75c2.93-4.54,9.64-12.9,14.91-18.59s9.21-10.42,8.75-10.52-4.69,3.76-9.41,8.59c-4.71,4.82-10.37,11.25-12.57,14.27-2.2,3.03-8.06,12.03-13.04,20-4.97,7.98-10.83,17.88-13.03,22-2.2,4.13-5.68,11.55-7.74,16.5s-4.32,10.35-5.03,12-2.69,7.16-4.4,12.25-3.12,10.49-3.13,12c0,1.51-.4,3.43-.87,4.25-.65,1.13-1.86-.35-4.92-6-2.23-4.12-5.37-10.43-6.98-14-1.6-3.57-4.5-11.68-6.44-18-1.94-6.32-4.02-13.98-4.63-17-.6-3.02-1.78-9.77-2.61-15-.82-5.22-1.8-13.55-2.16-18.5-.4-5.5-.17-12.3.58-17.5.68-4.68,1.65-9.29,2.14-10.25.58-1.1.54-1.75-.09-1.75-.55,0-1.69,2.14-2.54,4.75s-1.8,9.03-2.12,14.25c-.32,5.23-.09,13.32.52,18,.6,4.68,1.98,14.13,3.05,21,1.15,7.3,3.8,18.12,6.38,26,2.43,7.43,6.01,16.65,7.95,20.5s4.93,9.36,6.64,12.25l3.12,5.25c-12.79-10.05-17.17-13.55-18-14.27-.83-.71-5.33-2.95-10-4.97-4.67-2.03-11.2-4.62-14.5-5.77-3.3-1.14-12.08-3.89-19.5-6.09-7.42-2.21-17.1-5.14-21.5-6.51-4.4-1.38-13.4-3.84-20-5.47s-12.22-2.77-12.5-2.52c-.28.24,2.65,1.35,6.5,2.47Z"/>
  <path class="st1" d="M449.24,115.56c-1.15-3.85-3.28-11.95-4.74-18s-3.64-12.94-4.84-15.31c-1.21-2.37-3.77-5.55-5.69-7.07s-5.3-3.72-7.5-4.91c-2.2-1.18-6.47-3.2-9.5-4.5-3.03-1.29-8.42-4.32-12-6.73-3.58-2.42-8.46-6.22-10.86-8.44-2.4-2.22-6-6.24-8-8.93-2-2.69-4.77-5.47-6.14-6.17-1.78-.92-10.15-1.41-29-1.72-23.93-.39-27.08-.65-32.5-2.58-3.3-1.19-8.25-3.35-11-4.82-2.75-1.46-9.05-5.37-14-8.67-4.95-3.31-11.03-6.61-13.5-7.35-2.47-.73-6.53-1.32-9-1.32s-6.97.72-10,1.59c-3.03.88-8.88,3.41-13,5.64-4.13,2.22-8.17,4.6-9,5.29-.83.69-5.66,2.89-10.75,4.88-5.09,1.99-10.26,3.63-11.5,3.64s-6.75-1.38-12.25-3.08c-8.46-2.62-11.07-3.02-17-2.59-6.08.45-7.71,1.02-12.39,4.33-2.97,2.1-7.04,5.85-9.06,8.32-2.01,2.47-5.4,7.2-7.54,10.5-2.13,3.3-4.36,6.33-4.94,6.73-.59.41-2.2.77-3.57.8-1.38.03-4.3.71-6.5,1.51s-5.79,2.69-7.97,4.21c-2.19,1.51-6.91,5.63-10.5,9.16-3.59,3.52-9.23,8.66-12.53,11.42-3.3,2.75-8.25,6.05-11,7.33-3.02,1.4-9.36,2.91-16,3.81-6.05.82-13.81,1.5-17.25,1.51s-7.71.62-9.5,1.35c-1.79.72-4.73,3.09-6.53,5.25-1.81,2.15-3.56,5.04-3.89,6.42-.33,1.37-.96,2.95-1.4,3.5-.43.55-1.28,3.03-1.88,5.5-.6,2.48-2.15,10.57-3.45,18-1.3,7.43-3.09,15.3-3.98,17.5-.9,2.2-1.4,4.23-1.13,4.5.28.27,1.38-1.52,2.45-4,1.07-2.48,2.87-8.44,4-13.25s2.06-9.99,2.07-11.5c0-1.51.96-6.13,2.12-10.25,1.16-4.13,3.1-9.75,4.31-12.5,1.65-3.78,3.08-5.43,5.87-6.75,2.46-1.17,6.11-1.75,10.94-1.75,3.99-.01,11.41-.68,16.5-1.5,5.09-.83,11.5-2.4,14.25-3.5s7.59-3.76,10.75-5.9c3.16-2.15,8.22-6.33,11.25-9.3,3.03-2.96,8.42-7.79,12-10.72,3.58-2.94,7.74-5.96,9.25-6.71s4.1-1.37,5.75-1.37,4.19-.56,5.65-1.25c1.46-.69,4.91-4.62,7.66-8.75,2.76-4.12,6.13-8.85,7.49-10.5,1.35-1.65,4.65-4.69,7.33-6.75,4.44-3.42,5.42-3.75,11.12-3.73,4.18,0,9.39,1.02,15.75,3.06,7.13,2.28,10.5,2.88,13.5,2.41,2.2-.35,6.7-1.53,10-2.62s11.17-4.84,17.5-8.33,13.64-7.06,16.25-7.94c2.61-.88,6.78-1.6,9.25-1.6s6.41.75,8.75,1.67c2.34.93,6.72,3.31,9.75,5.3,3.03,2,8.65,5.51,12.5,7.82s10.37,5.39,14.5,6.86c7.24,2.57,8.39,2.68,33.5,3.06,14.44.22,27.11.85,28.5,1.42,1.37.56,4.75,3.97,7.5,7.58,2.89,3.79,8.37,9.08,13,12.54,4.4,3.28,13.17,8.44,19.5,11.45s13,6.9,14.84,8.64c1.83,1.74,4.03,4.51,4.89,6.16.86,1.65,3.04,8.63,4.85,15.5,1.8,6.87,5.29,18.57,7.74,26,2.46,7.43,4.75,16.2,5.09,19.5.58,5.67.43,6.28-2.82,11-1.89,2.75-5.43,7.02-7.86,9.5s-6.4,6.2-8.82,8.27c-2.43,2.07-4.63,3.75-4.91,3.73-.28,0-3.51,3.01-7.19,6.74-3.69,3.72-8.06,8.33-9.71,10.26-1.66,1.93-3.02,3.95-3.03,4.5,0,.55-.81,1.74-1.79,2.63-.98.9-3.25,5.63-5.05,10.5-1.8,4.88-4.93,12.24-6.95,16.37-2.03,4.12-4.72,8.96-5.99,10.75-1.26,1.79-2.27,3.59-2.26,4,.02.41-3.92,4.86-8.75,9.88-5.75,5.98-10.5,9.94-13.78,11.5-4.52,2.14-6.3,2.36-18.5,2.3-7.81-.04-18.56-.84-25.5-1.91-6.71-1.04-17.73-1.89-25-1.93-11.59-.06-13.65.2-19,2.38-3.3,1.35-8.44,4.04-11.42,5.99-2.98,1.95-7.18,5.56-9.34,8.04s-5.91,7.31-8.33,10.75c-2.43,3.44-4.43,6.59-4.45,7,0,.41-2.35,4.57-5.19,9.25-2.83,4.68-7.65,10.93-10.71,13.9s-9.84,8.35-15.06,11.96-12.76,7.82-16.75,9.35c-5.76,2.22-8.9,2.79-15.25,2.79s-10.05-.67-17.25-3.05c-5.09-1.68-12.4-4.56-16.25-6.41-3.85-1.84-9.89-5.53-13.41-8.19-4.12-3.12-10.44-9.86-17.67-18.85-6.2-7.7-12.08-14.69-13.09-15.53-1.01-.84-4.98-3.98-8.83-6.96-3.85-2.99-9.92-6.62-13.5-8.08-3.58-1.45-8.64-2.93-11.25-3.28-3.21-.44-6.77-2.02-11-4.9-5.3-3.6-6.79-5.32-9.76-11.25-1.93-3.85-4.82-10.6-6.42-15-1.59-4.4-4.04-10.48-5.43-13.5s-3.65-7.07-5.03-9c-1.37-1.93-3.65-4.79-5.05-6.36-1.41-1.58-4.25-3.94-6.31-5.25-2.06-1.32-5.09-4.53-6.74-7.14-1.64-2.61-3.23-6.32-3.53-8.25-.29-1.93.04-5.85.74-8.73.71-2.87,1.06-5.25.78-5.27-.28-.03-1.28,2.54-2.24,5.72s-1.73,6.91-1.73,8.28.83,4.3,1.82,6.5c.99,2.2,3.35,5.74,5.23,7.87,1.88,2.12,4.77,4.41,6.42,5.07,1.81.73,4.6,3.56,7.03,7.13,2.22,3.26,5.31,9.31,6.87,13.43,1.55,4.12,4.44,11.55,6.42,16.5,1.97,4.95,4.73,10.73,6.13,12.84s4.8,5.38,7.55,7.27c3.07,2.1,8.09,4.23,13,5.49,4.4,1.13,10.25,3.19,13,4.56s7.47,4.35,10.5,6.62c3.03,2.26,7.92,6.62,10.87,9.67s8.58,9.78,12.5,14.95c3.92,5.18,9.38,11.27,12.13,13.55,2.75,2.27,6.8,5.34,9,6.83,2.2,1.48,8.16,4.5,13.25,6.71,5.09,2.2,12.74,4.98,17,6.16,4.52,1.25,10.67,2.15,14.75,2.15,5.13,0,9.26-.77,15.5-2.92,5.41-1.85,11-4.73,15.38-7.9,3.78-2.74,8.95-6.36,11.5-8.06,2.54-1.69,7.09-5.81,10.12-9.16s7.47-9.84,9.88-14.43c2.42-4.58,6.92-11.88,10-16.22,3.09-4.34,7.87-9.75,10.62-12.02s8.49-5.58,12.75-7.36l7.75-3.23c7.16,4.26,10.62,6.85,12.31,8.5s4.68,5.48,6.64,8.5c1.96,3.02,6.01,10.9,9,17.5,3.14,6.94,5.53,13.69,5.66,16,.12,2.2.83,4.45,1.58,5s2.13,3.48,3.05,6.5c.93,3.02,2.39,8.43,3.25,12s1.79,8.75,2.07,11.5.92,6.35,1.42,8,1.19,5.25,1.53,8,1.23,9.27,1.98,14.5,1.85,13.21,2.44,17.75.85,8.7.57,9.25-.18,1.56.22,2.25.82,1.92.95,2.75c.12.83.49,6.45.82,12.5.33,6.05.8,11.9,1.05,13s.67,5.83.94,10.5c.26,4.67.79,12.1,1.18,16.5.39,4.4.71,22.62.71,40.5s-.26,38.58-.58,46c-.31,7.42-.88,14.17-1.25,15-.46,1.02,1.52,3.83,6.14,8.74,3.89,4.12,7.68,7.26,8.82,7.29,1.1.03,2.5-.52,3.11-1.24.61-.71,1.39-3.09,1.73-5.29.34-2.2,1.26-4.45,2.04-5,1.08-.76,1.31-2.78.98-8.5-.23-4.12-.58-26.17-.77-49-.19-22.83-.88-46.9-1.53-53.5s-2.07-17.4-3.16-24c-1.1-6.6-2.64-16.73-3.44-22.5s-1.92-12.98-2.5-16-1.47-7.52-1.98-10-1.66-9-2.55-14.5-2.74-15.62-4.12-22.5c-1.37-6.87-3.81-17.23-5.43-23-1.61-5.77-3.33-11.85-3.82-13.5-.49-1.65-1.19-4.57-1.55-6.5s-1.79-7.1-3.18-11.5c-1.39-4.4-3.39-9.69-4.43-11.75-1.05-2.06-3.56-6.11-5.58-9s-4.61-6.27-5.75-7.53c-1.24-1.36-1.57-2.26-.82-2.25.69.02,7.21.75,14.5,1.64,7.77.94,17.8,1.44,24.25,1.22,9.32-.33,11.84-.79,16.5-3.01,3.03-1.44,7.8-4.81,10.62-7.47,2.82-2.67,7.32-7.78,10-11.35,2.69-3.57,5.63-7.85,6.54-9.5.9-1.65,2.83-5.25,4.28-8,1.44-2.75,3.55-7.48,4.67-10.5,1.13-3.02,2.46-7.07,2.97-9s2.04-4.96,3.42-6.75c1.37-1.79,2.49-3.59,2.48-4,0-.41,3.71-4.6,8.25-9.31,4.55-4.71,10.74-10.56,13.75-13,3.02-2.44,7.97-6.75,11-9.57,3.04-2.82,6.79-7.54,8.35-10.5,1.97-3.74,2.97-7.34,3.3-11.87h0c.41-5.73.07-7.45-2.9-14.5-1.86-4.4-4.31-11.15-5.46-15h0ZM352.22,573.49c-.41.24-1.42.07-2.25-.38-.83-.46-1.16-1.33-.75-1.94s.3-2.01-.25-3.11-1.38-2.79-1.84-3.75-.91-6.14-1-11.5c-.09-5.67.26-9.96.84-10.25.55-.27,1.2-.16,1.44.25.25.41.7,2.55,1,4.75.31,2.2.85,4.9,1.2,6h0c.36,1.1.97,5.37,1.36,9.5.4,4.12.78,8.06.86,8.75s-.2,1.45-.61,1.68ZM347.92,507.06c.51-1.94,1.16-.36,2.9,7,1.24,5.23,2.67,13.1,3.17,17.5.51,4.4,1.34,9.8,1.85,12s.96,4.9,1,6c.06,1.63-.1,1.72-.85.5-.5-.83-2.49-7.8-4.42-15.5-1.92-7.7-3.68-16.48-3.9-19.5s-.11-6.63.25-8h0ZM357.07,574.06c-.48.83-1.38,1.16-1.99.75s-1.06-2.44-.99-4.5c.06-2.06.46-5.1.88-6.75.62-2.43.79-2.57.88-.75.07,1.24.57,2.5,1.12,2.8s.99,1.99.98,3.75c0,1.76-.4,3.87-.88,4.7h0ZM358.05,539.06c-.47-.83-1.12-3.75-1.46-6.5-.33-2.75-1.06-7.7-1.61-11s-.96-6.45-.92-7h0c.04-.55,1.14,1.25,2.43,4,1.89,4,2.36,6.7,2.39,13.5.02,5.19-.3,7.92-.83,7h0ZM357.97,504.56c.55.27,1,1.85,1,3.5s-.34,3.01-.75,3.02c-.41.01-1.8-3.93-3.08-8.75s-2.93-11.69-3.66-15.27c-.72-3.58-2.01-9.2-2.85-12.5s-1.67-8.33-1.85-11.17c-.17-2.85-.09-5.43.19-5.73.28-.31,2.01,4.94,3.86,11.67,1.85,6.73,4.18,14.48,5.18,17.23s1.98,5.9,2.19,7c.2,1.1.4,3.35.43,5,.04,1.65-.32,3.56-.8,4.25-.5.73-.45,1.46.14,1.75ZM352.97,438.06c.55,0,1,1.58,1,3.5s-.43,3.29-1,3c-.55-.27-1-1.85-1-3.5s.45-3,1-3ZM351.15,451.56c.56,2.2,1.65,5.51,2.41,7.35s1.55,4.09,1.75,5,.63,2.32.97,3.15c.33.83,1.01,3.08,1.52,5,.5,1.92.68,4.85.4,6.5-.29,1.65-.57,3.1-.62,3.22-.06.12-.93-2.8-1.92-6.5-1-3.7-2.24-7.51-2.75-8.47-.52-.96-1.35-3.66-1.84-6-.5-2.34-1.89-7.85-3.1-12.25s-2.36-10.25-2.56-13c-.35-4.69-.22-4.48,2.17,3.5,1.41,4.67,3.01,10.3,3.57,12.5ZM348.31,417.56c.82,3.85,1.5,8.35,1.53,13l-1.35-3c-.74-1.65-2.49-6.6-3.89-11-1.41-4.4-2.91-10.37-3.34-13.27-.44-2.89-.49-5.17-.12-5.06.37.12,1.44,2.49,2.38,5.27s2.07,5.51,2.5,6.06h0c.43.55,1.46,4.15,2.29,8ZM337.78,364.29c.45.12,2.32,4.96,4.17,10.75h0c1.85,5.78,3.68,12.32,4.07,14.52.38,2.2.76,4.34.82,4.75.07.41-.21.75-.62.76-.41,0-1.35-2.14-2.09-4.75-.74-2.62-2.38-7.46-3.65-10.76-1.27-3.3-2.58-8.14-2.91-10.75-.33-2.61-.24-4.65.21-4.52h0ZM328.37,314.56c.77,1.1,1.75,3.35,2.17,5s1.57,4.8,2.55,7c.98,2.2,1.9,5.39,2.05,7.08h0c.15,1.7.62,3.41,1.05,3.8.43.4.78,1.46.78,2.37,0,1.01-.35,1.28-.9.7-.49-.52-2.75-6.35-5.02-12.95s-4.12-12.68-4.11-13.5c.01-1.1.39-.97,1.43.5h0ZM319.97,283.56c.55.27,1.52,1.74,2.15,3.25s1.95,5,2.93,7.75,1.81,5.56,1.85,6.25-.15,1.25-.43,1.25-1.69-3.26-3.13-7.25c-1.45-3.99-3.03-7.68-3.5-8.2-.48-.52-.87-1.54-.87-2.25s.45-1.07,1-.8ZM314.28,280.56c.89,1.65,1.6,3.23,1.6,3.5-.01.27-1.23-1.04-2.71-2.91-1.49-1.88-4.56-5.48-6.83-8-2.42-2.7-5.83-5.21-8.27-6.09-2.28-.82-4.14-1.84-4.12-2.25.01-.41,1.14-.75,2.52-.75s3.62.45,5,1c1.37.55,4.46,3.59,6.85,6.75s5.07,7.1,5.96,8.75h0Z"/>
  <path class="st1" d="M166.19,96.39c.95.64,5.22,3.08,9.5,5.42s13.63,9.03,20.78,14.85c7.15,5.83,14.35,11.75,16,13.15,1.65,1.41,6.39,5.75,10.54,9.65,4.14,3.91,11.52,10.7,16.39,15.1,4.86,4.4,9.46,9.24,10.21,10.75s1.81,2.75,2.36,2.75.96-.56.92-1.25c-.04-.69-.32-1.93-.62-2.75-.3-.82-1.73-2.79-3.17-4.37-1.45-1.58-5.78-5.58-9.63-8.88-3.85-3.31-10.15-9.02-14-12.69s-13.75-12.28-22-19.14c-8.25-6.85-17.7-14.09-21-16.08-3.3-1.99-8.36-4.79-11.25-6.23-2.89-1.43-5.59-2.35-6-2.03s.03,1.11.97,1.75Z"/>
  <path class="st1" d="M85.22,182.45c1.24-.33,8.1-1.66,15.25-2.96,7.15-1.29,19.53-3.22,27.5-4.28,7.97-1.05,21.03-2,29-2.09,7.97-.1,17.65.35,21.5,1,3.85.64,13.75,2.43,22,3.99,8.77,1.65,20.4,4.71,28,7.37,7.15,2.5,13.79,4.55,14.75,4.56s1.75-.42,1.75-.96-1.24-1.27-2.75-1.62c-1.51-.34-7.03-2.19-12.25-4.11s-11.97-4.11-15-4.89c-3.03-.77-9.33-2.05-14-2.86-4.67-.8-8.84-1.25-9.25-1s-.86.03-1-.49-4.97-1.4-10.75-1.97-15-1.1-20.5-1.18c-5.5-.09-13.83.15-18.5.52s-12.78,1.32-18,2.12c-5.22.79-15.35,2.39-22.5,3.55-7.15,1.17-14.01,2.52-15.25,3.02-1.24.49-2.25,1.34-2.25,1.89s1.01.73,2.25.39Z"/>
  <path class="st1" d="M11.97,179.06l24.49-23s-21.52,12.58-24.49,23Z"/>
</svg>