<?xml version="1.0" encoding="UTF-8"?>
<svg id="Layer_1" xmlns="http://www.w3.org/2000/svg" version="1.1" viewBox="0 0 374.93 234.17">
  <!-- Generator: Adobe Illustrator 30.0.0, SVG Export Plug-In . SVG Version: 2.1.1 Build 123)  -->
  <defs>
    <style>
      .st0, .st1, .st2 {
        stroke: #fff;
        stroke-miterlimit: 10;
      }

      .st1 {
        fill: #fff;
      }

      .st2 {
        fill: #ff00cf;
      }
    </style>
  </defs>
  <path class="st2" d="M327.61,173.46c-.69-.03-3.5.82-6.25,1.88s-5,2.41-5,3,.34,1.05.75,1.02c.41-.02,3.23-1.35,6.25-2.95,3.03-1.6,4.94-2.93,4.25-2.95Z"/>
  <path class="st0" d="M366.87,111.41c-2.08-3.4-2.63-5.35-2.25-8,.27-1.92,1.25-6.88,2.19-11,1.17-5.14,1.49-9.23,1.02-13-.37-3.02-1.31-6.74-2.07-8.25-.77-1.51-4.21-5.07-7.65-7.91-3.44-2.83-7.99-6.32-10.12-7.75-2.13-1.42-5.22-4.61-6.87-7.09-1.65-2.48-3.91-6.3-5.03-8.5s-2.98-5.33-4.13-6.97c-1.16-1.63-3-3.76-4.1-4.74-1.1-.99-4.25-3.12-7-4.75-3.68-2.18-7.11-3.22-13-3.93-4.4-.53-14.3-1.51-22-2.17-7.83-.68-16.2-1.99-19-2.99-2.75-.99-11.08-3.89-18.5-6.46-13.2-4.58-13.69-4.67-22-4.01-4.67.36-12.33,1.57-17,2.68-7.56,1.79-11.25,1.98-33.5,1.72-13.75-.17-26.8-.16-29,.01-2.2.17-6.02.97-8.5,1.78-2.48.8-6.08,2.14-8,2.97-1.92.82-4.4,1.87-5.5,2.32-1.1.46-4.48,1.83-7.5,3.04-3.77,1.52-6.76,2.06-9.5,1.72-2.65-.33-6.87.38-12.5,2.08-4.67,1.42-10.3,3.7-12.5,5.07s-6.48,4.51-9.5,6.98c-3.02,2.47-7.41,5.31-9.75,6.32-2.47,1.06-5.1,3.19-6.28,5.08-1.87,2.99-2.02,4.6-1.75,19.89.24,14.42.06,16.9-1.39,18.5-.92,1.02-3.85,2.44-6.5,3.15-2.66.7-9.78,3.7-15.83,6.66-9.35,4.57-12.01,6.44-17.75,12.46-3.71,3.9-7.44,8.78-8.27,10.84-.84,2.06-1.47,5.32-1.39,7.25.08,1.93.38,4.4.68,5.5.29,1.1,2.08,4.02,3.96,6.5h0c1.89,2.48,5.53,6.7,8.1,9.39,2.57,2.7,5.12,5.65,5.67,6.58.55.92,2.9,4.57,5.22,8.1,2.49,3.79,5.56,10.54,7.47,16.43,2.97,9.19,3.72,10.49,9.27,16.05,5.41,5.42,6.92,6.32,14.54,8.69,4.67,1.46,11.2,3.12,14.5,3.7,3.3.58,13.42,1.97,22.5,3.09,13.74,1.69,17.5,2.53,22.5,4.99,3.3,1.63,7.8,4.09,10,5.47,2.2,1.38,5.58,3.21,7.5,4.06,1.92.85,5.98,2.11,9,2.8,3.71.85,7.94,1.01,13,.49,4.13-.43,9.52-1.21,12-1.75,2.48-.54,6.75-1.45,9.5-2.02,2.75-.58,13.33-3.36,23.5-6.18,10.17-2.83,23.67-6.7,30-8.62,6.33-1.92,14.65-4.13,18.5-4.93,3.85-.79,15.33-3.24,25.5-5.45,10.17-2.2,20.92-4.99,23.87-6.2,4.44-1.81,5.77-2.96,7.71-6.69,1.29-2.48,3.15-5.46,4.13-6.64.99-1.18,3.37-2.94,5.29-3.9,1.92-.97,7.1-2.63,11.5-3.7,4.4-1.06,10.7-3.35,14-5.09,3.3-1.75,7.91-5.08,10.25-7.42s5.54-6.84,7.12-10c1.58-3.16,3.89-9.13,5.14-13.25,1.24-4.13,2.7-8.4,3.23-9.5.54-1.1.77-3.57.5-5.5-.26-1.93-1.71-5.52-3.23-8ZM200.3,38.91c.56-1.39,1.02.46,1.5,6,.38,4.4,1.12,10.48,1.64,13.5.51,3.02.92,12.48.9,21-.03,8.87-.4,14.86-.88,14-.46-.83-1.17-9.6-1.57-19.5-.41-9.9-1.08-20.48-1.49-23.5-.42-3.02-.79-6.4-.83-7.5-.04-1.1.29-2.9.73-4ZM282.61,147.61c-2.06-1.54-6.56-4.47-10-6.5-3.44-2.04-6.47-3.7-6.75-3.7s-2.41-1.29-4.75-2.86c-2.34-1.58-8.52-5.25-13.75-8.17-5.22-2.93-12.87-7.55-17-10.28-4.12-2.73-8.73-6.14-10.22-7.58-1.79-1.72-3.25-2.35-4.25-1.86-.84.41-1.44,1.31-1.33,2s-.34,2.94-1,5c-1.13,3.52-.98,4.16,2.5,10.5,2.03,3.71,7.11,11.25,11.27,16.75,4.16,5.5,8.35,11.13,9.29,12.5.95,1.37,3.22,4.75,5.06,7.5,1.83,2.75,4.14,6.35,5.13,8,1.33,2.22,1.39,2.61.24,1.5-.85-.82-4.26-5.32-7.58-10s-6.7-9.4-7.5-10.5c-.81-1.1-4.78-6.5-8.83-12-4.04-5.5-8.58-12.14-10.07-14.75-1.49-2.61-3.16-4.75-3.71-4.75s-1.56.6-2.25,1.34c-.91.97-1.05,3.25-.53,8.25.4,3.8,1.65,14.78,2.77,24.41,1.12,9.62,2.15,20.5,2.28,24.17.12,3.67-.09,7.04-.47,7.5-.39.46-.97-3.22-1.28-8.17-.32-4.95-.97-11.25-1.45-14-.49-2.75-1.71-13.18-4.57-41.36l-4.5-.61c-2.47-.33-4.52-.48-4.55-.32-.02.16-2.45,5.47-5.39,11.79s-10.08,21.18-15.87,33c-5.78,11.82-10.68,21.05-10.89,20.5-.2-.55,2.62-7.3,6.27-15s8.57-18.27,10.94-23.5,6.15-13.44,8.4-18.25,4.09-8.98,4.09-9.25-.9-.5-2-.5-5.04,2.69-8.75,5.97c-3.71,3.28-13.95,11.61-22.75,18.52-8.8,6.9-22.73,17.15-30.95,22.78-8.22,5.63-19.69,13.24-25.5,16.93-5.8,3.68-10.77,6.5-11.05,6.25-.27-.25-.27-.6,0-.79.28-.19,11.98-8.16,26-17.72,14.03-9.57,33.34-23.7,42.93-31.41,9.59-7.72,19.49-15.91,22-18.2,3.03-2.76,4.23-4.5,3.57-5.15-.66-.64-2.88-.06-6.5,1.71-3.02,1.48-10.67,4.77-17,7.32-6.33,2.54-19.15,6.88-28.5,9.65-9.35,2.77-21.5,6.59-27,8.48s-13.83,4.81-18.5,6.49-11.42,3.77-15,4.64c-3.58.88-6.72,1.38-7,1.12-.27-.26,3.55-1.64,8.5-3.08,4.95-1.43,10.13-3,11.5-3.49,1.38-.49,6.55-2.47,11.5-4.4,4.95-1.94,18.67-6.41,30.5-9.95,11.83-3.54,25.55-8.1,30.5-10.14s12.95-5.58,17.78-7.87c4.84-2.29,8.77-4.5,8.75-4.91-.01-.41-.82-.96-1.78-1.21-.96-.25-4.22-.71-7.25-1.02-3.02-.3-8.2-1.2-11.5-1.99-3.3-.78-10.05-2.4-15-3.59-4.95-1.19-9.9-2.52-11-2.96-1.1-.44-4.7-1.55-8-2.47-3.3-.93-12.97-3.97-21.5-6.76-8.52-2.8-20.67-7.08-27-9.51s-12.74-5.07-14.25-5.85c-1.51-.79-2.75-1.82-2.75-2.29s.56-.72,1.25-.54c.69.17,7.78,2.85,15.75,5.96,7.98,3.11,17.88,6.71,22,8,4.13,1.3,15.15,4.67,24.5,7.5,9.35,2.83,21.5,6.26,27,7.62,5.5,1.37,13.38,2.86,17.5,3.32,4.13.47,9.19,1.34,11.25,1.94,3.25.95,4.08.84,6.25-.9,1.38-1.1,2.5-2.56,2.5-3.25s-3-5.75-6.67-11.25c-3.68-5.5-9.38-14.5-12.67-20-3.3-5.5-8.28-12.93-11.08-16.52-2.79-3.58-6.09-7.97-7.33-9.75-1.24-1.78-2.14-3.72-2-4.32.14-.6,3.4,3.07,7.25,8.15,3.85,5.08,8.58,11.53,10.51,14.34,1.93,2.8,6.07,9.37,9.21,14.6,3.14,5.23,7.86,12.65,15.28,23.5l12,.57,1.89-5.79c1.03-3.18,6.94-16.13,13.13-28.78,6.19-12.65,12.07-25.48,13.07-28.5,1-3.02,2.29-6.07,2.87-6.77.57-.7,1.15-1.15,1.28-1,.13.15-.88,3.65-2.24,7.77-1.36,4.13-6.49,15.83-11.4,26-4.91,10.17-9.52,20.5-10.26,22.94-.74,2.45-1.9,5.04-2.59,5.75-.69.72-1.72,2.55-2.29,4.06-.57,1.51-.8,3.31-.5,4,.3.69,1.67,1.25,3.04,1.25,1.48,0,6.67-2.92,12.75-7.18,5.64-3.95,14.98-10.31,20.75-14.14,5.78-3.83,14.28-10.16,18.9-14.07,4.62-3.91,9.9-8.91,11.74-11.11,1.84-2.2,3.69-3.65,4.1-3.22.42.43-3.74,5.19-9.24,10.59-5.5,5.39-13.15,11.9-17,14.47-3.85,2.56-7.56,4.66-8.25,4.66s-1.23.34-1.21.75c.02.41-1.89,2.06-4.25,3.66-2.36,1.59-8.79,6.08-24.29,17.01l14,2.24c7.7,1.23,19.05,2.6,25.21,3.04,6.17.44,10.89,1.12,10.5,1.52-.39.4-6.11.27-12.71-.29-6.6-.55-15.83-1.66-20.5-2.46-4.67-.81-9.4-1.49-10.5-1.51-1.8-.04-1.85.12-.5,1.61.83.92,3.53,3.03,6,4.69,2.48,1.67,12.15,7.61,21.5,13.2,9.35,5.59,19.03,11.26,21.5,12.6,2.48,1.34,6.86,4.12,9.75,6.19,2.89,2.06,5.03,3.98,4.75,4.25-.27.27-2.19-.76-4.25-2.3ZM332.11,119.74c-.69-.37-2.6-.82-4.25-.99-1.65-.18-10.42-1.2-19.5-2.28-9.08-1.07-19.87-2.22-24-2.56-4.12-.34-8.51-.82-9.75-1.07s-2.25-.71-2.25-1.02,3.26-.28,7.25.05,9.73.83,12.75,1.1c3.03.28,6.85.71,8.5.96,1.65.25,8.4,1.14,15,1.98,6.6.84,13.24,1.74,14.75,2.01s2.75.94,2.75,1.49-.56.7-1.25.33Z"/>
  <path class="st1" d="M201.89,73.91c.4,9.9,1.11,18.67,1.57,19.5.48.86.85-5.13.88-14,.02-8.52-.39-17.98-.9-21-.52-3.02-1.26-9.1-1.64-13.5-.48-5.54-.94-7.39-1.5-6-.44,1.1-.77,2.9-.73,4,.04,1.1.41,4.48.83,7.5.41,3.02,1.08,13.6,1.49,23.5Z"/>
  <path class="st1" d="M369.56,106.91c-.64-1.65-.94-5.02-.66-7.5.28-2.48.73-9.45,1.01-15.5.49-10.79.45-11.08-2.27-14.94-1.53-2.16-6.78-7.33-11.68-11.5-7.4-6.3-9.47-8.73-12.38-14.56-1.92-3.85-5.11-9.06-7.1-11.58-1.99-2.53-5.42-5.94-7.62-7.6-2.2-1.65-5.46-3.75-7.25-4.66-1.79-.91-7.19-2.09-12-2.61-4.81-.53-12.8-1.23-17.75-1.58-4.95-.34-11.7-.98-15-1.42-3.77-.51-11.4-3.14-20.5-7.09C242.25.26,241.62.09,232.86,0c-6.79-.07-11.82.61-20.5,2.78-10.59,2.64-12.52,2.82-24.5,2.33-7.15-.29-17.5-1.24-23-2.1-7.7-1.2-11.38-1.32-16-.54-3.3.56-7.35,1.53-9,2.16-1.65.62-7.95,3.58-14,6.56-10.96,5.39-11.04,5.41-21.5,5.69-9.61.26-10.97.54-16,3.36-3.02,1.7-8.76,4.68-12.75,6.63s-7.25,3.99-7.25,4.54-2.48,2.8-5.5,5c-3.02,2.2-6.51,4.23-7.75,4.5-1.55.35-2.83,1.98-4.13,5.25-1.68,4.25-1.8,6.23-1.09,18.75l.79,14c-11.49,5.56-18.42,8.7-22.82,10.57-4.4,1.87-10.25,4.82-13,6.56s-6.22,4.45-7.71,6.02c-1.5,1.57-3.4,5.1-4.24,7.85-.84,2.75-1.77,7.93-2.06,11.5-.48,5.88-.24,7.02,2.5,12,1.66,3.02,6.23,8.87,10.15,13,3.91,4.12,8.37,9.3,9.89,11.5,1.53,2.2,4.4,7.82,6.38,12.5s3.6,9.29,3.6,10.25c0,.96,1.16,3.89,2.6,6.5s4.25,6.27,6.25,8.14c2,1.86,5.22,4.16,7.14,5.11,1.92.95,6.31,2.69,9.75,3.86,3.44,1.18,8.16,2.57,10.5,3.09,2.34.52,12.8,2.27,23.25,3.87,11.58,1.78,20.95,3.77,24,5.1,2.75,1.2,6.8,3.9,9,6.01,2.2,2.11,5.8,4.93,8,6.26,2.2,1.33,6.7,3.24,10,4.24,5.74,1.75,6.39,1.75,15,.12,4.95-.95,11.25-2.13,14-2.63,2.75-.49,6.58-1.45,8.5-2.12,1.92-.67,3.73-1.27,4-1.33.27-.07,2.3-.47,4.5-.88,2.2-.42,6.25-1.42,9-2.23s5.79-1.89,6.75-2.41c.96-.52,2.54-.94,3.5-.93.96.01,2.2-.37,2.75-.84.55-.47,4.6-1.89,9-3.15,4.4-1.26,8.58-2.79,9.29-3.41.72-.61,1.28-.78,1.25-.37-.02.41,1.2.25,2.71-.36,1.51-.61,5.23-1.76,8.25-2.56,3.02-.79,10-2.48,15.5-3.76,5.5-1.27,12.92-3.06,16.5-3.98,3.58-.91,9.65-2.58,13.5-3.7,3.85-1.13,9.25-2.76,12-3.62,2.75-.87,7.14-2.63,9.75-3.92,3.78-1.87,4.65-2.76,4.25-4.35-.3-1.18.18-2.51,1.18-3.25.92-.69,3.51-2.18,5.75-3.31,2.24-1.13,4.97-2.58,6.07-3.22,1.1-.64,5.49-2.75,9.75-4.69s8.2-3.53,8.75-3.53,1-.45,1-1,.9-1.23,2-1.5c1.1-.27,5.58-3.99,9.96-8.25,6.93-6.74,7.97-8.21,8-11.25.01-1.93.93-5.3,2.04-7.5,1.11-2.2,2.01-4.56,2.01-5.25-.01-.69.89-2.49,2-4,1.16-1.59,2.24-5.07,2.56-8.25.48-4.76.23-5.9-1.82-8.5-1.31-1.65-2.9-4.35-3.55-6ZM323.36,176.41c-3.02,1.6-5.84,2.93-6.25,2.95-.41.03-.75-.43-.75-1.02s2.25-1.94,5-3,5.56-1.91,6.25-1.88c.69.02-1.22,1.35-4.25,2.95ZM369.6,124.91c-.53,1.1-1.99,5.37-3.23,9.5-1.25,4.12-3.56,10.09-5.14,13.25-1.58,3.16-4.78,7.66-7.12,10s-6.95,5.67-10.25,7.42c-3.3,1.74-9.6,4.03-14,5.09-4.4,1.07-9.58,2.73-11.5,3.7-1.92.96-4.3,2.72-5.29,3.9-.98,1.18-2.84,4.16-4.13,6.64-1.94,3.73-3.27,4.88-7.71,6.69-2.95,1.21-13.7,4-23.87,6.2-10.17,2.21-21.65,4.66-25.5,5.45-3.85.8-12.17,3.01-18.5,4.93-6.33,1.92-19.83,5.79-30,8.62-10.17,2.82-20.75,5.6-23.5,6.18-2.75.57-7.02,1.48-9.5,2.02-2.48.54-7.87,1.32-12,1.75-5.06.52-9.29.36-13-.49-3.02-.69-7.08-1.95-9-2.8-1.92-.85-5.3-2.68-7.5-4.06-2.2-1.38-6.7-3.84-10-5.47-5-2.46-8.76-3.3-22.5-4.99-9.08-1.12-19.2-2.51-22.5-3.09-3.3-.58-9.83-2.24-14.5-3.7-7.62-2.37-9.13-3.27-14.54-8.69-5.55-5.56-6.3-6.86-9.27-16.05-1.91-5.89-4.98-12.64-7.47-16.43-2.32-3.53-4.67-7.18-5.22-8.1-.55-.93-3.1-3.88-5.67-6.58-2.57-2.69-6.21-6.91-8.1-9.39h0c-1.88-2.48-3.67-5.4-3.96-6.5-.3-1.1-.6-3.57-.68-5.5-.08-1.93.55-5.19,1.39-7.25.83-2.06,4.56-6.94,8.27-10.84,5.74-6.02,8.4-7.89,17.75-12.46,6.05-2.96,13.17-5.96,15.83-6.66,2.65-.71,5.58-2.13,6.5-3.15,1.45-1.6,1.63-4.08,1.39-18.5-.27-15.29-.12-16.9,1.75-19.89,1.18-1.89,3.81-4.02,6.28-5.08,2.34-1.01,6.73-3.85,9.75-6.32,3.02-2.47,7.3-5.61,9.5-6.98s7.83-3.65,12.5-5.07c5.63-1.7,9.85-2.41,12.5-2.08,2.74.34,5.73-.2,9.5-1.72,3.02-1.21,6.4-2.58,7.5-3.04,1.1-.45,3.58-1.5,5.5-2.32,1.92-.83,5.52-2.17,8-2.97,2.48-.81,6.3-1.61,8.5-1.78,2.2-.17,15.25-.18,29-.01,22.25.26,25.94.07,33.5-1.72,4.67-1.11,12.33-2.32,17-2.68,8.31-.66,8.8-.57,22,4.01,7.42,2.57,15.75,5.47,18.5,6.46,2.8,1,11.17,2.31,19,2.99,7.7.66,17.6,1.64,22,2.17,5.89.71,9.32,1.75,13,3.93,2.75,1.63,5.9,3.76,7,4.75,1.1.98,2.94,3.11,4.1,4.74,1.15,1.64,3.01,4.77,4.13,6.97s3.38,6.02,5.03,8.5c1.65,2.48,4.74,5.67,6.87,7.09,2.13,1.43,6.68,4.92,10.12,7.75,3.44,2.84,6.88,6.4,7.65,7.91.76,1.51,1.7,5.23,2.07,8.25.47,3.77.15,7.86-1.02,13-.94,4.12-1.92,9.08-2.19,11-.38,2.65.17,4.6,2.25,8,1.52,2.48,2.97,6.07,3.23,8,.27,1.93.04,4.4-.5,5.5Z"/>
  <path class="st1" d="M330.61,117.92c-1.51-.27-8.15-1.17-14.75-2.01-6.6-.84-13.35-1.73-15-1.98-1.65-.25-5.47-.68-8.5-.96-3.02-.27-8.76-.77-12.75-1.1s-7.25-.36-7.25-.05,1.01.77,2.25,1.02,5.63.73,9.75,1.07c4.13.34,14.92,1.49,24,2.56,9.08,1.08,17.85,2.1,19.5,2.28,1.65.17,3.56.62,4.25.99s1.25.22,1.25-.33-1.24-1.22-2.75-1.49Z"/>
  <path class="st1" d="M282.11,145.66c-2.89-2.07-7.27-4.85-9.75-6.19-2.47-1.34-12.15-7.01-21.5-12.6-9.35-5.59-19.02-11.53-21.5-13.2-2.47-1.66-5.17-3.77-6-4.69-1.35-1.49-1.3-1.65.5-1.61,1.1.02,5.83.7,10.5,1.51,4.67.8,13.9,1.91,20.5,2.46,6.6.56,12.32.69,12.71.29.39-.4-4.33-1.08-10.5-1.52-6.16-.44-17.51-1.81-25.21-3.04l-14-2.24c15.5-10.93,21.93-15.42,24.29-17.01,2.36-1.6,4.27-3.25,4.25-3.66-.02-.41.52-.75,1.21-.75s4.4-2.1,8.25-4.66c3.85-2.57,11.5-9.08,17-14.47,5.5-5.4,9.66-10.16,9.24-10.59-.41-.43-2.26,1.02-4.1,3.22-1.84,2.2-7.12,7.2-11.74,11.11-4.62,3.91-13.12,10.24-18.9,14.07-5.77,3.83-15.11,10.19-20.75,14.14-6.08,4.26-11.27,7.18-12.75,7.18-1.37,0-2.74-.56-3.04-1.25-.3-.69-.07-2.49.5-4,.57-1.51,1.6-3.34,2.29-4.06.69-.71,1.85-3.3,2.59-5.75.74-2.44,5.35-12.77,10.26-22.94,4.91-10.17,10.04-21.87,11.4-26,1.36-4.12,2.37-7.62,2.24-7.77-.13-.15-.71.3-1.28,1-.58.7-1.87,3.75-2.87,6.77-1,3.02-6.88,15.85-13.07,28.5-6.19,12.65-12.1,25.6-13.13,28.78l-1.89,5.79-12-.57c-7.42-10.85-12.14-18.27-15.28-23.5-3.14-5.23-7.28-11.8-9.21-14.6-1.93-2.81-6.66-9.26-10.51-14.34-3.85-5.08-7.11-8.75-7.25-8.15-.14.6.76,2.54,2,4.32,1.24,1.78,4.54,6.17,7.33,9.75,2.8,3.59,7.78,11.02,11.08,16.52,3.29,5.5,8.99,14.5,12.67,20,3.67,5.5,6.67,10.56,6.67,11.25s-1.12,2.15-2.5,3.25c-2.17,1.74-3,1.85-6.25.9-2.06-.6-7.12-1.47-11.25-1.94-4.12-.46-12-1.95-17.5-3.32-5.5-1.36-17.65-4.79-27-7.62-9.35-2.83-20.37-6.2-24.5-7.5-4.12-1.29-14.02-4.89-22-8-7.97-3.11-15.06-5.79-15.75-5.96-.69-.18-1.25.07-1.25.54s1.24,1.5,2.75,2.29c1.51.78,7.92,3.42,14.25,5.85s18.48,6.71,27,9.51c8.53,2.79,18.2,5.83,21.5,6.76,3.3.92,6.9,2.03,8,2.47,1.1.44,6.05,1.77,11,2.96,4.95,1.19,11.7,2.81,15,3.59,3.3.79,8.48,1.69,11.5,1.99,3.03.31,6.29.77,7.25,1.02.96.25,1.77.8,1.78,1.21.02.41-3.91,2.62-8.75,4.91-4.83,2.29-12.83,5.83-17.78,7.87s-18.67,6.6-30.5,10.14c-11.83,3.54-25.55,8.01-30.5,9.95-4.95,1.93-10.12,3.91-11.5,4.4-1.37.49-6.55,2.06-11.5,3.49-4.95,1.44-8.77,2.82-8.5,3.08.28.26,3.42-.24,7-1.12,3.58-.87,10.33-2.96,15-4.64s13-4.6,18.5-6.49,17.65-5.71,27-8.48c9.35-2.77,22.17-7.11,28.5-9.65,6.33-2.55,13.98-5.84,17-7.32,3.62-1.77,5.84-2.35,6.5-1.71.66.65-.54,2.39-3.57,5.15-2.51,2.29-12.41,10.48-22,18.2-9.59,7.71-28.9,21.84-42.93,31.41-14.02,9.56-25.72,17.53-26,17.72-.27.19-.27.54,0,.79.28.25,5.25-2.57,11.05-6.25,5.81-3.69,17.28-11.3,25.5-16.93,8.22-5.63,22.15-15.88,30.95-22.78,8.8-6.91,19.04-15.24,22.75-18.52,3.71-3.28,7.65-5.97,8.75-5.97s2,.23,2,.5-1.84,4.44-4.09,9.25-6.03,13.02-8.4,18.25-7.29,15.8-10.94,23.5-6.47,14.45-6.27,15c.21.55,5.11-8.68,10.89-20.5,5.79-11.82,12.93-26.68,15.87-33s5.37-11.63,5.39-11.79c.03-.16,2.08-.01,4.55.32l4.5.61c2.86,28.18,4.08,38.61,4.57,41.36.48,2.75,1.13,9.05,1.45,14,.31,4.95.89,8.63,1.28,8.17.38-.46.59-3.83.47-7.5-.13-3.67-1.16-14.55-2.28-24.17-1.12-9.63-2.37-20.61-2.77-24.41-.52-5-.38-7.28.53-8.25.69-.74,1.7-1.34,2.25-1.34s2.22,2.14,3.71,4.75c1.49,2.61,6.03,9.25,10.07,14.75,4.05,5.5,8.02,10.9,8.83,12,.8,1.1,4.18,5.82,7.5,10.5s6.73,9.18,7.58,10c1.15,1.11,1.09.72-.24-1.5-.99-1.65-3.3-5.25-5.13-8-1.84-2.75-4.11-6.13-5.06-7.5-.94-1.37-5.13-7-9.29-12.5-4.16-5.5-9.24-13.04-11.27-16.75-3.48-6.34-3.63-6.98-2.5-10.5.66-2.06,1.11-4.31,1-5s.49-1.59,1.33-2c1-.49,2.46.14,4.25,1.86,1.49,1.44,6.1,4.85,10.22,7.58,4.13,2.73,11.78,7.35,17,10.28,5.23,2.92,11.41,6.59,13.75,8.17,2.34,1.57,4.47,2.86,4.75,2.86s3.31,1.66,6.75,3.7c3.44,2.03,7.94,4.96,10,6.5s3.98,2.57,4.25,2.3c.28-.27-1.86-2.19-4.75-4.25Z"/>
</svg>