<?xml version="1.0" encoding="UTF-8"?>
<svg id="Layer_1" xmlns="http://www.w3.org/2000/svg" version="1.1" viewBox="0 0 288.78 214.68">
  <!-- Generator: Adobe Illustrator 30.0.0, SVG Export Plug-In . SVG Version: 2.1.1 Build 123)  -->
  <defs>
    <style>
      .st0, .st1, .st2 {
        stroke: #fff;
        stroke-miterlimit: 10;
      }

      .st1 {
        fill: #fff;
      }

      .st2 {
        fill: #ff00cf;
      }
    </style>
  </defs>
  <path class="st0" d="M278.34,16.49c-1.36-.89-2.44-2.59-2.44-3.81,0-1.47-1.23-2.92-3.75-4.41-2.06-1.21-7.13-3.17-11.25-4.34-4.13-1.17-11.1-2.29-15.5-2.5-4.4-.2-11.15.08-15,.62-3.85.54-11.72,2.08-17.5,3.41-5.78,1.33-16.8,4.45-24.5,6.93-7.7,2.48-16.02,4.79-18.5,5.13-2.87.39-5.4.15-7-.68-1.43-.74-5.08-1.19-8.5-1.06-3.3.13-10.05,1.34-15,2.7-4.95,1.35-11.7,3.41-15,4.57l-6,2.11c-6.2-3.28-9.57-4.24-11.5-4.26-2.28-.02-7.68,2.02-15.5,5.83-6.7,3.28-15.97,8.87-21,12.67-4.95,3.75-11.48,8.38-14.5,10.29-3.02,1.91-7.65,4.87-10.28,6.58-2.63,1.71-4.76,3.67-4.75,4.36.02.69-.65,1.25-1.47,1.25s-2.96.74-4.75,1.64c-1.79.9-5.37,3.27-7.96,5.25-2.59,1.99-4.72,3.95-4.75,4.36-.02.41.52.49,1.21.18.69-.31-.55,1.07-2.75,3.08-3.34,3.04-3.99,4.25-3.91,7.31.05,2.03.46,7.28.9,11.68.57,5.53.44,9.54-.41,13-.68,2.75-3.45,8.6-6.16,13-2.71,4.4-5.6,10.48-6.42,13.5-.98,3.58-1.3,7.6-.92,11.5.31,3.3,1.08,7.35,1.71,9,.63,1.65,2.36,4.8,3.84,7,1.49,2.2,4.21,5.42,6.04,7.16,1.83,1.74,6.03,4.52,9.33,6.17,3.3,1.65,9.37,4.01,13.5,5.24,4.12,1.24,9.52,3.11,12,4.16,2.48,1.05,6.75,3.38,9.5,5.17,2.75,1.8,11.07,6.44,18.5,10.31,7.98,4.17,15.34,7.31,18,7.68,2.48.35,7.43.66,11,.69,3.64.02,10.02-.9,14.5-2.1,4.4-1.18,11.15-3.5,15-5.17,3.85-1.66,10.15-4.1,14-5.43,3.85-1.32,8.35-2.4,10-2.41,1.65,0,7.16,1.47,12.24,3.27l9.24,3.26c13.58-3.26,23.14-5.65,30.02-7.4,6.87-1.75,16.1-4.09,20.5-5.19,4.4-1.1,10.47-3.14,13.5-4.53,3.03-1.4,9.42-5.31,14.21-8.71,6.76-4.78,8.87-6.85,9.37-9.17.36-1.65.67-5.92.7-9.5.04-5.58-.52-7.71-3.98-15-2.22-4.67-4.61-10.3-5.33-12.5-.72-2.2-2.8-7.26-4.64-11.25-1.83-3.99-3.63-9.84-4-13-.52-4.5-.19-7.22,1.5-12.5,1.91-5.94,3.07-7.62,9.65-14,4.11-3.99,8.15-8.83,8.97-10.75s2.43-6.2,3.58-9.5c1.16-3.3,2.96-9.15,4.01-13,1.21-4.41,1.88-9.96,1.82-15-.05-4.4-.29-8.74-.53-9.64-.25-.9-1.55-2.36-2.89-3.25ZM154.67,83.29c5.35-6.66,13.33-16.01,17.73-20.8,4.4-4.79,10.19-10.57,12.87-12.85,2.77-2.34,4.44-3.3,3.87-2.2-.55,1.07-1.8,2.61-2.78,3.44-.97.83-6.09,6.24-11.37,12.02-5.27,5.79-11.11,12.32-12.96,14.5-1.85,2.19-6.12,7.48-9.5,11.76-3.37,4.28-6.47,7.77-6.88,7.75-.41-.02-.74-.37-.73-.78.01-.41,4.39-6.19,9.75-12.84ZM131.4,51.88c.82,0,1.5.88,1.5,1.95,0,1.6-.27,1.73-1.54.75-.85-.66-1.53-1.54-1.5-1.95.02-.41.72-.75,1.54-.75ZM37.9,103.56c.27-.24,9.27-.83,20-1.31,10.73-.48,27.37-.85,37-.83,15.27.04,17.93.28,20.84,1.94,1.84,1.04,3.09,1.93,2.78,1.97-.3.05-2.03-.37-3.84-.93-2.05-.64-17.12-.9-40.28-.71-20.35.17-36.77.12-36.5-.13ZM237.65,87.08c-3.44-.39-14.57-.68-24.75-.65-18.38.04-18.59.07-32,3.89-7.43,2.11-17.44,5.35-22.25,7.2-5.62,2.16-8.75,3.9-8.75,4.86,0,.83-1.01,2.57-2.25,3.88-1.24,1.31-3.15,2.55-4.25,2.76-1.51.28-2.11,1.36-2.86,8.36l-1.15-8-2.92,5c-1.61,2.75-4.94,8.37-7.41,12.5-2.46,4.12-5.68,9.75-7.14,12.5-1.45,2.75-4.57,8.6-6.91,13-2.35,4.4-5.81,10.14-7.69,12.75s-3.65,4.75-3.92,4.75,1.78-3.71,4.56-8.25c2.79-4.54,7.35-12.98,10.15-18.75s7.72-14.89,10.94-20.25c3.22-5.36,5.85-10.42,5.85-11.25,0-1.13-1.22-1.5-5-1.5-2.75,0-4.98.34-4.96.75.02.41-2.57,2.59-5.75,4.85-3.19,2.25-10.52,6.81-16.29,10.12-5.77,3.32-12.98,7.62-16,9.56-3.02,1.94-8.2,5.22-11.5,7.29-3.3,2.06-9.04,5.71-12.75,8.09-3.71,2.39-7.2,4.34-7.75,4.34s-.89-.49-.75-1.09c.14-.59,2.05-2.11,4.25-3.37,2.2-1.26,9.85-5.87,17-10.26,7.15-4.38,17.05-10.57,22-13.76,4.95-3.18,13.39-8.65,18.75-12.15,8.51-5.56,9.67-6.66,9.16-8.62-.47-1.78.31-3.05,3.75-6.06,4.12-3.61,4.37-4.14,5.53-17.19l.31,14.5,6.25,1.1c4.17.73,10.58-.62,19.25-4.05,7.15-2.83,17.27-6.04,22.5-7.13,5.23-1.09,14.68-2.41,21-2.93,6.32-.53,17.44-1.04,24.7-1.14,12.1-.18,13.29-.03,14.22,1.73.56,1.06,1.03,2.23,1.05,2.62.02.38-2.78.38-6.22,0Z"/>
  <path class="st2" d="M54.15,46.73c1.24-.63,3.52-2.13,5.08-3.34,1.55-1.2,2.56-2.26,2.25-2.35-.32-.09-2.62,1.3-5.11,3.09s-4.51,3.36-4.5,3.5c.02.14,1.04-.27,2.28-.9Z"/>
  <path class="st1" d="M145.65,96.91c.41.02,3.51-3.47,6.88-7.75,3.38-4.28,7.65-9.57,9.5-11.76,1.85-2.18,7.69-8.71,12.96-14.5,5.28-5.78,10.4-11.19,11.37-12.02.98-.83,2.23-2.37,2.78-3.44.57-1.1-1.1-.14-3.87,2.2-2.68,2.28-8.47,8.06-12.87,12.85-4.4,4.79-12.38,14.14-17.73,20.8-5.36,6.65-9.74,12.43-9.75,12.84-.01.41.32.76.73.78Z"/>
  <path class="st1" d="M131.36,54.58c1.27.98,1.54.85,1.54-.75,0-1.07-.68-1.95-1.5-1.95s-1.52.34-1.54.75c-.03.41.65,1.29,1.5,1.95Z"/>
  <path class="st1" d="M114.68,104.4c1.81.56,3.54.98,3.84.93.31-.04-.94-.93-2.78-1.97-2.91-1.66-5.57-1.9-20.84-1.94-9.63-.02-26.27.35-37,.83-10.73.48-19.73,1.07-20,1.31-.27.25,16.15.3,36.5.13,23.16-.19,38.23.07,40.28.71Z"/>
  <path class="st1" d="M288.77,44.88c-.05-4.13-.48-9.52-.97-12-.48-2.48-1.4-5.85-2.04-7.5-.65-1.65-2.23-5.36-3.52-8.25-1.4-3.15-3.35-5.75-4.87-6.5-1.39-.69-2.5-1.48-2.46-1.75.04-.27-1.63-1.67-3.72-3.09-2.08-1.43-6.94-3.67-10.79-4.99-6.38-2.18-8.42-2.37-23-2.18-8.8.12-18.03.62-20.5,1.12-2.47.49-6.75,1.45-9.5,2.12-2.75.67-7.25,2.12-10,3.23s-9.95,3.75-16,5.87-13.02,3.89-15.5,3.93c-2.96.05-5.01-.48-6-1.55-1.17-1.28-2.59-1.5-6.5-1.01-2.75.34-7.02,1.12-9.5,1.72-2.48.6-9,2.39-14.5,3.98-5.5,1.59-10.9,2.87-12,2.84-1.1-.02-2.83-.82-3.85-1.77-1.02-.94-3.04-1.64-4.5-1.54-1.46.1-4,.42-5.65.7-1.65.29-7.5,2.43-13,4.77-5.5,2.34-12.14,5.52-14.75,7.05-2.61,1.54-4.98,2.8-5.25,2.8s-2.41,1.29-4.75,2.86c-2.34,1.57-6.73,4.46-9.75,6.42-3.02,1.96-8.2,5.82-11.5,8.58-3.3,2.75-9.37,7.18-13.49,9.82-4.13,2.65-8.63,5.85-10,7.1-1.38,1.26-3.07,2.27-3.76,2.25-.69-.01-.98.53-.64,1.22.33.69-.39,3.5-1.6,6.25-1.92,4.35-2.12,6.05-1.55,13,.36,4.4.85,9.69,1.09,11.75.31,2.58-.2,4.92-1.62,7.5-1.13,2.06-3.15,5.55-4.48,7.75-1.32,2.2-2.72,4.67-3.09,5.5s-1.54,3.75-2.6,6.5-2.18,7.92-2.5,11.5c-.38,4.19-.09,8.28.81,11.5.76,2.75,3,7.48,4.99,10.5,1.98,3.02,6.04,8.13,9.02,11.35,3.02,3.25,8.53,7.63,12.42,9.87,3.85,2.21,9.93,4.87,13.5,5.9,3.57,1.03,7.29,1.88,8.25,1.88s5.46,2.44,10,5.43c4.54,2.98,11.4,6.75,15.25,8.36s12.18,4.39,18.5,6.18c10.06,2.85,12.38,3.18,18.5,2.58,5.45-.53,9.54-1.86,18.5-6.01,6.32-2.93,15.55-6.5,20.5-7.94s10.69-2.61,12.75-2.61c2.06.01,6,1.13,8.75,2.51,3.82,1.91,6.84,2.56,12.75,2.75,6.1.2,9.56-.32,16.25-2.42,4.68-1.46,12.55-3.81,17.5-5.22,4.95-1.4,13.5-3.18,19-3.95,5.5-.76,12.47-2.43,15.5-3.69,3.03-1.26,6.18-3.04,7-3.94.82-.91,3.88-3.42,6.79-5.59,2.91-2.17,6.4-5.63,7.75-7.69,1.35-2.06,2.73-5.89,3.07-8.5.4-3.14.01-6.95-1.15-11.25-.97-3.58-2.84-8.98-4.17-12-1.33-3.02-2.84-6.17-3.36-7-.53-.83-1.91-3.52-3.08-6s-2.46-6.3-2.87-8.5-1.58-6.99-2.61-10.65c-1.78-6.32-1.79-6.92-.19-12,.93-2.94,2.97-6.7,4.54-8.35,1.58-1.65,6-5.48,9.84-8.5,5.27-4.15,7.63-6.85,9.64-11,1.46-3.02,3.12-7.52,3.7-10,.58-2.48,1.01-7.87.97-12h0ZM56.37,44.13c2.49-1.79,4.79-3.18,5.11-3.09.31.09-.7,1.15-2.25,2.35-1.56,1.21-3.84,2.71-5.08,3.34-1.24.63-2.26,1.04-2.28.9-.01-.14,2.01-1.71,4.5-3.5ZM279.94,44.38c-1.05,3.85-2.85,9.7-4.01,13-1.15,3.3-2.76,7.58-3.58,9.5s-4.86,6.76-8.97,10.75c-6.58,6.38-7.74,8.06-9.65,14-1.69,5.28-2.02,8-1.5,12.5.37,3.16,2.17,9.01,4,13,1.84,3.99,3.92,9.05,4.64,11.25.72,2.2,3.11,7.83,5.33,12.5,3.46,7.29,4.02,9.42,3.98,15-.03,3.58-.34,7.85-.7,9.5-.5,2.32-2.61,4.39-9.37,9.17-4.79,3.4-11.18,7.31-14.21,8.71-3.03,1.39-9.1,3.43-13.5,4.53-4.4,1.1-13.63,3.44-20.5,5.19-6.88,1.75-16.44,4.14-30.02,7.4l-9.24-3.26c-5.08-1.8-10.59-3.27-12.24-3.27-1.65.01-6.15,1.09-10,2.41-3.85,1.33-10.15,3.77-14,5.43-3.85,1.67-10.6,3.99-15,5.17-4.48,1.2-10.86,2.12-14.5,2.1-3.57-.03-8.52-.34-11-.69-2.66-.37-10.02-3.51-18-7.68-7.43-3.87-15.75-8.51-18.5-10.31-2.75-1.79-7.02-4.12-9.5-5.17-2.48-1.05-7.88-2.92-12-4.16-4.13-1.23-10.2-3.59-13.5-5.24-3.3-1.65-7.5-4.43-9.33-6.17-1.83-1.74-4.55-4.96-6.04-7.16-1.48-2.2-3.21-5.35-3.84-7-.63-1.65-1.4-5.7-1.71-9-.38-3.9-.06-7.92.92-11.5.82-3.02,3.71-9.1,6.42-13.5,2.71-4.4,5.48-10.25,6.16-13,.85-3.46.98-7.47.41-13-.44-4.4-.85-9.65-.9-11.68-.08-3.06.57-4.27,3.91-7.31,2.2-2.01,3.44-3.39,2.75-3.08-.69.31-1.23.23-1.21-.18.03-.41,2.16-2.37,4.75-4.36,2.59-1.98,6.17-4.35,7.96-5.25,1.79-.9,3.93-1.64,4.75-1.64s1.49-.56,1.47-1.25c-.01-.69,2.12-2.65,4.75-4.36,2.63-1.71,7.26-4.67,10.28-6.58,3.02-1.91,9.55-6.54,14.5-10.29,5.03-3.8,14.3-9.39,21-12.67,7.82-3.81,13.22-5.85,15.5-5.83,1.93.02,5.3.98,11.5,4.26l6-2.11c3.3-1.16,10.05-3.22,15-4.57,4.95-1.36,11.7-2.57,15-2.7,3.42-.13,7.07.32,8.5,1.06,1.6.83,4.13,1.07,7,.68,2.48-.34,10.8-2.65,18.5-5.13,7.7-2.48,18.72-5.6,24.5-6.93,5.78-1.33,13.65-2.87,17.5-3.41,3.85-.54,10.6-.82,15-.62,4.4.21,11.37,1.33,15.5,2.5,4.12,1.17,9.19,3.13,11.25,4.34,2.52,1.49,3.75,2.94,3.75,4.41,0,1.22,1.08,2.92,2.44,3.81,1.34.89,2.64,2.35,2.89,3.25.24.9.48,5.24.53,9.64.06,5.04-.61,10.59-1.82,15Z"/>
  <path class="st1" d="M228.6,82.73c-7.26.1-18.38.61-24.7,1.14-6.32.52-15.77,1.84-21,2.93-5.23,1.09-15.35,4.3-22.5,7.13-8.67,3.43-15.08,4.78-19.25,4.05l-6.25-1.1-.31-14.5c-1.16,13.05-1.41,13.58-5.53,17.19-3.44,3.01-4.22,4.28-3.75,6.06.51,1.96-.65,3.06-9.16,8.62-5.36,3.5-13.8,8.97-18.75,12.15-4.95,3.19-14.85,9.38-22,13.76-7.15,4.39-14.8,9-17,10.26-2.2,1.26-4.11,2.78-4.25,3.37-.14.6.2,1.09.75,1.09s4.04-1.95,7.75-4.34c3.71-2.38,9.45-6.03,12.75-8.09,3.3-2.07,8.48-5.35,11.5-7.29,3.02-1.94,10.23-6.24,16-9.56,5.77-3.31,13.1-7.87,16.29-10.12,3.18-2.26,5.77-4.44,5.75-4.85-.02-.41,2.21-.75,4.96-.75,3.78,0,5,.37,5,1.5,0,.83-2.63,5.89-5.85,11.25-3.22,5.36-8.14,14.48-10.94,20.25s-7.36,14.21-10.15,18.75c-2.78,4.54-4.83,8.25-4.56,8.25s2.04-2.14,3.92-4.75,5.34-8.35,7.69-12.75c2.34-4.4,5.46-10.25,6.91-13,1.46-2.75,4.68-8.38,7.14-12.5,2.47-4.13,5.8-9.75,7.41-12.5l2.92-5,1.15,8c.75-7,1.35-8.08,2.86-8.36,1.1-.21,3.01-1.45,4.25-2.76,1.24-1.31,2.25-3.05,2.25-3.88,0-.96,3.13-2.7,8.75-4.86,4.81-1.85,14.82-5.09,22.25-7.2,13.41-3.82,13.62-3.85,32-3.89,10.18-.03,21.31.26,24.75.65,3.44.38,6.24.38,6.22,0-.02-.39-.49-1.56-1.05-2.62-.93-1.76-2.12-1.91-14.22-1.73Z"/>
</svg>