<?xml version="1.0" encoding="UTF-8"?>
<svg id="Layer_1" xmlns="http://www.w3.org/2000/svg" version="1.1" viewBox="0 0 540.75 451.51">
  <!-- Generator: Adobe Illustrator 30.0.0, SVG Export Plug-In . SVG Version: 2.1.1 Build 123)  -->
  <defs>
    <style>
      .st0 {
        fill: #fff;
        isolation: isolate;
      }

      .st0, .st1, .st2 {
        stroke: #fff;
        stroke-miterlimit: 10;
      }

      .st2 {
        fill: #ff00cf;
      }
    </style>
  </defs>
  <path class="st2" d="M188.58,230.06c-3.83-1.24-6.97-1.88-6.97-1.42s3.04,1.59,6.75,2.53c3.71.93,6.85,1.57,6.97,1.42s-2.91-1.29-6.75-2.53Z"/>
  <path class="st1" d="M518.65,220.81c-.6-2.48-2.46-10.13-4.13-17-1.67-6.88-4.13-17.9-5.47-24.5s-2.72-15.6-3.06-20c-.44-5.63-.14-10.37,1-16,.9-4.4,2.79-11.6,4.22-16,1.6-4.96,2.78-11.39,3.12-16.92l.54-8.92c-5.24-5.36-7.88-7.47-9.26-8.15-1.37-.68-7.9-3.06-14.5-5.28s-19.2-5.91-28-8.19c-12.5-3.25-18.85-5.56-29-10.52-7.15-3.5-15.03-7.96-17.5-9.9-2.47-1.95-9-7.04-14.5-11.31s-10.67-8.4-11.5-9.18-3.3-2.64-5.5-4.12-7.83-4.59-12.5-6.9-13-5.55-18.5-7.2c-5.5-1.65-14.05-3.61-19-4.36s-9.22-1.21-9.5-1.04c-.28.18-5.22.58-11,.89-5.78.31-15,1.52-20.5,2.69s-14.72,3.47-20.5,5.11-13.65,3.81-17.5,4.82c-3.85,1-9.03,2.13-11.5,2.49-2.47.37-13.72.1-25-.59l-20.5-1.25c-8.53,5.24-14.83,9.55-19.5,12.96s-12.55,8.64-17.5,11.62-11.25,6.43-14,7.66-8.15,3.29-12,4.57-8.58,2.87-10.5,3.54c-1.92.68-4.85,1.8-6.5,2.5-1.65.71-5.02,2.05-7.5,2.99s-5.35,2.67-6.38,3.85c-1.04,1.18-4.89,6.19-8.56,11.14-3.68,4.95-8.45,10.39-10.62,12.1-2.17,1.7-7.31,4.85-11.44,7-4.34,2.26-9.81,6.22-13,9.41-3.02,3.03-6.26,7.3-7.19,9.5-.94,2.19-3.73,10.51-6.22,18.49s-5.8,16.52-7.36,19-6.6,8.77-11.2,14c-5.39,6.12-9.42,11.81-11.31,16-1.62,3.58-4.22,10.33-5.77,15-1.55,4.67-3.1,11.2-3.44,14.5-.55,5.38-.3,6.62,2.43,12,1.68,3.3,6.01,9.83,9.64,14.5h0c3.63,4.67,8.37,12.1,10.54,16.5s4.64,10.92,5.48,14.5,3.18,9.19,5.21,12.47,5.04,7.26,6.69,8.84c1.65,1.58,7.47,5.86,12.93,9.53,5.47,3.66,12.11,8.91,14.77,11.66s6.24,7.7,7.97,11c2.68,5.14,3.26,7.58,3.99,17,.47,6.05,1.12,11.9,1.44,13s1.72,4.92,3.12,8.5,4.37,9.2,6.61,12.5c2.23,3.3,6.34,8.41,9.12,11.35,2.78,2.94,8.43,7.71,12.55,10.6,4.13,2.89,9.75,6.39,12.5,7.79,2.75,1.39,9.05,3.89,14,5.56,4.95,1.66,13.05,3.83,18,4.82,6.68,1.34,13.77,1.82,27.5,1.84,14.13.03,20.15-.37,25.5-1.67,3.85-.94,9.92-2.65,13.5-3.8s9.88-2.75,14-3.54c4.13-.8,11.21-1.45,15.75-1.45s10.61.66,13.5,1.47,8.4,2.39,12.25,3.52c3.85,1.12,8.69,2.94,10.75,4.03s5.66,2.7,8,3.57c2.34.88,6.5,2.26,9.25,3.07s10.4,2.3,17,3.31,17.17,1.83,23.5,1.83,14.88-.64,19-1.41c4.13-.78,10.88-2.71,15-4.3,4.13-1.59,9.3-3.94,11.5-5.22s8.28-5.57,13.5-9.53,11.14-8.92,13.14-11.02,6.21-7.42,9.35-11.82,7.43-11.6,9.53-16c2.11-4.4,6.36-15.2,9.44-24,4.02-11.47,6.69-17.41,9.42-21,2.1-2.75,6.24-7.32,9.22-10.15,2.97-2.83,8.78-7.83,12.9-11.12,4.13-3.29,10.43-9.07,14-12.85,3.95-4.17,8.15-10.03,10.67-14.88,2.29-4.4,4.95-10.92,5.92-14.5,1.26-4.66,1.78-10.47,1.83-20.5.05-7.7-.23-16.7-.61-20s-1.17-8.02-1.77-10.5ZM76.86,232.24c-3.99-1.83-7.25-3.51-7.25-3.73h0c0-.22,3.04.94,6.75,2.57s11.02,4.5,16.25,6.38c5.23,1.89,16.7,5.42,25.5,7.85,8.8,2.44,21.05,5.68,27.23,7.22,6.17,1.53,11.12,2.91,11,3.07-.13.16-7.88-1.54-17.23-3.77-9.35-2.23-20.83-5.19-25.5-6.58s-13.23-4.14-19-6.11c-5.77-1.96-13.76-5.07-17.75-6.9h0ZM108.61,268.06c7.98-.17,21.25-.17,29.5,0s1.73.31-14.5.31-22.98-.14-15-.31ZM151.11,308.92c-3.85,1.07-10.6,2.6-15,3.41s-9.12,1.44-10.5,1.39c-1.37-.04,2-.89,7.5-1.89h0c5.5-1,12.7-2.52,16-3.4,3.3-.87,6.67-1.55,7.5-1.51s-1.65.94-5.5,2ZM347.65,372.81c-1.64-1.92-9.16-12.73-16.71-24s-13.86-20.73-14.03-21c-.16-.27-.5-.27-.74,0s-.03,2.3.47,4.5,1.41,8.73,2.02,14.5,1.71,12.98,2.45,16c.75,3.02,1.85,9.1,2.46,13.5s1.31,9.01,1.57,10.25c.27,1.3.05,2.04-.53,1.75-.55-.27-1.25-2.86-1.55-5.75s-1.63-11.1-2.97-18.25c-1.33-7.15-3.11-18.17-3.96-24.5-.84-6.33-1.53-12.74-1.53-14.25.01-1.51-1.73-6.24-3.86-10.5s-4.21-8.88-4.62-10.25c-.41-1.38-3.8-7.45-7.53-13.5-3.72-6.05-8.96-15.39-11.63-20.76-2.88-5.79-5.46-9.76-6.35-9.78-.83-.01-1.8.33-2.17.76-.37.43.19,4.38,1.23,8.78,1.05,4.4,2.79,12.95,3.87,19,1.07,6.05,2.15,13.92,2.39,17.5.24,3.58.25,5.37.01,4-.23-1.38-1.58-9.25-2.99-17.5s-3.19-16.24-3.95-17.75-1.39-3.88-1.39-5.25-.45-2.73-1-3c-.57-.29-1.47,2.39-2.09,6.25-.6,3.71-1.93,11.48-2.95,17.25-1.03,5.77-3.65,16.58-5.83,24-2.17,7.42-4.63,15.3-5.46,17.5s-1.98,6.92-2.56,10.5c-.57,3.58-1.29,8.3-1.58,10.5-.3,2.2-.12,11.87.4,21.5.52,9.62,1.54,19.85,2.26,22.73.72,2.87,1.09,5.24.81,5.27-.28.02-1.31-3.46-2.29-7.73-1.37-5.94-1.84-12.75-2-28.94-.12-11.64-.28-21.09-.37-21-.08.1-1.74,4-3.68,8.67-1.94,4.67-5.33,12.33-7.54,17-2.2,4.67-4.05,8.05-4.09,7.5-.05-.55,1.9-5.27,4.33-10.5,2.44-5.23,5.16-11.3,6.06-13.5s1.63-4.45,1.62-5c0-.55-.71-.1-1.57,1-.86,1.11-.59,0,.62-2.5,1.2-2.48,2.56-4.73,3.03-5,.46-.27,2.14-3.65,3.73-7.5,1.59-3.85,3.8-10.15,4.92-14,1.11-3.85,2.05-7.67,2.08-8.5.02-.83.75-4.88,1.6-9,.85-4.13,2.22-9.52,3.04-12,.83-2.48,2.29-9.11,3.25-14.74.97-5.63,1.42-10.24,1.01-10.25-.41,0-1.87,2.24-3.25,4.99-1.37,2.75-5.31,8.2-8.75,12.11-3.44,3.91-7.99,9.65-10.12,12.75-2.13,3.1-5,6.99-6.37,8.64-1.37,1.65-6.38,7.27-11.12,12.5-4.75,5.23-11.66,12.65-15.36,16.5-5.98,6.22-6.73,7.44-6.77,11-.02,2.2-2.23,10.52-4.93,18.5-2.69,7.98-5.82,16.52-6.96,19s-2.09,3.94-2.1,3.25c0-.69.82-3.16,1.84-5.5,1.03-2.34,3.71-9.65,5.98-16.25,2.26-6.6,4.41-14.25,5.46-22l-2.18,2c-1.2,1.1-2.18,1.55-2.17,1s.59-1.55,1.28-2.23c.7-.68.93-1.58.51-2s-2.67.01-5,.96c-3.23,1.31-3.76,1.36-2.24.23,1.1-.82,3.58-1.77,5.5-2.11s4.17-.95,5-1.36,7.39-7.21,14.58-15.12c7.2-7.9,15.34-17.75,18.1-21.87s6.55-8.85,8.42-10.5,5.94-6.15,9.03-10c3.1-3.85,6.92-9.48,8.49-12.5,1.58-3.02,2.98-5.84,3.12-6.25s-3,1.07-6.99,3.29c-3.99,2.23-12.42,6.68-18.75,9.89-6.33,3.21-17.35,7.91-24.5,10.45s-14.8,5.49-17,6.57c-2.2,1.08-7.37,3.11-11.5,4.52-4.12,1.4-7.95,2.52-8.5,2.47s.58-.7,2.5-1.44,2.83-1.39,2-1.43c-.83-.05-3.97.37-7,.93-3.03.57-12.25,1.7-20.5,2.52s-20.62,1.43-27.5,1.35c-6.87-.08-11.6-.3-10.5-.49,1.1-.2,10.1-.81,20-1.36s22.05-1.49,27-2.09c4.95-.59,13.05-1.9,18-2.9,4.95-.99,14.85-3.93,22-6.53,7.15-2.59,19.75-7.98,28-11.98s18.49-9.58,22.75-12.39c4.26-2.82,7.75-5.58,7.75-6.13s-.96-.71-2.25-.32c-1.81.56-2.05.41-1.25-.72.8-1.14.6-1.26-1-.62-1.1.44-3.35,1.06-5,1.37s-6.37,1.44-10.5,2.5c-4.12,1.06-12,2.6-17.5,3.42-5.5.83-17.2,1.92-26,2.42-8.8.51-23.87,1.1-51,1.72l14.5-.75c7.97-.42,16.08-.81,18-.87,2.29-.08,3.16-.45,2.5-1.09-.58-.56-10.12-1.05-22.5-1.15-13.26-.1-27.06-.84-36-1.92-7.98-.97-17.42-2.32-21-3.01s-8.52-1.85-11-2.59-3.15-1.13-1.5-.87,7.05,1.18,12,2.03,13.95,2.21,20,3.01c6.05.81,19.66,1.79,30.25,2.2s19.25.4,19.25-.01-5.16-1.99-11.47-3.5-11.37-2.88-11.25-3.04c.12-.15,7.19,1.37,15.72,3.38,15.27,3.6,15.72,3.65,30.5,3.05,8.25-.34,22.2-1.72,31-3.08,8.8-1.37,19.6-3.53,24-4.81s8-2.76,8-3.29-4.05-1.24-9-1.59c-4.95-.34-12.37-1.35-16.5-2.23-4.12-.88-11.33-2.76-16-4.18-4.67-1.41-8.95-2.85-9.5-3.2-.55-.34-2.35-.95-4-1.33-1.65-.39-8.4-2.14-15-3.88s-15.83-4.33-20.5-5.76c-4.67-1.42-13-3.61-18.5-4.85-5.5-1.25-8.87-2.33-7.5-2.41,1.65-.1-.18-1.14-5.5-3.12-4.4-1.64-14.98-5.73-23.5-9.09-8.52-3.37-21.58-9.01-29-12.53-7.42-3.53-14.07-6.92-14.77-7.52-.7-.61-1.15-1.22-1-1.37h0c.15-.14,6.79,2.91,14.77,6.78,7.98,3.88,23.73,10.64,35,15.04,11.27,4.39,25.45,9.67,31.5,11.74s13.03,4.08,15.5,4.48c3.51.57-.66-1.88-19-11.14-12.92-6.52-28.23-14.73-34-18.24s-14.46-9.12-19.3-12.47c-4.83-3.35-11.47-8.23-14.75-10.84-3.27-2.61-5.61-4.76-5.2-4.78.41,0,2.77,1.44,5.25,3.23s7.65,5.44,11.5,8.12,10.71,7.31,15.25,10.28,13.54,8.37,20,12c6.46,3.64,19.4,10.33,28.75,14.88s20.83,9.51,25.5,11.01c4.67,1.51,9.4,3.15,10.5,3.64s7.4,2.69,14,4.89c6.6,2.21,18.53,5.33,26.5,6.94,7.97,1.62,17.82,3.3,21.88,3.74,6.91.75,7.36.68,7-1.07-.24-1.17-3.74-3.63-9.38-6.58-4.95-2.58-13.5-7.56-19-11.06s-12.03-7.92-14.5-9.82c-2.47-1.89-7.65-6.02-11.5-9.18s-7.9-6.81-11-10.49l2,1.54c1.1.85,4.92,4.05,8.5,7.11s12.8,9.79,20.5,14.96c7.7,5.17,18.36,11.65,23.68,14.39,5.32,2.75,9.94,4.66,10.25,4.25s-3.18-5.36-7.76-11-10.3-12.95-12.72-16.25c-2.41-3.3-6.37-8.92-8.79-12.5s-6.95-10.77-10.06-16-6.2-10.85-6.86-12.5c-.97-2.4-.96-2.63.03-1.14.67,1.02,4.09,6.42,7.58,12,3.48,5.58,7.98,12.62,9.98,15.64s7.87,11.12,13.03,18c5.17,6.87,11.25,14.42,13.52,16.76,2.27,2.35,4.46,4.26,4.87,4.25.41,0,.75-.57.75-1.26s-1.65-3.95-3.65-7.25-6.91-12.52-10.9-20.5-8.01-16.3-8.93-18.5-2.33-6.02-3.15-8.5c-.81-2.48-1.34-4.61-1.17-4.74.16-.14,1.37,2.56,2.68,6,1.31,3.43,5.08,11.64,8.37,18.24s8.63,16.84,11.87,22.75c3.23,5.91,6.33,10.75,6.88,10.75s.78-1.24.51-2.75-1.2-7.02-2.06-12.25c-.87-5.23-1.83-18.27-2.15-29-.36-12.04-.14-23.33.56-29.5.63-5.5,2.07-16.52,3.21-24.5,1.14-7.97,3.64-20.8,5.56-28.5,1.91-7.7,4.87-18.28,6.56-23.5,1.7-5.22,4.64-13.33,6.55-18,1.9-4.67,6.23-13.8,9.61-20.27,3.38-6.48,6.71-11.76,7.4-11.75.76,0-.48,3.43-3.19,8.77-2.45,4.81-6.54,13.25-9.1,18.75s-6.18,14.5-8.05,20-4.94,16.3-6.82,24-3.95,17.6-4.58,22c-.64,4.4-1.55,10.02-2.04,12.5-.48,2.48-1.13,6.3-1.43,8.5s-.97,9.85-1.49,17c-.54,7.62-.58,20.66-.09,31.5.5,10.91,1.6,22.1,2.69,27.27,1.02,4.83,2.3,8.62,2.85,8.43.55-.19,1.78-4.82,2.74-10.28.95-5.45,2.43-14.87,3.27-20.92.85-6.05,1.77-12.13,2.04-13.5.27-1.38.68-2.27.89-2,.22.27-.21,5.9-.96,12.5-.74,6.6-2.28,16.61-3.41,22.25-1.14,5.64-2.07,10.48-2.07,10.75s.45.5,1,.5,5.19-7.09,10.31-15.75,10.07-17.44,11-19.5,2.31-5.21,3.06-7,2.51-6.17,3.91-9.75c1.41-3.58,3.04-7.85,4.7-12.5l-.59,3.5c-.32,1.92-1.84,7.1-3.36,11.5-1.53,4.4-4.7,11.83-7.05,16.5-2.34,4.67-6.64,12.33-9.54,17-2.91,4.67-5.61,9.4-6.01,10.5-.41,1.1-1.45,2.78-2.33,3.73-1.48,1.6-1.41,1.88.9,3.72,1.38,1.09,2.72,2.01,3,2.04s1.67-1.19,3.1-2.72c1.43-1.52,5.92-7.5,9.98-13.27,4.05-5.77,8.75-12.08,10.43-14s4.25-5.08,5.71-7,3.83-4.85,7.89-9.5l-1.76,3c-.97,1.65-4.26,6.3-7.31,10.34-3.05,4.03-6.44,8.58-7.54,10.11s-4.46,6.33-7.46,10.67c-3.01,4.33-7.06,9.58-9,11.66-1.95,2.07-3.21,4.1-2.8,4.5.41.39,2.76-.63,5.23-2.28s9.99-6.83,16.72-11.5,15.18-10.88,18.77-13.79c3.6-2.91,6.88-5.27,7.29-5.25s1.94-.97,3.4-2.21,5.85-5.22,9.75-8.84c3.91-3.63,10.43-9.48,14.5-13,4.07-3.53,7.75-7.08,8.18-7.91s3.51-8.59,6.85-17.25,6.08-16.09,6.1-16.5c.01-.41,1.52-3.9,3.34-7.75,1.83-3.85,6.04-10.38,9.38-14.5,3.33-4.13,7.56-8.85,9.39-10.5s2.56-2.1,1.62-1-1.74,2.45-1.78,3c-.03.55-2.74,3.81-6.02,7.25s-7.24,8.84-8.81,12-3.65,8-4.61,10.75-2.16,5.9-2.65,7-2.46,6.5-4.36,12c-1.91,5.5-3.26,10.11-3,10.25s2.26-1.21,4.45-3c2.18-1.79,8.71-8.09,14.5-14,5.78-5.91,10.52-10.3,10.52-9.75s-5.06,6.08-11.25,12.3c-6.19,6.21-13.95,13.76-17.25,16.77s-12.3,11.06-20,17.89-15.62,13.79-17.59,15.48c-1.98,1.68-4.46,3.73-5.52,4.56-1.05.83-6.19,4.7-11.4,8.6-5.22,3.91-14.1,10.1-19.74,13.75-5.64,3.66-10.25,7.1-10.25,7.65,0,.61,3.19.87,8.25.65,4.54-.19,10.28-1.05,12.75-1.92s8.78-2.78,14-4.25c5.22-1.46,10.17-2.46,11-2.21s-.28.95-2.5,1.58c-2.2.63-4.67,1.13-5.5,1.13-.83,0-2.4.65-3.5,1.46-1.83,1.34-1.57,1.42,3,.9,2.75-.32,4.78-.33,4.5-.03s-1.85.8-3.5,1.11-5.03.82-7.5,1.13c-2.47.3-8.44,1.21-13.25,2-4.81.8-11.56,1.46-15,1.47-4.42,0-5.81.3-4.75.98.83.54,4.42,2.08,8,3.42,3.58,1.35,10.78,3.59,16,4.98s13.78,3,19,3.58c5.22.57,9.72,1.28,10,1.56s-1.08.49-3,.47c-1.92-.03-7.33-.66-12-1.4s-13.56-2.75-19.75-4.48c-6.19-1.72-13.05-4.03-15.25-5.13s-4.34-1.79-4.75-1.52c-.41.26-.08,1.2.75,2.09.83.9,6.9,5.25,13.5,9.67,6.6,4.43,15.83,9.95,20.5,12.27,4.67,2.32,10.88,5.51,13.79,7.1,2.9,1.59,5.27,3.23,5.25,3.64s-2.63-.68-5.79-2.42c-3.16-1.75-10.47-5.54-16.25-8.44s-15.45-8.63-21.5-12.74c-6.05-4.1-11.34-7.28-11.75-7.06-.41.23-.73,1.2-.71,2.16s3.28,5.53,7.25,10.14c3.96,4.61,10.31,11.14,14.09,14.5,3.79,3.36,7.5,6.67,8.25,7.36.75.69,1.82,1.25,2.37,1.25s1.11.34,1.25.75,3.85,3.58,8.25,7.04c4.4,3.45,7.66,6.27,7.25,6.25s-6.04-3.92-12.5-8.66c-7.64-5.61-16.37-13.39-24.97-22.25-11.88-12.24-13.38-13.48-14.8-12.13-.86.83-1.55,2.06-1.52,2.75.02.69,1.46,4.29,3.19,8s5.39,10.58,8.14,15.25c2.74,4.67,5.55,9.17,6.25,10,.69.83,4.89,8.48,9.34,17,7.44,14.28,8.4,15.66,12.23,17.5,2.28,1.1,7.7,5.37,12.06,9.5,4.35,4.12,7.78,7.63,7.62,7.79s-2.32-1.57-4.79-3.85c-2.47-2.27-6.75-5.67-9.5-7.55-2.75-1.87-5.11-2.95-5.25-2.4-.14.56.97,3.37,2.47,6.26s6,10.2,10,16.25,8.84,13.02,10.76,15.5c1.91,2.48,3.49,4.95,3.51,5.5.02.55-1.31-.58-2.95-2.5h0ZM393.61,214.08c2.47-1.25,4.61-2.05,4.75-1.77.14.27-3.69,2.36-8.5,4.63s-9.65,4.5-10.75,4.95c-1.1.46-3.8,1.54-6,2.4s-4.14,1.51-4.31,1.44c-.17-.07-.11-.42.13-.77.25-.36,4.89-2.44,10.31-4.63,5.43-2.18,11.9-4.99,14.37-6.25h0ZM367.11,225.79c-.55.57-4.15,2.16-8,3.53-3.85,1.36-7.45,2.5-8,2.51-.55.02-.78-.17-.5-.41h0c.28-.25,4.33-1.85,9-3.56s8.05-2.64,7.5-2.07h0ZM407.11,391.83c-.55-.03-5.41-2.87-10.8-6.29-5.39-3.43-13.72-8.62-18.5-11.55-4.79-2.92-10.64-6.75-13.01-8.5s-5.64-4.23-7.25-5.51c-1.62-1.28-2.94-2.51-2.94-2.72h0c0-.21.56-.09,1.25.27.69.35,6.03,3.82,11.88,7.71,5.84,3.89,14.84,9.75,20,13.03,5.15,3.27,11.17,6.95,13.37,8.16,2.2,1.21,4.67,2.94,5.5,3.84.83.89,1.05,1.6.5,1.56h0ZM431.36,291.38c-.41.24-4.91-1.21-10-3.22s-9.7-3.98-10.25-4.37c-.55-.39-3.7-2.2-7-4.02-3.3-1.82-7.58-4.47-9.5-5.89-1.92-1.43-6.09-4.61-9.25-7.08s-5.74-5.05-5.75-5.74c0-.95-3.9-1.24-16.25-1.22-8.94.01-16.03-.18-15.75-.42.28-.25,6.58-.58,14-.72,7.42-.15,15.3-.75,17.5-1.34,2.2-.58,4.45-1.35,5-1.7.55-.35,2.8-1.17,5-1.82s8.72-2.04,14.5-3.09c5.78-1.06,11.63-1.94,13-1.96,1.38-.02,2.28.19,2,.47s-1.4.69-2.5.93c-1.1.23-4.92.93-8.5,1.56-3.58.62-8.97,1.62-12,2.21-3.03.6-6.62,1.69-8,2.43-2.34,1.27-2.2,1.33,2.25.89,2.61-.26,6.89-.67,9.5-.91,3.01-.28,4.02-.15,2.75.36-1.1.45-5.94,1.1-10.75,1.45-8.45.61-8.73.71-8.17,2.88.32,1.24,2.23,3.72,4.25,5.51s7.5,5.81,12.17,8.93,12.1,7.32,16.5,9.33,9.8,4.21,12,4.89,3.66,1.43,3.25,1.66h0ZM422.61,154.48c-5.22,3.87-11.02,7.89-12.88,8.93-1.86,1.05-4.11,2.35-5.01,2.9-.89.55-5.11,2.91-9.37,5.25s-8.67,4.18-9.81,4.09c-1.26-.1,1.8-2.1,7.75-5.08h0c5.4-2.7,14.32-7.91,19.82-11.56s13.6-9.54,18-13.07c4.4-3.54,7.1-5.35,6.01-4.03-1.1,1.32-2.67,3.1-3.5,3.96s-5.79,4.73-11.01,8.61h0ZM447.11,247.81c-.28.55-3.31.96-6.75.9-4.64-.07-5.61-.3-3.75-.9,1.38-.44,4.41-.85,6.75-.9,2.53-.06,4.05.3,3.75.9Z"/>
  <path class="st2" d="M529.01,228.81c-.23-1.38-.71-3.63-1.07-5-.36-1.38-.58-2.84-.49-3.25s-.29-.52-.84-.25-.78,1.17-.5,2c.37,1.11-.28,1.5-2.5,1.5-1.65,0-3.03-.34-3.08-.75-.04-.41-.22-1.65-.4-2.75-.18-1.1.34-2.67,1.16-3.5,1.31-1.33,1.56-1.24,2.15.78.37,1.26,1.12,2.12,1.67,1.92s1.19-1.23,1.41-2.28c.23-1.06.01-1.63-.5-1.27-.5.35-1.01-1-1.13-3-.12-2.01-1.38-7.48-2.81-12.15s-3.49-11.65-4.58-15.5-2.89-11.73-3.99-17.5c-1.33-6.93-1.8-12.2-1.38-15.5.35-2.75,1.45-6.8,2.44-9s2.84-6.92,4.09-10.5c1.92-5.43,2.2-7.73,1.7-14-.32-4.13-1.57-10.65-2.76-14.5-1.85-5.97-3.02-7.81-7.93-12.5-3.17-3.03-8.41-6.92-11.66-8.66-3.24-1.74-9.95-4.5-14.9-6.14-4.95-1.64-13.5-3.97-19-5.19-5.5-1.21-11.12-2.55-12.5-2.99-1.37-.43-4.3-1.27-6.5-1.86-2.2-.58-6.7-1.83-10-2.77s-8.7-3.19-12-5-7.8-5.02-10-7.14-7.94-6.86-12.75-10.55c-4.81-3.68-9.76-7.09-11-7.57s-4.28-2.22-6.75-3.87-8.1-4.77-12.5-6.94c-4.4-2.18-12.05-5.19-17-6.71-4.95-1.51-10.35-3.17-12-3.67s-6.83-1.59-11.5-2.41-11.2-1.5-14.5-1.51-10.05.47-15,1.07-13.95,2.43-20,4.09c-6.05,1.65-15.72,4.55-21.5,6.45s-13.65,3.88-17.5,4.39c-3.85.52-9.7,1-13,1.06-3.3.07-10.28-.21-15.5-.62-7.83-.61-10.46-.43-15,1.04-3.03.98-7.97,3.02-11,4.53s-11.58,6.78-19,11.71c-7.42,4.92-17.1,10.81-21.5,13.09-4.4,2.27-8.45,4.14-9,4.14s-1.45.46-2,1.03-5.5,2.54-11,4.38-12.02,4.37-14.5,5.63-7.59,5.48-11.37,9.39c-3.79,3.9-8.51,9.57-10.5,12.6s-5.44,7.3-7.66,9.5-6.72,5.3-10,6.88c-3.49,1.69-7.96,5.01-10.76,8-2.64,2.82-6.06,7.82-7.61,11.12-1.55,3.3-3.16,7.58-3.57,9.5-.42,1.92-1.68,6.2-2.82,9.5s-3.56,8.59-5.39,11.75-3.32,5.98-3.32,6.25-1.78,3.09-3.95,6.25c-2.18,3.16-6.69,8.9-10.04,12.75s-7.63,10.15-9.53,14-4.09,9.48-4.86,12.5c-.78,3.02-1.67,10.23-1.98,16h0c-.37,7-.16,11.64.64,13.92.66,1.88,1.49,3.68,1.83,4s.89,1.48,1.21,2.58c.33,1.1,1.81,3.35,3.29,5s4.23,5.25,6.09,8c1.87,2.75,5.41,7.92,7.86,11.5s6.03,10.44,7.95,15.25,4.4,9.76,5.51,11,2.01,2.81,2,3.5,3.92,4.92,8.73,9.41c4.81,4.48,10.33,9.13,12.25,10.33,1.92,1.2,5.23,4.17,7.33,6.59,2.11,2.43,5.02,6.44,6.47,8.92,1.44,2.48,3.24,7.2,3.98,10.5.74,3.3,1.7,9.83,2.12,14.5.65,7.26,1.44,9.88,5.46,18,2.58,5.23,5.45,10.85,6.37,12.5.92,1.65,6.42,7.74,12.22,13.53,7.75,7.73,12.41,11.49,17.55,14.16,3.85,2,13.3,5.72,21,8.25,7.7,2.54,17.6,5.33,22,6.2,6.84,1.35,9.74,1.41,20,.4,6.6-.65,16.72-2.06,22.5-3.13,5.78-1.06,14.1-2.81,18.5-3.87s9.35-2.18,11-2.49,6.83-.84,11.5-1.18c6.29-.46,10.58-.17,16.5,1.11,4.4.96,10.7,2.55,14,3.53,3.3.97,9.38,2.69,13.5,3.8,4.13,1.12,13.8,3.74,21.5,5.82,13.96,3.77,14.05,3.78,34,3.83,13.08.02,22.08-.42,26-1.29,3.3-.72,9.6-2.66,14-4.3,4.4-1.64,9.58-3.69,11.5-4.55s6.65-3.91,10.5-6.77c3.85-2.87,12.4-10.58,19.01-17.13,10.39-10.31,12.84-13.4,18.18-22.92,3.4-6.05,7.3-14.15,8.67-18,1.38-3.85,3.18-9.7,4.02-13,.83-3.3,2.47-8.25,3.63-11,1.17-2.75,4.23-7.77,6.81-11.16,3.6-4.75,6.99-7.62,14.68-12.48,7.48-4.72,13.27-9.59,23-19.33,12.17-12.19,13.18-13.51,15.81-20.53,2.21-5.92,3.03-10.44,3.89-21.5.84-10.76.8-15.5-.15-20.5-.68-3.58-1.42-7.63-1.65-9h0ZM521.03,251.31c-.05,10.03-.57,15.84-1.83,20.5-.97,3.58-3.63,10.1-5.92,14.5-2.52,4.85-6.72,10.71-10.67,14.88-3.57,3.78-9.87,9.56-14,12.85-4.12,3.29-9.93,8.29-12.9,11.12-2.98,2.83-7.12,7.4-9.22,10.15-2.73,3.59-5.4,9.53-9.42,21-3.08,8.8-7.33,19.6-9.44,24-2.1,4.4-6.39,11.6-9.53,16-3.14,4.4-7.35,9.72-9.35,11.82s-7.92,7.06-13.14,11.02-11.3,8.25-13.5,9.53-7.37,3.63-11.5,5.22c-4.12,1.59-10.87,3.52-15,4.3-4.12.77-12.67,1.41-19,1.41s-16.9-.82-23.5-1.83-14.25-2.5-17-3.31-6.91-2.19-9.25-3.07c-2.34-.87-5.94-2.48-8-3.57s-6.9-2.91-10.75-4.03c-3.85-1.13-9.36-2.71-12.25-3.52s-8.96-1.47-13.5-1.47-11.62.65-15.75,1.45c-4.12.79-10.42,2.39-14,3.54s-9.65,2.86-13.5,3.8c-5.35,1.3-11.37,1.7-25.5,1.67-13.73-.02-20.82-.5-27.5-1.84-4.95-.99-13.05-3.16-18-4.82-4.95-1.67-11.25-4.17-14-5.56-2.75-1.4-8.37-4.9-12.5-7.79-4.12-2.89-9.77-7.66-12.55-10.6s-6.89-8.05-9.12-11.35c-2.24-3.3-5.21-8.92-6.61-12.5s-2.8-7.4-3.12-8.5-.97-6.95-1.44-13c-.73-9.42-1.31-11.86-3.99-17-1.73-3.3-5.31-8.25-7.97-11s-9.3-8-14.77-11.66c-5.46-3.67-11.28-7.95-12.93-9.53s-4.66-5.56-6.69-8.84-4.37-8.89-5.21-12.47-3.31-10.1-5.48-14.5-6.91-11.83-10.54-16.5h0c-3.63-4.67-7.96-11.2-9.64-14.5-2.73-5.38-2.98-6.62-2.43-12,.34-3.3,1.89-9.83,3.44-14.5,1.55-4.67,4.15-11.42,5.77-15,1.89-4.19,5.92-9.88,11.31-16,4.6-5.23,9.64-11.52,11.2-14s4.87-11.02,7.36-19,5.28-16.3,6.22-18.49c.93-2.2,4.17-6.47,7.19-9.5,3.19-3.19,8.66-7.15,13-9.41,4.13-2.15,9.27-5.3,11.44-7,2.17-1.71,6.94-7.15,10.62-12.1,3.67-4.95,7.52-9.96,8.56-11.14,1.03-1.18,3.9-2.91,6.38-3.85s5.85-2.28,7.5-2.99c1.65-.7,4.58-1.82,6.5-2.5,1.92-.67,6.65-2.26,10.5-3.54s9.25-3.34,12-4.57,9.05-4.68,14-7.66,12.83-8.21,17.5-11.62,10.97-7.72,19.5-12.96l20.5,1.25c11.28.69,22.53.96,25,.59,2.47-.36,7.65-1.49,11.5-2.49,3.85-1.01,11.72-3.18,17.5-4.82s15-3.94,20.5-5.11,14.72-2.38,20.5-2.69,10.72-.71,11-.89c.28-.17,4.55.29,9.5,1.04s13.5,2.71,19,4.36,13.83,4.89,18.5,7.2,10.3,5.42,12.5,6.9,4.67,3.34,5.5,4.12,6,4.91,11.5,9.18,12.03,9.36,14.5,11.31c2.47,1.94,10.35,6.4,17.5,9.9,10.15,4.96,16.5,7.27,29,10.52,8.8,2.28,21.4,5.97,28,8.19s13.13,4.6,14.5,5.28c1.38.68,4.02,2.79,9.26,8.15l-.54,8.92c-.34,5.53-1.52,11.96-3.12,16.92-1.43,4.4-3.32,11.6-4.22,16-1.14,5.63-1.44,10.37-1,16,.34,4.4,1.72,13.4,3.06,20s3.8,17.62,5.47,24.5c1.67,6.87,3.53,14.52,4.13,17s1.39,7.2,1.77,10.5.66,12.3.61,20Z"/>
  <path class="st0" d="M529.01,228.81c-.23-1.38-.71-3.63-1.07-5-.36-1.38-.58-2.84-.49-3.25s-.29-.52-.84-.25-.78,1.17-.5,2c.37,1.11-.28,1.5-2.5,1.5-1.65,0-3.03-.34-3.08-.75-.04-.41-.22-1.65-.4-2.75-.18-1.1.34-2.67,1.16-3.5,1.31-1.33,1.56-1.24,2.15.78.37,1.26,1.12,2.12,1.67,1.92s1.19-1.23,1.41-2.28c.23-1.06.01-1.63-.5-1.27-.5.35-1.01-1-1.13-3-.12-2.01-1.38-7.48-2.81-12.15s-3.49-11.65-4.58-15.5-2.89-11.73-3.99-17.5c-1.33-6.93-1.8-12.2-1.38-15.5.35-2.75,1.45-6.8,2.44-9s2.84-6.92,4.09-10.5c1.92-5.43,2.2-7.73,1.7-14-.32-4.13-1.57-10.65-2.76-14.5-1.85-5.97-3.02-7.81-7.93-12.5-3.17-3.03-8.41-6.92-11.66-8.66-3.24-1.74-9.95-4.5-14.9-6.14-4.95-1.64-13.5-3.97-19-5.19-5.5-1.21-11.12-2.55-12.5-2.99-1.37-.43-4.3-1.27-6.5-1.86-2.2-.58-6.7-1.83-10-2.77s-8.7-3.19-12-5-7.8-5.02-10-7.14-7.94-6.86-12.75-10.55c-4.81-3.68-9.76-7.09-11-7.57s-4.28-2.22-6.75-3.87-8.1-4.77-12.5-6.94c-4.4-2.18-12.05-5.19-17-6.71-4.95-1.51-10.35-3.17-12-3.67s-6.83-1.59-11.5-2.41-11.2-1.5-14.5-1.51-10.05.47-15,1.07-13.95,2.43-20,4.09c-6.05,1.65-15.72,4.55-21.5,6.45s-13.65,3.88-17.5,4.39c-3.85.52-9.7,1-13,1.06-3.3.07-10.28-.21-15.5-.62-7.83-.61-10.46-.43-15,1.04-3.03.98-7.97,3.02-11,4.53s-11.58,6.78-19,11.71c-7.42,4.92-17.1,10.81-21.5,13.09-4.4,2.27-8.45,4.14-9,4.14s-1.45.46-2,1.03-5.5,2.54-11,4.38-12.02,4.37-14.5,5.63-7.59,5.48-11.37,9.39c-3.79,3.9-8.51,9.57-10.5,12.6s-5.44,7.3-7.66,9.5-6.72,5.3-10,6.88c-3.49,1.69-7.96,5.01-10.76,8-2.64,2.82-6.06,7.82-7.61,11.12-1.55,3.3-3.16,7.58-3.57,9.5-.42,1.92-1.68,6.2-2.82,9.5s-3.56,8.59-5.39,11.75-3.32,5.98-3.32,6.25-1.78,3.09-3.95,6.25c-2.18,3.16-6.69,8.9-10.04,12.75s-7.63,10.15-9.53,14-4.09,9.48-4.86,12.5c-.78,3.02-1.67,10.23-1.98,16h0c-.37,7-.16,11.64.64,13.92.66,1.88,1.49,3.68,1.83,4s.89,1.48,1.21,2.58c.33,1.1,1.81,3.35,3.29,5s4.23,5.25,6.09,8c1.87,2.75,5.41,7.92,7.86,11.5s6.03,10.44,7.95,15.25,4.4,9.76,5.51,11,2.01,2.81,2,3.5,3.92,4.92,8.73,9.41c4.81,4.48,10.33,9.13,12.25,10.33,1.92,1.2,5.23,4.17,7.33,6.59,2.11,2.43,5.02,6.44,6.47,8.92,1.44,2.48,3.24,7.2,3.98,10.5.74,3.3,1.7,9.83,2.12,14.5.65,7.26,1.44,9.88,5.46,18,2.58,5.23,5.45,10.85,6.37,12.5.92,1.65,6.42,7.74,12.22,13.53,7.75,7.73,12.41,11.49,17.55,14.16,3.85,2,13.3,5.72,21,8.25,7.7,2.54,17.6,5.33,22,6.2,6.84,1.35,9.74,1.41,20,.4,6.6-.65,16.72-2.06,22.5-3.13,5.78-1.06,14.1-2.81,18.5-3.87s9.35-2.18,11-2.49,6.83-.84,11.5-1.18c6.29-.46,10.58-.17,16.5,1.11,4.4.96,10.7,2.55,14,3.53,3.3.97,9.38,2.69,13.5,3.8,4.13,1.12,13.8,3.74,21.5,5.82,13.96,3.77,14.05,3.78,34,3.83,13.08.02,22.08-.42,26-1.29,3.3-.72,9.6-2.66,14-4.3,4.4-1.64,9.58-3.69,11.5-4.55s6.65-3.91,10.5-6.77c3.85-2.87,12.4-10.58,19.01-17.13,10.39-10.31,12.84-13.4,18.18-22.92,3.4-6.05,7.3-14.15,8.67-18,1.38-3.85,3.18-9.7,4.02-13,.83-3.3,2.47-8.25,3.63-11,1.17-2.75,4.23-7.77,6.81-11.16,3.6-4.75,6.99-7.62,14.68-12.48,7.48-4.72,13.27-9.59,23-19.33,12.17-12.19,13.18-13.51,15.81-20.53,2.21-5.92,3.03-10.44,3.89-21.5.84-10.76.8-15.5-.15-20.5-.68-3.58-1.42-7.63-1.65-9h0ZM521.03,251.31c-.05,10.03-.57,15.84-1.83,20.5-.97,3.58-3.63,10.1-5.92,14.5-2.52,4.85-6.72,10.71-10.67,14.88-3.57,3.78-9.87,9.56-14,12.85-4.12,3.29-9.93,8.29-12.9,11.12-2.98,2.83-7.12,7.4-9.22,10.15-2.73,3.59-5.4,9.53-9.42,21-3.08,8.8-7.33,19.6-9.44,24-2.1,4.4-6.39,11.6-9.53,16-3.14,4.4-7.35,9.72-9.35,11.82s-7.92,7.06-13.14,11.02-11.3,8.25-13.5,9.53-7.37,3.63-11.5,5.22c-4.12,1.59-10.87,3.52-15,4.3-4.12.77-12.67,1.41-19,1.41s-16.9-.82-23.5-1.83-14.25-2.5-17-3.31-6.91-2.19-9.25-3.07c-2.34-.87-5.94-2.48-8-3.57s-6.9-2.91-10.75-4.03c-3.85-1.13-9.36-2.71-12.25-3.52s-8.96-1.47-13.5-1.47-11.62.65-15.75,1.45c-4.12.79-10.42,2.39-14,3.54s-9.65,2.86-13.5,3.8c-5.35,1.3-11.37,1.7-25.5,1.67-13.73-.02-20.82-.5-27.5-1.84-4.95-.99-13.05-3.16-18-4.82-4.95-1.67-11.25-4.17-14-5.56-2.75-1.4-8.37-4.9-12.5-7.79-4.12-2.89-9.77-7.66-12.55-10.6s-6.89-8.05-9.12-11.35c-2.24-3.3-5.21-8.92-6.61-12.5s-2.8-7.4-3.12-8.5-.97-6.95-1.44-13c-.73-9.42-1.31-11.86-3.99-17-1.73-3.3-5.31-8.25-7.97-11s-9.3-8-14.77-11.66c-5.46-3.67-11.28-7.95-12.93-9.53s-4.66-5.56-6.69-8.84-4.37-8.89-5.21-12.47-3.31-10.1-5.48-14.5-6.91-11.83-10.54-16.5h0c-3.63-4.67-7.96-11.2-9.64-14.5-2.73-5.38-2.98-6.62-2.43-12,.34-3.3,1.89-9.83,3.44-14.5,1.55-4.67,4.15-11.42,5.77-15,1.89-4.19,5.92-9.88,11.31-16,4.6-5.23,9.64-11.52,11.2-14s4.87-11.02,7.36-19,5.28-16.3,6.22-18.49c.93-2.2,4.17-6.47,7.19-9.5,3.19-3.19,8.66-7.15,13-9.41,4.13-2.15,9.27-5.3,11.44-7,2.17-1.71,6.94-7.15,10.62-12.1,3.67-4.95,7.52-9.96,8.56-11.14,1.03-1.18,3.9-2.91,6.38-3.85s5.85-2.28,7.5-2.99c1.65-.7,4.58-1.82,6.5-2.5,1.92-.67,6.65-2.26,10.5-3.54s9.25-3.34,12-4.57,9.05-4.68,14-7.66,12.83-8.21,17.5-11.62,10.97-7.72,19.5-12.96l20.5,1.25c11.28.69,22.53.96,25,.59,2.47-.36,7.65-1.49,11.5-2.49,3.85-1.01,11.72-3.18,17.5-4.82s15-3.94,20.5-5.11,14.72-2.38,20.5-2.69,10.72-.71,11-.89c.28-.17,4.55.29,9.5,1.04s13.5,2.71,19,4.36,13.83,4.89,18.5,7.2,10.3,5.42,12.5,6.9,4.67,3.34,5.5,4.12,6,4.91,11.5,9.18,12.03,9.36,14.5,11.31c2.47,1.94,10.35,6.4,17.5,9.9,10.15,4.96,16.5,7.27,29,10.52,8.8,2.28,21.4,5.97,28,8.19s13.13,4.6,14.5,5.28c1.38.68,4.02,2.79,9.26,8.15l-.54,8.92c-.34,5.53-1.52,11.96-3.12,16.92-1.43,4.4-3.32,11.6-4.22,16-1.14,5.63-1.44,10.37-1,16,.34,4.4,1.72,13.4,3.06,20s3.8,17.62,5.47,24.5c1.67,6.87,3.53,14.52,4.13,17s1.39,7.2,1.77,10.5.66,12.3.61,20Z"/>
  <path class="st2" d="M149.11,308.43c-3.3.88-10.5,2.4-16,3.4h0c-5.5,1-8.87,1.85-7.5,1.89,1.38.05,6.1-.58,10.5-1.39,4.4-.81,11.15-2.34,15-3.41,3.85-1.06,6.33-1.96,5.5-2s-4.2.64-7.5,1.51Z"/>
  <path class="st0" d="M149.11,308.43c-3.3.88-10.5,2.4-16,3.4h0c-5.5,1-8.87,1.85-7.5,1.89,1.38.05,6.1-.58,10.5-1.39,4.4-.81,11.15-2.34,15-3.41,3.85-1.06,6.33-1.96,5.5-2s-4.2.64-7.5,1.51Z"/>
  <path class="st2" d="M336.33,354.31c-4-6.05-8.5-13.36-10-16.25s-2.61-5.7-2.47-6.26c.14-.55,2.5.53,5.25,2.4,2.75,1.88,7.03,5.28,9.5,7.55,2.47,2.28,4.63,4.01,4.79,3.85s-3.27-3.67-7.62-7.79c-4.36-4.13-9.78-8.4-12.06-9.5-3.83-1.84-4.79-3.22-12.23-17.5-4.45-8.52-8.65-16.17-9.34-17-.7-.83-3.51-5.33-6.25-10-2.75-4.67-6.41-11.54-8.14-15.25s-3.17-7.31-3.19-8c-.03-.69.66-1.92,1.52-2.75,1.42-1.35,2.92-.11,14.8,12.13,8.6,8.86,17.33,16.64,24.97,22.25,6.46,4.74,12.09,8.64,12.5,8.66s-2.85-2.8-7.25-6.25c-4.4-3.46-8.11-6.63-8.25-7.04s-.7-.75-1.25-.75-1.62-.56-2.37-1.25-4.46-4-8.25-7.36c-3.78-3.36-10.13-9.89-14.09-14.5-3.97-4.61-7.23-9.18-7.25-10.14s.3-1.93.71-2.16c.41-.22,5.7,2.96,11.75,7.06,6.05,4.11,15.72,9.84,21.5,12.74s13.09,6.69,16.25,8.44c3.16,1.74,5.77,2.83,5.79,2.42.02-.41-2.35-2.05-5.25-3.64-2.91-1.59-9.12-4.78-13.79-7.1s-13.9-7.84-20.5-12.27c-6.6-4.42-12.67-8.77-13.5-9.67-.83-.89-1.16-1.83-.75-2.09.41-.27,2.55.42,4.75,1.52s9.06,3.41,15.25,5.13c6.19,1.73,15.08,3.74,19.75,4.48,4.67.74,10.08,1.37,12,1.4,1.92.02,3.28-.19,3-.47s-4.78-.99-10-1.56c-5.22-.58-13.78-2.19-19-3.58s-12.42-3.63-16-4.98c-3.58-1.34-7.17-2.88-8-3.42-1.06-.68.33-.97,4.75-.98,3.44,0,10.19-.67,15-1.47,4.81-.79,10.78-1.7,13.25-2,2.47-.31,5.85-.82,7.5-1.13s3.22-.81,3.5-1.11-1.75-.29-4.5.03c-4.57.52-4.83.44-3-.9,1.1-.81,2.67-1.47,3.5-1.46.83,0,3.3-.5,5.5-1.13,2.22-.63,3.33-1.33,2.5-1.58s-5.78.75-11,2.21c-5.22,1.47-11.53,3.38-14,4.25s-8.21,1.73-12.75,1.92c-5.06.22-8.25-.04-8.25-.65,0-.55,4.61-3.99,10.25-7.65,5.64-3.65,14.52-9.84,19.74-13.75,5.21-3.9,10.35-7.77,11.4-8.6,1.06-.83,3.54-2.88,5.52-4.56,1.97-1.69,9.89-8.65,17.59-15.48,7.7-6.83,16.7-14.88,20-17.89s11.06-10.56,17.25-16.77c6.19-6.22,11.25-11.75,11.25-12.3s-4.74,3.84-10.52,9.75c-5.79,5.91-12.32,12.21-14.5,14-2.19,1.79-4.19,3.14-4.45,3s1.09-4.75,3-10.25c1.9-5.5,3.87-10.9,4.36-12s1.69-4.25,2.65-7,3.04-7.59,4.61-10.75c1.57-3.16,5.53-8.56,8.81-12s5.99-6.7,6.02-7.25c.04-.55.84-1.9,1.78-3s.21-.65-1.62,1-6.06,6.37-9.39,10.5c-3.34,4.12-7.55,10.65-9.38,14.5-1.82,3.85-3.33,7.34-3.34,7.75-.02.41-2.76,7.84-6.1,16.5s-6.42,16.42-6.85,17.25-4.11,4.38-8.18,7.91c-4.07,3.52-10.59,9.37-14.5,13-3.9,3.62-8.29,7.6-9.75,8.84-1.46,1.24-2.99,2.23-3.4,2.21s-3.69,2.34-7.29,5.25c-3.59,2.91-12.04,9.12-18.77,13.79s-14.25,9.85-16.72,11.5-4.82,2.67-5.23,2.28c-.41-.4.85-2.43,2.8-4.5,1.94-2.08,5.99-7.33,9-11.66,3-4.34,6.36-9.14,7.46-10.67s4.49-6.08,7.54-10.11c3.05-4.04,6.34-8.69,7.31-10.34l1.76-3c-4.06,4.65-6.43,7.58-7.89,9.5-1.46,1.92-4.03,5.08-5.71,7s-6.38,8.23-10.43,14c-4.06,5.77-8.55,11.75-9.98,13.27-1.43,1.53-2.82,2.75-3.1,2.72s-1.62-.95-3-2.04c-2.31-1.84-2.38-2.12-.9-3.72.88-.95,1.92-2.63,2.33-3.73.4-1.1,3.1-5.83,6.01-10.5,2.9-4.67,7.2-12.33,9.54-17,2.35-4.67,5.52-12.1,7.05-16.5,1.52-4.4,3.04-9.58,3.36-11.5l.59-3.5c-1.66,4.65-3.29,8.92-4.7,12.5-1.4,3.58-3.16,7.96-3.91,9.75s-2.13,4.94-3.06,7-5.88,10.84-11,19.5-9.76,15.75-10.31,15.75-1-.23-1-.5.93-5.11,2.07-10.75c1.13-5.64,2.67-15.65,3.41-22.25.75-6.6,1.18-12.23.96-12.5-.21-.27-.62.62-.89,2-.27,1.37-1.19,7.45-2.04,13.5-.84,6.05-2.32,15.47-3.27,20.92-.96,5.46-2.19,10.09-2.74,10.28s-1.83-3.6-2.85-8.43c-1.09-5.17-2.19-16.36-2.69-27.27-.49-10.84-.45-23.88.09-31.5.52-7.15,1.19-14.8,1.49-17s.95-6.02,1.43-8.5c.49-2.48,1.4-8.1,2.04-12.5.63-4.4,2.7-14.3,4.58-22s4.95-18.5,6.82-24,5.49-14.5,8.05-20,6.65-13.94,9.1-18.75c2.71-5.34,3.95-8.76,3.19-8.77-.69,0-4.02,5.27-7.4,11.75-3.38,6.47-7.71,15.6-9.61,20.27-1.91,4.67-4.85,12.78-6.55,18-1.69,5.22-4.65,15.8-6.56,23.5-1.92,7.7-4.42,20.53-5.56,28.5-1.14,7.98-2.58,19-3.21,24.5-.7,6.17-.92,17.46-.56,29.5.32,10.73,1.28,23.77,2.15,29,.86,5.23,1.79,10.74,2.06,12.25s.04,2.75-.51,2.75-3.65-4.84-6.88-10.75c-3.24-5.91-8.58-16.15-11.87-22.75s-7.06-14.81-8.37-18.24c-1.31-3.44-2.52-6.14-2.68-6-.17.13.36,2.26,1.17,4.74.82,2.48,2.23,6.3,3.15,8.5s4.94,10.52,8.93,18.5c3.99,7.98,8.9,17.2,10.9,20.5s3.65,6.56,3.65,7.25-.34,1.26-.75,1.26c-.41,0-2.6-1.9-4.87-4.25-2.27-2.34-8.35-9.89-13.52-16.76-5.16-6.88-11.03-14.98-13.03-18s-6.5-10.06-9.98-15.64c-3.49-5.58-6.91-10.98-7.58-12-.99-1.49-1-1.26-.03,1.14.66,1.65,3.75,7.27,6.86,12.5s7.64,12.42,10.06,16,6.38,9.2,8.79,12.5c2.42,3.3,8.14,10.61,12.72,16.25s8.07,10.59,7.76,11-4.93-1.5-10.25-4.25c-5.32-2.74-15.98-9.22-23.68-14.39s-16.92-11.9-20.5-14.96c-3.58-3.06-7.4-6.26-8.5-7.11l-2-1.54c3.1,3.68,7.15,7.33,11,10.49s9.03,7.29,11.5,9.18c2.47,1.9,9,6.32,14.5,9.82s14.05,8.48,19,11.06c5.64,2.95,9.14,5.41,9.38,6.58.36,1.75-.09,1.82-7,1.07-4.06-.44-13.91-2.12-21.88-3.74-7.97-1.61-19.9-4.73-26.5-6.94-6.6-2.2-12.9-4.4-14-4.89s-5.83-2.13-10.5-3.64c-4.67-1.5-16.15-6.46-25.5-11.01s-22.29-11.24-28.75-14.88c-6.46-3.63-15.46-9.03-20-12s-11.4-7.6-15.25-10.28-9.02-6.33-11.5-8.12-4.84-3.24-5.25-3.23c-.41.02,1.93,2.17,5.2,4.78,3.28,2.61,9.92,7.49,14.75,10.84,4.84,3.35,13.53,8.96,19.3,12.47s21.08,11.72,34,18.24c18.34,9.26,22.51,11.71,19,11.14-2.47-.4-9.45-2.41-15.5-4.48-6.05-2.07-20.23-7.35-31.5-11.74-11.27-4.4-27.02-11.16-35-15.04-7.98-3.87-14.62-6.92-14.77-6.78h0c-.15.15.3.76,1,1.37.7.6,7.35,3.99,14.77,7.52,7.42,3.52,20.48,9.16,29,12.53,8.52,3.36,19.1,7.45,23.5,9.09,5.32,1.98,7.15,3.02,5.5,3.12-1.37.08,2,1.16,7.5,2.41,5.5,1.24,13.83,3.43,18.5,4.85,4.67,1.43,13.9,4.02,20.5,5.76s13.35,3.49,15,3.88c1.65.38,3.45.99,4,1.33.55.35,4.83,1.79,9.5,3.2,4.67,1.42,11.88,3.3,16,4.18,4.13.88,11.55,1.89,16.5,2.23,4.95.35,9,1.06,9,1.59s-3.6,2.01-8,3.29-15.2,3.44-24,4.81c-8.8,1.36-22.75,2.74-31,3.08-14.78.6-15.23.55-30.5-3.05-8.53-2.01-15.6-3.53-15.72-3.38-.12.16,4.94,1.53,11.25,3.04s11.47,3.09,11.47,3.5-8.66.42-19.25.01-24.2-1.39-30.25-2.2c-6.05-.8-15.05-2.16-20-3.01s-10.35-1.77-12-2.03-.98.13,1.5.87,7.42,1.9,11,2.59,13.02,2.04,21,3.01c8.94,1.08,22.74,1.82,36,1.92,12.38.1,21.92.59,22.5,1.15.66.64-.21,1.01-2.5,1.09-1.92.06-10.03.45-18,.87l-14.5.75c27.13-.62,42.2-1.21,51-1.72,8.8-.5,20.5-1.59,26-2.42,5.5-.82,13.38-2.36,17.5-3.42,4.13-1.06,8.85-2.19,10.5-2.5s3.9-.93,5-1.37c1.6-.64,1.8-.52,1,.62-.8,1.13-.56,1.28,1.25.72,1.29-.39,2.25-.25,2.25.32s-3.49,3.31-7.75,6.13c-4.26,2.81-14.5,8.39-22.75,12.39s-20.85,9.39-28,11.98c-7.15,2.6-17.05,5.54-22,6.53-4.95,1-13.05,2.31-18,2.9-4.95.6-17.1,1.54-27,2.09s-18.9,1.16-20,1.36c-1.1.19,3.63.41,10.5.49,6.88.08,19.25-.53,27.5-1.35s17.47-1.95,20.5-2.52c3.03-.56,6.17-.98,7-.93.83.04-.08.69-2,1.43s-3.05,1.39-2.5,1.44,4.38-1.07,8.5-2.47c4.13-1.41,9.3-3.44,11.5-4.52s9.85-4.03,17-6.57,18.17-7.24,24.5-10.45c6.33-3.21,14.76-7.66,18.75-9.89,3.99-2.22,7.13-3.7,6.99-3.29s-1.54,3.23-3.12,6.25c-1.57,3.02-5.39,8.65-8.49,12.5-3.09,3.85-7.16,8.35-9.03,10s-5.66,6.38-8.42,10.5-10.9,13.97-18.1,21.87c-7.19,7.91-13.75,14.71-14.58,15.12s-3.08,1.02-5,1.36-4.4,1.29-5.5,2.11c-1.52,1.13-.99,1.08,2.24-.23,2.33-.95,4.58-1.38,5-.96s.19,1.32-.51,2c-.69.68-1.27,1.68-1.28,2.23,0,.55.97.1,2.17-1l2.18-2c-1.05,7.75-3.2,15.4-5.46,22-2.27,6.6-4.95,13.91-5.98,16.25-1.02,2.34-1.85,4.81-1.84,5.5,0,.69.96-.77,2.1-3.25s4.27-11.02,6.96-19c2.7-7.98,4.91-16.3,4.93-18.5.04-3.56.79-4.78,6.77-11,3.7-3.85,10.61-11.27,15.36-16.5,4.74-5.23,9.75-10.85,11.12-12.5s4.24-5.54,6.37-8.64c2.13-3.1,6.68-8.84,10.12-12.75s7.38-9.36,8.75-12.11c1.38-2.75,2.84-4.99,3.25-4.99.41.01-.04,4.62-1.01,10.25-.96,5.63-2.42,12.26-3.25,14.74-.82,2.48-2.19,7.87-3.04,12-.85,4.12-1.58,8.17-1.6,9-.03.83-.97,4.65-2.08,8.5-1.12,3.85-3.33,10.15-4.92,14-1.59,3.85-3.27,7.23-3.73,7.5-.47.27-1.83,2.52-3.03,5-1.21,2.5-1.48,3.61-.62,2.5.86-1.1,1.57-1.55,1.57-1,0,.55-.72,2.8-1.62,5s-3.62,8.27-6.06,13.5c-2.43,5.23-4.38,9.95-4.33,10.5.04.55,1.89-2.83,4.09-7.5,2.21-4.67,5.6-12.33,7.54-17,1.94-4.67,3.6-8.57,3.68-8.67.09-.09.25,9.36.37,21,.16,16.19.63,23,2,28.94.98,4.27,2.01,7.75,2.29,7.73.28-.03-.09-2.4-.81-5.27-.72-2.88-1.74-13.11-2.26-22.73-.52-9.63-.7-19.3-.4-21.5.29-2.2,1.01-6.92,1.58-10.5.58-3.58,1.73-8.3,2.56-10.5s3.29-10.08,5.46-17.5c2.18-7.42,4.8-18.23,5.83-24,1.02-5.77,2.35-13.54,2.95-17.25.62-3.86,1.52-6.54,2.09-6.25.55.27,1,1.62,1,3s.63,3.74,1.39,5.25,2.54,9.5,3.95,17.75,2.76,16.12,2.99,17.5c.24,1.37.23-.42-.01-4-.24-3.58-1.32-11.45-2.39-17.5-1.08-6.05-2.82-14.6-3.87-19-1.04-4.4-1.6-8.35-1.23-8.78s1.34-.77,2.17-.76c.89.02,3.47,3.99,6.35,9.78,2.67,5.37,7.91,14.71,11.63,20.76,3.73,6.05,7.12,12.12,7.53,13.5.41,1.37,2.49,5.99,4.62,10.25s3.87,8.99,3.86,10.5c0,1.51.69,7.92,1.53,14.25.85,6.33,2.63,17.35,3.96,24.5,1.34,7.15,2.67,15.36,2.97,18.25s1,5.48,1.55,5.75c.58.29.8-.45.53-1.75-.26-1.24-.96-5.85-1.57-10.25-.61-4.4-1.71-10.48-2.46-13.5-.74-3.02-1.84-10.23-2.45-16s-1.52-12.3-2.02-14.5-.71-4.23-.47-4.5.58-.27.74,0c.17.27,6.48,9.73,14.03,21s15.07,22.08,16.71,24c1.64,1.92,2.97,3.05,2.95,2.5s-1.6-3.02-3.51-5.5c-1.92-2.48-6.76-9.45-10.76-15.5h0ZM188.36,231.17c-3.71-.94-6.75-2.07-6.75-2.53s3.14.18,6.97,1.42c3.84,1.24,6.87,2.38,6.75,2.53s-3.26-.49-6.97-1.42Z"/>
  <path class="st0" d="M336.33,354.31c-4-6.05-8.5-13.36-10-16.25s-2.61-5.7-2.47-6.26c.14-.55,2.5.53,5.25,2.4,2.75,1.88,7.03,5.28,9.5,7.55,2.47,2.28,4.63,4.01,4.79,3.85s-3.27-3.67-7.62-7.79c-4.36-4.13-9.78-8.4-12.06-9.5-3.83-1.84-4.79-3.22-12.23-17.5-4.45-8.52-8.65-16.17-9.34-17-.7-.83-3.51-5.33-6.25-10-2.75-4.67-6.41-11.54-8.14-15.25s-3.17-7.31-3.19-8c-.03-.69.66-1.92,1.52-2.75,1.42-1.35,2.92-.11,14.8,12.13,8.6,8.86,17.33,16.64,24.97,22.25,6.46,4.74,12.09,8.64,12.5,8.66s-2.85-2.8-7.25-6.25c-4.4-3.46-8.11-6.63-8.25-7.04s-.7-.75-1.25-.75-1.62-.56-2.37-1.25-4.46-4-8.25-7.36c-3.78-3.36-10.13-9.89-14.09-14.5-3.97-4.61-7.23-9.18-7.25-10.14s.3-1.93.71-2.16c.41-.22,5.7,2.96,11.75,7.06,6.05,4.11,15.72,9.84,21.5,12.74s13.09,6.69,16.25,8.44c3.16,1.74,5.77,2.83,5.79,2.42.02-.41-2.35-2.05-5.25-3.64-2.91-1.59-9.12-4.78-13.79-7.1s-13.9-7.84-20.5-12.27c-6.6-4.42-12.67-8.77-13.5-9.67-.83-.89-1.16-1.83-.75-2.09.41-.27,2.55.42,4.75,1.52s9.06,3.41,15.25,5.13c6.19,1.73,15.08,3.74,19.75,4.48,4.67.74,10.08,1.37,12,1.4,1.92.02,3.28-.19,3-.47s-4.78-.99-10-1.56c-5.22-.58-13.78-2.19-19-3.58s-12.42-3.63-16-4.98c-3.58-1.34-7.17-2.88-8-3.42-1.06-.68.33-.97,4.75-.98,3.44,0,10.19-.67,15-1.47,4.81-.79,10.78-1.7,13.25-2,2.47-.31,5.85-.82,7.5-1.13s3.22-.81,3.5-1.11-1.75-.29-4.5.03c-4.57.52-4.83.44-3-.9,1.1-.81,2.67-1.47,3.5-1.46.83,0,3.3-.5,5.5-1.13,2.22-.63,3.33-1.33,2.5-1.58s-5.78.75-11,2.21c-5.22,1.47-11.53,3.38-14,4.25s-8.21,1.73-12.75,1.92c-5.06.22-8.25-.04-8.25-.65,0-.55,4.61-3.99,10.25-7.65,5.64-3.65,14.52-9.84,19.74-13.75,5.21-3.9,10.35-7.77,11.4-8.6,1.06-.83,3.54-2.88,5.52-4.56,1.97-1.69,9.89-8.65,17.59-15.48,7.7-6.83,16.7-14.88,20-17.89s11.06-10.56,17.25-16.77c6.19-6.22,11.25-11.75,11.25-12.3s-4.74,3.84-10.52,9.75c-5.79,5.91-12.32,12.21-14.5,14-2.19,1.79-4.19,3.14-4.45,3s1.09-4.75,3-10.25c1.9-5.5,3.87-10.9,4.36-12s1.69-4.25,2.65-7,3.04-7.59,4.61-10.75c1.57-3.16,5.53-8.56,8.81-12s5.99-6.7,6.02-7.25c.04-.55.84-1.9,1.78-3s.21-.65-1.62,1-6.06,6.37-9.39,10.5c-3.34,4.12-7.55,10.65-9.38,14.5-1.82,3.85-3.33,7.34-3.34,7.75-.02.41-2.76,7.84-6.1,16.5s-6.42,16.42-6.85,17.25-4.11,4.38-8.18,7.91c-4.07,3.52-10.59,9.37-14.5,13-3.9,3.62-8.29,7.6-9.75,8.84-1.46,1.24-2.99,2.23-3.4,2.21s-3.69,2.34-7.29,5.25c-3.59,2.91-12.04,9.12-18.77,13.79s-14.25,9.85-16.72,11.5-4.82,2.67-5.23,2.28c-.41-.4.85-2.43,2.8-4.5,1.94-2.08,5.99-7.33,9-11.66,3-4.34,6.36-9.14,7.46-10.67s4.49-6.08,7.54-10.11c3.05-4.04,6.34-8.69,7.31-10.34l1.76-3c-4.06,4.65-6.43,7.58-7.89,9.5-1.46,1.92-4.03,5.08-5.71,7s-6.38,8.23-10.43,14c-4.06,5.77-8.55,11.75-9.98,13.27-1.43,1.53-2.82,2.75-3.1,2.72s-1.62-.95-3-2.04c-2.31-1.84-2.38-2.12-.9-3.72.88-.95,1.92-2.63,2.33-3.73.4-1.1,3.1-5.83,6.01-10.5,2.9-4.67,7.2-12.33,9.54-17,2.35-4.67,5.52-12.1,7.05-16.5,1.52-4.4,3.04-9.58,3.36-11.5l.59-3.5c-1.66,4.65-3.29,8.92-4.7,12.5-1.4,3.58-3.16,7.96-3.91,9.75s-2.13,4.94-3.06,7-5.88,10.84-11,19.5-9.76,15.75-10.31,15.75-1-.23-1-.5.93-5.11,2.07-10.75c1.13-5.64,2.67-15.65,3.41-22.25.75-6.6,1.18-12.23.96-12.5-.21-.27-.62.62-.89,2-.27,1.37-1.19,7.45-2.04,13.5-.84,6.05-2.32,15.47-3.27,20.92-.96,5.46-2.19,10.09-2.74,10.28s-1.83-3.6-2.85-8.43c-1.09-5.17-2.19-16.36-2.69-27.27-.49-10.84-.45-23.88.09-31.5.52-7.15,1.19-14.8,1.49-17s.95-6.02,1.43-8.5c.49-2.48,1.4-8.1,2.04-12.5.63-4.4,2.7-14.3,4.58-22s4.95-18.5,6.82-24,5.49-14.5,8.05-20,6.65-13.94,9.1-18.75c2.71-5.34,3.95-8.76,3.19-8.77-.69,0-4.02,5.27-7.4,11.75-3.38,6.47-7.71,15.6-9.61,20.27-1.91,4.67-4.85,12.78-6.55,18-1.69,5.22-4.65,15.8-6.56,23.5-1.92,7.7-4.42,20.53-5.56,28.5-1.14,7.98-2.58,19-3.21,24.5-.7,6.17-.92,17.46-.56,29.5.32,10.73,1.28,23.77,2.15,29,.86,5.23,1.79,10.74,2.06,12.25s.04,2.75-.51,2.75-3.65-4.84-6.88-10.75c-3.24-5.91-8.58-16.15-11.87-22.75s-7.06-14.81-8.37-18.24c-1.31-3.44-2.52-6.14-2.68-6-.17.13.36,2.26,1.17,4.74.82,2.48,2.23,6.3,3.15,8.5s4.94,10.52,8.93,18.5c3.99,7.98,8.9,17.2,10.9,20.5s3.65,6.56,3.65,7.25-.34,1.26-.75,1.26c-.41,0-2.6-1.9-4.87-4.25-2.27-2.34-8.35-9.89-13.52-16.76-5.16-6.88-11.03-14.98-13.03-18s-6.5-10.06-9.98-15.64c-3.49-5.58-6.91-10.98-7.58-12-.99-1.49-1-1.26-.03,1.14.66,1.65,3.75,7.27,6.86,12.5s7.64,12.42,10.06,16,6.38,9.2,8.79,12.5c2.42,3.3,8.14,10.61,12.72,16.25s8.07,10.59,7.76,11-4.93-1.5-10.25-4.25c-5.32-2.74-15.98-9.22-23.68-14.39s-16.92-11.9-20.5-14.96c-3.58-3.06-7.4-6.26-8.5-7.11l-2-1.54c3.1,3.68,7.15,7.33,11,10.49s9.03,7.29,11.5,9.18c2.47,1.9,9,6.32,14.5,9.82s14.05,8.48,19,11.06c5.64,2.95,9.14,5.41,9.38,6.58.36,1.75-.09,1.82-7,1.07-4.06-.44-13.91-2.12-21.88-3.74-7.97-1.61-19.9-4.73-26.5-6.94-6.6-2.2-12.9-4.4-14-4.89s-5.83-2.13-10.5-3.64c-4.67-1.5-16.15-6.46-25.5-11.01s-22.29-11.24-28.75-14.88c-6.46-3.63-15.46-9.03-20-12s-11.4-7.6-15.25-10.28-9.02-6.33-11.5-8.12-4.84-3.24-5.25-3.23c-.41.02,1.93,2.17,5.2,4.78,3.28,2.61,9.92,7.49,14.75,10.84,4.84,3.35,13.53,8.96,19.3,12.47s21.08,11.72,34,18.24c18.34,9.26,22.51,11.71,19,11.14-2.47-.4-9.45-2.41-15.5-4.48-6.05-2.07-20.23-7.35-31.5-11.74-11.27-4.4-27.02-11.16-35-15.04-7.98-3.87-14.62-6.92-14.77-6.78h0c-.15.15.3.76,1,1.37.7.6,7.35,3.99,14.77,7.52,7.42,3.52,20.48,9.16,29,12.53,8.52,3.36,19.1,7.45,23.5,9.09,5.32,1.98,7.15,3.02,5.5,3.12-1.37.08,2,1.16,7.5,2.41,5.5,1.24,13.83,3.43,18.5,4.85,4.67,1.43,13.9,4.02,20.5,5.76s13.35,3.49,15,3.88c1.65.38,3.45.99,4,1.33.55.35,4.83,1.79,9.5,3.2,4.67,1.42,11.88,3.3,16,4.18,4.13.88,11.55,1.89,16.5,2.23,4.95.35,9,1.06,9,1.59s-3.6,2.01-8,3.29-15.2,3.44-24,4.81c-8.8,1.36-22.75,2.74-31,3.08-14.78.6-15.23.55-30.5-3.05-8.53-2.01-15.6-3.53-15.72-3.38-.12.16,4.94,1.53,11.25,3.04s11.47,3.09,11.47,3.5-8.66.42-19.25.01-24.2-1.39-30.25-2.2c-6.05-.8-15.05-2.16-20-3.01s-10.35-1.77-12-2.03-.98.13,1.5.87,7.42,1.9,11,2.59,13.02,2.04,21,3.01c8.94,1.08,22.74,1.82,36,1.92,12.38.1,21.92.59,22.5,1.15.66.64-.21,1.01-2.5,1.09-1.92.06-10.03.45-18,.87l-14.5.75c27.13-.62,42.2-1.21,51-1.72,8.8-.5,20.5-1.59,26-2.42,5.5-.82,13.38-2.36,17.5-3.42,4.13-1.06,8.85-2.19,10.5-2.5s3.9-.93,5-1.37c1.6-.64,1.8-.52,1,.62-.8,1.13-.56,1.28,1.25.72,1.29-.39,2.25-.25,2.25.32s-3.49,3.31-7.75,6.13c-4.26,2.81-14.5,8.39-22.75,12.39s-20.85,9.39-28,11.98c-7.15,2.6-17.05,5.54-22,6.53-4.95,1-13.05,2.31-18,2.9-4.95.6-17.1,1.54-27,2.09s-18.9,1.16-20,1.36c-1.1.19,3.63.41,10.5.49,6.88.08,19.25-.53,27.5-1.35s17.47-1.95,20.5-2.52c3.03-.56,6.17-.98,7-.93.83.04-.08.69-2,1.43s-3.05,1.39-2.5,1.44,4.38-1.07,8.5-2.47c4.13-1.41,9.3-3.44,11.5-4.52s9.85-4.03,17-6.57,18.17-7.24,24.5-10.45c6.33-3.21,14.76-7.66,18.75-9.89,3.99-2.22,7.13-3.7,6.99-3.29s-1.54,3.23-3.12,6.25c-1.57,3.02-5.39,8.65-8.49,12.5-3.09,3.85-7.16,8.35-9.03,10s-5.66,6.38-8.42,10.5-10.9,13.97-18.1,21.87c-7.19,7.91-13.75,14.71-14.58,15.12s-3.08,1.02-5,1.36-4.4,1.29-5.5,2.11c-1.52,1.13-.99,1.08,2.24-.23,2.33-.95,4.58-1.38,5-.96s.19,1.32-.51,2c-.69.68-1.27,1.68-1.28,2.23,0,.55.97.1,2.17-1l2.18-2c-1.05,7.75-3.2,15.4-5.46,22-2.27,6.6-4.95,13.91-5.98,16.25-1.02,2.34-1.85,4.81-1.84,5.5,0,.69.96-.77,2.1-3.25s4.27-11.02,6.96-19c2.7-7.98,4.91-16.3,4.93-18.5.04-3.56.79-4.78,6.77-11,3.7-3.85,10.61-11.27,15.36-16.5,4.74-5.23,9.75-10.85,11.12-12.5s4.24-5.54,6.37-8.64c2.13-3.1,6.68-8.84,10.12-12.75s7.38-9.36,8.75-12.11c1.38-2.75,2.84-4.99,3.25-4.99.41.01-.04,4.62-1.01,10.25-.96,5.63-2.42,12.26-3.25,14.74-.82,2.48-2.19,7.87-3.04,12-.85,4.12-1.58,8.17-1.6,9-.03.83-.97,4.65-2.08,8.5-1.12,3.85-3.33,10.15-4.92,14-1.59,3.85-3.27,7.23-3.73,7.5-.47.27-1.83,2.52-3.03,5-1.21,2.5-1.48,3.61-.62,2.5.86-1.1,1.57-1.55,1.57-1,0,.55-.72,2.8-1.62,5s-3.62,8.27-6.06,13.5c-2.43,5.23-4.38,9.95-4.33,10.5.04.55,1.89-2.83,4.09-7.5,2.21-4.67,5.6-12.33,7.54-17,1.94-4.67,3.6-8.57,3.68-8.67.09-.09.25,9.36.37,21,.16,16.19.63,23,2,28.94.98,4.27,2.01,7.75,2.29,7.73.28-.03-.09-2.4-.81-5.27-.72-2.88-1.74-13.11-2.26-22.73-.52-9.63-.7-19.3-.4-21.5.29-2.2,1.01-6.92,1.58-10.5.58-3.58,1.73-8.3,2.56-10.5s3.29-10.08,5.46-17.5c2.18-7.42,4.8-18.23,5.83-24,1.02-5.77,2.35-13.54,2.95-17.25.62-3.86,1.52-6.54,2.09-6.25.55.27,1,1.62,1,3s.63,3.74,1.39,5.25,2.54,9.5,3.95,17.75,2.76,16.12,2.99,17.5c.24,1.37.23-.42-.01-4-.24-3.58-1.32-11.45-2.39-17.5-1.08-6.05-2.82-14.6-3.87-19-1.04-4.4-1.6-8.35-1.23-8.78s1.34-.77,2.17-.76c.89.02,3.47,3.99,6.35,9.78,2.67,5.37,7.91,14.71,11.63,20.76,3.73,6.05,7.12,12.12,7.53,13.5.41,1.37,2.49,5.99,4.62,10.25s3.87,8.99,3.86,10.5c0,1.51.69,7.92,1.53,14.25.85,6.33,2.63,17.35,3.96,24.5,1.34,7.15,2.67,15.36,2.97,18.25s1,5.48,1.55,5.75c.58.29.8-.45.53-1.75-.26-1.24-.96-5.85-1.57-10.25-.61-4.4-1.71-10.48-2.46-13.5-.74-3.02-1.84-10.23-2.45-16s-1.52-12.3-2.02-14.5-.71-4.23-.47-4.5.58-.27.74,0c.17.27,6.48,9.73,14.03,21s15.07,22.08,16.71,24c1.64,1.92,2.97,3.05,2.95,2.5s-1.6-3.02-3.51-5.5c-1.92-2.48-6.76-9.45-10.76-15.5h0ZM188.36,231.17c-3.71-.94-6.75-2.07-6.75-2.53s3.14.18,6.97,1.42c3.84,1.24,6.87,2.38,6.75,2.53s-3.26-.49-6.97-1.42Z"/>
  <path class="st2" d="M138.11,268.06c-8.25-.17-21.52-.17-29.5,0s-1.23.31,15,.31,22.75-.14,14.5-.31Z"/>
  <path class="st0" d="M138.11,268.06c-8.25-.17-21.52-.17-29.5,0s-1.23.31,15,.31,22.75-.14,14.5-.31Z"/>
  <path class="st2" d="M139.11,251.83c9.35,2.23,17.1,3.93,17.23,3.77.12-.16-4.83-1.54-11-3.07-6.18-1.54-18.43-4.78-27.23-7.22-8.8-2.43-20.27-5.96-25.5-7.85-5.23-1.88-12.54-4.75-16.25-6.38s-6.75-2.79-6.75-2.57,3.26,1.9,7.25,3.73,11.98,4.94,17.75,6.9c5.77,1.97,14.33,4.72,19,6.11s16.15,4.35,25.5,6.58h0Z"/>
  <path class="st0" d="M139.11,251.83c9.35,2.23,17.1,3.93,17.23,3.77.12-.16-4.83-1.54-11-3.07-6.18-1.54-18.43-4.78-27.23-7.22-8.8-2.43-20.27-5.96-25.5-7.85-5.23-1.88-12.54-4.75-16.25-6.38s-6.75-2.79-6.75-2.57,3.26,1.9,7.25,3.73,11.98,4.94,17.75,6.9c5.77,1.97,14.33,4.72,19,6.11s16.15,4.35,25.5,6.58h0Z"/>
  <path class="st2" d="M368.8,225.73c.17.07,2.11-.58,4.31-1.44s4.9-1.94,6-2.4c1.1-.45,5.94-2.68,10.75-4.95s8.64-4.36,8.5-4.63c-.14-.28-2.28.52-4.75,1.77-2.47,1.26-8.94,4.07-14.37,6.25-5.42,2.19-10.06,4.27-10.31,4.63-.24.35-.3.7-.13.77h0Z"/>
  <path class="st0" d="M368.8,225.73c.17.07,2.11-.58,4.31-1.44s4.9-1.94,6-2.4c1.1-.45,5.94-2.68,10.75-4.95s8.64-4.36,8.5-4.63c-.14-.28-2.28.52-4.75,1.77-2.47,1.26-8.94,4.07-14.37,6.25-5.42,2.19-10.06,4.27-10.31,4.63-.24.35-.3.7-.13.77h0Z"/>
  <path class="st2" d="M428.11,289.72c-2.2-.68-7.6-2.88-12-4.89s-11.83-6.21-16.5-9.33-10.15-7.14-12.17-8.93c-2.02-1.79-3.93-4.27-4.25-5.51-.56-2.17-.28-2.27,8.17-2.88,4.81-.35,9.65-1,10.75-1.45,1.27-.51.26-.64-2.75-.36-2.61.24-6.89.65-9.5.91-4.45.44-4.59.38-2.25-.89,1.38-.74,4.97-1.83,8-2.43,3.03-.59,8.42-1.59,12-2.21,3.58-.63,7.4-1.33,8.5-1.56,1.1-.24,2.22-.65,2.5-.93s-.62-.49-2-.47c-1.37.02-7.22.9-13,1.96-5.78,1.05-12.3,2.44-14.5,3.09s-4.45,1.47-5,1.82-2.8,1.12-5,1.7c-2.2.59-10.08,1.19-17.5,1.34-7.42.14-13.72.47-14,.72-.28.24,6.81.43,15.75.42,12.35-.02,16.25.27,16.25,1.22.01.69,2.59,3.27,5.75,5.74s7.33,5.65,9.25,7.08c1.92,1.42,6.2,4.07,9.5,5.89s6.45,3.63,7,4.02c.55.39,5.16,2.36,10.25,4.37s9.59,3.46,10,3.22c.41-.23-1.05-.98-3.25-1.66Z"/>
  <path class="st0" d="M428.11,289.72c-2.2-.68-7.6-2.88-12-4.89s-11.83-6.21-16.5-9.33-10.15-7.14-12.17-8.93c-2.02-1.79-3.93-4.27-4.25-5.51-.56-2.17-.28-2.27,8.17-2.88,4.81-.35,9.65-1,10.75-1.45,1.27-.51.26-.64-2.75-.36-2.61.24-6.89.65-9.5.91-4.45.44-4.59.38-2.25-.89,1.38-.74,4.97-1.83,8-2.43,3.03-.59,8.42-1.59,12-2.21,3.58-.63,7.4-1.33,8.5-1.56,1.1-.24,2.22-.65,2.5-.93s-.62-.49-2-.47c-1.37.02-7.22.9-13,1.96-5.78,1.05-12.3,2.44-14.5,3.09s-4.45,1.47-5,1.82-2.8,1.12-5,1.7c-2.2.59-10.08,1.19-17.5,1.34-7.42.14-13.72.47-14,.72-.28.24,6.81.43,15.75.42,12.35-.02,16.25.27,16.25,1.22.01.69,2.59,3.27,5.75,5.74s7.33,5.65,9.25,7.08c1.92,1.42,6.2,4.07,9.5,5.89s6.45,3.63,7,4.02c.55.39,5.16,2.36,10.25,4.37s9.59,3.46,10,3.22c.41-.23-1.05-.98-3.25-1.66Z"/>
  <path class="st2" d="M431.11,145.94c-4.4,3.53-12.5,9.42-18,13.07s-14.42,8.86-19.82,11.56h0c-5.95,2.98-9.01,4.98-7.75,5.08,1.14.09,5.55-1.75,9.81-4.09s8.48-4.7,9.37-5.25c.9-.55,3.15-1.85,5.01-2.9,1.86-1.04,7.66-5.06,12.88-8.93,5.22-3.88,10.18-7.75,11.01-8.61s2.4-2.64,3.5-3.96c1.09-1.32-1.61.49-6.01,4.03Z"/>
  <path class="st0" d="M431.11,145.94c-4.4,3.53-12.5,9.42-18,13.07s-14.42,8.86-19.82,11.56h0c-5.95,2.98-9.01,4.98-7.75,5.08,1.14.09,5.55-1.75,9.81-4.09s8.48-4.7,9.37-5.25c.9-.55,3.15-1.85,5.01-2.9,1.86-1.04,7.66-5.06,12.88-8.93,5.22-3.88,10.18-7.75,11.01-8.61s2.4-2.64,3.5-3.96c1.09-1.32-1.61.49-6.01,4.03Z"/>
  <path class="st2" d="M401.11,386.43c-2.2-1.21-8.22-4.89-13.37-8.16-5.16-3.28-14.16-9.14-20-13.03-5.85-3.89-11.19-7.36-11.88-7.71-.69-.36-1.25-.48-1.25-.27h0c0,.21,1.32,1.44,2.94,2.72,1.61,1.28,4.88,3.76,7.25,5.51s8.22,5.58,13.01,8.5c4.78,2.93,13.11,8.12,18.5,11.55,5.39,3.42,10.25,6.26,10.8,6.29.55.04.33-.67-.5-1.56-.83-.9-3.3-2.63-5.5-3.84h0Z"/>
  <path class="st0" d="M401.11,386.43c-2.2-1.21-8.22-4.89-13.37-8.16-5.16-3.28-14.16-9.14-20-13.03-5.85-3.89-11.19-7.36-11.88-7.71-.69-.36-1.25-.48-1.25-.27h0c0,.21,1.32,1.44,2.94,2.72,1.61,1.28,4.88,3.76,7.25,5.51s8.22,5.58,13.01,8.5c4.78,2.93,13.11,8.12,18.5,11.55,5.39,3.42,10.25,6.26,10.8,6.29.55.04.33-.67-.5-1.56-.83-.9-3.3-2.63-5.5-3.84h0Z"/>
  <path class="st2" d="M359.61,227.86c-4.67,1.71-8.72,3.31-9,3.56h0c-.28.24-.05.43.5.41.55,0,4.15-1.15,8-2.51,3.85-1.37,7.45-2.96,8-3.53.55-.57-2.83.36-7.5,2.07h0Z"/>
  <path class="st0" d="M359.61,227.86c-4.67,1.71-8.72,3.31-9,3.56h0c-.28.24-.05.43.5.41.55,0,4.15-1.15,8-2.51,3.85-1.37,7.45-2.96,8-3.53.55-.57-2.83.36-7.5,2.07h0Z"/>
  <path class="st2" d="M443.36,246.91c-2.34.05-5.37.46-6.75.9-1.86.6-.89.83,3.75.9,3.44.06,6.47-.35,6.75-.9.3-.6-1.22-.96-3.75-.9Z"/>
  <path class="st0" d="M443.36,246.91c-2.34.05-5.37.46-6.75.9-1.86.6-.89.83,3.75.9,3.44.06,6.47-.35,6.75-.9.3-.6-1.22-.96-3.75-.9Z"/>
</svg>