<?xml version="1.0" encoding="UTF-8"?>
<svg id="Layer_1" xmlns="http://www.w3.org/2000/svg" version="1.1" viewBox="0 0 399.97 253.67">
  <!-- Generator: Adobe Illustrator 30.0.0, SVG Export Plug-In . SVG Version: 2.1.1 Build 123)  -->
  <defs>
    <style>
      .st0 {
        fill: none;
      }

      .st1 {
        fill: #fff;
        stroke-width: .25px;
      }

      .st1, .st2 {
        stroke: #fff;
        stroke-miterlimit: 10;
      }
    </style>
  </defs>
  <path class="st0" d="M54.37,206.55c-.81-.54-1.73-1.18-2.68-1.88.95.7,1.86,1.34,2.68,1.88Z"/>
  <path class="st0" d="M26.11,188.87c-.15-.22-.29-.45-.44-.68.15.23.29.46.44.68Z"/>
  <path class="st0" d="M109.83,228.82c-.46-.42-.91-.84-1.34-1.24.44.4.88.81,1.34,1.24Z"/>
  <path class="st0" d="M45.64,199.67c-.35-.32-.71-.65-1.08-1,.37.35.73.68,1.08,1Z"/>
  <path class="st0" d="M60.92,209.45c-.15-.05-.29-.09-.44-.14.14.05.29.09.44.14Z"/>
  <path class="st0" d="M31.56,195.55c-.29-.34-.59-.67-.89-1,.3.33.6.66.89,1Z"/>
  <path class="st0" d="M272.13,5.93c1.13,0,2.24.01,3.31.03-1.08-.02-2.19-.03-3.31-.03Z"/>
  <path class="st0" d="M124.51,245.26c-.2-.09-.4-.18-.6-.27.2.09.4.18.6.27Z"/>
  <path class="st0" d="M7.4,134.19c-.11-1.39-.22-2.87-.32-4.41.1,1.54.21,3.03.32,4.41Z"/>
  <path class="st0" d="M42.62,196.81c-.4-.39-.8-.77-1.2-1.17.4.4.8.79,1.2,1.17Z"/>
  <path class="st0" d="M40.61,194.83c-.81-.8-1.6-1.61-2.37-2.41.76.79,1.56,1.6,2.37,2.41Z"/>
  <path class="st0" d="M133.44,245.76c-.72-.18-1.43-.37-2.11-.58.68.2,1.38.4,2.11.58Z"/>
  <path class="st0" d="M221.68,239.25c-.06,0-.12-.02-.17-.02.06,0,.11.02.17.02Z"/>
  <path class="st0" d="M224.81,239.63c-.07,0-.14-.02-.2-.02.07,0,.14.02.2.02Z"/>
  <path class="st0" d="M223.11,239.43c-.06,0-.13-.02-.19-.02.06,0,.13.02.19.02Z"/>
  <path class="st0" d="M111.35,230.24c-.48-.45-.95-.89-1.42-1.32.47.43.94.87,1.42,1.32Z"/>
  <path class="st0" d="M112.89,231.7c-.48-.46-.96-.91-1.45-1.37.48.45.97.91,1.45,1.37Z"/>
  <path class="st0" d="M23.94,185.24c-.17-.31-.34-.63-.51-.94.16.31.33.62.51.94Z"/>
  <path class="st0" d="M19.52,175.61c-.26-.62-.51-1.25-.77-1.88.25.63.51,1.26.77,1.88Z"/>
  <path class="st0" d="M118.83,237.3c-.46-.41-.93-.84-1.39-1.26.46.42.92.85,1.39,1.26Z"/>
  <path class="st0" d="M18.12,172.14c-.19-.47-.37-.94-.55-1.4.18.46.36.93.55,1.4Z"/>
  <path class="st0" d="M120.69,243.42c-1.1-.59-2.2-1.27-3.21-1.98,1.01.71,2.12,1.39,3.21,1.98Z"/>
  <path class="st0" d="M194.14,4.54c.55.11,1.11.22,1.68.33-.57-.11-1.13-.22-1.68-.33Z"/>
  <path class="st0" d="M189.32,3.63c.35.06.7.12,1.04.18-.34-.06-.69-.12-1.04-.18Z"/>
  <path class="st0" d="M182.65,2.87c.52.04,1.02.08,1.51.13-.49-.04-.99-.09-1.51-.13Z"/>
  <path class="st0" d="M196.24,4.96c.57.11,1.15.23,1.73.35-.58-.12-1.16-.23-1.73-.35Z"/>
  <path class="st0" d="M174.64,2.46c1.51.05,2.9.11,4.2.17-1.3-.07-2.69-.12-4.2-.17Z"/>
  <path class="st0" d="M229.58,12.5c.9.09,1.74.14,2.46.14-.72,0-1.56-.05-2.46-.14Z"/>
  <path class="st0" d="M282.58,9.04c.71.06,1.42.12,2.11.18-.7-.06-1.4-.12-2.11-.18Z"/>
  <path class="st0" d="M123.4,244.75c-.39-.18-.79-.37-1.19-.56.4.19.8.38,1.19.56Z"/>
  <path class="st0" d="M48.44,208.65c-.33-.18-.67-.37-1.01-.56.34.19.68.38,1.01.56Z"/>
  <path class="st0" d="M8.96,80.38c.12-.31.34-.73.63-1.23-.29.5-.51.92-.63,1.23Z"/>
  <path class="st0" d="M8.62,81.53c.11-.45.22-.84.34-1.15-.12.31-.24.7-.34,1.15Z"/>
  <path class="st0" d="M8.23,83.79c.06-.53.14-1.06.24-1.55-.09.49-.17,1.02-.24,1.55Z"/>
  <path class="st0" d="M170.96,2.36c.84.02,1.65.04,2.43.06-.78-.02-1.59-.04-2.43-.06Z"/>
  <path class="st0" d="M17.54,67.79c.61-1.01,1.19-2.04,1.72-3.03-.53.99-1.11,2.02-1.72,3.03Z"/>
  <path class="st0" d="M7.44,89.54c.2-.61.36-1.22.47-1.8-.11.58-.27,1.19-.47,1.8Z"/>
  <path class="st0" d="M41.97,39.61c1.41-.85,2.95-1.68,4.73-2.57-1.78.89-3.32,1.72-4.73,2.57Z"/>
  <path class="st0" d="M75.8,26.32c1.01-.38,1.99-.76,2.89-1.14-.9.37-1.88.76-2.89,1.14Z"/>
  <path class="st0" d="M70.57,28.14c1.39-.45,2.82-.94,4.2-1.44-1.38.5-2.81.99-4.2,1.44Z"/>
  <path class="st0" d="M38.24,192.43c-.51-.53-1-1.05-1.48-1.55.47.5.97,1.02,1.48,1.55Z"/>
  <path class="st0" d="M334.24,26.63c3,3.57,7.49,9.65,9.99,13.5,1.24,1.92,2.82,4.04,4.35,5.89-1.53-1.85-3.1-3.97-4.35-5.89-2.5-3.85-6.99-9.93-9.99-13.5-3.01-3.57-7.76-7.98-10.56-9.78-1.76-1.13-4.15-2.39-6.33-3.37,2.18.98,4.57,2.24,6.33,3.37,2.8,1.8,7.55,6.21,10.56,9.78Z"/>
  <path class="st0" d="M307.3,11.19c-.23-.09-.4-.28-.47-.56.07.27.24.47.47.56Z"/>
  <path class="st0" d="M367.21,57.64c-1.77-.82-3.4-1.51-4.63-1.94-2.89-1.01-6.66-2.98-9-4.65,2.34,1.67,6.11,3.63,9,4.65,1.24.43,2.86,1.12,4.63,1.94Z"/>
  <path class="st0" d="M-.45,103.49c.22,1.17.52,2.58.86,4-.27-1.15-.53-2.31-.73-3.33-.05-.24-.09-.45-.13-.67Z"/>
  <path class="st0" d="M352.67,50.36c.27.22.57.45.91.69-.33-.24-.64-.47-.91-.69-.94-.78-2.2-2.1-3.52-3.66,1.32,1.56,2.58,2.88,3.52,3.66Z"/>
  <path class="st0" d="M94.94,10.5c.98-.5,2.1-1.03,3.27-1.57-1.18.54-2.29,1.07-3.27,1.57Z"/>
  <path class="st0" d="M196.63,1.21c1.09.2,2.25.43,3.43.69-1.18-.26-2.33-.49-3.43-.69Z"/>
  <path class="st0" d="M387.93,71.98c.3.35.62.75.95,1.17-.33-.42-.65-.81-.95-1.17-1.25-1.48-3.14-3.25-5.25-4.97,2.11,1.72,4,3.48,5.25,4.97Z"/>
  <path class="st0" d="M151.23-1.47c1.24,0,2.52,0,3.8,0-1.29,0-2.56,0-3.8,0Z"/>
  <path class="st0" d="M202.43,2.44c.79.19,1.58.39,2.36.6-.78-.21-1.57-.41-2.36-.6Z"/>
  <path class="st0" d="M204.79,3.04c1.16.31,2.3.63,3.36.96-1.06-.33-2.19-.65-3.36-.96Z"/>
  <path class="st0" d="M303.53,9.17c.38.11.74.22,1.07.33-.33-.11-.69-.22-1.07-.33Z"/>
  <path class="st0" d="M301.67,8.68c.44.11.87.22,1.27.33-.4-.11-.83-.22-1.27-.33Z"/>
  <path class="st0" d="M290.96,7.01c1.33.14,2.6.29,3.77.44-1.17-.15-2.45-.3-3.77-.44Z"/>
  <path class="st0" d="M304.6,9.51c.33.11.63.22.89.32-.27-.1-.57-.21-.89-.32Z"/>
  <path class="st0" d="M305.49,9.83c.27.1.5.21.69.3-.19-.1-.42-.2-.69-.3Z"/>
  <path class="st0" d="M379.4,64.51c1.12.8,2.23,1.64,3.29,2.5-1.06-.86-2.17-1.71-3.29-2.5Z"/>
  <path class="st0" d="M399.74,93.63c.08.48.14,1.05.18,1.66-.04-.61-.1-1.17-.18-1.66-.32-1.93-2.13-6.43-4.02-10-.47-.89-1.05-1.89-1.68-2.93.63,1.04,1.2,2.04,1.68,2.93,1.89,3.57,3.7,8.07,4.02,10Z"/>
  <path class="st0" d="M246.74,242.6c-.31-.09-.66-.18-1.03-.27.37.09.72.18,1.03.27Z"/>
  <path class="st0" d="M367.21,57.64c.59.27,1.19.56,1.81.86-.61-.3-1.22-.59-1.81-.86Z"/>
  <path class="st0" d="M390.95,75.97c.71,1.02,1.43,2.09,2.11,3.15-.68-1.06-1.4-2.14-2.11-3.15Z"/>
  <path class="st0" d="M3.69,137.15c0-.09-.03-.18-.04-.28,0,.09.03.19.04.28Z"/>
  <path class="st0" d="M258.14,248.9s-.11-.09-.16-.13c.06.04.12.09.16.13Z"/>
  <path class="st0" d="M253.81,248.36c-.42-.14-.82-.28-1.19-.43.38.15.77.29,1.19.43,2.07.68,4.22,1.24,4.77,1.24h0c-.55,0-2.7-.56-4.77-1.24h0Z"/>
  <path class="st0" d="M258.67,249.44s-.02-.04-.03-.06c.02.02.02.04.03.06Z"/>
  <path class="st0" d="M257.71,248.57c-.06-.05-.13-.1-.2-.14.07.05.13.1.2.14Z"/>
  <path class="st0" d="M1.85,116.17c0-.09-.02-.18-.03-.27,0,.09.02.18.03.27Z"/>
  <path class="st0" d="M257.17,248.17c-.07-.05-.13-.09-.2-.14.07.05.14.09.2.14Z"/>
  <path class="st0" d="M14.36,162.32c-.08-.2-.16-.39-.24-.59.08.19.16.39.24.59Z"/>
  <path class="st0" d="M10.6,155.11c-.23-.36-.47-.76-.72-1.17.25.42.49.82.72,1.17Z"/>
  <path class="st0" d="M256.49,247.71c-.06-.04-.11-.07-.17-.11.06.04.11.07.17.11Z"/>
  <path class="st0" d="M131.08,248.04c-.83-.75-2.06-1.37-2.75-1.38-.28,0-.99-.24-1.95-.61.95.37,1.66.6,1.95.61.69,0,1.92.63,2.75,1.38.82.75,4.42,1.99,8,2.76,1.31.28,2.8.54,4.29.74-1.49-.21-2.98-.46-4.29-.74-3.58-.77-7.18-2.01-8-2.76Z"/>
  <path class="st0" d="M89.08,220.99c-3.58-.84-7.4-1.91-8.5-2.37-1.1-.46-3.13-1.06-4.5-1.32-1.38-.27-7.11-1.65-12.75-3.08-4.27-1.08-7.46-2.09-10.55-3.43,3.09,1.35,6.28,2.36,10.55,3.43,5.64,1.43,11.37,2.81,12.75,3.08,1.37.26,3.4.86,4.5,1.32s4.92,1.53,8.5,2.37c3.57.84,8.52,2.43,11,3.53,1.3.58,2.91,1.63,4.43,2.84-1.52-1.21-3.13-2.26-4.43-2.84-2.48-1.1-7.43-2.69-11-3.53Z"/>
  <path class="st0" d="M18.63,59.85c.52-.9,1.06-1.8,1.6-2.69-.54.88-1.08,1.79-1.6,2.69Z"/>
  <path class="st0" d="M25.69,49.25c.49-.54,1.12-1.2,1.84-1.92-.72.72-1.35,1.37-1.84,1.92Z"/>
  <path class="st0" d="M32.53,42.61c.44-.4.88-.78,1.31-1.16-.43.37-.87.76-1.31,1.16Z"/>
  <path class="st0" d="M113.94,238.37c.52.64,1.33,1.4,2.33,2.18-1-.78-1.81-1.54-2.33-2.18Z"/>
  <path class="st0" d="M20.23,57.16c.54-.88,1.08-1.75,1.61-2.56-.53.82-1.07,1.68-1.61,2.56Z"/>
  <path class="st0" d="M150.08,252.06h-.49.49c2.48-.08,8.1-.71,12.5-1.4,2.47-.39,5.02-.86,6.99-1.29-1.97.43-4.51.9-6.99,1.29-4.4.69-10.02,1.32-12.5,1.4Z"/>
  <path class="st0" d="M247.83,244.47c-.91-.47-2.89-.95-4.96-1.26,2.07.31,4.06.79,4.96,1.26.77.4,1.46.89,1.86,1.29-.4-.41-1.08-.89-1.86-1.29Z"/>
  <path class="st0" d="M204.08,243.11c-4.13.27-9.75.95-12.5,1.51-2.75.57-7.59,1.47-10.75,2.02-3.16.54-6.76,1.39-8,1.88-.31.12-.83.27-1.51.44.68-.17,1.2-.32,1.51-.44,1.24-.49,4.84-1.34,8-1.88,3.16-.55,8-1.45,10.75-2.02,2.75-.56,8.37-1.24,12.5-1.51,4.12-.27,12.9-.5,19.5-.5,4.94,0,10.46.08,14.08.21-3.62-.12-9.14-.21-14.08-.21-6.6,0-15.38.23-19.5.5Z"/>
  <path class="st0" d="M44.57,198.67c-.37-.35-.76-.72-1.15-1.09.39.37.77.74,1.15,1.09Z"/>
  <path class="st0" d="M7.44,89.54c-.4,1.22-.95,2.42-1.58,3.34-.57.83-1,1.58-1.31,2.37.31-.79.74-1.53,1.31-2.37.62-.92,1.18-2.12,1.58-3.34Z"/>
  <path class="st0" d="M91.83,17.27c2.06-1.85,5.1-4.04,6.75-4.87,1.65-.82,6.6-2.66,11-4.08s11.15-3.39,15-4.38c5.91-1.53,10.98-1.8,32.5-1.73,5.4.02,9.94.06,13.82.15-3.88-.08-8.42-.13-13.82-.15-21.52-.07-26.59.2-32.5,1.73-3.85.99-10.6,2.96-15,4.38s-9.35,3.26-11,4.08c-1.65.83-4.69,3.02-6.75,4.87s-6.56,4.77-10,6.5c-.86.43-1.93.91-3.14,1.41,1.2-.5,2.28-.98,3.14-1.41,3.44-1.73,7.94-4.65,10-6.5h0Z"/>
  <path class="st0" d="M66.58,29.32c1.24-.33,2.59-.73,3.99-1.18-1.39.45-2.75.85-3.99,1.18-4.95,1.33-13.28,4.5-18.5,7.04-.48.23-.94.46-1.38.68.44-.22.9-.45,1.38-.68,5.22-2.54,13.55-5.71,18.5-7.04Z"/>
  <path class="st0" d="M3.88,102.63c-.13-3.34-.04-5.27.49-6.9-.53,1.63-.63,3.56-.49,6.9.13,3.57.69,6.95,1.23,7.5.17.17.36,1.02.57,2.35-.2-1.34-.4-2.18-.57-2.35-.54-.55-1.1-3.93-1.23-7.5Z"/>
  <path class="st0" d="M112.97,231.77c.75.71,1.49,1.42,2.19,2.11.7.68,1.43,1.37,2.17,2.06-.74-.69-1.47-1.38-2.17-2.06-.7-.69-1.44-1.4-2.19-2.11Z"/>
  <path class="st0" d="M17.54,67.79c-1.36,2.27-2.83,4.45-3.99,5.84-1.27,1.55-2.56,3.31-3.46,4.72.9-1.41,2.19-3.17,3.46-4.72,1.15-1.4,2.62-3.57,3.99-5.84Z"/>
  <path class="st0" d="M349.7,192.26c0,.38.01.73,0,1.06v-1.06Z"/>
  <path class="st0" d="M55.06,206.99c.5.32.96.59,1.32.77.59.3,1.5.66,2.58,1.05-1.09-.38-2-.74-2.58-1.05-.36-.18-.82-.45-1.32-.77Z"/>
  <path class="st0" d="M25.72,175.62c-2.12-4.12-4.53-9.74-5.35-12.49-.51-1.72-1.79-4.38-3.29-6.99,1.51,2.61,2.78,5.27,3.29,6.99.82,2.75,3.23,8.37,5.35,12.49,2.17,4.21,6.7,10.57,10.36,14.52.22.24.45.49.69.74-.24-.25-.47-.5-.69-.74-3.66-3.95-8.19-10.31-10.36-14.52Z"/>
  <path class="st0" d="M8.64,143.69c-.32-.53-.74-3.68-1.12-8.03.38,4.34.8,7.5,1.12,8.03.52.85,3.03,4.45,5.59,8,.96,1.33,1.94,2.88,2.85,4.45-.9-1.57-1.89-3.12-2.85-4.45-2.56-3.55-5.07-7.15-5.59-8Z"/>
  <path class="st0" d="M30.98,48.56c3.81-3.79,6.56-6.16,9.95-8.31-3.39,2.15-6.14,4.52-9.95,8.31-5.34,5.33-8.5,9.49-10.65,14.07-.21.45-.44.91-.69,1.4.25-.48.48-.95.69-1.4,2.15-4.58,5.31-8.74,10.65-14.07Z"/>
  <path class="st0" d="M328.99,227.55c-1.12,1-2.26,1.96-3.4,2.87,1.14-.91,2.28-1.87,3.4-2.87Z"/>
  <path class="st0" d="M317.55,235.94c-.75.45-1.54.92-2.36,1.4.82-.48,1.61-.94,2.36-1.4Z"/>
  <path class="st0" d="M349.03,197.89c-.13.43-.27.89-.43,1.37.16-.47.3-.93.43-1.37Z"/>
  <path class="st0" d="M344.22,208.89c-.33.55-.7,1.13-1.09,1.73.39-.6.75-1.18,1.09-1.73Z"/>
  <path class="st0" d="M319.68,234.63c-.66.42-1.37.86-2.13,1.31.75-.45,1.46-.89,2.13-1.31Z"/>
  <path class="st0" d="M251.08,10.68c7.42-1.07,16.87-2.01,21-2.08,2.04-.03,4.96.07,8.01.26-3.06-.19-5.97-.3-8.01-.26-4.13.07-13.58,1.01-21,2.08-7.43,1.07-15.98,1.95-19,1.96h0c3.02-.01,11.57-.89,19-1.96h0Z"/>
  <path class="st0" d="M229.3,12.47c-2.85-.3-6.29-.97-8.72-1.75-2.01-.65-5.05-1.5-8.05-2.26,3,.76,6.04,1.6,8.05,2.26,2.43.78,5.86,1.45,8.72,1.75Z"/>
  <path class="st0" d="M347.5,202.23c-.2.51-.42,1.02-.63,1.52.22-.5.43-1.01.63-1.52Z"/>
  <path class="st0" d="M346.87,203.75c-.33.75-.67,1.49-1.01,2.19.34-.7.68-1.44,1.01-2.19Z"/>
  <path class="st0" d="M305.02,11.31c-.58-.14-1.59-.26-2.79-.29-.62-.02-1.61-.09-2.83-.19,1.22.11,2.21.17,2.83.19,1.2.04,2.21.15,2.79.29Z"/>
  <path class="st0" d="M399.9,99.15c-.05.63-.11,1.22-.2,1.73.09-.52.15-1.1.2-1.73Z"/>
  <path class="st0" d="M320.63,234.02c.3-.2.59-.39.86-.57.43-.29.87-.61,1.31-.92-.44.31-.88.63-1.31.92-.27.18-.56.37-.86.57Z"/>
  <path class="st0" d="M399.18,102.81c-.24.64-.56,1.27-.96,1.91.4-.64.71-1.27.96-1.91Z"/>
  <path class="st0" d="M398.22,104.72c-.4.64-.87,1.29-1.43,1.96.56-.67,1.04-1.32,1.43-1.96Z"/>
  <path class="st0" d="M349.6,189.72c.05.94.08,1.79.1,2.54-.01-.75-.05-1.6-.1-2.54Z"/>
  <path class="st0" d="M347.55,169.13c.11.89.22,1.76.32,2.62-.1-.85-.21-1.72-.32-2.62-2.19-17.66-2.51-22.69-1.62-25.5.39-1.21,1.08-2.84,1.82-4.34-.74,1.49-1.43,3.13-1.82,4.34-.89,2.81-.57,7.84,1.62,25.5Z"/>
  <path class="st0" d="M331.69,225c.87-.86,1.73-1.73,2.53-2.61-.8.88-1.66,1.75-2.53,2.61Z"/>
  <path class="st0" d="M349.06,136.88c-.27.45-.57.97-.87,1.54.3-.57.59-1.09.87-1.54.65-1.05,1.56-2.01,2.92-3.01-1.36,1-2.27,1.96-2.92,3.01Z"/>
  <path class="st0" d="M356.57,131.13c-.97.5-1.83.97-2.59,1.42.76-.45,1.62-.93,2.59-1.42Z"/>
  <path class="st0" d="M396.78,106.67c-.56.67-1.21,1.36-1.95,2.08.74-.72,1.39-1.41,1.95-2.08Z"/>
  <path class="st0" d="M219.63,238.95c.17.02.32.04.45.06.14.03.31.05.49.08-.18-.03-.35-.06-.49-.08-.13-.02-.28-.04-.45-.06Z"/>
  <path class="st0" d="M217.26,238.85c.5,0,.97,0,1.38.02-.41-.02-.87-.02-1.38-.02Z"/>
  <path class="st0" d="M348.68,178.88c.15,1.46.29,2.84.41,4.14-.12-1.29-.26-2.67-.41-4.14Z"/>
  <path class="st0" d="M349.26,184.89c.1,1.21.19,2.33.26,3.36-.07-1.03-.15-2.15-.26-3.36Z"/>
  <path class="st0" d="M247.5,242.83c.22.08.42.15.58.23,1.58.73,4.14,2.1,6.22,3.31-2.09-1.21-4.64-2.58-6.22-3.31-.16-.07-.36-.15-.58-.23Z"/>
  <path class="st0" d="M258.37,249.11s.09.09.13.12c-.04-.04-.08-.08-.13-.12Z"/>
  <path class="st0" d="M284.9,9.24c.68.06,1.35.13,2,.2-.65-.07-1.32-.14-2-.2Z"/>
  <path class="st0" d="M353.26,133c-.47.3-.89.58-1.28.87.39-.29.81-.58,1.28-.87Z"/>
  <path class="st0" d="M255.05,246.81c.18.11.36.21.53.32h0,0c-.17-.1-.35-.21-.53-.32Z"/>
  <path class="st0" d="M347.87,171.75c.2,1.7.39,3.33.56,4.88-.17-1.54-.36-3.17-.56-4.88Z"/>
  <path class="st0" d="M332.11,29.41c.17.27.33.53.5.79-.16-.26-.33-.52-.5-.79Z"/>
  <path class="st0" d="M383.93,71.71c-1.88-1.91-4.86-4.43-7.4-6.28,2.53,1.85,5.52,4.37,7.4,6.28h0Z"/>
  <path class="st0" d="M318.82,16.94c.45.22.87.43,1.28.65-.41-.21-.84-.43-1.28-.65Z"/>
  <path class="st0" d="M323.65,19.82c1.17.9,2.4,1.97,3.49,3.06-1.1-1.09-2.32-2.16-3.49-3.06Z"/>
  <path class="st0" d="M277.23,253.3c-.66.12-1.27.21-1.8.27.53-.06,1.14-.15,1.8-.27Z"/>
  <path class="st0" d="M275.43,253.57c-.36.04-.68.07-.96.09.28,0,.6-.04.96-.09Z"/>
  <path class="st0" d="M260.68,250.88c.22.41.74.55,1.15.3-.25-.04-.69-.19-1.15-.38-.01.03-.01.05,0,.08Z"/>
  <path class="st0" d="M251.43,247.41c-.17-.09-.33-.17-.48-.25.15.08.3.17.48.25Z"/>
  <path class="st0" d="M170.79,249.09c-.37.09-.78.18-1.22.28.44-.09.85-.19,1.22-.28Z"/>
  <path class="st0" d="M305.81,11.92s.11.06.17.09c-.06-.03-.12-.06-.17-.09Z"/>
  <path class="st0" d="M296.04,10.5c1.17.12,2.27.23,3.23.31-.96-.08-2.05-.19-3.23-.31Z"/>
  <path class="st0" d="M126.03,245.91c-.18-.07-.36-.15-.56-.23.19.08.38.16.56.23Z"/>
  <path class="st0" d="M144.9,251.74c-.44-.05-.88-.11-1.32-.17.44.06.89.12,1.32.17Z"/>
  <path class="st0" d="M294.15,10.3c.58.06,1.15.13,1.7.18-.55-.06-1.12-.12-1.7-.18Z"/>
  <path class="st0" d="M311.55,14.01c.56.17,1.15.37,1.77.6-.62-.23-1.21-.43-1.77-.6Z"/>
  <path class="st0" d="M307.61,12.71c.77.29,1.71.61,2.75.93-1.04-.32-1.98-.64-2.75-.93Z"/>
  <path class="st0" d="M306.23,12.14c.28.13.64.29,1.06.45-.42-.16-.78-.32-1.06-.45Z"/>
  <path class="st0" d="M282.35,252.17c-.51.13-1.02.26-1.52.38.5-.12,1.01-.25,1.52-.38Z"/>
  <path class="st0" d="M293.99,247.96c-.83.35-1.65.69-2.44,1.01.8-.32,1.61-.66,2.44-1.01Z"/>
  <path class="st0" d="M266.43,250.34h0c.49.02,1.01.02,1.55,0-.54,0-1.06,0-1.55,0h0Z"/>
  <path class="st0" d="M304.95,242.92c-.82.42-1.61.81-2.37,1.18.76-.37,1.55-.76,2.37-1.18Z"/>
  <path class="st0" d="M280.83,252.55c-1.26.3-2.5.56-3.59.75,1.1-.19,2.33-.45,3.59-.75Z"/>
  <path class="st0" d="M284.58,251.54c-.48.15-.98.29-1.48.43.5-.14,1-.28,1.48-.43Z"/>
  <path class="st0" d="M315.19,237.33c-2.04,1.19-4.25,2.42-6.42,3.59,2.17-1.17,4.38-2.4,6.42-3.59Z"/>
  <path class="st2" d="M266.43,250.34h0c.49.02,1.01.02,1.55,0,1.08-.02,2.23-.1,3.46-.24,2.45-.27,5.15-.75,7.99-1.43.71-.17,1.43-.35,2.15-.55.62-.17,1.27-.35,1.95-.54.68-.2,1.38-.4,2.1-.62s1.44-.45,2.18-.68c1.1-.35,2.2-.71,3.27-1.07.71-.24,1.41-.48,2.09-.72,1.01-.36,1.97-.71,2.83-1.04.58-.22,1.11-.43,1.59-.63.24-.1.49-.21.76-.32.53-.23,1.1-.5,1.7-.78.6-.29,1.24-.6,1.9-.94s1.34-.69,2.03-1.06c1.04-.55,2.11-1.14,3.16-1.74,1.06-.6,2.1-1.21,3.11-1.82.67-.4,1.32-.81,1.94-1.2.31-.2.61-.39.9-.58.58-.38,1.19-.79,1.81-1.21.62-.42,1.26-.85,1.9-1.3,3.84-2.66,7.86-5.61,10.01-7.4,1.43-1.2,3.2-2.84,4.91-4.53,1.7-1.69,3.34-3.43,4.48-4.8,2.3-2.75,5.24-7.36,6.54-10.25,1.9-4.24,2.35-6.93,2.33-14,0-3.61-.27-8.5-.65-12.34-.06-.64-.13-1.25-.19-1.82s-.14-1.1-.21-1.58c-.56-3.85-1.36-7.22-1.78-7.5s-1.28-1.85-1.91-3.5-1.24-4.13-1.36-5.5c-.11-1.38.15-5.65.6-9.5.52-4.51,1.65-8.33,3.16-10.75,1.34-2.13,5.28-5.64,9.11-8.12,3.71-2.41,11.91-7.25,18.21-10.75,6.48-3.6,14.04-8.77,17.38-11.88,3.25-3.02,6.58-6.85,7.41-8.5.83-1.65,1.55-4.35,1.6-6,.06-1.85-1.49-5.69-4.03-10-2.27-3.85-6.08-8.99-8.47-11.42-1.88-1.91-4.86-4.43-7.4-6.28-.69-.51-1.36-.98-1.95-1.36-2.75-1.76-9.84-5.51-15.75-8.32-9.69-4.62-11.34-5.81-16.75-12.12-3.3-3.85-6.74-8.46-7.64-10.25-.41-.81-1.07-1.96-1.83-3.18-.16-.26-.33-.52-.5-.79-.79-1.25-1.65-2.53-2.42-3.61-.64-.89-1.54-1.91-2.55-2.92-1.1-1.09-2.32-2.16-3.49-3.06-.63-.48-1.25-.92-1.82-1.27-.5-.31-1.09-.63-1.72-.97-.41-.21-.84-.43-1.28-.65-1.74-.84-3.7-1.67-5.5-2.33-.62-.23-1.21-.43-1.77-.6-.13-.04-.28-.09-.41-.13-.27-.08-.53-.16-.78-.24-1.04-.32-1.98-.64-2.75-.93-.11-.04-.22-.08-.32-.12-.42-.16-.78-.32-1.06-.45-.09-.04-.17-.08-.25-.12-.06-.03-.12-.06-.17-.09-.21-.13-.31-.23-.27-.29.08-.11-.13-.22-.52-.32-.58-.14-1.59-.26-2.79-.29-.62-.02-1.61-.09-2.83-.19-.04,0-.09,0-.13-.01-.96-.08-2.05-.19-3.23-.31-.06,0-.13-.01-.19-.02-.55-.06-1.12-.12-1.7-.18-1.66-.18-3.4-.39-5.07-.61-.69-.09-1.42-.17-2.18-.25-.65-.07-1.32-.14-2-.2-.07,0-.14-.01-.21-.02-.7-.06-1.4-.12-2.11-.18-.83-.06-1.66-.12-2.49-.18-3.06-.19-5.97-.3-8.01-.26-4.13.07-13.58,1.01-21,2.08-7.43,1.07-15.98,1.95-19,1.96h-.04c-.72,0-1.56-.05-2.46-.14-.1,0-.19-.02-.29-.03-2.85-.3-6.29-.97-8.72-1.75-2.01-.65-5.05-1.5-8.05-2.26-1.93-.49-3.84-.94-5.45-1.28-2.38-.51-5.76-1.2-9.11-1.88-.58-.12-1.16-.23-1.73-.35-.14-.03-.28-.06-.43-.09-.57-.11-1.13-.22-1.68-.33-1.09-.22-2.13-.42-3.06-.6-.24-.05-.47-.09-.72-.13-.34-.06-.69-.12-1.04-.18-1.55-.25-3.23-.46-5.17-.63-.49-.04-.99-.09-1.51-.13-1.17-.09-2.43-.17-3.8-.24-1.3-.07-2.69-.12-4.2-.17-.41,0-.82-.03-1.25-.04-.78-.02-1.59-.04-2.43-.06h-.06c-3.88-.08-8.42-.13-13.82-.15-21.52-.07-26.59.2-32.5,1.73-3.85.99-10.6,2.96-15,4.38s-9.35,3.26-11,4.08c-1.65.83-4.69,3.02-6.75,4.87s-6.56,4.77-10,6.5c-.86.43-1.93.91-3.14,1.41-.9.37-1.88.76-2.89,1.14-.34.13-.68.25-1.03.38-1.38.5-2.81.99-4.2,1.44s-2.75.85-3.99,1.18c-4.95,1.33-13.28,4.5-18.5,7.04-.48.23-.94.46-1.38.68-1.78.89-3.32,1.72-4.73,2.57-.35.21-.7.42-1.04.64-3.39,2.15-6.14,4.52-9.95,8.31-5.34,5.33-8.5,9.49-10.65,14.07-.21.45-.44.91-.69,1.4-.12.24-.25.49-.38.73-.53.99-1.11,2.02-1.72,3.03-1.36,2.27-2.83,4.45-3.99,5.84-1.27,1.55-2.56,3.31-3.46,4.72-.18.28-.35.55-.49.8-.29.5-.51.92-.63,1.23-.12.31-.24.7-.34,1.15-.05.22-.1.46-.15.71-.09.49-.17,1.02-.24,1.55-.09.8-.15,1.62-.15,2.34,0,.48-.06,1.03-.17,1.61s-.27,1.19-.47,1.8c-.4,1.22-.95,2.42-1.58,3.34-.57.83-1,1.58-1.31,2.37-.06.16-.12.32-.17.48-.53,1.63-.63,3.56-.49,6.9.13,3.57.69,6.95,1.23,7.5.17.17.36,1.02.57,2.35.08.54.16,1.15.24,1.83.04.34.08.7.12,1.07.08.75.16,1.56.24,2.42s.15,1.77.23,2.72c.11,1.43.21,2.94.3,4.51.03.52.06,1.05.09,1.58.06,1.07.12,2.12.18,3.14.1,1.54.21,3.03.32,4.41.04.51.08.99.12,1.47.38,4.34.8,7.5,1.12,8.03.52.85,3.03,4.45,5.59,8,.96,1.33,1.94,2.88,2.85,4.45,1.51,2.61,2.78,5.27,3.29,6.99.82,2.75,3.23,8.37,5.35,12.49,2.17,4.21,6.7,10.57,10.36,14.52.22.24.45.49.69.74.47.5.97,1.02,1.48,1.55.76.79,1.56,1.6,2.37,2.41.27.27.54.54.81.8.4.4.8.79,1.2,1.17.27.26.54.52.8.78.39.37.77.74,1.15,1.09.37.35.73.68,1.08,1,.83.76,1.59,1.44,2.24,1.99,1.19,1,2.53,2.05,3.82,3.01.95.7,1.86,1.34,2.68,1.88.24.16.47.31.69.44.5.32.96.59,1.32.77.59.3,1.5.66,2.58,1.05.47.17.98.34,1.51.51.14.05.29.09.44.14,1.8.56,3.81,1.12,5.66,1.54,3.85.87,11.5,2.55,17,3.74,5.5,1.18,11.57,3.04,13.5,4.14,1.92,1.09,5.22,3.4,7.33,5.12.93.77,2.4,2.07,4.07,3.6.44.4.88.81,1.34,1.24.04.03.07.07.11.1.47.43.94.87,1.42,1.32l.09.09c.48.45.97.91,1.45,1.37.02.02.05.05.07.07.75.71,1.49,1.42,2.19,2.11.7.68,1.43,1.37,2.17,2.06.04.04.08.07.12.11.46.42.92.85,1.39,1.26,2.82,2.53,5.57,4.77,7,5.66,1.19.74,3.18,1.53,5.5,2.22.68.2,1.38.4,2.11.58,1.35.34,2.76.64,4.14.86,5.54.91,11.38,1.1,19,.59,6.05-.4,17.75-2.01,26-3.56,8.25-1.56,19.27-3.39,24.5-4.06,3.6-.46,7.48-.73,10.18-.74.5,0,.97,0,1.38.02.37.02.7.04.99.07.17.02.32.04.45.06.14.03.31.05.49.08.27.04.58.09.94.14.06,0,.11.02.17.02.38.05.79.1,1.24.16.06,0,.13.02.19.02.47.06.97.12,1.49.18.07,0,.14.02.2.02,2.69.3,6.06.64,9.27.92,4.24.37,8.76,1.08,11.63,1.77.37.09.72.18,1.03.27.28.08.53.16.75.24s.42.15.58.23c1.58.73,4.14,2.1,6.22,3.31.26.15.51.3.75.44.18.11.36.21.53.32h0c.26.16.5.31.73.46.06.04.11.07.17.11.17.11.33.22.48.32.07.05.14.09.2.14.12.09.24.17.35.25.07.05.13.1.2.14.1.07.18.14.26.21.06.04.11.09.16.13.09.07.16.14.23.2.05.04.09.09.13.12.05.06.1.11.13.15.02.02.02.04.03.06s.03.05.03.07c.76-.09,4.74.72,7.73.83h-.01ZM301.58,91.02c3.3-1.33,6.68-2.39,7.5-2.36s-.3.95-2.5,2.05c-2.2,1.1-10.3,4.89-18,8.41s-20.3,8.86-28,11.85c-7.7,3-16.36,6.39-19.25,7.53-2.89,1.15-5.25,1.65-5.25,1.11s1.24-1.39,2.75-1.89,8.82-3.45,16.25-6.56c7.43-3.1,15.75-6.5,18.5-7.55s8.82-3.77,13.5-6.05c4.68-2.27,11.2-5.22,14.5-6.54ZM190.81,52.13c.21,2.2.21,6.25,0,9-.21,2.75-.38.95-.39-4,0-4.95.17-7.2.38-5ZM243.58,136.79c-6.6-1.59-16.5-4.11-32-8.28l-2.75,3.06c-1.51,1.68-2.98,2.61-3.25,2.06s-2.19-.96-4.25-.9c-2.06.05-6-.45-8.75-1.11-4.62-1.12-5.11-1.06-6.5.81-.82,1.11-3.75,4.86-6.5,8.33s-10.24,12.17-16.64,19.34-14.49,15.73-17.97,19.03c-3.47,3.3-5.44,4.92-4.36,3.61h0c1.09-1.32,4.69-5.15,8.01-8.5,3.33-3.36,9.4-9.95,13.5-14.65s9.57-11,12.15-14c2.58-3,6.05-7.26,7.72-9.46s3.03-4.68,3.03-5.5-.66-2.29-1.47-3.25c-1.23-1.46-2.08-1.59-5.22-.76-2.06.55-4.88.97-6.25.94-1.55-.04-.61-.57,2.5-1.4,2.75-.74,7.25-2.52,10-3.96s5.73-2.69,6.63-2.77c.89-.09,2.1-.64,2.67-1.23.73-.75.49-5.16-.79-14.57-1.01-7.43-2.03-17.77-2.26-23-.23-5.23-.09-8.6.32-7.5.4,1.1,1.22,8.75,1.82,17s1.51,16.35,2.02,18c.52,1.65,1.2,4.57,1.51,6.5.56,3.39.72,3.5,5.02,3.5,2.45,0,4.83-.45,5.3-1s3.08-3.67,5.81-6.93c2.72-3.27,13.05-13.15,22.95-21.97s23.18-20.9,29.5-26.84,11.95-10.78,12.5-10.74c.55.04-3.5,4.35-9,9.58s-17.87,16.62-27.5,25.3c-9.62,8.68-20.16,18.66-23.4,22.19-3.25,3.52-6.33,7.31-6.86,8.41-.74,1.55-.32,2.97,1.9,6.33,2.65,4,3.5,4.51,11.36,6.81,4.68,1.37,9.18,2.72,10,3s5.32,1.16,10,1.95,13.9,2.09,20.5,2.9,18.07,1.48,25.5,1.5c7.43,0,17.1-.44,21.5-1.01,4.4-.57,11.38-1.49,15.5-2.05,4.13-.56,7.73-.77,8-.47s.11.88-.37,1.29c-.47.41-2.72,1.08-5,1.48-2.27.41-10.43,1.41-18.13,2.23-7.7.83-20.98,1.51-29.5,1.51s-17.98-.41-21-.94-10.9-2.27-17.5-3.87h0Z"/>
  <path class="st1" d="M399.74,93.63c-.32-1.93-2.13-6.43-4.02-10-.47-.89-1.05-1.89-1.68-2.93-.32-.52-.65-1.05-.99-1.58-.68-1.06-1.4-2.14-2.11-3.15-.71-1.02-1.42-1.98-2.07-2.82-.33-.42-.65-.81-.95-1.17-1.25-1.48-3.14-3.25-5.25-4.97-1.06-.86-2.17-1.71-3.29-2.5-1.12-.8-2.24-1.54-3.32-2.19-2.07-1.25-4.62-2.61-7.06-3.81-.61-.3-1.22-.59-1.81-.86-1.77-.82-3.4-1.51-4.63-1.94-2.89-1.02-6.66-2.98-9-4.65-.33-.24-.64-.47-.91-.69-.94-.78-2.2-2.1-3.52-3.66-.19-.22-.38-.45-.57-.68-1.53-1.85-3.1-3.97-4.35-5.89-2.5-3.85-6.99-9.93-9.99-13.5-3.01-3.57-7.76-7.98-10.56-9.78-1.76-1.13-4.15-2.39-6.33-3.37-1.31-.59-2.54-1.08-3.52-1.38-2.61-.81-5.2-1.24-5.75-.97-.27.13-.55.15-.78.06-.23-.09-.4-.28-.47-.56-.03-.14-.26-.31-.65-.5-.19-.1-.42-.2-.69-.3s-.57-.21-.89-.32c-.33-.11-.69-.22-1.07-.33-.19-.06-.39-.11-.59-.17-.4-.11-.83-.22-1.27-.33-.66-.16-1.36-.32-2.09-.47-1.2-.25-2.89-.51-4.84-.76-1.17-.15-2.45-.3-3.77-.44-3.54-.38-7.45-.7-10.88-.89-1.47-.08-3.02-.13-4.64-.16-1.08-.02-2.19-.03-3.31-.03-2.26,0-4.6.04-6.99.12-1.19.04-2.39.09-3.59.15s-2.41.13-3.61.2c-.6.04-1.2.08-1.8.12-1.2.09-2.38.18-3.56.29-8.25.73-19.05,1.32-24,1.31-7.57-.01-10.35-.51-17.5-3.13-.88-.32-1.87-.65-2.93-.98s-2.19-.65-3.36-.96c-.78-.21-1.57-.41-2.36-.6-.79-.19-1.59-.38-2.37-.55-1.18-.26-2.33-.49-3.43-.69s-2.12-.36-3.05-.48c-4.95-.61-16.4-1.45-25.45-1.86-3.96-.18-8.6-.29-13.1-.32-1.29,0-2.56,0-3.8,0-4.35,0-8.32.08-11.1.24-6.35.36-14.7,1.41-18.55,2.34-3.85.93-10.38,2.84-14.5,4.24-2.58.88-5.92,2.23-8.87,3.58-1.18.54-2.29,1.07-3.27,1.57-.49.25-.95.49-1.36.72-3.3,1.82-7.8,5.15-10,7.39-3.07,3.12-5.62,4.55-11,6.13-3.85,1.14-8.01,2.48-9.25,2.98s-3.15.91-4.25.91-5.71,1.58-10.25,3.52c-5.13,2.19-10.56,5.5-14.35,8.75-.21.18-.42.36-.64.55-.43.37-.87.76-1.31,1.16-1.76,1.58-3.57,3.28-5.01,4.72-.72.72-1.35,1.37-1.84,1.92-.12.14-.24.26-.34.38-.83.96-2.11,2.79-3.52,4.97-.53.82-1.07,1.68-1.61,2.56s-1.08,1.79-1.6,2.69c-.35.6-.68,1.2-1.01,1.78-2.59,4.68-6.25,10.19-8.13,12.25-2.54,2.8-3.55,4.96-3.96,8.5-.3,2.61-1.88,7.45-3.5,10.75-1.62,3.3-2.9,6.9-2.84,8h0c.02.45.16,1.31.36,2.36.04.22.08.44.13.67.2,1.02.46,2.17.73,3.33.09.38.19.77.28,1.14.37,1.49.78,4.16,1.13,7.27,0,.09.02.18.03.27.35,3.14.65,6.71.81,9.96.18,3.66.55,7.56.99,10.74,0,.09.03.19.04.28.24,1.72.5,3.22.76,4.33.11.45.21.84.32,1.15.21.62.46,1.32.75,2.07.29.74.6,1.52.92,2.29.65,1.54,1.33,3.04,1.89,4.15.14.28.29.55.44.83.36.67.74,1.34,1.11,1.97.25.42.49.82.72,1.17.14.22.28.43.41.62.26.38.49.69.66.9.43.49,1.36,2.47,2.45,5.1.08.19.16.39.24.59.43,1.05.88,2.19,1.32,3.37.24.64.48,1.29.72,1.94.12.33.24.66.37,1,.25.68.52,1.39.8,2.11.18.46.36.93.55,1.4.21.53.42,1.05.63,1.58.25.63.51,1.26.77,1.88.85,2.04,1.7,4.01,2.45,5.67.41.89.78,1.69,1.12,2.35.11.22.23.45.35.68.16.31.33.62.51.94.21.38.43.76.65,1.15.35.61.72,1.21,1.09,1.8.15.23.29.46.44.68,1.18,1.82,2.35,3.4,3.21,4.26.21.21.42.42.63.65.24.25.48.51.72.77.3.33.6.66.89,1,.33.38.65.75.95,1.11.19.23.38.46.55.68.35.44.65.83.88,1.16.34.49,1.21,1.28,2.41,2.24.4.32.84.66,1.31,1.01.24.18.48.35.73.54.75.54,1.56,1.11,2.41,1.68.28.19.57.38.86.57.87.57,1.77,1.15,2.67,1.7,1.09.67,2.11,1.27,3.1,1.83.34.19.68.38,1.01.56,1.49.81,2.9,1.51,4.34,2.14,3.09,1.35,6.28,2.36,10.55,3.43,5.64,1.43,11.37,2.81,12.75,3.08,1.37.26,3.4.86,4.5,1.32s4.92,1.53,8.5,2.37c3.57.84,8.52,2.43,11,3.53,1.3.58,2.91,1.63,4.43,2.84,1.39,1.1,2.71,2.33,3.65,3.46,1.96,2.37,4.44,5.6,5.5,7.19.07.11.18.24.28.36.52.64,1.33,1.4,2.33,2.18.38.3.79.6,1.21.9,1.01.71,2.12,1.39,3.21,1.98.21.11.43.23.64.34.29.15.59.29.88.43.4.19.8.38,1.19.56.17.08.35.16.52.24.2.09.4.18.6.27.33.15.65.29.96.41.19.08.38.16.56.23.12.05.24.1.36.14.95.37,1.66.6,1.95.61.69,0,1.92.63,2.75,1.38.82.75,4.42,1.99,8,2.76,1.31.28,2.8.54,4.29.74.07,0,.14.02.21.03.44.06.89.12,1.32.17,1.78.21,3.45.33,4.69.33h.49c2.48-.08,8.1-.71,12.5-1.4,2.47-.39,5.02-.86,6.99-1.29.44-.09.85-.19,1.22-.28.19-.04.37-.09.53-.13.68-.17,1.2-.32,1.51-.44,1.24-.49,4.84-1.34,8-1.88,3.16-.55,8-1.45,10.75-2.02,2.75-.56,8.37-1.24,12.5-1.51,4.12-.27,12.9-.5,19.5-.5,4.94,0,10.46.08,14.08.21,1.22.04,2.23.09,2.92.13.74.05,1.52.14,2.29.26,2.07.31,4.06.79,4.96,1.26.78.4,1.46.89,1.86,1.29.24.24.38.46.37.62,0,.18.34.47.89.78.15.08.3.17.48.25.35.17.75.35,1.19.52.38.15.77.29,1.19.43,2.07.68,4.22,1.24,4.77,1.24-.03-.05.02-.07.11-.09,0-.02,0-.04-.02-.07-.01-.02-.01-.04-.03-.06-.03-.04-.08-.1-.13-.15-.04-.04-.08-.08-.13-.12-.07-.06-.14-.13-.23-.2-.05-.04-.11-.09-.16-.13-.08-.07-.17-.13-.26-.21-.06-.05-.13-.1-.2-.14-.11-.08-.23-.16-.35-.25-.07-.05-.13-.09-.2-.14-.15-.1-.31-.21-.48-.32-.06-.04-.11-.07-.17-.11-.23-.15-.47-.3-.73-.46h0c-.17-.1-.35-.21-.53-.32-.24-.14-.49-.29-.75-.44-2.09-1.21-4.65-2.58-6.22-3.31-.16-.07-.36-.15-.58-.23s-.48-.16-.75-.24c-.31-.09-.66-.18-1.03-.27-2.87-.7-7.39-1.41-11.63-1.77-3.21-.28-6.58-.61-9.27-.92-.07,0-.14-.02-.2-.02-.53-.06-1.03-.12-1.49-.18-.06,0-.13-.02-.19-.02-.45-.06-.87-.11-1.24-.16-.06,0-.12-.02-.17-.02-.36-.05-.67-.09-.94-.14-.18-.03-.35-.06-.49-.08-.13-.02-.28-.04-.45-.06-.28-.03-.61-.05-.99-.07-.41-.02-.87-.02-1.38-.02-2.7,0-6.59.27-10.18.74-5.23.67-16.25,2.5-24.5,4.06-8.25,1.55-19.95,3.16-26,3.56-7.62.51-13.46.32-19-.59-1.39-.23-2.79-.53-4.14-.86-.72-.18-1.43-.37-2.11-.58-2.32-.69-4.31-1.48-5.5-2.22-1.43-.89-4.18-3.13-7-5.66-.46-.41-.93-.84-1.39-1.26-.04-.04-.08-.07-.12-.11-.74-.69-1.47-1.38-2.17-2.06-.7-.69-1.44-1.4-2.19-2.11-.02-.02-.05-.05-.07-.07-.48-.46-.96-.91-1.45-1.37l-.09-.09c-.48-.45-.95-.89-1.42-1.32-.04-.03-.07-.07-.11-.1-.46-.42-.91-.84-1.34-1.24-1.68-1.53-3.14-2.83-4.07-3.6-2.11-1.72-5.41-4.03-7.33-5.12-1.93-1.1-8-2.96-13.5-4.14-5.5-1.19-13.15-2.87-17-3.74-1.85-.42-3.87-.98-5.66-1.54-.15-.05-.29-.09-.44-.14-.53-.17-1.04-.34-1.51-.51-1.09-.38-2-.74-2.58-1.05-.36-.18-.82-.45-1.32-.77-.22-.14-.45-.28-.69-.44-.81-.54-1.73-1.18-2.68-1.88-1.29-.96-2.63-2-3.82-3.01-.64-.54-1.41-1.22-2.24-1.99-.35-.32-.71-.65-1.08-1-.37-.35-.76-.72-1.15-1.09-.27-.25-.53-.51-.8-.78-.4-.39-.8-.77-1.2-1.17-.27-.27-.54-.53-.81-.8-.81-.8-1.6-1.61-2.37-2.41-.51-.53-1-1.05-1.48-1.55-.24-.25-.47-.5-.69-.74-3.66-3.95-8.19-10.31-10.36-14.52-2.12-4.12-4.53-9.74-5.35-12.49-.51-1.72-1.79-4.38-3.29-6.99-.9-1.57-1.89-3.12-2.85-4.45-2.56-3.55-5.07-7.15-5.59-8-.32-.53-.74-3.68-1.12-8.03-.04-.48-.08-.97-.12-1.47-.11-1.39-.22-2.87-.32-4.41-.07-1.03-.13-2.08-.18-3.14-.03-.53-.06-1.06-.09-1.58-.09-1.57-.19-3.08-.3-4.51-.07-.95-.15-1.86-.23-2.72s-.16-1.67-.24-2.42c-.04-.37-.08-.73-.12-1.07-.08-.68-.16-1.3-.24-1.83-.2-1.34-.4-2.18-.57-2.35-.54-.55-1.1-3.93-1.23-7.5-.13-3.34-.04-5.27.49-6.9.05-.16.11-.32.17-.48.31-.79.74-1.53,1.31-2.37.62-.92,1.18-2.12,1.58-3.34.2-.61.36-1.22.47-1.8s.17-1.13.17-1.61c0-.72.05-1.54.15-2.34.06-.53.14-1.06.24-1.55.05-.25.1-.48.15-.71.11-.45.22-.84.34-1.15.12-.31.34-.73.63-1.23.15-.25.31-.52.49-.8.9-1.41,2.19-3.17,3.46-4.72,1.15-1.4,2.62-3.57,3.99-5.84.61-1.01,1.19-2.04,1.72-3.03.13-.25.26-.49.38-.73.25-.48.48-.95.69-1.4,2.15-4.58,5.31-8.74,10.65-14.07,3.81-3.79,6.56-6.16,9.95-8.31.34-.21.68-.43,1.04-.64,1.41-.85,2.95-1.68,4.73-2.57.44-.22.9-.45,1.38-.68,5.22-2.54,13.55-5.71,18.5-7.04,1.24-.33,2.59-.73,3.99-1.18,1.39-.45,2.82-.94,4.2-1.44.35-.13.69-.25,1.03-.38,1.01-.38,1.99-.76,2.89-1.14,1.2-.5,2.28-.98,3.14-1.41,3.44-1.73,7.94-4.65,10-6.5s5.1-4.04,6.75-4.87c1.65-.82,6.6-2.66,11-4.08s11.15-3.39,15-4.38c5.91-1.53,10.98-1.8,32.5-1.73,5.4.02,9.94.06,13.82.15h.06c.84.02,1.65.04,2.43.06.43,0,.84.02,1.25.04,1.51.05,2.9.11,4.2.17,1.37.07,2.63.15,3.8.24.52.04,1.02.08,1.51.13,1.93.18,3.62.39,5.17.63.35.06.7.12,1.04.18.24.04.48.09.72.13.93.18,1.97.38,3.06.6.55.11,1.11.22,1.68.33.14.03.28.06.43.09.57.11,1.15.23,1.73.35,3.34.67,6.73,1.37,9.11,1.88,1.61.34,3.52.8,5.45,1.28,3,.76,6.04,1.6,8.05,2.26,2.43.78,5.86,1.45,8.72,1.75.1.01.19.02.29.03.9.09,1.74.14,2.46.14h.04c3.02-.01,11.57-.89,19-1.96,7.42-1.07,16.87-2.01,21-2.08,2.04-.03,4.96.07,8.01.26.82.05,1.66.11,2.49.18.71.06,1.42.12,2.11.18.07,0,.14.01.21.02.68.06,1.35.13,2,.2.76.08,1.49.17,2.18.25,1.67.22,3.41.42,5.07.61.58.06,1.15.13,1.7.18.06,0,.13.01.19.02,1.17.12,2.27.23,3.23.31.04,0,.09,0,.13.01,1.22.11,2.21.17,2.83.19,1.2.04,2.21.15,2.79.29.39.1.6.21.52.32-.04.06.06.16.27.29.05.03.11.06.17.09.07.04.16.08.25.12.28.13.64.29,1.06.45.1.04.21.08.32.12.77.29,1.71.61,2.75.93.26.08.52.16.78.24.13.04.28.09.41.13.56.17,1.15.37,1.77.6,1.8.65,3.76,1.48,5.5,2.33.45.22.87.43,1.28.65.63.33,1.23.66,1.72.97.57.35,1.19.79,1.82,1.27,1.17.9,2.4,1.97,3.49,3.06,1.01,1.01,1.91,2.03,2.55,2.92.77,1.07,1.63,2.36,2.42,3.61.17.27.33.53.5.79.76,1.23,1.43,2.37,1.83,3.18.9,1.79,4.34,6.4,7.64,10.25,5.41,6.31,7.06,7.5,16.75,12.12,5.91,2.81,13,6.56,15.75,8.32.59.38,1.26.85,1.95,1.36,2.53,1.85,5.52,4.37,7.4,6.28h0c2.39,2.43,6.2,7.57,8.47,11.42,2.54,4.31,4.09,8.15,4.03,10-.05,1.65-.77,4.35-1.6,6-.83,1.65-4.16,5.48-7.41,8.5-3.34,3.11-10.9,8.28-17.38,11.88-6.3,3.5-14.5,8.34-18.21,10.75-3.83,2.48-7.77,5.99-9.11,8.12-1.51,2.42-2.64,6.24-3.16,10.75-.45,3.85-.71,8.12-.6,9.5.12,1.37.73,3.85,1.36,5.5.63,1.65,1.49,3.22,1.91,3.5s1.22,3.65,1.78,7.5c.07.48.14,1.01.21,1.58.07.57.13,1.18.19,1.82.37,3.84.64,8.73.65,12.34.02,7.07-.43,9.76-2.33,14-1.3,2.89-4.24,7.5-6.54,10.25-1.15,1.38-2.78,3.11-4.49,4.8-1.7,1.69-3.47,3.34-4.9,4.53-2.15,1.78-6.17,4.74-10.01,7.4-.64.44-1.28.88-1.9,1.3s-1.23.82-1.81,1.21c-.29.19-.59.39-.9.58-.62.39-1.27.79-1.94,1.2-1,.61-2.05,1.22-3.11,1.82s-2.12,1.19-3.16,1.74c-.69.37-1.37.73-2.03,1.06-.66.34-1.3.65-1.9.94-.6.29-1.17.55-1.7.78-.26.12-.52.22-.76.32-.48.2-1.01.41-1.59.63-.86.33-1.82.68-2.83,1.04-.67.24-1.37.48-2.09.72-1.07.36-2.17.72-3.27,1.07-.73.23-1.46.46-2.18.68-.72.22-1.42.43-2.1.62-.68.2-1.33.38-1.95.54-.72.2-1.44.38-2.15.55-2.84.68-5.55,1.16-7.99,1.43-1.22.13-2.38.21-3.46.24-.54,0-1.06,0-1.55,0h0c-3.16-.11-5.61.1-5.75.46.47.19.9.35,1.15.38.41-.24,2.55.22,4.75,1.03.55.2,1.17.39,1.83.57.98.26,2.04.49,3.03.64.66.11,1.29.18,1.85.22.28.02.54.03.78.03.12,0,.25,0,.39,0,.28,0,.6-.04.96-.09.53-.06,1.14-.15,1.8-.27,1.1-.19,2.33-.45,3.59-.75.5-.12,1.01-.25,1.52-.38.25-.07.51-.13.76-.2.5-.14,1-.28,1.48-.43,1.68-.51,4.18-1.44,6.97-2.57.8-.32,1.61-.66,2.44-1.01,2.9-1.22,5.94-2.58,8.59-3.86.76-.37,1.55-.76,2.37-1.18,1.23-.63,2.52-1.3,3.82-2,2.17-1.17,4.38-2.4,6.42-3.59.82-.48,1.61-.94,2.36-1.4.75-.45,1.46-.89,2.13-1.31.33-.21.65-.41.95-.61.3-.2.59-.39.86-.57.43-.29.87-.61,1.31-.92.93-.66,1.86-1.36,2.79-2.11,1.14-.91,2.28-1.87,3.4-2.87.92-.83,1.82-1.69,2.7-2.55.87-.86,1.73-1.73,2.53-2.61.54-.59,1.05-1.17,1.55-1.76,2.41-2.83,5.24-6.7,7.37-10,.39-.6.75-1.18,1.09-1.73.5-.83.94-1.6,1.29-2.26.11-.22.23-.45.34-.68.34-.7.68-1.44,1.01-2.19.22-.5.43-1.01.63-1.52.41-1.02.78-2.03,1.1-2.98.16-.47.3-.93.43-1.37.26-.87.44-1.64.54-2.26.06-.36.1-.83.12-1.39.01-.28.02-.59.02-.92v-1.06c-.01-.75-.05-1.6-.1-2.54-.03-.47-.05-.96-.09-1.48-.07-1.03-.15-2.15-.26-3.36-.05-.6-.11-1.23-.17-1.88-.12-1.29-.26-2.67-.41-4.14-.08-.73-.16-1.48-.24-2.26-.17-1.54-.36-3.17-.56-4.88-.1-.85-.21-1.72-.32-2.62-2.19-17.66-2.51-22.69-1.62-25.5.39-1.21,1.08-2.84,1.82-4.34.15-.3.3-.59.44-.88.3-.57.59-1.09.87-1.54.65-1.05,1.56-2.01,2.92-3.01.39-.29.81-.58,1.28-.87.23-.15.48-.3.73-.45.76-.45,1.62-.93,2.59-1.42.97-.5,2.05-1.03,3.26-1.59,4.81-2.25,11.45-5.46,14.75-7.14.83-.42,1.75-.91,2.72-1.44s1.99-1.1,2.98-1.67c1-.57,1.98-1.14,2.88-1.68s1.73-1.05,2.41-1.5c2.75-1.79,6.91-5.1,9.25-7.36.74-.72,1.39-1.41,1.95-2.08s1.04-1.32,1.43-1.96c.4-.64.71-1.27.96-1.91s.42-1.28.52-1.93c.09-.52.15-1.1.2-1.73.09-1.25.1-2.64.02-3.86-.04-.61-.1-1.17-.18-1.66v.04Z"/>
  <polygon class="st1" points="258.58 249.6 258.58 249.6 258.58 249.6 258.58 249.6 258.58 249.6"/>
  <path class="st1" d="M258.69,249.53v.03-.03Z"/>
  <path class="st1" d="M4.45,141.48c-.26-1.1-.52-2.6-.76-4.33.24,1.72.5,3.22.76,4.33Z"/>
  <path class="st1" d="M40.8,203.98c-.85-.57-1.66-1.14-2.41-1.68.75.54,1.56,1.11,2.41,1.68Z"/>
  <path class="st1" d="M380.29,119.29c-1,.57-2.01,1.14-2.98,1.67.97-.53,1.99-1.1,2.98-1.67Z"/>
  <path class="st1" d="M126.38,246.05c-.12-.05-.23-.09-.36-.14.12.05.24.1.36.14Z"/>
  <path class="st1" d="M383.17,117.61c-.9.54-1.88,1.11-2.88,1.68,1-.57,1.98-1.14,2.88-1.68Z"/>
  <path class="st1" d="M261.55,6.19c1.2-.06,2.4-.11,3.59-.15-1.19.04-2.39.09-3.59.15Z"/>
  <path class="st1" d="M325.59,230.42c-.93.75-1.87,1.45-2.79,2.11.93-.66,1.86-1.36,2.79-2.11Z"/>
  <path class="st1" d="M6.44,146.99c-.32-.77-.64-1.55-.92-2.29.29.74.6,1.52.92,2.29Z"/>
  <path class="st1" d="M257.94,6.39c1.2-.08,2.41-.14,3.61-.2-1.2.06-2.41.13-3.61.2Z"/>
  <path class="st1" d="M123.91,244.99c-.17-.08-.34-.16-.52-.24.17.08.35.16.52.24Z"/>
  <path class="st1" d="M21.97,181.28c-.76-1.65-1.61-3.62-2.45-5.67.85,2.04,1.7,4.01,2.45,5.67Z"/>
  <path class="st1" d="M125.47,245.68c-.31-.13-.63-.27-.96-.41.33.15.65.29.96.41Z"/>
  <path class="st1" d="M273.3,253.64c-.56-.04-1.19-.12-1.85-.22.66.11,1.29.18,1.85.22Z"/>
  <path class="st1" d="M331.69,225c-.88.87-1.77,1.72-2.7,2.55.92-.83,1.82-1.69,2.7-2.55Z"/>
  <path class="st1" d="M143.58,251.57c-.07,0-.14-.02-.21-.03.07,0,.14.02.21.03Z"/>
  <path class="st1" d="M149.59,252.07c-1.23,0-2.91-.12-4.69-.33,1.78.21,3.45.33,4.69.33Z"/>
  <path class="st1" d="M16.4,167.63c-.24-.65-.48-1.3-.72-1.94.24.64.48,1.29.72,1.94Z"/>
  <path class="st1" d="M15.68,165.69c-.45-1.18-.89-2.32-1.32-3.37.43,1.05.88,2.19,1.32,3.37Z"/>
  <path class="st1" d="M37.67,201.76c-.47-.35-.91-.69-1.31-1.01.4.32.84.66,1.31,1.01Z"/>
  <path class="st1" d="M252.58,6.8c1.17-.1,2.36-.2,3.56-.29-1.2.09-2.38.18-3.56.29h0Z"/>
  <path class="st1" d="M349.71,193.32c0,.33,0,.63-.02.92.01-.28.02-.59.02-.92Z"/>
  <path class="st1" d="M252.62,247.93c-.44-.17-.84-.35-1.19-.52.35.17.75.35,1.19.52Z"/>
  <path class="st1" d="M30.67,194.56c-.24-.26-.48-.52-.72-.77.24.25.48.51.72.77Z"/>
  <path class="st1" d="M24.59,186.39c-.22-.38-.44-.76-.65-1.15.21.38.43.76.65,1.15Z"/>
  <path class="st1" d="M18.75,173.73c-.21-.53-.42-1.06-.63-1.58.21.53.42,1.05.63,1.58Z"/>
  <path class="st1" d="M117.48,241.44c-.43-.3-.83-.6-1.21-.9.38.3.79.6,1.21.9Z"/>
  <path class="st1" d="M25.68,188.18c-.37-.59-.74-1.19-1.09-1.8.35.61.72,1.21,1.09,1.8Z"/>
  <path class="st1" d="M32.51,196.67c-.3-.36-.62-.74-.95-1.11.33.38.65.75.95,1.11Z"/>
  <path class="st1" d="M9.88,153.94c-.37-.63-.75-1.3-1.11-1.97.36.67.74,1.34,1.11,1.97Z"/>
  <path class="st1" d="M52.78,210.79c-1.43-.62-2.85-1.32-4.34-2.14,1.49.81,2.9,1.51,4.34,2.14Z"/>
  <path class="st1" d="M17.57,170.74c-.28-.72-.55-1.43-.8-2.11.25.68.52,1.39.8,2.11Z"/>
  <path class="st1" d="M271.44,253.42c-.99-.16-2.05-.38-3.03-.64.98.26,2.04.49,3.03.64Z"/>
  <path class="st1" d="M184.16,3c1.93.18,3.62.39,5.17.63-1.55-.25-3.23-.46-5.17-.63Z"/>
  <path class="st1" d="M295.99,243.45c-.86.33-1.82.68-2.83,1.04,1.01-.36,1.97-.71,2.83-1.04Z"/>
  <path class="st1" d="M300.04,241.71c-.6.29-1.17.55-1.7.78.53-.23,1.1-.5,1.7-.78Z"/>
  <path class="st1" d="M301.94,240.77c-.66.34-1.3.65-1.9.94.6-.29,1.24-.6,1.9-.94Z"/>
  <path class="st1" d="M307.13,237.97c-1.06.6-2.12,1.19-3.16,1.74,1.04-.55,2.11-1.14,3.16-1.74Z"/>
  <path class="st1" d="M303.97,239.71c-.69.37-1.37.73-2.03,1.06.66-.34,1.34-.69,2.03-1.06Z"/>
  <path class="st1" d="M271.44,250.11c-1.22.13-2.38.21-3.46.24,1.08-.02,2.23-.1,3.46-.24Z"/>
  <path class="st1" d="M279.43,248.68c-2.84.68-5.55,1.16-7.99,1.43,2.45-.27,5.15-.75,7.99-1.43Z"/>
  <path class="st1" d="M291.07,245.21c-1.07.36-2.17.72-3.27,1.07,1.1-.35,2.2-.71,3.27-1.07Z"/>
  <path class="st1" d="M285.63,246.96c-.72.22-1.42.43-2.1.62.68-.2,1.38-.4,2.1-.62Z"/>
  <path class="st1" d="M305.98,12.02c.07.04.16.08.25.12-.09-.04-.17-.09-.25-.12Z"/>
  <path class="st1" d="M312.18,234.95c-.62.39-1.27.79-1.94,1.2.67-.4,1.32-.81,1.94-1.2Z"/>
  <path class="st1" d="M299.27,10.82s.09,0,.13.01c-.04,0-.09,0-.13-.01Z"/>
  <path class="st1" d="M284.7,9.22c.07,0,.14.01.21.02-.07,0-.14-.01-.21-.02Z"/>
  <path class="st1" d="M316.79,231.87c3.84-2.66,7.86-5.61,10.01-7.4,1.43-1.2,3.2-2.84,4.9-4.53-1.7,1.69-3.48,3.34-4.91,4.53-2.15,1.78-6.17,4.74-10.01,7.4h.01Z"/>
  <path class="st1" d="M295.85,10.48c.06,0,.13.01.19.02-.06,0-.13-.01-.19-.02Z"/>
  <path class="st1" d="M344.22,176.71c.07.57.13,1.18.19,1.82-.06-.64-.13-1.25-.19-1.82Z"/>
  <path class="st1" d="M316.79,231.87c-.64.44-1.28.88-1.9,1.3.62-.42,1.26-.85,1.9-1.3Z"/>
  <path class="st1" d="M307.29,12.59c.1.04.21.08.32.12-.11-.04-.22-.08-.32-.12Z"/>
  <path class="st1" d="M313.32,14.61c1.8.65,3.76,1.48,5.5,2.33-1.74-.84-3.7-1.67-5.5-2.33Z"/>
  <path class="st1" d="M396.43,93.13c-.05,1.65-.77,4.35-1.6,6-.83,1.65-4.16,5.48-7.41,8.5-3.34,3.11-10.9,8.28-17.38,11.88-6.3,3.5-14.5,8.34-18.21,10.75-3.83,2.48-7.77,5.99-9.11,8.12-1.51,2.42-2.64,6.24-3.16,10.75-.45,3.85-.71,8.12-.6,9.5.12,1.37.73,3.85,1.36,5.5.63,1.65,1.49,3.22,1.91,3.5s1.22,3.65,1.78,7.5c.07.48.14,1.01.21,1.58-.07-.57-.14-1.1-.21-1.58-.56-3.85-1.36-7.22-1.78-7.5s-1.28-1.85-1.91-3.5-1.24-4.13-1.36-5.5c-.11-1.38.15-5.65.6-9.5.52-4.51,1.65-8.33,3.16-10.75,1.34-2.13,5.28-5.64,9.11-8.12,3.71-2.41,11.91-7.25,18.21-10.75,6.48-3.6,14.04-8.77,17.38-11.88,3.25-3.02,6.58-6.85,7.41-8.5.83-1.65,1.55-4.35,1.6-6,.06-1.85-1.49-5.69-4.03-10-2.27-3.85-6.08-8.99-8.47-11.42h0c2.39,2.43,6.2,7.57,8.47,11.42,2.54,4.31,4.09,8.15,4.03,10Z"/>
  <path class="st1" d="M118.83,237.3c2.82,2.53,5.57,4.77,7,5.66,1.19.74,3.18,1.53,5.5,2.22-2.32-.69-4.31-1.48-5.5-2.22-1.43-.89-4.18-3.13-7-5.66Z"/>
  <path class="st1" d="M207.08,239.59c-5.23.67-16.25,2.5-24.5,4.06-8.25,1.55-19.95,3.16-26,3.56-7.62.51-13.46.32-19-.59-1.39-.23-2.79-.53-4.14-.86,1.35.34,2.76.64,4.14.86,5.54.91,11.38,1.1,19,.59,6.05-.4,17.75-2.01,26-3.56,8.25-1.56,19.27-3.39,24.5-4.06,3.6-.46,7.48-.73,10.18-.74-2.7,0-6.59.27-10.18.74h0Z"/>
  <path class="st1" d="M97.08,218.87c-1.93-1.1-8-2.96-13.5-4.14-5.5-1.19-13.15-2.87-17-3.74-1.85-.42-3.87-.98-5.66-1.54,1.8.56,3.81,1.12,5.66,1.54,3.85.87,11.5,2.55,17,3.74,5.5,1.18,11.57,3.04,13.5,4.14,1.92,1.09,5.22,3.4,7.33,5.12.93.77,2.4,2.07,4.07,3.6-1.68-1.53-3.14-2.83-4.07-3.6-2.11-1.72-5.41-4.03-7.33-5.12Z"/>
  <path class="st1" d="M45.64,199.67c.83.76,1.59,1.44,2.24,1.99,1.19,1,2.53,2.05,3.82,3.01-1.29-.96-2.63-2-3.82-3.01-.64-.54-1.41-1.22-2.24-1.99Z"/>
  <path class="st1" d="M258.67,249.44s.02.05.02.07h.01s-.02-.04-.03-.07Z"/>
  <path class="st1" d="M266.43,250.34c-2.99-.11-6.97-.92-7.73-.83v.05s-.05.04-.1.04h0c.15.27,1.19.82,2.1,1.2.15-.36,2.6-.57,5.75-.46h-.02Z"/>
  <path class="st1" d="M261.83,251.18c.47.07,2.55.22,4.75,1.03-2.2-.81-4.34-1.27-4.75-1.03Z"/>
  <path class="st1" d="M194.14,4.54c-1.09-.22-2.13-.42-3.06-.6-.24-.05-.47-.09-.72-.13.24.04.48.09.72.13.93.18,1.97.38,3.06.6Z"/>
  <path class="st1" d="M224.81,239.63c2.69.3,6.06.64,9.27.92,4.24.37,8.76,1.08,11.63,1.77-2.87-.7-7.39-1.41-11.63-1.77-3.21-.28-6.57-.61-9.27-.92Z"/>
  <path class="st1" d="M232.08,12.64h-.04.04Z"/>
  <path class="st1" d="M342.08,43.63c5.41,6.31,7.06,7.5,16.75,12.12,5.91,2.81,13,6.56,15.75,8.32.59.38,1.26.85,1.95,1.36-.69-.51-1.36-.98-1.95-1.36-2.75-1.76-9.84-5.51-15.75-8.32-9.69-4.62-11.34-5.81-16.75-12.12-3.3-3.85-6.74-8.46-7.64-10.25-.41-.81-1.07-1.96-1.83-3.18.76,1.23,1.43,2.37,1.83,3.18.9,1.79,4.34,6.4,7.64,10.25Z"/>
  <path class="st1" d="M332.11,29.41c-.79-1.25-1.65-2.53-2.42-3.61-.64-.89-1.54-1.91-2.55-2.92,1.01,1.01,1.91,2.03,2.55,2.92.77,1.07,1.63,2.36,2.42,3.61Z"/>
  <path class="st1" d="M323.65,19.82c-.63-.48-1.25-.92-1.82-1.27-.5-.31-1.09-.63-1.72-.97.63.33,1.23.66,1.72.97.57.35,1.19.79,1.82,1.27Z"/>
  <path class="st1" d="M280.09,8.86c.82.05,1.66.11,2.49.18-.83-.06-1.66-.12-2.49-.18Z"/>
  <path class="st1" d="M342.73,204.88c-1.3,2.89-4.24,7.5-6.54,10.25-1.15,1.38-2.78,3.11-4.48,4.8,1.7-1.69,3.34-3.43,4.49-4.8,2.3-2.75,5.24-7.36,6.54-10.25,1.9-4.24,2.35-6.93,2.33-14,0-3.61-.27-8.5-.65-12.34.37,3.84.64,8.73.65,12.34.02,7.07-.43,9.76-2.33,14h0Z"/>
  <path class="st1" d="M311.55,14.01c-.13-.04-.28-.09-.41-.13-.27-.08-.53-.16-.78-.24.26.08.52.16.78.24.13.04.28.09.41.13Z"/>
  <path class="st1" d="M-.81,101.13c.02.45.16,1.31.36,2.36-.2-1.05-.33-1.9-.36-2.36h0Z"/>
  <path class="st1" d="M212.53,8.46c-1.93-.49-3.84-.94-5.45-1.28-2.38-.51-5.76-1.2-9.11-1.88,3.34.67,6.73,1.37,9.11,1.88,1.61.34,3.52.8,5.45,1.28Z"/>
  <path class="st1" d="M305.54,11.63c-.04.06.06.16.27.29-.21-.13-.31-.23-.27-.29.08-.11-.13-.22-.52-.32.39.1.6.21.52.32Z"/>
  <path class="st1" d="M294.15,10.3c-1.66-.18-3.4-.39-5.07-.61-.69-.09-1.42-.17-2.18-.25.76.08,1.49.17,2.18.25,1.67.22,3.41.42,5.07.61Z"/>
  <path class="st1" d="M258.37,249.11c-.07-.06-.14-.13-.23-.2.09.07.16.14.23.2Z"/>
  <path class="st1" d="M257.98,248.77c-.08-.07-.17-.13-.26-.21.1.07.18.14.26.21Z"/>
  <path class="st1" d="M237.66,242.82c1.22.04,2.23.09,2.92.13.74.05,1.52.14,2.29.26-.77-.11-1.54-.2-2.29-.26-.69-.05-1.7-.09-2.92-.13Z"/>
  <path class="st1" d="M250.06,246.38c0-.15-.13-.37-.37-.62.24.24.38.46.37.62,0,.18.34.47.89.78-.56-.31-.9-.6-.89-.78Z"/>
  <path class="st1" d="M258.63,249.38s-.08-.1-.13-.15c.05.06.1.11.13.15Z"/>
  <path class="st1" d="M255.05,246.81c-.24-.14-.49-.29-.75-.44.26.15.51.3.75.44Z"/>
  <path class="st1" d="M256.32,247.6c-.23-.15-.47-.3-.73-.46.25.16.5.31.73.46Z"/>
  <path class="st1" d="M257.52,248.42c-.11-.08-.23-.16-.35-.25.12.09.24.17.35.25Z"/>
  <path class="st1" d="M256.96,248.03c-.15-.1-.31-.21-.48-.32.17.11.33.22.48.32Z"/>
  <path class="st1" d="M41.66,204.56c.87.57,1.77,1.15,2.67,1.7,1.09.67,2.11,1.27,3.1,1.83-.99-.56-2.01-1.16-3.1-1.83-.9-.55-1.8-1.13-2.67-1.7Z"/>
  <path class="st1" d="M120.69,243.42c.21.11.43.23.64.34.29.15.59.29.88.43-.29-.14-.58-.28-.88-.43-.21-.11-.42-.23-.64-.34Z"/>
  <path class="st1" d="M6.44,146.99c.65,1.54,1.33,3.04,1.89,4.15.14.27.29.55.44.83-.15-.28-.3-.56-.44-.83-.56-1.1-1.24-2.6-1.89-4.15Z"/>
  <path class="st1" d="M.41,107.49c.09.38.19.77.28,1.14.37,1.49.78,4.16,1.13,7.27-.35-3.11-.76-5.78-1.13-7.27-.09-.38-.19-.76-.28-1.14Z"/>
  <path class="st1" d="M11.01,155.73c.26.38.48.69.66.9.43.49,1.36,2.47,2.45,5.1-1.09-2.63-2.02-4.61-2.45-5.1-.18-.21-.4-.51-.66-.9Z"/>
  <path class="st1" d="M1.85,116.17c.35,3.14.65,6.71.81,9.96.18,3.66.55,7.56.99,10.74-.44-3.18-.81-7.09-.99-10.74-.16-3.26-.45-6.82-.81-9.96Z"/>
  <path class="st1" d="M26.11,188.87c1.18,1.82,2.35,3.4,3.21,4.26.21.21.42.42.63.65-.22-.23-.43-.44-.63-.65-.85-.86-2.02-2.44-3.21-4.26Z"/>
  <path class="st1" d="M247.5,242.83c-.22-.08-.48-.16-.75-.24.28.08.53.16.75.24Z"/>
  <path class="st1" d="M108.16,230.82c-.94-1.13-2.26-2.36-3.65-3.46,1.39,1.1,2.71,2.33,3.65,3.46,1.96,2.37,4.44,5.6,5.5,7.19.07.11.18.24.28.36-.1-.12-.21-.25-.28-.36-1.06-1.59-3.54-4.82-5.5-7.19Z"/>
  <path class="st1" d="M229.3,12.47c.1.01.19.02.29.03-.1,0-.19-.02-.29-.03Z"/>
  <path class="st1" d="M33.94,198.51c-.23-.33-.53-.72-.88-1.16.35.44.65.83.88,1.16.34.49,1.21,1.28,2.41,2.24-1.21-.96-2.08-1.76-2.41-2.24Z"/>
  <path class="st1" d="M6.81,125.05c-.09-1.57-.19-3.08-.3-4.51.11,1.43.21,2.94.3,4.51Z"/>
  <path class="st1" d="M5.92,114.32c-.08-.68-.16-1.3-.24-1.83.08.54.16,1.15.24,1.83Z"/>
  <path class="st1" d="M6.28,117.81c-.08-.86-.16-1.67-.24-2.42.08.75.16,1.56.24,2.42Z"/>
  <path class="st1" d="M7.52,135.66c-.04-.48-.08-.97-.12-1.47.04.51.08.99.12,1.47Z"/>
  <path class="st1" d="M170.9,2.36h.06-.06Z"/>
  <path class="st1" d="M43.42,197.58c-.27-.25-.53-.51-.8-.78.27.26.54.52.8.78Z"/>
  <path class="st1" d="M178.84,2.63c1.37.07,2.63.15,3.8.24-1.17-.09-2.43-.17-3.8-.24Z"/>
  <path class="st1" d="M195.82,4.87c.14.03.28.06.43.09-.14-.03-.28-.06-.43-.09Z"/>
  <path class="st1" d="M173.39,2.42c.43,0,.84.02,1.25.04-.41,0-.82-.03-1.25-.04Z"/>
  <path class="st1" d="M60.48,209.31c-.53-.17-1.04-.34-1.51-.51.47.17.98.34,1.51.51Z"/>
  <path class="st1" d="M219.63,238.95c-.28-.03-.61-.05-.99-.07.37.02.7.04.99.07Z"/>
  <path class="st1" d="M117.45,236.04s-.08-.07-.12-.11c.04.04.08.07.12.11Z"/>
  <path class="st1" d="M221.51,239.23c-.36-.05-.67-.09-.94-.14.27.04.58.09.94.14Z"/>
  <path class="st1" d="M55.06,206.99c-.22-.14-.45-.28-.69-.44.24.16.47.31.69.44Z"/>
  <path class="st1" d="M222.92,239.41c-.45-.06-.87-.11-1.24-.16.38.05.79.1,1.24.16Z"/>
  <path class="st1" d="M111.45,230.33l-.09-.09.09.09Z"/>
  <path class="st1" d="M109.94,228.93s-.07-.07-.11-.1c.04.03.07.07.11.1Z"/>
  <path class="st1" d="M224.61,239.61c-.53-.06-1.03-.12-1.49-.18.47.06.97.12,1.49.18Z"/>
  <path class="st1" d="M112.97,231.77s-.05-.05-.07-.07c.02.02.05.05.07.07Z"/>
  <path class="st1" d="M258.68,249.56v-.05c-.09,0-.14.04-.11.09h0c.06,0,.09-.02.1-.04h0Z"/>
  <path class="st1" d="M258.68,249.56s-.04.04-.1.04c.06,0,.09-.02.1-.04Z"/>
  <path class="st1" d="M258.7,249.51h-.01v.02-.02h.01Z"/>
  <path class="st1" d="M282.08,141.6c8.52,0,21.8-.68,29.5-1.51,7.7-.82,15.86-1.82,18.13-2.23,2.28-.4,4.53-1.07,5-1.48.48-.41.64-.99.37-1.29-.27-.3-3.87-.09-8,.47-4.12.56-11.1,1.48-15.5,2.05s-14.07,1.02-21.5,1.01c-7.43-.02-18.9-.69-25.5-1.5s-15.82-2.11-20.5-2.9-9.18-1.67-10-1.95-5.32-1.63-10-3c-7.86-2.3-8.71-2.81-11.36-6.81-2.22-3.36-2.64-4.78-1.9-6.33.53-1.1,3.61-4.89,6.86-8.41,3.24-3.53,13.78-13.51,23.4-22.19,9.63-8.68,22-20.07,27.5-25.3s9.55-9.54,9-9.58c-.55-.04-6.18,4.8-12.5,10.74-6.32,5.94-19.6,18.02-29.5,26.84-9.9,8.82-20.23,18.7-22.95,21.97-2.73,3.26-5.34,6.38-5.81,6.93s-2.85,1-5.3,1c-4.3,0-4.46-.11-5.02-3.5-.31-1.93-.99-4.85-1.51-6.5-.51-1.65-1.42-9.75-2.02-18s-1.42-15.9-1.82-17c-.41-1.1-.55,2.27-.32,7.5s1.25,15.57,2.26,23c1.28,9.41,1.52,13.82.79,14.57-.57.59-1.78,1.14-2.67,1.23-.9.08-3.88,1.33-6.63,2.77s-7.25,3.22-10,3.96c-3.11.83-4.05,1.36-2.5,1.4,1.37.03,4.19-.39,6.25-.94,3.14-.83,3.99-.7,5.22.76.81.96,1.47,2.43,1.47,3.25s-1.36,3.3-3.03,5.5-5.14,6.46-7.72,9.46-8.05,9.3-12.15,14c-4.1,4.7-10.17,11.29-13.5,14.65-3.32,3.35-6.92,7.18-8.01,8.5h0c-1.08,1.31.89-.31,4.36-3.61,3.48-3.3,11.57-11.86,17.97-19.03s13.89-15.87,16.64-19.34,5.68-7.22,6.5-8.33c1.39-1.87,1.88-1.93,6.5-.81,2.75.66,6.69,1.16,8.75,1.11,2.06-.06,3.98.35,4.25.9s1.74-.38,3.25-2.06l2.75-3.06c15.5,4.17,25.4,6.69,32,8.28,6.6,1.6,14.48,3.34,17.5,3.87s12.48.95,21,.94h0Z"/>
  <path class="st1" d="M190.82,61.13c.2-2.75.2-6.8,0-9-.21-2.2-.38.05-.38,5,0,4.95.18,6.75.39,4Z"/>
  <path class="st1" d="M255.08,111.16c-7.43,3.11-14.74,6.06-16.25,6.56s-2.75,1.35-2.75,1.89,2.36.04,5.25-1.11c2.89-1.14,11.55-4.53,19.25-7.53,7.7-2.99,20.3-8.33,28-11.85s15.8-7.31,18-8.41,3.32-2.02,2.5-2.05c-.82-.03-4.2,1.03-7.5,2.36-3.3,1.32-9.82,4.27-14.5,6.54-4.68,2.28-10.75,5-13.5,6.05s-11.07,4.45-18.5,7.55h0Z"/>
</svg>