<?xml version="1.0" encoding="UTF-8"?>
<svg id="Layer_1" xmlns="http://www.w3.org/2000/svg" version="1.1" viewBox="0 0 580.85 529.79">
  <!-- Generator: Adobe Illustrator 30.0.0, SVG Export Plug-In . SVG Version: 2.1.1 Build 123)  -->
  <defs>
    <style>
      .st0 {
        fill: #fff;
        isolation: isolate;
      }

      .st0, .st1, .st2 {
        stroke: #fff;
        stroke-miterlimit: 10;
      }

      .st2 {
        fill: #ff00cf;
      }
    </style>
  </defs>
  <path class="st2" d="M562.46,363.11c-.03,4.3-.78,9.91-1.67,12.47-.89,2.56-2.81,6.97-4.26,9.8-2.04,3.97-4.02,6.32-8.73,10.37-3.34,2.88-10.78,8.81-16.53,13.17-9.84,7.48-10.95,8.58-19.18,19-5.64,7.14-10.35,14.21-13.29,19.95-2.5,4.89-5.58,9.92-6.84,11.19-1.27,1.27-5.06,3.51-8.42,5.01-3.37,1.49-8.04,3.34-10.37,4.12-2.33.78-7.26,3.17-10.94,5.32-3.69,2.15-9.77,6.25-13.52,9.11-3.75,2.86-9.54,7.26-12.86,9.77-3.32,2.52-7.74,5.73-9.82,7.15-2.09,1.42-6.26,4.25-9.27,6.29-3.02,2.04-7.68,4.7-10.36,5.9s-6.83,3.11-9.21,4.22c-2.65,1.24-7.72,2.06-13.01,2.15-4.76.06-9.07-.25-9.57-.73-.49-.48-8.26-.99-17.24-1.15-8.99-.15-18.99-.45-22.24-.67-3.25-.21-7.41-.51-9.25-.65-1.85-.13-10.31-.65-18.81-1.13-11.39-.64-18.07-1.71-25.33-4.02-5.42-1.73-10.75-4.02-11.82-5.08-1.07-1.06-4.03-2.72-6.56-3.69-3.37-1.29-6.12-3.27-10.25-7.42-3.1-3.12-6.48-7.38-7.5-9.47-1.02-2.09-4.53-11.62-7.82-21.17-3.63-10.56-7.15-18.96-11.98-25.5l-7.04-.03c-3.87-.01-12.31.73-18.74,1.65-6.43.93-15,2.52-19.04,3.53-4.04,1.02-9.07,2.03-11.18,2.26-2.11.22-5.68,1.11-7.92,1.98-2.25.86-5.98,1.59-8.29,1.61s-5.6-.08-7.31-.23c-1.71-.16-6.6-1.39-10.88-2.75-6.96-2.22-8.69-3.26-16.61-9.91-4.86-4.08-10.53-8.12-12.59-8.97-2.07-.84-8.35-2.68-13.95-4.08-5.61-1.39-10.44-2.76-10.74-3.05-.3-.28-2.07-.74-3.92-1.03-2.32-.34-4.44-1.57-6.72-3.89-1.84-1.85-5.28-6.69-7.64-10.74-2.38-4.04-6.25-9.56-8.61-12.25-2.35-2.69-8.69-8.29-14.07-12.45-5.38-4.15-10.82-8.57-12.09-9.83s-2.81-3.69-3.43-5.41c-.62-1.72-.96-6.05-.76-9.63.2-3.58-.06-9.38-.55-12.88-.49-3.51-1.9-9.2-3.13-12.64-1.22-3.45-3.83-9.11-5.78-12.6-1.96-3.49-3.75-8-4-10.03-.23-2.03-.03-6.79.47-10.57.49-3.78,2.02-10.22,3.38-14.3,1.36-4.08,3.56-9.19,4.9-11.36,1.33-2.16,5.56-8.11,9.4-13.22,3.84-5.1,8.61-12.42,10.61-16.26,1.99-3.84,4.6-11.09,5.81-16.11,1.21-5.01,2.18-11.35,2.18-14.09,0-2.72-.43-8.24-.94-12.25-.51-4-.97-10.83-1.02-15.16-.05-4.32.42-9.43,1.03-11.34.61-1.92,3.9-6.9,7.32-11.07,3.42-4.16,9.81-11.92,14.23-17.23,5.39-6.48,9.07-11.87,11.2-16.38,1.75-3.7,3.68-9.69,4.29-13.31,1.06-6.25,1.39-6.86,6.46-11.93h0c3.71-3.71,6.99-6.08,10.71-7.76,3.84-1.72,6.87-3.94,10.61-7.78,2.88-2.95,7.5-8.62,10.26-12.61,2.89-4.14,6.65-8.51,8.86-10.23,2.11-1.64,6.72-3.92,10.25-5.06,3.54-1.13,8.39-2.32,10.8-2.64,2.4-.31,5.93-.93,7.83-1.36,2.25-.52,5.84-2.8,10.39-6.58,5.51-4.6,8.35-6.26,13.8-8.05,6.46-2.11,7.38-2.74,15.19-10.27,4.57-4.41,9.68-9.04,11.35-10.29,1.67-1.24,6.26-3.34,10.2-4.65,3.95-1.32,9.84-2.28,13.12-2.16,3.27.12,9.01,1.32,12.73,2.64,3.73,1.32,10.83,4.41,15.78,6.85,4.94,2.44,11.09,5.21,13.66,6.14,3.13,1.13,13.1,1.71,30.06,1.76,21.96.06,26.38.42,32.68,2.68,4.01,1.44,9.5,3.91,12.19,5.49,2.7,1.57,6.88,4.08,9.29,5.56,2.4,1.48,7.86,5.58,12.11,9.1,5.67,4.7,8.59,7.73,10.95,11.38,2.79,4.3,4.26,5.66,11.06,10.15,4.31,2.85,12.21,7.18,17.55,9.62,5.34,2.44,13.65,5.74,18.47,7.34,4.82,1.6,11.96,3.68,15.88,4.62,3.92.94,13.52,3.9,21.35,6.58,10.91,3.73,15.66,5.91,20.36,9.34,3.49,2.55,7.74,6.51,9.89,9.21,2.06,2.61,5.52,8.7,7.67,13.55,2.16,4.84,4.51,10.13,5.23,11.74.72,1.61,1.68,4.78,2.15,7.04s1.2,5.98,1.63,8.27c.45,2.28,2.37,6.72,4.28,9.86,2.19,3.58,7.86,10.3,15.21,18.02,9.02,9.48,12.4,13.61,14.62,17.91,1.59,3.08,3.19,8.1,3.56,11.17.36,3.06.1,8.19-.59,11.38s-1.17,8.51-1.08,11.82,1.12,9.51,2.28,13.8c1.16,4.28,3.24,10.79,4.63,14.46,1.44,3.81,2.38,8.78,2.21,11.58-.16,2.69-.97,5.97-1.78,7.3-.82,1.32-2.04,5.03-2.72,8.24-.68,3.21-1.14,8.83-1.03,12.49.11,3.66.88,9.14,1.72,12.2.83,3.05,2.47,9.38,3.63,14.05,1.16,4.68,2.4,11.07,2.76,14.21.36,3.13.64,9.22.62,13.53Z"/>
  <path class="st1" d="M553.88,340.58c-.76-3.51-2.01-11.5-2.76-17.74-.76-6.24-1.41-13.63-1.45-16.41-.04-2.77.77-8.97,1.8-13.78,1.03-4.79,1.8-10.26,1.7-12.13-.1-1.87-1.42-7.25-2.93-11.96-1.52-4.7-3.23-12.61-3.81-17.56-.57-4.94-.62-11.9-.1-15.46.52-3.55.45-9.13-.18-12.4-.63-3.26-1.88-7.74-2.79-9.94-.91-2.2-2.76-5.76-4.12-7.9-1.36-2.15-5.8-7.57-9.87-12.05-4.07-4.48-9.54-11.43-12.15-15.43-2.62-4-5.44-9.43-6.31-12.07-.86-2.64-2.35-8.46-3.32-12.95-.96-4.48-3.34-12.28-5.3-17.33-3.3-8.55-3.99-9.62-9.95-15.51-5.21-5.14-7.92-7.04-14.52-10.22-4.48-2.14-12.88-5.5-18.7-7.46-5.81-1.97-13.25-4.23-16.53-5.03-3.27-.81-6.02-1.56-6.1-1.68-.08-.11-3.32-.85-7.21-1.63-3.88-.79-12.27-3.54-18.65-6.1-6.37-2.57-14.54-6.49-18.14-8.73-5.66-3.5-7.38-5.09-12.67-11.72-3.37-4.21-7.95-9.5-10.19-11.73-2.24-2.23-5.34-4.7-6.87-5.5-1.54-.79-6.99-3.62-12.1-6.29-5.12-2.66-11.73-5.59-14.69-6.52-2.97-.92-8.55-2.03-12.4-2.45-3.85-.42-12.8-.71-19.87-.64-7.08.08-15.26-.34-18.18-.91-2.92-.57-7.47-1.76-10.1-2.62-2.64-.86-6.93-2.62-9.55-3.89-2.61-1.28-6.88-3.37-9.49-4.65-2.62-1.27-7.59-3.3-11.05-4.5-4.86-1.68-8.29-1.95-14.9-1.21-4.73.54-10.64,1.8-13.15,2.79-3.18,1.27-6.87,3.95-12.29,8.92-4.26,3.91-9.84,8.51-12.4,10.23-2.57,1.72-5.54,3.19-6.62,3.28-1.08.09-3.51.67-5.41,1.31-1.9.64-6.1,3.44-9.33,6.22-4.71,4.04-7.68,5.71-14.72,8.26-4.85,1.75-10.83,3.43-13.25,3.72-2.43.28-5.93,1.26-7.74,2.16-1.82.89-4.74,3.08-6.48,4.83-1.74,1.77-5.06,6.14-7.38,9.73-3.56,5.52-5.33,7.4-11.31,12.03-3.91,3.02-9.41,6.84-12.23,8.49-2.82,1.65-6.33,4.19-7.79,5.65-1.45,1.46-3.01,4.2-3.46,6.08-.45,1.89-.95,6.47-1.13,10.18h0c-.17,3.72-1.12,8.82-2.11,11.33-.99,2.52-3.2,6.68-4.91,9.23-1.72,2.57-7.59,9.09-13.06,14.52-5.47,5.42-10.88,11.47-12.02,13.44-1.46,2.52-2.05,6.21-2,12.41.04,4.86.22,11.22.4,14.16.22,3.55,1.03,6.04,2.44,7.46,1.21,1.24,5.09,2.87,9.14,3.88,3.86.95,13.29,1.94,20.94,2.21,7.64.26,18.62.09,24.37-.38,5.76-.47,15.73-.99,22.17-1.17,6.43-.18,11.72.02,11.74.42.02.42-3.11.88-6.98,1.03-3.86.16-10.78.52-15.35.83-4.58.3-10.03.79-12.11,1.09-2.09.3-9.12.64-15.63.74-6.51.11-13.72-.13-16.04-.52-2.31-.39-5.22-.75-6.46-.8-1.24-.06-5.47-1.07-9.39-2.28-3.92-1.19-7.45-1.87-7.86-1.49-.41.37-.71,1.98-.66,3.58.04,1.6-.63,6.34-1.48,10.54-.86,4.21-2.16,9.91-2.88,12.67-.95,3.57-4.5,9.83-12.29,21.65-6.02,9.15-11.97,18.48-13.22,20.73-1.24,2.26-2.89,7.25-3.66,11.08-.77,3.84-1.17,9.94-.9,13.56.28,3.68,1.34,7.75,2.43,9.24,1.08,1.52,3.18,3.1,4.84,3.65,1.61.53,5.46.74,8.56.43,3.1-.29,10.88-1.66,17.28-3.04,6.4-1.38,15.05-3.43,19.24-4.56,4.19-1.12,9.29-2.45,11.33-2.93,2.04-.49,6.46-1.59,9.81-2.45,3.34-.87,6.87-1.73,7.85-1.92,1.56-.32,1.65-.23.76.76-.56.62-9.18,3.13-19.17,5.58-9.98,2.46-19.59,4.94-21.35,5.52-1.75.58-6.84,1.8-11.31,2.71-4.46.91-9.18,1.92-10.47,2.26-1.3.33-4.91.59-8.01.6-3.11,0-5.98.31-6.39.69-.4.38.66,3.61,2.35,7.18,1.68,3.58,3.49,8.3,4.02,10.5s.34,7.95-.41,12.78c-.74,4.83-.96,10.45-.47,12.49.58,2.42,2.11,4.93,4.43,7.23,1.95,1.94,7.52,6.55,12.37,10.26,4.85,3.71,10.42,8.32,12.36,10.27,1.95,1.94,5.21,6.47,7.25,10.07,2.09,3.69,6.07,8.96,9.12,12.09,2.98,3.05,5.92,6,6.53,6.55.61.55,5.45,2.07,10.76,3.39,5.3,1.32,11.79,3.08,14.44,3.95s8.37,4.04,12.73,7.06c4.59,3.17,10.62,6.41,14.28,7.64,3.49,1.18,8.96,2.38,12.18,2.67,3.21.3,8.66-.09,12.11-.85,3.44-.76,13.87-2.98,23.19-4.96,12.04-2.55,20.3-3.57,28.67-3.51,6.46.04,13.33.71,15.28,1.49,1.94.78,5.06,2.92,6.91,4.76,2.61,2.58,4.04,5.41,6.29,12.45,1.61,5,3.85,12.3,4.99,16.23s3.78,10.5,5.89,14.62c2.11,4.12,4.63,8.28,5.61,9.24.98.97,4.48,3.51,7.77,5.66,3.3,2.15,9.2,5.48,13.11,7.4,3.92,1.92,8.94,3.9,11.14,4.41,2.2.52,7.35,1.39,11.43,1.95,4.07.55,13.04.91,19.92.78,6.89-.11,14.69-.25,17.37-.31,2.66-.06,11.36.37,19.33.95,7.96.58,17.07,1.33,20.22,1.68,3.16.35,8.9.67,12.76.74,3.85.05,8.66-.48,10.66-1.2,2.01-.71,9.21-4.65,16-8.75s14.78-9.48,17.75-11.95c2.98-2.47,8.92-7.01,13.22-10.11,4.29-3.09,10.77-7.43,14.4-9.64,3.62-2.21,9.93-5.77,14-7.92,4.08-2.14,8.64-4.43,10.13-5.07,1.5-.64,4.15-2.6,5.9-4.35,1.75-1.75,3.94-5.13,4.87-7.5.93-2.38,4.76-9.2,8.52-15.17,6.78-10.76,6.92-10.9,16.93-19.13,5.56-4.55,13.9-11.16,18.55-14.69,4.67-3.54,10.33-8.63,12.66-11.38,2.72-3.22,4.7-6.74,5.63-9.93.78-2.72,1.46-8.31,1.5-12.43.05-4.12-.54-9.73-1.31-12.47-.77-2.74-2.02-7.86-2.78-11.36ZM450.97,243.72c-.11.3-3.37,1.82-7.26,3.37-3.89,1.56-7.23,2.99-7.42,3.18s-6.64,2.51-14.32,5.13c-7.68,2.63-16.02,5.27-18.53,5.86s-4.36.83-4.07.52c.28-.3,3.54-1.49,7.25-2.65,3.71-1.15,7.74-2.38,8.96-2.71,1.22-.34,3.68-1.24,5.49-1.99,1.8-.76,3.49-1.13,3.77-.83s1.29-.23,2.27-1.21c.97-.97,2.12-1.64,2.56-1.5.43.15,1.87-.33,3.18-1.06,1.31-.73,5.98-2.52,10.36-4,4.38-1.47,7.88-2.43,7.78-2.12ZM414.35,284.2c0,.39-2.06.88-4.56,1.1-2.8.24-4.16-.03-3.54-.71.56-.6,2.61-1.1,4.57-1.09,1.95.01,3.54.33,3.54.71ZM302.26,127.26h0,0c.23-.03,1.73,3.41,3.33,7.64,1.6,4.23,2.81,9.07,2.43,13.84l-.52-3.72c-.29-2.04-1.68-6.87-3.08-10.72-1.41-3.85-2.38-7.02-2.15-7.04ZM284.39,71.25c.28-.28.57,2.14.64,5.37.08,3.23.43,7.8.8,10.16.37,2.36,1.41,6.72,2.33,9.69.92,2.97,1.09,4.4.36,3.17-.71-1.22-1.96-4.76-2.75-7.86-.79-3.1-1.54-8.87-1.67-12.83-.13-3.96,0-7.42.28-7.71ZM264.94,174.83c.32.08,2.27,5.3,4.33,11.6s3.49,11.23,3.18,10.96c-.31-.27-2.26-5.49-4.33-11.6-2.07-6.12-3.51-11.05-3.18-10.96ZM253.41,108.03h0c.06-.15.37,1.88.66,4.5.3,2.62.63,7.26.74,10.31.11,3.06-.11,7.74-.49,10.39-.37,2.66-.75-1.87-.86-10.05-.1-8.19-.13-15-.06-15.15ZM223.5,120.12c6.09,5.48,12.35,10.24,16.86,12.83,3.95,2.27,7.5,4.14,7.86,4.16.36.02-.12-2.03-1.1-4.56-.97-2.54-1.16-3.61-.43-2.4.74,1.22,1.99,3.76,2.81,5.67.99,2.31,1.85,3.34,2.58,3.08.63-.22,1.17,1.21,1.25,3.34.08,2.05.56,4.12,1.06,4.6.49.48.57.88.16.91-.41.03-1.64-1.92-2.75-4.32-1.94-4.25-2.2-4.48-9.84-8.55-4.31-2.31-9.68-5.52-11.94-7.15-2.26-1.63-6.83-5.97-10.16-9.64l-6.05-6.68,9.68,8.7ZM215.51,159.58c4.3,4.84,8.82,10.34,10.03,12.25,2.03,3.19,1.92,3.13-1.39-.74-1.97-2.3-6.63-7.67-10.36-11.91-3.73-4.25-6.62-7.88-6.43-8.06.18-.18,3.85,3.63,8.15,8.46ZM136.99,276.89c2.38-.58,11.17-2.36,19.53-3.97,8.37-1.62,19.54-3.37,24.85-3.9,5.3-.53,12.69-1.41,16.42-1.97,3.73-.54,13.18-.96,20.99-.93,7.82.04,22.16,1.19,31.89,2.55,9.72,1.36,17.91,2.88,18.2,3.35.28.48-1.99.59-5.06.25-3.07-.34-9.64-1.18-14.59-1.87-4.96-.68-13.79-1.63-19.62-2.09-5.83-.47-14.33-.7-18.89-.5-4.56.19-12.84.83-18.39,1.42-5.56.58-13.73,1.64-18.17,2.34-4.43.7-9.36,1.49-10.95,1.75-1.58.27-4.38.66-6.2.87s-7.91,1.36-13.52,2.56c-5.61,1.2-10.35,1.95-10.52,1.68-.18-.28,1.63-.97,4.02-1.54ZM151.78,335.24c-7.73,3.75-15.27,7.19-16.77,7.63-1.51.45-2.51.56-2.23.25.28-.3,3.72-1.95,7.67-3.65,3.93-1.7,10.7-4.96,15.04-7.23,4.33-2.28,8.66-4.31,9.62-4.52.95-.2,1.51-.13,1.22.16-.29.3-6.84,3.61-14.55,7.37ZM191.24,370.8c-2.18,2.11-5.66,4.99-7.74,6.4-2.65,1.82-1.65.69,3.32-3.75,3.91-3.47,7.39-6.36,7.74-6.4.35-.03-1.15,1.65-3.32,3.75ZM469.14,324.58c-6.44-.77-18.9-1.45-27.68-1.52-8.78-.08-19.98.15-24.88.49-4.91.35-9.24.94-9.63,1.33-.39.39,1.52,1.51,4.24,2.47s6.87,2.24,9.19,2.83c2.33.58,4.32,1.31,4.43,1.61.1.3-1.84.17-4.31-.28-2.48-.46-6.06-1.34-7.97-1.96s-3.54-.9-3.63-.61c-.08.28,4.48,2.56,10.15,5.06,5.67,2.49,14.66,6.07,19.97,7.96,5.31,1.89,9.81,3.59,10.01,3.78.19.19,3.97,1.67,8.4,3.27,4.43,1.6,9.44,3.1,11.15,3.34,1.7.23,4.13,1.16,5.39,2.04,1.25.88,2.6,1.29,2.99.9s1.03-.39,1.41,0c.39.39.35.83-.08.98-.44.16-3.43-.52-6.65-1.48-3.23-.97-10.44-3.22-16.02-5.03-5.59-1.8-10.47-3.6-10.85-4-.37-.4-1.32-.73-2.11-.71-.79.01-4.15-1.08-7.46-2.44-3.32-1.35-10.92-4.56-16.91-7.13-5.99-2.57-12.69-5.72-14.91-7.01-2.21-1.3-4.89-2.75-5.95-3.24-1.06-.49-13.11-4.68-26.76-9.31-13.65-4.63-26.39-9.07-28.31-9.87-1.93-.8-10.03-4.46-18.02-8.15s-16.29-7.62-18.46-8.77c-2.17-1.14-3.88-1.65-3.81-1.14.07.51,1.36,3.21,2.85,5.99,1.48,2.79,6.2,9.85,10.47,15.7,4.27,5.84,12.25,16.32,17.72,23.29,5.48,6.96,11.65,14.79,13.72,17.39,2.06,2.6,8.29,9.74,23.93,26.98l-8.94-8.73c-4.93-4.8-13.4-14.15-18.82-20.77-5.43-6.62-15.92-20-23.31-29.72-7.39-9.72-14.68-19.94-16.19-22.7-1.51-2.76-3.04-5.53-3.39-6.16-.37-.7-1.32-.45-2.39.62-1.51,1.51-1.32,3.2,1.39,11.7,1.74,5.46,4.46,13.07,6.05,16.93,1.6,3.85,2.99,7.54,3.1,8.21.11.67,1.94,5.2,4.07,10.07,2.13,4.87,4.93,11.62,6.23,14.98,1.29,3.37,5.53,12.5,9.4,20.29,3.87,7.79,7.05,14.49,7.04,14.88-.01.4-.64-.25-1.39-1.44-.76-1.19-2.49-4.23-3.85-6.76-1.36-2.53-3.91-7.62-5.68-11.29-1.77-3.67-6.95-15.35-11.53-25.95-4.58-10.6-9.86-23.6-11.76-28.9-1.9-5.3-3.61-9.47-3.8-9.28-.2.2-.39,3.73-.42,7.85s.3,14.13.75,22.23c.45,8.11.91,15.52,1.04,16.47.12.94.4,6.07.62,11.4.21,5.32.52,12.63.68,16.24.16,3.61.86,10.54,1.57,15.4.71,4.86,1.27,9.49,1.27,10.27,0,.98-.25.75-.73-.69-.39-1.17-1.21-5.75-1.84-10.18-.62-4.43-1.94-19.35-2.91-33.14-.98-13.8-1.9-31.98-2.04-40.39-.14-8.43-.52-17.9-.86-21.07-.34-3.17-.78-5.73-.99-5.73-.21.02-1.44,5.32-2.76,11.78-1.31,6.47-3.27,16.6-4.36,22.51-1.08,5.92-2.81,14.06-3.83,18.09-1.03,4.03-2.67,12.25-3.66,18.26-.99,6.01-2.57,17.96-3.51,26.54-.94,8.59-2.02,15.3-2.41,14.91-.39-.39-.42-3.39-.06-6.66.36-3.27.98-9.5,1.39-13.82s1.56-13.11,2.57-19.54c1-6.42,2.87-16.22,4.16-21.79,1.29-5.56,3.34-15.9,4.59-22.97,1.24-7.08,2.97-16.12,3.83-20.1.86-3.97,1.32-7.46,1.03-7.74s-.93-.11-1.39.39c-.47.51-1.75.83-2.83.71-1.75-.18-2.4.98-5.61,9.94-2,5.59-4.96,13.92-6.58,18.53-1.61,4.61-4.5,13.51-6.4,19.76-1.91,6.27-4.79,15.78-6.42,21.16-1.63,5.37-3.98,13.2-5.23,17.4-1.25,4.19-2.29,6.97-2.32,6.17-.03-.81,1.57-7.48,3.55-14.84,1.99-7.35,5.98-21.18,8.87-30.72,2.89-9.55,7.61-24.08,10.47-32.31,3.77-10.8,4.86-15.29,3.97-16.18-.68-.68-1.49-1.01-1.8-.74-.32.28-.54,1.48-.5,2.68.04,1.21-.87,3.49-2.02,5.06-1.15,1.58-4.68,7.27-7.86,12.64-3.19,5.37-7.48,11.89-9.55,14.49-2.06,2.6-5.42,8.16-7.45,12.35-2.02,4.2-5.4,11.33-7.5,15.84-2.1,4.52-3.99,8.36-4.19,8.53-.21.18-.01-.89.44-2.39.45-1.48,3.02-7.83,5.71-14.09,3.1-7.23,7.21-14.73,11.26-20.56,3.51-5.05,7.61-11.44,9.13-14.21,1.51-2.76,4.26-7.34,6.1-10.16,1.84-2.83,3.68-6.23,4.11-7.56.42-1.32.52-2.65.22-2.93s-1.32-.71-2.26-.92c-1.41-.33-2.47.56-5.94,4.99-2.32,2.97-12.5,13.99-22.62,24.47-10.13,10.49-25.45,25.72-34.05,33.83-8.61,8.12-15.56,14.21-15.45,13.54.11-.67,5.64-6.27,12.31-12.44,6.66-6.17,13.79-13.04,15.83-15.28,2.03-2.24,11.3-12.06,20.6-21.83,9.28-9.77,19.04-20.22,21.68-23.22,4.43-5.05,4.67-5.59,3.2-7.06-1.29-1.32-2.36-1.16-5.88.83-2.37,1.34-6.49,3.75-9.16,5.35-2.68,1.61-8.52,4.99-13,7.5-4.75,2.69-16.23,10.92-27.57,19.81-10.7,8.37-24.25,18.99-30.12,23.62-5.88,4.62-12.87,9.73-15.52,11.35-2.82,1.72-4.14,2.17-3.15,1.1.93-1.01,3.12-2.64,4.88-3.61,1.75-.96,10.81-7.81,20.14-15.22,9.32-7.4,20.3-16.47,24.4-20.15,4.1-3.68,8.85-7.51,10.57-8.52,1.72-1,6.21-3.83,9.97-6.29s12.98-8.2,20.48-12.75c11.72-7.11,13.64-8.56,13.68-10.3.04-1.78-.08-1.9-.98-.98-.56.57-4.33,2.19-8.37,3.6-4.04,1.41-10.37,3.67-14.07,5.02-3.71,1.36-9.91,3.74-13.79,5.3-3.88,1.56-11.91,5.63-17.84,9.03-5.93,3.41-13.58,7.85-16.98,9.89-3.42,2.03-9.28,5.4-13.02,7.48-3.75,2.09-7.17,3.76-7.59,3.72-.42-.03.04-.52,1.04-1.08,1-.56,4.36-2.6,7.46-4.56,3.1-1.94,7.66-5.18,10.12-7.21,2.46-2.01,10.56-6.64,17.99-10.3,7.42-3.65,20.57-9.77,29.2-13.58,8.63-3.82,15.68-7.13,15.68-7.35,0-.23-2.83-.18-6.27.09-3.46.28-12.95,1.78-21.11,3.34-8.16,1.57-18.26,3.87-22.45,5.13-4.19,1.25-8.58,2.28-9.76,2.26-1.17,0,.44-.62,3.58-1.37,3.14-.75,6.03-1.68,6.42-2.06.39-.39-2.12-.03-5.57.79-3.46.83-6.46,1.95-6.68,2.51s-2.64,1-5.38.98c-2.74-.01-5.22.21-5.5.51-.29.3-3.03,1.05-6.11,1.67-3.08.62-6.2,1.15-6.95,1.18-.74.04.01-.48,1.69-1.14,1.68-.66,10.85-3.1,20.39-5.42,9.53-2.32,20.67-4.87,24.75-5.66,4.07-.78,7.98-1.49,8.68-1.58.7-.08,6.89-.89,13.75-1.81,6.86-.92,12.83-1.65,13.26-1.63.44.03,4.03-.01,8-.09,6.73-.13,7.28-.32,9.02-5.48l-4.81-1.91c-2.64-1.05-5.8-2.19-7.01-2.54-1.21-.35-3.94-1.11-6.07-1.7-2.14-.59-9.45-2.83-16.26-4.96s-18.98-5.56-27.04-7.61c-8.05-2.06-19.11-4.37-24.55-5.15-5.44-.78-15.07-1.27-21.4-1.08-6.33.19-14.47.7-18.09,1.12-3.62.44-6.6.48-6.63.12-.01-.37,2.25-1.1,5.03-1.63,2.79-.54,12.44-.95,21.45-.95,9,0,19.42.47,23.14,1.03,3.71.56,12.26,2.52,18.97,4.36,6.72,1.84,13.56,3.59,15.22,3.88,1.65.28,9.62,2.5,17.71,4.92,8.09,2.42,17.81,5.42,21.62,6.66,3.8,1.24,7.64,2.98,8.52,3.85,1.06,1.04,1.7,1.11,1.91.21.23-1.02-3.1-4.53-12.88-13.63-7.64-7.12-17.03-14.96-22.34-18.67-5.03-3.52-13.19-8.73-18.12-11.58-4.93-2.85-11.6-6.36-14.83-7.8-3.22-1.45-9.34-3.92-13.59-5.5-4.26-1.58-12.28-4.06-17.83-5.5-5.55-1.45-11.19-2.67-12.52-2.72-1.63-.07-2.14-.39-1.51-.96h0c.49-.47,4.42-.08,8.7.88,4.29.95,11.67,2.97,16.38,4.48,4.72,1.51,12.61,4.43,17.56,6.48,4.94,2.06,14.16,6.84,20.51,10.61,6.34,3.77,15.76,9.95,20.93,13.72,5.97,4.36,13.48,10.92,20.56,17.97,6.14,6.1,11.33,10.95,11.55,10.77.21-.18-1.58-5.88-3.97-12.65-2.38-6.78-6.24-16.14-8.57-20.82-2.33-4.67-8.21-15.03-13.05-23.01-4.85-7.98-9.31-15.29-9.91-16.25-.98-1.55-.93-1.58.57-.22.93.83,4.26,5.76,7.43,10.95s8.15,13.75,11.06,18.99c2.91,5.25,7.02,13.56,9.12,18.46,2.1,4.9,4.55,11.03,5.45,13.64.91,2.6,2,4.52,2.45,4.27.45-.25,1.56-2.96,2.49-6.02.93-3.07,1.56-9.91,1.42-15.21-.15-5.3-1.03-13.33-1.95-17.85-.93-4.52-2.68-11.52-3.89-15.56-1.22-4.03-2.05-7.5-1.85-7.69.19-.19,1.5,3.44,2.91,8.05,1.4,4.62,3.25,12.17,4.09,16.77.85,4.6,1.73,11.6,1.98,15.57.24,3.96-.13,10.13-.83,13.7-.71,3.58-1.92,7.76-2.71,9.31-.78,1.55-.98,3.44-.42,4.17.74,1,1.81.76,4.07-.88,1.68-1.24,4.11-4.05,5.41-6.26,1.29-2.21,4.14-9.54,6.34-16.29,2.18-6.75,5.47-19.71,7.29-28.77,1.82-9.07,4.48-24.23,5.92-33.68s2.72-20.1,2.85-23.67c.13-3.56.57-6.79.95-7.18s1.04-4.66,1.46-9.5c.4-4.84.66-10.02.55-11.51-.11-1.49.1-2.38.47-1.97.37.41.76-3.95.86-9.7s.35-10.61.55-10.8c.19-.19.21,5.08.04,11.7-.18,6.64-.39,15.17-.48,18.96-.13,5.64.07,6.49,1.12,4.65.7-1.24,3.03-6.24,5.17-11.09,2.14-4.86,6.07-15.56,8.73-23.77,2.67-8.22,5.2-17.78,5.62-21.25.42-3.48.87-4.96.98-3.3.11,1.67-.18,5.19-.66,7.82-.47,2.64-2.98,11.28-5.54,19.2-2.58,7.93-7.52,20.42-11,27.78-6.24,13.18-6.35,13.63-9.15,33.98-1.56,11.33-4.42,28.9-6.35,39.02-1.93,10.13-4.3,21.13-5.26,24.44-.97,3.32-2.93,9.63-4.36,14.02-1.44,4.4-3.51,9.64-4.6,11.67-1.53,2.81-1.62,3.92-.42,4.75.86.59,1.87,1.1,2.23,1.12.36.02,5.59-7.57,11.62-16.89,6.02-9.31,12.83-19.82,15.13-23.36,2.3-3.53,5.93-10.08,8.08-14.55,2.14-4.46,5.85-12.21,8.24-17.21,2.38-5,5.95-13.22,7.91-18.26,1.95-5.05,5.9-16.38,8.76-25.18,2.86-8.8,6.54-21.98,8.17-29.3,1.63-7.31,3.69-18.3,4.57-24.42s1.65-14.48,1.7-18.59c.06-4.11-.59-10.91-1.43-15.12-.85-4.2-1.92-8.39-2.38-9.29-.45-.91-.51-1.97-.12-2.35.39-.39,1.03-.39,1.41,0s1.55,4.48,2.58,9.09,1.94,11.71,2,15.79c.07,4.07-.6,12.73-1.47,19.25-.88,6.51-2.57,16.59-3.78,22.39-1.2,5.81-2.57,12.07-3.05,13.92-.48,1.85-4.04,12.93-7.9,24.63-3.95,11.95-10.27,28.24-14.42,37.19-4.07,8.77-9.8,20.22-12.72,25.46-2.93,5.24-10.11,16.83-15.96,25.76-5.85,8.93-11.29,17.35-12.1,18.7-.8,1.35-.97,2.93-.38,3.51.74.73,3.45-.35,8.86-3.54,4.29-2.53,12.4-7.94,18.03-12.03,5.64-4.08,13.74-10.3,18-13.82,4.27-3.51,19.7-17.99,34.29-32.18,20.63-20.07,28.18-27.91,33.98-35.31,4.1-5.23,10.46-14.15,14.13-19.81,3.67-5.66,7.13-11.12,7.68-12.12.67-1.21,1.01-1.35,1-.41,0,.78-2.69,5.72-5.99,10.98-3.3,5.26-7.8,12.21-10,15.46-3.03,4.46-12.47,14.33-38.7,40.5-29.16,29.06-36.26,35.75-44.43,41.84-5.35,3.99-13.35,9.67-17.78,12.63-4.43,2.96-9.8,6.31-11.94,7.44-2.13,1.14-3.9,2.42-3.95,2.85-.05.43.81,1.33,1.9,1.99s3.6.73,5.57.17c1.96-.56,9.64-3.22,17.06-5.93,7.42-2.69,19.06-7.28,25.88-10.18,6.81-2.91,16.86-7.5,22.32-10.21,5.46-2.7,14.54-7.62,20.17-10.94,5.64-3.3,15.87-9.94,22.73-14.74,6.87-4.8,16.86-12.3,22.24-16.65,9.02-7.33,9.37-7.53,4.71-2.72-2.77,2.87-9.11,8.31-14.08,12.08-4.97,3.78-13.04,9.56-17.91,12.85-4.89,3.29-11.68,7.62-15.11,9.64-3.43,2.02-9.92,5.71-14.42,8.21-4.5,2.5-10.61,5.63-13.56,6.95-2.96,1.32-6.43,2.94-7.72,3.59-1.29.66-8.39,3.75-15.76,6.87-7.39,3.12-18.96,7.46-25.71,9.64-6.76,2.19-12.61,4.14-13,4.33-.4.2-.15.9.54,1.57.74.71,5.76.55,12.01-.36,5.92-.87,11.35-1.63,12.06-1.7.71-.07,9.64-1.36,19.86-2.89,10.21-1.51,19.91-3.13,21.54-3.61,1.63-.47,3.2-.59,3.47-.29.28.3.91.14,1.39-.35.47-.49,2.77-.91,5.11-.91,2.33,0,4.33-.23,4.44-.51.11-.27,3.07-1.29,6.57-2.27,3.49-.98,6.67-1.46,7.06-1.07s.34.82-.11.95c-.45.14-5.18,1.3-10.5,2.58-5.34,1.28-15.93,3.42-23.55,4.73-7.62,1.33-14.43,2.47-15.14,2.54-.7.08-3.78.51-6.82.95-3.05.46-10.14,1.64-15.75,2.63-5.61,1-10.83,1.99-11.59,2.2-.76.21-1.15.63-.87.93.29.29,6.65,1.25,14.14,2.12,7.5.86,13.7,1.66,13.78,1.77.09.11,4.57.3,9.96.42,5.39.11,14.39.35,20,.51,5.6.16,11.3.45,12.66.64,2.35.34,2.35.37.04.66-1.34.18-5.01.33-8.15.33-3.15.02-11.62-.15-18.84-.37-7.21-.21-19.49-1.03-27.28-1.82s-17.4-1.8-21.36-2.27c-3.96-.45-7.42-.57-7.7-.28-.28.31-.23,1.08.09,1.73.33.64,3.24,2.67,6.46,4.5,3.22,1.83,13.24,6.77,22.27,10.96,9.03,4.19,21.9,9.47,28.58,11.72,6.68,2.26,15.74,5.29,20.13,6.74,4.38,1.44,9.21,2.98,10.72,3.42,1.51.43,4.48,1.29,6.58,1.9,2.11.6,7.44.65,11.84.1,4.4-.55,14.81-1.1,23.14-1.22,8.33-.11,20.16.19,26.28.67,6.12.49,12.06,1.39,13.18,2.02,1.13.62,2.45.74,2.94.25.48-.48,2.48-.42,4.43.16,1.95.57,3.54,1.21,3.54,1.42,0,.21-5.28-.25-11.72-1Z"/>
  <path class="st2" d="M285.78,91.78c.79,3.1,2.04,6.63,2.75,7.86.73,1.22.56-.21-.36-3.17-.92-2.97-1.97-7.33-2.33-9.69-.37-2.36-.72-6.93-.8-10.16-.08-3.23-.37-5.64-.64-5.37-.28.28-.41,3.75-.28,7.71.13,3.96.88,9.73,1.67,12.83Z"/>
  <path class="st0" d="M285.78,91.78c.79,3.1,2.04,6.63,2.75,7.86.73,1.22.56-.21-.36-3.17-.92-2.97-1.97-7.33-2.33-9.69-.37-2.36-.72-6.93-.8-10.16-.08-3.23-.37-5.64-.64-5.37-.28.28-.41,3.75-.28,7.71.13,3.96.88,9.73,1.67,12.83Z"/>
  <path class="st2" d="M254.32,133.22c.37-2.65.59-7.33.49-10.39-.11-3.05-.44-7.69-.74-10.31-.3-2.62-.6-4.65-.66-4.5h0c-.07.14-.04,6.96.06,15.15.11,8.18.49,12.71.86,10.05Z"/>
  <path class="st0" d="M254.32,133.22c.37-2.65.59-7.33.49-10.39-.11-3.05-.44-7.69-.74-10.31-.3-2.62-.6-4.65-.66-4.5h0c-.07.14-.04,6.96.06,15.15.11,8.18.49,12.71.86,10.05Z"/>
  <path class="st2" d="M307.5,145.02l.52,3.72c.38-4.77-.83-9.61-2.43-13.84-1.61-4.24-3.1-7.67-3.33-7.64-.23.02.74,3.2,2.15,7.04,1.41,3.85,2.79,8.68,3.08,10.72Z"/>
  <path class="st0" d="M307.5,145.02l.52,3.72c.38-4.77-.83-9.61-2.43-13.84-1.61-4.24-3.1-7.67-3.33-7.64-.23.02.74,3.2,2.15,7.04,1.41,3.85,2.79,8.68,3.08,10.72Z"/>
  <path class="st2" d="M272.45,197.39c.31.27-1.12-4.66-3.18-10.96s-4.01-11.52-4.33-11.6c-.33-.08,1.11,4.84,3.18,10.96,2.06,6.11,4.02,11.33,4.33,11.6Z"/>
  <path class="st0" d="M272.45,197.39c.31.27-1.12-4.66-3.18-10.96s-4.01-11.52-4.33-11.6c-.33-.08,1.11,4.84,3.18,10.96,2.06,6.11,4.02,11.33,4.33,11.6Z"/>
  <path class="st2" d="M406.24,284.58c-.62.69.74.95,3.54.71,2.5-.21,4.55-.71,4.56-1.1,0-.37-1.58-.69-3.54-.71-1.96,0-4.01.49-4.57,1.09Z"/>
  <path class="st0" d="M406.24,284.58c-.62.69.74.95,3.54.71,2.5-.21,4.55-.71,4.56-1.1,0-.37-1.58-.69-3.54-.71-1.96,0-4.01.49-4.57,1.09Z"/>
  <path class="st2" d="M432.84,249.84c-1.32.74-2.75,1.21-3.18,1.06-.44-.14-1.59.53-2.56,1.5-.98.98-1.99,1.51-2.27,1.21s-1.97.06-3.77.83c-1.8.76-4.27,1.65-5.49,1.99-1.22.33-5.25,1.56-8.96,2.71-3.71,1.16-6.97,2.35-7.25,2.65-.28.31,1.56.07,4.07-.52s10.85-3.23,18.53-5.86c7.68-2.62,14.12-4.93,14.32-5.13s3.54-1.63,7.42-3.18c3.89-1.56,7.16-3.07,7.26-3.37.11-.3-3.39.65-7.78,2.12-4.38,1.47-9.05,3.27-10.36,4Z"/>
  <path class="st0" d="M432.84,249.84c-1.32.74-2.75,1.21-3.18,1.06-.44-.14-1.59.53-2.56,1.5-.98.98-1.99,1.51-2.27,1.21s-1.97.06-3.77.83c-1.8.76-4.27,1.65-5.49,1.99-1.22.33-5.25,1.56-8.96,2.71-3.71,1.16-6.97,2.35-7.25,2.65-.28.31,1.56.07,4.07-.52s10.85-3.23,18.53-5.86c7.68-2.62,14.12-4.93,14.32-5.13s3.54-1.63,7.42-3.18c3.89-1.56,7.16-3.07,7.26-3.37.11-.3-3.39.65-7.78,2.12-4.38,1.47-9.05,3.27-10.36,4Z"/>
  <path class="st2" d="M186.82,373.46c-4.98,4.44-5.98,5.56-3.32,3.75,2.08-1.41,5.56-4.29,7.74-6.4,2.18-2.09,3.68-3.78,3.32-3.75-.35.04-3.83,2.93-7.74,6.4Z"/>
  <path class="st0" d="M186.82,373.46c-4.98,4.44-5.98,5.56-3.32,3.75,2.08-1.41,5.56-4.29,7.74-6.4,2.18-2.09,3.68-3.78,3.32-3.75-.35.04-3.83,2.93-7.74,6.4Z"/>
  <path class="st2" d="M165.12,327.71c-.96.21-5.3,2.24-9.62,4.52-4.34,2.28-11.11,5.54-15.04,7.23-3.95,1.7-7.39,3.34-7.67,3.65-.28.31.72.2,2.23-.25,1.5-.44,9.04-3.87,16.77-7.63,7.71-3.75,14.26-7.06,14.55-7.37.29-.29-.26-.36-1.22-.16Z"/>
  <path class="st0" d="M165.12,327.71c-.96.21-5.3,2.24-9.62,4.52-4.34,2.28-11.11,5.54-15.04,7.23-3.95,1.7-7.39,3.34-7.67,3.65-.28.31.72.2,2.23-.25,1.5-.44,9.04-3.87,16.77-7.63,7.71-3.75,14.26-7.06,14.55-7.37.29-.29-.26-.36-1.22-.16Z"/>
  <path class="st2" d="M477.32,324.16c-1.95-.58-3.95-.64-4.43-.16-.49.48-1.81.37-2.94-.25-1.12-.63-7.06-1.53-13.18-2.02-6.12-.48-17.95-.78-26.28-.67-8.33.11-18.74.66-23.14,1.22-4.4.55-9.72.5-11.84-.1-2.11-.61-5.08-1.47-6.58-1.9-1.51-.44-6.34-1.98-10.72-3.42-4.39-1.45-13.45-4.48-20.13-6.74-6.68-2.26-19.55-7.53-28.58-11.72-9.03-4.19-19.06-9.13-22.27-10.96-3.22-1.83-6.12-3.86-6.46-4.5-.33-.65-.37-1.42-.09-1.73.28-.3,3.74-.18,7.7.28,3.96.47,13.57,1.48,21.36,2.27s20.07,1.61,27.28,1.82c7.22.22,15.69.39,18.84.37,3.15,0,6.82-.16,8.15-.33,2.31-.3,2.31-.33-.04-.66-1.36-.19-7.06-.49-12.66-.64-5.61-.16-14.61-.4-20-.51-5.4-.12-9.87-.31-9.96-.42-.08-.11-6.29-.91-13.78-1.77-7.49-.87-13.85-1.83-14.14-2.12-.28-.3.11-.71.87-.93.76-.21,5.98-1.2,11.59-2.2,5.61-.99,12.71-2.17,15.75-2.63,3.05-.45,6.12-.88,6.82-.95.71-.07,7.52-1.21,15.14-2.54,7.62-1.32,18.22-3.45,23.55-4.73,5.32-1.28,10.05-2.44,10.5-2.58.45-.13.49-.57.11-.95s-3.57.09-7.06,1.07c-3.5.98-6.46,2-6.57,2.27-.11.28-2.11.5-4.44.51-2.33,0-4.63.42-5.11.91-.48.49-1.1.65-1.39.35-.28-.3-1.85-.18-3.47.29-1.63.47-11.33,2.09-21.54,3.61-10.21,1.53-19.15,2.81-19.86,2.89-.71.06-6.14.83-12.06,1.7-6.26.91-11.28,1.07-12.01.36-.69-.67-.93-1.37-.54-1.57.39-.19,6.24-2.14,13-4.33,6.75-2.18,18.32-6.53,25.71-9.64,7.38-3.12,14.47-6.2,15.76-6.87,1.29-.65,4.76-2.27,7.72-3.59,2.95-1.32,9.06-4.45,13.56-6.95,4.5-2.5,10.99-6.19,14.42-8.21,3.43-2.02,10.22-6.35,15.11-9.64,4.87-3.29,12.94-9.07,17.91-12.85,4.96-3.78,11.31-9.21,14.08-12.08,4.66-4.82,4.31-4.61-4.71,2.72-5.37,4.36-15.37,11.85-22.24,16.65-6.87,4.8-17.1,11.44-22.73,14.74-5.64,3.32-14.71,8.24-20.17,10.94-5.46,2.72-15.51,7.3-22.32,10.21-6.82,2.91-18.46,7.49-25.88,10.18-7.41,2.7-15.1,5.37-17.06,5.93-1.97.56-4.48.49-5.57-.17s-1.95-1.56-1.9-1.99c.05-.43,1.82-1.71,3.95-2.85,2.14-1.13,7.5-4.48,11.94-7.44,4.43-2.96,12.43-8.64,17.78-12.63,8.17-6.09,15.27-12.78,44.43-41.84,26.23-26.16,35.67-36.03,38.7-40.5,2.2-3.25,6.7-10.2,10-15.46,3.3-5.26,5.99-10.2,5.99-10.98,0-.94-.33-.8-1,.41-.55,1-4.01,6.46-7.68,12.12-3.67,5.66-10.03,14.58-14.13,19.81-5.81,7.4-13.35,15.25-33.98,35.31-14.59,14.19-30.02,28.67-34.29,32.18-4.26,3.51-12.37,9.74-18,13.82-5.64,4.09-13.75,9.5-18.03,12.03-5.41,3.19-8.12,4.27-8.86,3.54-.59-.57-.42-2.16.38-3.51.81-1.36,6.25-9.77,12.1-18.7,5.85-8.93,13.02-20.52,15.96-25.76,2.92-5.24,8.65-16.69,12.72-25.46,4.16-8.95,10.48-25.24,14.42-37.19,3.86-11.7,7.42-22.78,7.9-24.63.48-1.85,1.85-8.12,3.05-13.92,1.2-5.8,2.89-15.87,3.78-22.39.87-6.51,1.54-15.17,1.47-19.25-.06-4.08-.97-11.18-2-15.79s-2.19-8.7-2.58-9.09-1.03-.39-1.41,0c-.39.39-.33,1.45.12,2.35.46.9,1.53,5.09,2.38,9.29.84,4.21,1.49,11.01,1.43,15.12-.05,4.11-.82,12.47-1.7,18.59s-2.95,17.1-4.57,24.42c-1.63,7.32-5.31,20.5-8.17,29.3-2.86,8.8-6.81,20.13-8.76,25.18-1.96,5.04-5.52,13.26-7.91,18.26-2.4,5-6.1,12.75-8.24,17.21-2.15,4.47-5.78,11.02-8.08,14.55-2.3,3.54-9.11,14.06-15.13,23.36-6.03,9.31-11.26,16.91-11.62,16.89-.36-.02-1.36-.53-2.23-1.12-1.2-.83-1.1-1.94.42-4.75,1.09-2.02,3.15-7.27,4.6-11.67,1.44-4.39,3.39-10.71,4.36-14.02.96-3.31,3.33-14.3,5.26-24.44,1.93-10.12,4.79-27.68,6.35-39.02,2.8-20.35,2.91-20.8,9.15-33.98,3.48-7.35,8.42-19.85,11-27.78,2.57-7.93,5.07-16.57,5.54-19.2.48-2.63.78-6.15.66-7.82-.11-1.66-.55-.18-.98,3.3-.42,3.47-2.95,13.03-5.62,21.25-2.67,8.21-6.59,18.91-8.73,23.77-2.14,4.86-4.47,9.86-5.17,11.09-1.05,1.84-1.25.98-1.12-4.65.09-3.8.3-12.32.48-18.96.18-6.63.16-11.89-.04-11.7-.2.2-.45,5.06-.55,10.8s-.49,10.11-.86,9.7c-.37-.41-.57.47-.47,1.97.11,1.49-.15,6.67-.55,11.51-.42,4.84-1.07,9.11-1.46,9.5s-.82,3.62-.95,7.18c-.13,3.57-1.41,14.21-2.85,23.67s-4.1,24.61-5.92,33.68c-1.82,9.07-5.11,22.02-7.29,28.77-2.2,6.75-5.05,14.09-6.34,16.29-1.3,2.21-3.73,5.02-5.41,6.26-2.26,1.65-3.33,1.89-4.07.88-.55-.74-.36-2.62.42-4.17.78-1.55,2-5.73,2.71-9.31.7-3.57,1.07-9.74.83-13.7-.25-3.97-1.13-10.97-1.98-15.57-.84-4.6-2.69-12.15-4.09-16.77-1.41-4.62-2.72-8.24-2.91-8.05-.2.2.64,3.66,1.85,7.69,1.21,4.04,2.96,11.04,3.89,15.56.93,4.52,1.8,12.55,1.95,17.85.14,5.3-.49,12.14-1.42,15.21-.93,3.06-2.04,5.78-2.49,6.02-.45.25-1.54-1.67-2.45-4.27-.9-2.61-3.35-8.74-5.45-13.64-2.1-4.9-6.21-13.21-9.12-18.46-2.91-5.25-7.89-13.8-11.06-18.99s-6.51-10.13-7.43-10.95c-1.5-1.36-1.56-1.33-.57.22.6.95,5.06,8.27,9.91,16.25,4.84,7.98,10.72,18.34,13.05,23.01,2.33,4.67,6.19,14.04,8.57,20.82,2.39,6.77,4.17,12.47,3.97,12.65-.21.18-5.4-4.67-11.55-10.77-7.08-7.05-14.59-13.62-20.56-17.97-5.17-3.77-14.59-9.95-20.93-13.72-6.34-3.77-15.57-8.54-20.51-10.61-4.94-2.06-12.84-4.98-17.56-6.48-4.71-1.51-12.08-3.53-16.38-4.48-4.29-.96-8.21-1.35-8.7-.88h0c-.62.57-.12.9,1.51.96,1.34.05,6.97,1.27,12.52,2.72,5.56,1.44,13.58,3.92,17.83,5.5,4.25,1.58,10.37,4.05,13.59,5.5,3.22,1.44,9.9,4.95,14.83,7.8,4.94,2.84,13.09,8.05,18.12,11.58,5.32,3.71,14.7,11.55,22.34,18.67,9.79,9.11,13.11,12.61,12.88,13.63-.21.9-.85.83-1.91-.21-.88-.87-4.72-2.61-8.52-3.85-3.81-1.24-13.53-4.24-21.62-6.66-8.08-2.43-16.05-4.64-17.71-4.92-1.65-.28-8.5-2.04-15.22-3.88-6.71-1.85-15.26-3.8-18.97-4.36-3.72-.55-14.14-1.02-23.14-1.03-9.02,0-18.67.41-21.45.95-2.79.52-5.05,1.26-5.03,1.63.02.36,3.01.32,6.63-.12,3.62-.42,11.77-.93,18.09-1.12,6.34-.18,15.97.3,21.4,1.08,5.44.78,16.5,3.09,24.55,5.15,8.06,2.05,20.23,5.48,27.04,7.61s14.12,4.36,16.26,4.96c2.14.59,4.86,1.36,6.07,1.7,1.21.35,4.37,1.48,7.01,2.54l4.81,1.91c-1.74,5.16-2.28,5.35-9.02,5.48-3.97.08-7.56.12-8,.09-.43-.02-6.4.71-13.26,1.63-6.86.92-13.05,1.73-13.75,1.81-.69.08-4.6.8-8.68,1.58-4.08.78-15.22,3.34-24.75,5.66-9.54,2.33-18.71,4.77-20.39,5.42-1.68.66-2.43,1.17-1.69,1.14.75-.03,3.87-.56,6.95-1.18,3.08-.62,5.82-1.36,6.11-1.67.28-.3,2.76-.52,5.5-.51,2.74.02,5.16-.42,5.38-.98s3.22-1.68,6.68-2.51c3.45-.82,5.96-1.18,5.57-.79-.39.39-3.28,1.32-6.42,2.06-3.14.75-4.75,1.37-3.58,1.37,1.17.01,5.56-1.01,9.76-2.26,4.19-1.26,14.29-3.56,22.45-5.13,8.15-1.56,17.65-3.07,21.11-3.34,3.44-.28,6.27-.32,6.27-.09,0,.23-7.06,3.54-15.68,7.35-8.63,3.82-21.77,9.93-29.2,13.58-7.43,3.66-15.53,8.29-17.99,10.3-2.46,2.02-7.01,5.26-10.12,7.21-3.1,1.96-6.46,4-7.46,4.56-1,.56-1.46,1.05-1.04,1.08.42.04,3.84-1.63,7.59-3.72,3.75-2.08,9.61-5.45,13.02-7.48,3.41-2.04,11.06-6.48,16.98-9.89,5.93-3.4,13.96-7.47,17.84-9.03,3.88-1.56,10.08-3.95,13.79-5.3,3.7-1.35,10.03-3.61,14.07-5.02,4.04-1.41,7.81-3.03,8.37-3.6.9-.93,1.02-.81.98.98-.04,1.74-1.96,3.19-13.68,10.3-7.51,4.55-16.72,10.29-20.48,12.75s-8.25,5.3-9.97,6.29c-1.72,1.01-6.47,4.84-10.57,8.52-4.09,3.68-15.08,12.76-24.4,20.15-9.33,7.4-18.38,14.26-20.14,15.22-1.76.97-3.95,2.6-4.88,3.61-.99,1.07.33.62,3.15-1.1,2.65-1.62,9.64-6.72,15.52-11.35,5.87-4.62,19.42-15.25,30.12-23.62,11.34-8.88,22.82-17.12,27.57-19.81,4.48-2.52,10.32-5.9,13-7.5,2.67-1.61,6.79-4.02,9.16-5.35,3.52-1.99,4.6-2.15,5.88-.83,1.46,1.48,1.22,2.02-3.2,7.06-2.64,3.01-12.4,13.46-21.68,23.22-9.3,9.77-18.57,19.59-20.6,21.83-2.04,2.24-9.17,9.11-15.83,15.28-6.67,6.17-12.2,11.77-12.31,12.44-.11.67,6.84-5.42,15.45-13.54,8.6-8.12,23.92-23.34,34.05-33.83,10.12-10.49,20.3-21.5,22.62-24.47,3.47-4.43,4.53-5.32,5.94-4.99.95.21,1.97.64,2.26.92s.2,1.61-.22,2.93c-.42,1.33-2.27,4.73-4.11,7.56-1.85,2.82-4.59,7.4-6.1,10.16-1.52,2.76-5.62,9.16-9.13,14.21-4.05,5.83-8.16,13.34-11.26,20.56-2.69,6.26-5.25,12.61-5.71,14.09-.45,1.5-.65,2.57-.44,2.39.21-.18,2.09-4.02,4.19-8.53,2.09-4.51,5.47-11.64,7.5-15.84,2.03-4.19,5.38-9.75,7.45-12.35,2.07-2.59,6.36-9.12,9.55-14.49,3.18-5.37,6.72-11.06,7.86-12.64,1.15-1.57,2.05-3.85,2.02-5.06-.04-1.19.18-2.4.5-2.68.3-.28,1.12.06,1.8.74.89.89-.21,5.38-3.97,16.18-2.86,8.22-7.58,22.75-10.47,32.31-2.9,9.55-6.89,23.38-8.87,30.72-1.98,7.35-3.58,14.03-3.55,14.84.03.81,1.07-1.97,2.32-6.17,1.24-4.2,3.6-12.03,5.23-17.4,1.63-5.37,4.51-14.89,6.42-21.16,1.9-6.26,4.79-15.15,6.4-19.76,1.62-4.6,4.57-12.93,6.58-18.53,3.22-8.96,3.87-10.12,5.61-9.94,1.08.12,2.36-.2,2.83-.71.47-.49,1.1-.67,1.39-.39s-.16,3.77-1.03,7.74c-.86,3.97-2.6,13.02-3.83,20.1-1.24,7.07-3.3,17.42-4.59,22.97-1.29,5.56-3.16,15.37-4.16,21.79-1.01,6.43-2.16,15.22-2.57,19.54s-1.03,10.54-1.39,13.82c-.36,3.27-.33,6.27.06,6.66.39.39,1.47-6.32,2.41-14.91.93-8.58,2.52-20.53,3.51-26.54.98-6.02,2.62-14.23,3.66-18.26,1.02-4.03,2.75-12.17,3.83-18.09,1.09-5.91,3.05-16.04,4.36-22.51,1.32-6.46,2.55-11.76,2.76-11.78.21,0,.65,2.56.99,5.73.34,3.17.72,12.64.86,21.07.14,8.41,1.05,26.59,2.04,40.39.98,13.79,2.29,28.71,2.91,33.14.63,4.43,1.45,9.02,1.84,10.18.48,1.44.72,1.67.73.69,0-.78-.56-5.41-1.27-10.27-.71-4.86-1.41-11.79-1.57-15.4-.16-3.61-.47-10.92-.68-16.24-.22-5.32-.5-10.46-.62-11.4-.13-.95-.59-8.36-1.04-16.47-.45-8.1-.78-18.11-.75-22.23s.23-7.65.42-7.85c.19-.19,1.9,3.98,3.8,9.28,1.9,5.3,7.18,18.3,11.76,28.9,4.57,10.6,9.75,22.28,11.53,25.95,1.77,3.68,4.32,8.76,5.68,11.29,1.36,2.53,3.08,5.57,3.85,6.76.75,1.19,1.37,1.84,1.39,1.44,0-.39-3.17-7.09-7.04-14.88-3.87-7.79-8.11-16.92-9.4-20.29-1.3-3.37-4.1-10.11-6.23-14.98-2.13-4.87-3.97-9.4-4.07-10.07-.11-.66-1.51-4.36-3.1-8.21-1.59-3.85-4.31-11.47-6.05-16.93-2.7-8.5-2.9-10.18-1.39-11.7,1.07-1.07,2.02-1.32,2.39-.62.35.63,1.87,3.4,3.39,6.16,1.51,2.76,8.8,12.98,16.19,22.7,7.39,9.72,17.88,23.1,23.31,29.72,5.42,6.63,13.89,15.97,18.82,20.77l8.94,8.73c-15.63-17.25-21.86-24.38-23.93-26.98-2.06-2.6-8.24-10.43-13.72-17.39-5.47-6.97-13.45-17.45-17.72-23.29-4.26-5.85-8.98-12.91-10.47-15.7-1.49-2.78-2.78-5.48-2.85-5.99-.07-.51,1.64,0,3.81,1.14,2.16,1.15,10.47,5.08,18.46,8.77s16.09,7.35,18.02,8.15c1.92.81,14.66,5.24,28.31,9.87,13.65,4.62,25.7,8.81,26.76,9.31,1.07.49,3.75,1.94,5.95,3.24,2.21,1.29,8.92,4.45,14.91,7.01,5.99,2.57,13.6,5.78,16.91,7.13,3.31,1.36,6.67,2.45,7.46,2.44.79-.01,1.74.31,2.11.71.37.4,5.25,2.2,10.85,4,5.59,1.81,12.79,4.07,16.02,5.03,3.22.97,6.21,1.64,6.65,1.48.43-.15.47-.59.08-.98-.39-.39-1.03-.39-1.41,0s-1.74-.01-2.99-.9c-1.26-.88-3.68-1.8-5.39-2.04-1.71-.24-6.72-1.75-11.15-3.34-4.43-1.6-8.21-3.08-8.4-3.27-.19-.19-4.7-1.89-10.01-3.78-5.31-1.89-14.3-5.47-19.97-7.96-5.66-2.5-10.23-4.77-10.15-5.06.09-.29,1.73-.01,3.63.61s5.49,1.5,7.97,1.96c2.47.45,4.41.58,4.31.28-.11-.3-2.1-1.03-4.43-1.61-2.33-.59-6.47-1.86-9.19-2.83s-4.63-2.09-4.24-2.47c.39-.39,4.72-.98,9.63-1.33,4.91-.34,16.11-.57,24.88-.49,8.78.07,21.24.75,27.68,1.52,6.44.76,11.72,1.21,11.72,1,0-.21-1.59-.86-3.54-1.42Z"/>
  <path class="st0" d="M477.32,324.16c-1.95-.58-3.95-.64-4.43-.16-.49.48-1.81.37-2.94-.25-1.12-.63-7.06-1.53-13.18-2.02-6.12-.48-17.95-.78-26.28-.67-8.33.11-18.74.66-23.14,1.22-4.4.55-9.72.5-11.84-.1-2.11-.61-5.08-1.47-6.58-1.9-1.51-.44-6.34-1.98-10.72-3.42-4.39-1.45-13.45-4.48-20.13-6.74-6.68-2.26-19.55-7.53-28.58-11.72-9.03-4.19-19.06-9.13-22.27-10.96-3.22-1.83-6.12-3.86-6.46-4.5-.33-.65-.37-1.42-.09-1.73.28-.3,3.74-.18,7.7.28,3.96.47,13.57,1.48,21.36,2.27s20.07,1.61,27.28,1.82c7.22.22,15.69.39,18.84.37,3.15,0,6.82-.16,8.15-.33,2.31-.3,2.31-.33-.04-.66-1.36-.19-7.06-.49-12.66-.64-5.61-.16-14.61-.4-20-.51-5.4-.12-9.87-.31-9.96-.42-.08-.11-6.29-.91-13.78-1.77-7.49-.87-13.85-1.83-14.14-2.12-.28-.3.11-.71.87-.93.76-.21,5.98-1.2,11.59-2.2,5.61-.99,12.71-2.17,15.75-2.63,3.05-.45,6.12-.88,6.82-.95.71-.07,7.52-1.21,15.14-2.54,7.62-1.32,18.22-3.45,23.55-4.73,5.32-1.28,10.05-2.44,10.5-2.58.45-.13.49-.57.11-.95s-3.57.09-7.06,1.07c-3.5.98-6.46,2-6.57,2.27-.11.28-2.11.5-4.44.51-2.33,0-4.63.42-5.11.91-.48.49-1.1.65-1.39.35-.28-.3-1.85-.18-3.47.29-1.63.47-11.33,2.09-21.54,3.61-10.21,1.53-19.15,2.81-19.86,2.89-.71.06-6.14.83-12.06,1.7-6.26.91-11.28,1.07-12.01.36-.69-.67-.93-1.37-.54-1.57.39-.19,6.24-2.14,13-4.33,6.75-2.18,18.32-6.53,25.71-9.64,7.38-3.12,14.47-6.2,15.76-6.87,1.29-.65,4.76-2.27,7.72-3.59,2.95-1.32,9.06-4.45,13.56-6.95,4.5-2.5,10.99-6.19,14.42-8.21,3.43-2.02,10.22-6.35,15.11-9.64,4.87-3.29,12.94-9.07,17.91-12.85,4.96-3.78,11.31-9.21,14.08-12.08,4.66-4.82,4.31-4.61-4.71,2.72-5.37,4.36-15.37,11.85-22.24,16.65-6.87,4.8-17.1,11.44-22.73,14.74-5.64,3.32-14.71,8.24-20.17,10.94-5.46,2.72-15.51,7.3-22.32,10.21-6.82,2.91-18.46,7.49-25.88,10.18-7.41,2.7-15.1,5.37-17.06,5.93-1.97.56-4.48.49-5.57-.17s-1.95-1.56-1.9-1.99c.05-.43,1.82-1.71,3.95-2.85,2.14-1.13,7.5-4.48,11.94-7.44,4.43-2.96,12.43-8.64,17.78-12.63,8.17-6.09,15.27-12.78,44.43-41.84,26.23-26.16,35.67-36.03,38.7-40.5,2.2-3.25,6.7-10.2,10-15.46,3.3-5.26,5.99-10.2,5.99-10.98,0-.94-.33-.8-1,.41-.55,1-4.01,6.46-7.68,12.12-3.67,5.66-10.03,14.58-14.13,19.81-5.81,7.4-13.35,15.25-33.98,35.31-14.59,14.19-30.02,28.67-34.29,32.18-4.26,3.51-12.37,9.74-18,13.82-5.64,4.09-13.75,9.5-18.03,12.03-5.41,3.19-8.12,4.27-8.86,3.54-.59-.57-.42-2.16.38-3.51.81-1.36,6.25-9.77,12.1-18.7,5.85-8.93,13.02-20.52,15.96-25.76,2.92-5.24,8.65-16.69,12.72-25.46,4.16-8.95,10.48-25.24,14.42-37.19,3.86-11.7,7.42-22.78,7.9-24.63.48-1.85,1.85-8.12,3.05-13.92,1.2-5.8,2.89-15.87,3.78-22.39.87-6.51,1.54-15.17,1.47-19.25-.06-4.08-.97-11.18-2-15.79s-2.19-8.7-2.58-9.09-1.03-.39-1.41,0c-.39.39-.33,1.45.12,2.35.46.9,1.53,5.09,2.38,9.29.84,4.21,1.49,11.01,1.43,15.12-.05,4.11-.82,12.47-1.7,18.59s-2.95,17.1-4.57,24.42c-1.63,7.32-5.31,20.5-8.17,29.3-2.86,8.8-6.81,20.13-8.76,25.18-1.96,5.04-5.52,13.26-7.91,18.26-2.4,5-6.1,12.75-8.24,17.21-2.15,4.47-5.78,11.02-8.08,14.55-2.3,3.54-9.11,14.06-15.13,23.36-6.03,9.31-11.26,16.91-11.62,16.89-.36-.02-1.36-.53-2.23-1.12-1.2-.83-1.1-1.94.42-4.75,1.09-2.02,3.15-7.27,4.6-11.67,1.44-4.39,3.39-10.71,4.36-14.02.96-3.31,3.33-14.3,5.26-24.44,1.93-10.12,4.79-27.68,6.35-39.02,2.8-20.35,2.91-20.8,9.15-33.98,3.48-7.35,8.42-19.85,11-27.78,2.57-7.93,5.07-16.57,5.54-19.2.48-2.63.78-6.15.66-7.82-.11-1.66-.55-.18-.98,3.3-.42,3.47-2.95,13.03-5.62,21.25-2.67,8.21-6.59,18.91-8.73,23.77-2.14,4.86-4.47,9.86-5.17,11.09-1.05,1.84-1.25.98-1.12-4.65.09-3.8.3-12.32.48-18.96.18-6.63.16-11.89-.04-11.7-.2.2-.45,5.06-.55,10.8s-.49,10.11-.86,9.7c-.37-.41-.57.47-.47,1.97.11,1.49-.15,6.67-.55,11.51-.42,4.84-1.07,9.11-1.46,9.5s-.82,3.62-.95,7.18c-.13,3.57-1.41,14.21-2.85,23.67s-4.1,24.61-5.92,33.68c-1.82,9.07-5.11,22.02-7.29,28.77-2.2,6.75-5.05,14.09-6.34,16.29-1.3,2.21-3.73,5.02-5.41,6.26-2.26,1.65-3.33,1.89-4.07.88-.55-.74-.36-2.62.42-4.17.78-1.55,2-5.73,2.71-9.31.7-3.57,1.07-9.74.83-13.7-.25-3.97-1.13-10.97-1.98-15.57-.84-4.6-2.69-12.15-4.09-16.77-1.41-4.62-2.72-8.24-2.91-8.05-.2.2.64,3.66,1.85,7.69,1.21,4.04,2.96,11.04,3.89,15.56.93,4.52,1.8,12.55,1.95,17.85.14,5.3-.49,12.14-1.42,15.21-.93,3.06-2.04,5.78-2.49,6.02-.45.25-1.54-1.67-2.45-4.27-.9-2.61-3.35-8.74-5.45-13.64-2.1-4.9-6.21-13.21-9.12-18.46-2.91-5.25-7.89-13.8-11.06-18.99s-6.51-10.13-7.43-10.95c-1.5-1.36-1.56-1.33-.57.22.6.95,5.06,8.27,9.91,16.25,4.84,7.98,10.72,18.34,13.05,23.01,2.33,4.67,6.19,14.04,8.57,20.82,2.39,6.77,4.17,12.47,3.97,12.65-.21.18-5.4-4.67-11.55-10.77-7.08-7.05-14.59-13.62-20.56-17.97-5.17-3.77-14.59-9.95-20.93-13.72-6.34-3.77-15.57-8.54-20.51-10.61-4.94-2.06-12.84-4.98-17.56-6.48-4.71-1.51-12.08-3.53-16.38-4.48-4.29-.96-8.21-1.35-8.7-.88h0c-.62.57-.12.9,1.51.96,1.34.05,6.97,1.27,12.52,2.72,5.56,1.44,13.58,3.92,17.83,5.5,4.25,1.58,10.37,4.05,13.59,5.5,3.22,1.44,9.9,4.95,14.83,7.8,4.94,2.84,13.09,8.05,18.12,11.58,5.32,3.71,14.7,11.55,22.34,18.67,9.79,9.11,13.11,12.61,12.88,13.63-.21.9-.85.83-1.91-.21-.88-.87-4.72-2.61-8.52-3.85-3.81-1.24-13.53-4.24-21.62-6.66-8.08-2.43-16.05-4.64-17.71-4.92-1.65-.28-8.5-2.04-15.22-3.88-6.71-1.85-15.26-3.8-18.97-4.36-3.72-.55-14.14-1.02-23.14-1.03-9.02,0-18.67.41-21.45.95-2.79.52-5.05,1.26-5.03,1.63.02.36,3.01.32,6.63-.12,3.62-.42,11.77-.93,18.09-1.12,6.34-.18,15.97.3,21.4,1.08,5.44.78,16.5,3.09,24.55,5.15,8.06,2.05,20.23,5.48,27.04,7.61s14.12,4.36,16.26,4.96c2.14.59,4.86,1.36,6.07,1.7,1.21.35,4.37,1.48,7.01,2.54l4.81,1.91c-1.74,5.16-2.28,5.35-9.02,5.48-3.97.08-7.56.12-8,.09-.43-.02-6.4.71-13.26,1.63-6.86.92-13.05,1.73-13.75,1.81-.69.08-4.6.8-8.68,1.58-4.08.78-15.22,3.34-24.75,5.66-9.54,2.33-18.71,4.77-20.39,5.42-1.68.66-2.43,1.17-1.69,1.14.75-.03,3.87-.56,6.95-1.18,3.08-.62,5.82-1.36,6.11-1.67.28-.3,2.76-.52,5.5-.51,2.74.02,5.16-.42,5.38-.98s3.22-1.68,6.68-2.51c3.45-.82,5.96-1.18,5.57-.79-.39.39-3.28,1.32-6.42,2.06-3.14.75-4.75,1.37-3.58,1.37,1.17.01,5.56-1.01,9.76-2.26,4.19-1.26,14.29-3.56,22.45-5.13,8.15-1.56,17.65-3.07,21.11-3.34,3.44-.28,6.27-.32,6.27-.09,0,.23-7.06,3.54-15.68,7.35-8.63,3.82-21.77,9.93-29.2,13.58-7.43,3.66-15.53,8.29-17.99,10.3-2.46,2.02-7.01,5.26-10.12,7.21-3.1,1.96-6.46,4-7.46,4.56-1,.56-1.46,1.05-1.04,1.08.42.04,3.84-1.63,7.59-3.72,3.75-2.08,9.61-5.45,13.02-7.48,3.41-2.04,11.06-6.48,16.98-9.89,5.93-3.4,13.96-7.47,17.84-9.03,3.88-1.56,10.08-3.95,13.79-5.3,3.7-1.35,10.03-3.61,14.07-5.02,4.04-1.41,7.81-3.03,8.37-3.6.9-.93,1.02-.81.98.98-.04,1.74-1.96,3.19-13.68,10.3-7.51,4.55-16.72,10.29-20.48,12.75s-8.25,5.3-9.97,6.29c-1.72,1.01-6.47,4.84-10.57,8.52-4.09,3.68-15.08,12.76-24.4,20.15-9.33,7.4-18.38,14.26-20.14,15.22-1.76.97-3.95,2.6-4.88,3.61-.99,1.07.33.62,3.15-1.1,2.65-1.62,9.64-6.72,15.52-11.35,5.87-4.62,19.42-15.25,30.12-23.62,11.34-8.88,22.82-17.12,27.57-19.81,4.48-2.52,10.32-5.9,13-7.5,2.67-1.61,6.79-4.02,9.16-5.35,3.52-1.99,4.6-2.15,5.88-.83,1.46,1.48,1.22,2.02-3.2,7.06-2.64,3.01-12.4,13.46-21.68,23.22-9.3,9.77-18.57,19.59-20.6,21.83-2.04,2.24-9.17,9.11-15.83,15.28-6.67,6.17-12.2,11.77-12.31,12.44-.11.67,6.84-5.42,15.45-13.54,8.6-8.12,23.92-23.34,34.05-33.83,10.12-10.49,20.3-21.5,22.62-24.47,3.47-4.43,4.53-5.32,5.94-4.99.95.21,1.97.64,2.26.92s.2,1.61-.22,2.93c-.42,1.33-2.27,4.73-4.11,7.56-1.85,2.82-4.59,7.4-6.1,10.16-1.52,2.76-5.62,9.16-9.13,14.21-4.05,5.83-8.16,13.34-11.26,20.56-2.69,6.26-5.25,12.61-5.71,14.09-.45,1.5-.65,2.57-.44,2.39.21-.18,2.09-4.02,4.19-8.53,2.09-4.51,5.47-11.64,7.5-15.84,2.03-4.19,5.38-9.75,7.45-12.35,2.07-2.59,6.36-9.12,9.55-14.49,3.18-5.37,6.72-11.06,7.86-12.64,1.15-1.57,2.05-3.85,2.02-5.06-.04-1.19.18-2.4.5-2.68.3-.28,1.12.06,1.8.74.89.89-.21,5.38-3.97,16.18-2.86,8.22-7.58,22.75-10.47,32.31-2.9,9.55-6.89,23.38-8.87,30.72-1.98,7.35-3.58,14.03-3.55,14.84.03.81,1.07-1.97,2.32-6.17,1.24-4.2,3.6-12.03,5.23-17.4,1.63-5.37,4.51-14.89,6.42-21.16,1.9-6.26,4.79-15.15,6.4-19.76,1.62-4.6,4.57-12.93,6.58-18.53,3.22-8.96,3.87-10.12,5.61-9.94,1.08.12,2.36-.2,2.83-.71.47-.49,1.1-.67,1.39-.39s-.16,3.77-1.03,7.74c-.86,3.97-2.6,13.02-3.83,20.1-1.24,7.07-3.3,17.42-4.59,22.97-1.29,5.56-3.16,15.37-4.16,21.79-1.01,6.43-2.16,15.22-2.57,19.54s-1.03,10.54-1.39,13.82c-.36,3.27-.33,6.27.06,6.66.39.39,1.47-6.32,2.41-14.91.93-8.58,2.52-20.53,3.51-26.54.98-6.02,2.62-14.23,3.66-18.26,1.02-4.03,2.75-12.17,3.83-18.09,1.09-5.91,3.05-16.04,4.36-22.51,1.32-6.46,2.55-11.76,2.76-11.78.21,0,.65,2.56.99,5.73.34,3.17.72,12.64.86,21.07.14,8.41,1.05,26.59,2.04,40.39.98,13.79,2.29,28.71,2.91,33.14.63,4.43,1.45,9.02,1.84,10.18.48,1.44.72,1.67.73.69,0-.78-.56-5.41-1.27-10.27-.71-4.86-1.41-11.79-1.57-15.4-.16-3.61-.47-10.92-.68-16.24-.22-5.32-.5-10.46-.62-11.4-.13-.95-.59-8.36-1.04-16.47-.45-8.1-.78-18.11-.75-22.23s.23-7.65.42-7.85c.19-.19,1.9,3.98,3.8,9.28,1.9,5.3,7.18,18.3,11.76,28.9,4.57,10.6,9.75,22.28,11.53,25.95,1.77,3.68,4.32,8.76,5.68,11.29,1.36,2.53,3.08,5.57,3.85,6.76.75,1.19,1.37,1.84,1.39,1.44,0-.39-3.17-7.09-7.04-14.88-3.87-7.79-8.11-16.92-9.4-20.29-1.3-3.37-4.1-10.11-6.23-14.98-2.13-4.87-3.97-9.4-4.07-10.07-.11-.66-1.51-4.36-3.1-8.21-1.59-3.85-4.31-11.47-6.05-16.93-2.7-8.5-2.9-10.18-1.39-11.7,1.07-1.07,2.02-1.32,2.39-.62.35.63,1.87,3.4,3.39,6.16,1.51,2.76,8.8,12.98,16.19,22.7,7.39,9.72,17.88,23.1,23.31,29.72,5.42,6.63,13.89,15.97,18.82,20.77l8.94,8.73c-15.63-17.25-21.86-24.38-23.93-26.98-2.06-2.6-8.24-10.43-13.72-17.39-5.47-6.97-13.45-17.45-17.72-23.29-4.26-5.85-8.98-12.91-10.47-15.7-1.49-2.78-2.78-5.48-2.85-5.99-.07-.51,1.64,0,3.81,1.14,2.16,1.15,10.47,5.08,18.46,8.77s16.09,7.35,18.02,8.15c1.92.81,14.66,5.24,28.31,9.87,13.65,4.62,25.7,8.81,26.76,9.31,1.07.49,3.75,1.94,5.95,3.24,2.21,1.29,8.92,4.45,14.91,7.01,5.99,2.57,13.6,5.78,16.91,7.13,3.31,1.36,6.67,2.45,7.46,2.44.79-.01,1.74.31,2.11.71.37.4,5.25,2.2,10.85,4,5.59,1.81,12.79,4.07,16.02,5.03,3.22.97,6.21,1.64,6.65,1.48.43-.15.47-.59.08-.98-.39-.39-1.03-.39-1.41,0s-1.74-.01-2.99-.9c-1.26-.88-3.68-1.8-5.39-2.04-1.71-.24-6.72-1.75-11.15-3.34-4.43-1.6-8.21-3.08-8.4-3.27-.19-.19-4.7-1.89-10.01-3.78-5.31-1.89-14.3-5.47-19.97-7.96-5.66-2.5-10.23-4.77-10.15-5.06.09-.29,1.73-.01,3.63.61s5.49,1.5,7.97,1.96c2.47.45,4.41.58,4.31.28-.11-.3-2.1-1.03-4.43-1.61-2.33-.59-6.47-1.86-9.19-2.83s-4.63-2.09-4.24-2.47c.39-.39,4.72-.98,9.63-1.33,4.91-.34,16.11-.57,24.88-.49,8.78.07,21.24.75,27.68,1.52,6.44.76,11.72,1.21,11.72,1,0-.21-1.59-.86-3.54-1.42Z"/>
  <path class="st2" d="M559.08,335.38c-1.16-4.67-2.79-11-3.63-14.05-.83-3.05-1.61-8.54-1.72-12.2-.11-3.66.35-9.28,1.03-12.49.67-3.22,1.9-6.93,2.72-8.24.81-1.32,1.62-4.6,1.78-7.3.17-2.8-.78-7.76-2.21-11.58-1.39-3.67-3.47-10.18-4.63-14.46-1.16-4.29-2.19-10.49-2.28-13.8s.39-8.62,1.08-11.82.95-8.32.59-11.38c-.37-3.07-1.97-8.09-3.56-11.17-2.22-4.3-5.59-8.44-14.62-17.91-7.35-7.72-13.02-14.45-15.21-18.02-1.91-3.14-3.83-7.58-4.28-9.86-.44-2.29-1.17-6-1.63-8.27s-1.43-5.43-2.15-7.04c-.72-1.61-3.08-6.89-5.23-11.74-2.15-4.85-5.61-10.94-7.67-13.55-2.14-2.69-6.4-6.65-9.89-9.21-4.7-3.43-9.45-5.61-20.36-9.34-7.83-2.68-17.42-5.64-21.35-6.58-3.92-.95-11.06-3.03-15.88-4.62-4.82-1.6-13.13-4.9-18.47-7.34-5.34-2.44-13.24-6.77-17.55-9.62-6.8-4.5-8.27-5.85-11.06-10.15-2.35-3.66-5.28-6.69-10.95-11.38-4.26-3.52-9.71-7.62-12.11-9.1-2.41-1.48-6.59-3.99-9.29-5.56-2.69-1.58-8.18-4.05-12.19-5.49-6.3-2.26-10.72-2.62-32.68-2.68-16.96-.05-26.93-.63-30.06-1.76-2.57-.93-8.72-3.7-13.66-6.14-4.94-2.44-12.05-5.53-15.78-6.85-3.73-1.32-9.46-2.52-12.73-2.64-3.28-.13-9.17.84-13.12,2.16-3.94,1.31-8.53,3.41-10.2,4.65-1.67,1.24-6.78,5.88-11.35,10.29-7.81,7.53-8.73,8.15-15.19,10.27-5.45,1.79-8.29,3.44-13.8,8.05-4.55,3.78-8.14,6.06-10.39,6.58-1.9.44-5.42,1.05-7.83,1.36-2.41.32-7.26,1.51-10.8,2.64-3.53,1.14-8.15,3.42-10.25,5.06-2.21,1.73-5.98,6.09-8.86,10.23-2.76,3.99-7.38,9.66-10.26,12.61-3.74,3.84-6.77,6.06-10.61,7.78-3.73,1.68-7,4.04-10.71,7.76h0c-5.07,5.07-5.4,5.68-6.46,11.93-.61,3.62-2.54,9.61-4.29,13.31-2.14,4.51-5.81,9.9-11.2,16.38-4.42,5.31-10.82,13.07-14.23,17.23-3.42,4.16-6.71,9.14-7.32,11.07-.62,1.92-1.08,7.02-1.03,11.34.05,4.33.51,11.16,1.02,15.16.51,4.02.93,9.53.94,12.25,0,2.74-.97,9.07-2.18,14.09-1.2,5.02-3.82,12.28-5.81,16.11-1.99,3.85-6.77,11.17-10.61,16.26-3.84,5.11-8.08,11.06-9.4,13.22-1.34,2.17-3.54,7.28-4.9,11.36-1.36,4.08-2.89,10.52-3.38,14.3-.5,3.78-.71,8.54-.47,10.57.25,2.03,2.04,6.55,4,10.03,1.96,3.49,4.57,9.15,5.78,12.6,1.22,3.44,2.63,9.14,3.13,12.64.49,3.51.75,9.31.55,12.88-.2,3.58.15,7.91.76,9.63.62,1.72,2.16,4.15,3.43,5.41s6.71,5.68,12.09,9.83c5.38,4.15,11.72,9.75,14.07,12.45,2.36,2.69,6.24,8.2,8.61,12.25,2.37,4.05,5.81,8.89,7.64,10.74,2.28,2.32,4.4,3.55,6.72,3.89,1.85.28,3.63.74,3.92,1.03.3.28,5.13,1.65,10.74,3.05,5.6,1.4,11.88,3.24,13.95,4.08,2.06.85,7.74,4.89,12.59,8.97,7.92,6.65,9.65,7.69,16.61,9.91,4.28,1.36,9.17,2.6,10.88,2.75,1.71.14,5,.25,7.31.23s6.04-.75,8.29-1.61c2.24-.87,5.81-1.76,7.92-1.98,2.11-.23,7.13-1.24,11.18-2.26,4.04-1.01,12.61-2.6,19.04-3.53,6.43-.93,14.86-1.67,18.74-1.65l7.04.03c4.83,6.54,8.34,14.93,11.98,25.5,3.29,9.55,6.8,19.08,7.82,21.17,1.02,2.09,4.4,6.35,7.5,9.47,4.14,4.15,6.88,6.13,10.25,7.42,2.53.98,5.49,2.63,6.56,3.69,1.07,1.06,6.4,3.34,11.82,5.08,7.25,2.31,13.94,3.37,25.33,4.02,8.5.48,16.96,1,18.81,1.13,1.84.14,6,.44,9.25.65,3.25.22,13.25.52,22.24.67,8.98.16,16.74.66,17.24,1.15.5.47,4.81.79,9.57.73,5.29-.08,10.36-.91,13.01-2.15,2.38-1.11,6.53-3.01,9.21-4.22s7.34-3.86,10.36-5.9c3.01-2.04,7.18-4.86,9.27-6.29,2.08-1.41,6.5-4.63,9.82-7.15,3.32-2.5,9.11-6.9,12.86-9.77,3.75-2.86,9.83-6.96,13.52-9.11,3.68-2.15,8.61-4.55,10.94-5.32,2.33-.78,7-2.63,10.37-4.12,3.37-1.5,7.16-3.75,8.42-5.01,1.27-1.27,4.34-6.29,6.84-11.19,2.93-5.73,7.64-12.81,13.29-19.95,8.23-10.42,9.34-11.52,19.18-19,5.75-4.36,13.18-10.3,16.53-13.17,4.71-4.04,6.68-6.4,8.73-10.37,1.44-2.83,3.37-7.24,4.26-9.8.89-2.56,1.64-8.17,1.67-12.47.02-4.31-.25-10.39-.62-13.53-.37-3.14-1.61-9.52-2.76-14.21ZM557.97,364.4c-.04,4.12-.72,9.72-1.5,12.43-.93,3.19-2.91,6.7-5.63,9.93-2.33,2.75-7.99,7.85-12.66,11.38-4.65,3.53-12.99,10.13-18.55,14.69-10.01,8.23-10.15,8.38-16.93,19.13-3.76,5.97-7.59,12.79-8.52,15.17-.93,2.38-3.13,5.76-4.87,7.5-1.75,1.75-4.41,3.71-5.9,4.35-1.49.64-6.05,2.93-10.13,5.07-4.07,2.15-10.38,5.71-14,7.92-3.63,2.21-10.11,6.55-14.4,9.64-4.3,3.1-10.25,7.64-13.22,10.11-2.97,2.47-10.96,7.85-17.75,11.95s-13.99,8.04-16,8.75c-2.01.72-6.81,1.25-10.66,1.2-3.85-.06-9.6-.39-12.76-.74-3.15-.35-12.26-1.1-20.22-1.68-7.97-.57-16.67-1-19.33-.95-2.67.06-10.48.2-17.37.31-6.88.12-15.85-.23-19.92-.78-4.08-.56-9.23-1.44-11.43-1.95-2.21-.51-7.22-2.5-11.14-4.41-3.91-1.92-9.81-5.25-13.11-7.4-3.3-2.15-6.79-4.7-7.77-5.66-.98-.96-3.5-5.13-5.61-9.24-2.11-4.12-4.75-10.69-5.89-14.62s-3.38-11.23-4.99-16.23c-2.26-7.04-3.68-9.86-6.29-12.45-1.85-1.84-4.96-3.97-6.91-4.76-1.95-.78-8.82-1.45-15.28-1.49-8.37-.06-16.62.95-28.67,3.51-9.31,1.97-19.74,4.2-23.19,4.96-3.44.76-8.9,1.15-12.11.85-3.22-.29-8.69-1.49-12.18-2.67-3.66-1.23-9.69-4.46-14.28-7.64-4.37-3.03-10.09-6.2-12.73-7.06s-9.14-2.63-14.44-3.95c-5.3-1.32-10.15-2.84-10.76-3.39-.61-.55-3.55-3.51-6.53-6.55-3.05-3.13-7.03-8.4-9.12-12.09-2.04-3.6-5.3-8.13-7.25-10.07-1.94-1.94-7.51-6.56-12.36-10.27-4.85-3.71-10.42-8.32-12.37-10.26-2.32-2.31-3.85-4.82-4.43-7.23-.49-2.04-.27-7.66.47-12.49.75-4.84.94-10.59.41-12.78s-2.34-6.92-4.02-10.5c-1.69-3.57-2.74-6.8-2.35-7.18.4-.37,3.27-.69,6.39-.69,3.1,0,6.71-.28,8.01-.6,1.29-.33,6.01-1.34,10.47-2.26,4.46-.91,9.55-2.13,11.31-2.71,1.76-.57,11.37-3.05,21.35-5.52,9.99-2.45,18.61-4.96,19.17-5.58.89-.99.81-1.07-.76-.76-.98.2-4.5,1.05-7.85,1.92-3.35.86-7.76,1.97-9.81,2.45-2.04.49-7.14,1.81-11.33,2.93-4.19,1.13-12.84,3.18-19.24,4.56-6.4,1.38-14.18,2.75-17.28,3.04-3.1.3-6.96.1-8.56-.43-1.65-.55-3.75-2.13-4.84-3.65-1.08-1.49-2.14-5.56-2.43-9.24-.28-3.61.13-9.72.9-13.56.76-3.83,2.41-8.82,3.66-11.08,1.24-2.25,7.19-11.58,13.22-20.73,7.79-11.82,11.33-18.08,12.29-21.65.73-2.76,2.03-8.46,2.88-12.67.85-4.2,1.52-8.94,1.48-10.54-.04-1.6.25-3.21.66-3.58.4-.37,3.94.3,7.86,1.49,3.92,1.2,8.15,2.22,9.39,2.28,1.24.05,4.14.41,6.46.8,2.31.39,9.52.63,16.04.52,6.51-.1,13.54-.43,15.63-.74,2.08-.3,7.52-.79,12.11-1.09,4.58-.3,11.49-.67,15.35-.83,3.87-.15,7-.61,6.98-1.03-.02-.4-5.31-.6-11.74-.42-6.44.18-16.41.7-22.17,1.17-5.75.47-16.72.64-24.37.38-7.66-.26-17.08-1.26-20.94-2.21-4.04-1-7.93-2.64-9.14-3.88-1.4-1.42-2.22-3.91-2.44-7.46-.18-2.93-.36-9.3-.4-14.16-.05-6.2.54-9.89,2-12.41,1.15-1.97,6.55-8.02,12.02-13.44,5.47-5.42,11.34-11.95,13.06-14.52,1.72-2.55,3.92-6.71,4.91-9.23.98-2.51,1.94-7.61,2.11-11.33h0c.18-3.71.69-8.29,1.13-10.18.45-1.88,2.02-4.62,3.46-6.08,1.46-1.46,4.96-4,7.79-5.65,2.82-1.65,8.32-5.47,12.23-8.49,5.98-4.63,7.74-6.51,11.31-12.03,2.33-3.59,5.64-7.96,7.38-9.73,1.74-1.75,4.66-3.94,6.48-4.83,1.82-.9,5.31-1.87,7.74-2.16,2.43-.29,8.4-1.97,13.25-3.72,7.04-2.55,10.01-4.21,14.72-8.26,3.24-2.79,7.44-5.59,9.33-6.22,1.9-.64,4.33-1.22,5.41-1.31,1.08-.09,4.05-1.56,6.62-3.28,2.55-1.72,8.13-6.32,12.4-10.23,5.42-4.98,9.11-7.65,12.29-8.92,2.5-.99,8.41-2.25,13.15-2.79,6.61-.74,10.04-.47,14.9,1.21,3.46,1.2,8.44,3.23,11.05,4.5,2.61,1.28,6.88,3.37,9.49,4.65,2.62,1.27,6.91,3.03,9.55,3.89,2.63.86,7.18,2.05,10.1,2.62,2.92.57,11.1.99,18.18.91,7.07-.07,16.02.22,19.87.64,3.85.42,9.43,1.53,12.4,2.45,2.96.93,9.57,3.86,14.69,6.52,5.11,2.67,10.56,5.49,12.1,6.29,1.53.8,4.63,3.27,6.87,5.5,2.23,2.23,6.82,7.52,10.19,11.73,5.29,6.63,7.01,8.22,12.67,11.72,3.61,2.23,11.77,6.16,18.14,8.73,6.38,2.56,14.77,5.31,18.65,6.1,3.88.78,7.12,1.52,7.21,1.63.08.11,2.83.86,6.1,1.68,3.28.81,10.72,3.07,16.53,5.03,5.82,1.96,14.23,5.32,18.7,7.46,6.6,3.18,9.31,5.08,14.52,10.22,5.96,5.89,6.65,6.96,9.95,15.51,1.95,5.05,4.33,12.85,5.3,17.33.96,4.48,2.45,10.3,3.32,12.95.87,2.64,3.7,8.07,6.31,12.07,2.61,4,8.08,10.95,12.15,15.43,4.07,4.48,8.51,9.9,9.87,12.05,1.36,2.14,3.21,5.7,4.12,7.9.91,2.21,2.16,6.68,2.79,9.94.62,3.27.7,8.85.18,12.4-.52,3.56-.47,10.51.1,15.46.58,4.95,2.29,12.86,3.81,17.56,1.51,4.71,2.84,10.09,2.93,11.96.1,1.87-.67,7.33-1.7,12.13-1.03,4.81-1.85,11.01-1.8,13.78.04,2.79.69,10.17,1.45,16.41.76,6.24,2.01,14.23,2.76,17.74.76,3.51,2.01,8.63,2.78,11.36.77,2.74,1.36,8.34,1.31,12.47Z"/>
  <path class="st0" d="M559.08,335.38c-1.16-4.67-2.79-11-3.63-14.05-.83-3.05-1.61-8.54-1.72-12.2-.11-3.66.35-9.28,1.03-12.49.67-3.22,1.9-6.93,2.72-8.24.81-1.32,1.62-4.6,1.78-7.3.17-2.8-.78-7.76-2.21-11.58-1.39-3.67-3.47-10.18-4.63-14.46-1.16-4.29-2.19-10.49-2.28-13.8s.39-8.62,1.08-11.82.95-8.32.59-11.38c-.37-3.07-1.97-8.09-3.56-11.17-2.22-4.3-5.59-8.44-14.62-17.91-7.35-7.72-13.02-14.45-15.21-18.02-1.91-3.14-3.83-7.58-4.28-9.86-.44-2.29-1.17-6-1.63-8.27s-1.43-5.43-2.15-7.04c-.72-1.61-3.08-6.89-5.23-11.74-2.15-4.85-5.61-10.94-7.67-13.55-2.14-2.69-6.4-6.65-9.89-9.21-4.7-3.43-9.45-5.61-20.36-9.34-7.83-2.68-17.42-5.64-21.35-6.58-3.92-.95-11.06-3.03-15.88-4.62-4.82-1.6-13.13-4.9-18.47-7.34-5.34-2.44-13.24-6.77-17.55-9.62-6.8-4.5-8.27-5.85-11.06-10.15-2.35-3.66-5.28-6.69-10.95-11.38-4.26-3.52-9.71-7.62-12.11-9.1-2.41-1.48-6.59-3.99-9.29-5.56-2.69-1.58-8.18-4.05-12.19-5.49-6.3-2.26-10.72-2.62-32.68-2.68-16.96-.05-26.93-.63-30.06-1.76-2.57-.93-8.72-3.7-13.66-6.14-4.94-2.44-12.05-5.53-15.78-6.85-3.73-1.32-9.46-2.52-12.73-2.64-3.28-.13-9.17.84-13.12,2.16-3.94,1.31-8.53,3.41-10.2,4.65-1.67,1.24-6.78,5.88-11.35,10.29-7.81,7.53-8.73,8.15-15.19,10.27-5.45,1.79-8.29,3.44-13.8,8.05-4.55,3.78-8.14,6.06-10.39,6.58-1.9.44-5.42,1.05-7.83,1.36-2.41.32-7.26,1.51-10.8,2.64-3.53,1.14-8.15,3.42-10.25,5.06-2.21,1.73-5.98,6.09-8.86,10.23-2.76,3.99-7.38,9.66-10.26,12.61-3.74,3.84-6.77,6.06-10.61,7.78-3.73,1.68-7,4.04-10.71,7.76h0c-5.07,5.07-5.4,5.68-6.46,11.93-.61,3.62-2.54,9.61-4.29,13.31-2.14,4.51-5.81,9.9-11.2,16.38-4.42,5.31-10.82,13.07-14.23,17.23-3.42,4.16-6.71,9.14-7.32,11.07-.62,1.92-1.08,7.02-1.03,11.34.05,4.33.51,11.16,1.02,15.16.51,4.02.93,9.53.94,12.25,0,2.74-.97,9.07-2.18,14.09-1.2,5.02-3.82,12.28-5.81,16.11-1.99,3.85-6.77,11.17-10.61,16.26-3.84,5.11-8.08,11.06-9.4,13.22-1.34,2.17-3.54,7.28-4.9,11.36-1.36,4.08-2.89,10.52-3.38,14.3-.5,3.78-.71,8.54-.47,10.57.25,2.03,2.04,6.55,4,10.03,1.96,3.49,4.57,9.15,5.78,12.6,1.22,3.44,2.63,9.14,3.13,12.64.49,3.51.75,9.31.55,12.88-.2,3.58.15,7.91.76,9.63.62,1.72,2.16,4.15,3.43,5.41s6.71,5.68,12.09,9.83c5.38,4.15,11.72,9.75,14.07,12.45,2.36,2.69,6.24,8.2,8.61,12.25,2.37,4.05,5.81,8.89,7.64,10.74,2.28,2.32,4.4,3.55,6.72,3.89,1.85.28,3.63.74,3.92,1.03.3.28,5.13,1.65,10.74,3.05,5.6,1.4,11.88,3.24,13.95,4.08,2.06.85,7.74,4.89,12.59,8.97,7.92,6.65,9.65,7.69,16.61,9.91,4.28,1.36,9.17,2.6,10.88,2.75,1.71.14,5,.25,7.31.23s6.04-.75,8.29-1.61c2.24-.87,5.81-1.76,7.92-1.98,2.11-.23,7.13-1.24,11.18-2.26,4.04-1.01,12.61-2.6,19.04-3.53,6.43-.93,14.86-1.67,18.74-1.65l7.04.03c4.83,6.54,8.34,14.93,11.98,25.5,3.29,9.55,6.8,19.08,7.82,21.17,1.02,2.09,4.4,6.35,7.5,9.47,4.14,4.15,6.88,6.13,10.25,7.42,2.53.98,5.49,2.63,6.56,3.69,1.07,1.06,6.4,3.34,11.82,5.08,7.25,2.31,13.94,3.37,25.33,4.02,8.5.48,16.96,1,18.81,1.13,1.84.14,6,.44,9.25.65,3.25.22,13.25.52,22.24.67,8.98.16,16.74.66,17.24,1.15.5.47,4.81.79,9.57.73,5.29-.08,10.36-.91,13.01-2.15,2.38-1.11,6.53-3.01,9.21-4.22s7.34-3.86,10.36-5.9c3.01-2.04,7.18-4.86,9.27-6.29,2.08-1.41,6.5-4.63,9.82-7.15,3.32-2.5,9.11-6.9,12.86-9.77,3.75-2.86,9.83-6.96,13.52-9.11,3.68-2.15,8.61-4.55,10.94-5.32,2.33-.78,7-2.63,10.37-4.12,3.37-1.5,7.16-3.75,8.42-5.01,1.27-1.27,4.34-6.29,6.84-11.19,2.93-5.73,7.64-12.81,13.29-19.95,8.23-10.42,9.34-11.52,19.18-19,5.75-4.36,13.18-10.3,16.53-13.17,4.71-4.04,6.68-6.4,8.73-10.37,1.44-2.83,3.37-7.24,4.26-9.8.89-2.56,1.64-8.17,1.67-12.47.02-4.31-.25-10.39-.62-13.53-.37-3.14-1.61-9.52-2.76-14.21ZM557.97,364.4c-.04,4.12-.72,9.72-1.5,12.43-.93,3.19-2.91,6.7-5.63,9.93-2.33,2.75-7.99,7.85-12.66,11.38-4.65,3.53-12.99,10.13-18.55,14.69-10.01,8.23-10.15,8.38-16.93,19.13-3.76,5.97-7.59,12.79-8.52,15.17-.93,2.38-3.13,5.76-4.87,7.5-1.75,1.75-4.41,3.71-5.9,4.35-1.49.64-6.05,2.93-10.13,5.07-4.07,2.15-10.38,5.71-14,7.92-3.63,2.21-10.11,6.55-14.4,9.64-4.3,3.1-10.25,7.64-13.22,10.11-2.97,2.47-10.96,7.85-17.75,11.95s-13.99,8.04-16,8.75c-2.01.72-6.81,1.25-10.66,1.2-3.85-.06-9.6-.39-12.76-.74-3.15-.35-12.26-1.1-20.22-1.68-7.97-.57-16.67-1-19.33-.95-2.67.06-10.48.2-17.37.31-6.88.12-15.85-.23-19.92-.78-4.08-.56-9.23-1.44-11.43-1.95-2.21-.51-7.22-2.5-11.14-4.41-3.91-1.92-9.81-5.25-13.11-7.4-3.3-2.15-6.79-4.7-7.77-5.66-.98-.96-3.5-5.13-5.61-9.24-2.11-4.12-4.75-10.69-5.89-14.62s-3.38-11.23-4.99-16.23c-2.26-7.04-3.68-9.86-6.29-12.45-1.85-1.84-4.96-3.97-6.91-4.76-1.95-.78-8.82-1.45-15.28-1.49-8.37-.06-16.62.95-28.67,3.51-9.31,1.97-19.74,4.2-23.19,4.96-3.44.76-8.9,1.15-12.11.85-3.22-.29-8.69-1.49-12.18-2.67-3.66-1.23-9.69-4.46-14.28-7.64-4.37-3.03-10.09-6.2-12.73-7.06s-9.14-2.63-14.44-3.95c-5.3-1.32-10.15-2.84-10.76-3.39-.61-.55-3.55-3.51-6.53-6.55-3.05-3.13-7.03-8.4-9.12-12.09-2.04-3.6-5.3-8.13-7.25-10.07-1.94-1.94-7.51-6.56-12.36-10.27-4.85-3.71-10.42-8.32-12.37-10.26-2.32-2.31-3.85-4.82-4.43-7.23-.49-2.04-.27-7.66.47-12.49.75-4.84.94-10.59.41-12.78s-2.34-6.92-4.02-10.5c-1.69-3.57-2.74-6.8-2.35-7.18.4-.37,3.27-.69,6.39-.69,3.1,0,6.71-.28,8.01-.6,1.29-.33,6.01-1.34,10.47-2.26,4.46-.91,9.55-2.13,11.31-2.71,1.76-.57,11.37-3.05,21.35-5.52,9.99-2.45,18.61-4.96,19.17-5.58.89-.99.81-1.07-.76-.76-.98.2-4.5,1.05-7.85,1.92-3.35.86-7.76,1.97-9.81,2.45-2.04.49-7.14,1.81-11.33,2.93-4.19,1.13-12.84,3.18-19.24,4.56-6.4,1.38-14.18,2.75-17.28,3.04-3.1.3-6.96.1-8.56-.43-1.65-.55-3.75-2.13-4.84-3.65-1.08-1.49-2.14-5.56-2.43-9.24-.28-3.61.13-9.72.9-13.56.76-3.83,2.41-8.82,3.66-11.08,1.24-2.25,7.19-11.58,13.22-20.73,7.79-11.82,11.33-18.08,12.29-21.65.73-2.76,2.03-8.46,2.88-12.67.85-4.2,1.52-8.94,1.48-10.54-.04-1.6.25-3.21.66-3.58.4-.37,3.94.3,7.86,1.49,3.92,1.2,8.15,2.22,9.39,2.28,1.24.05,4.14.41,6.46.8,2.31.39,9.52.63,16.04.52,6.51-.1,13.54-.43,15.63-.74,2.08-.3,7.52-.79,12.11-1.09,4.58-.3,11.49-.67,15.35-.83,3.87-.15,7-.61,6.98-1.03-.02-.4-5.31-.6-11.74-.42-6.44.18-16.41.7-22.17,1.17-5.75.47-16.72.64-24.37.38-7.66-.26-17.08-1.26-20.94-2.21-4.04-1-7.93-2.64-9.14-3.88-1.4-1.42-2.22-3.91-2.44-7.46-.18-2.93-.36-9.3-.4-14.16-.05-6.2.54-9.89,2-12.41,1.15-1.97,6.55-8.02,12.02-13.44,5.47-5.42,11.34-11.95,13.06-14.52,1.72-2.55,3.92-6.71,4.91-9.23.98-2.51,1.94-7.61,2.11-11.33h0c.18-3.71.69-8.29,1.13-10.18.45-1.88,2.02-4.62,3.46-6.08,1.46-1.46,4.96-4,7.79-5.65,2.82-1.65,8.32-5.47,12.23-8.49,5.98-4.63,7.74-6.51,11.31-12.03,2.33-3.59,5.64-7.96,7.38-9.73,1.74-1.75,4.66-3.94,6.48-4.83,1.82-.9,5.31-1.87,7.74-2.16,2.43-.29,8.4-1.97,13.25-3.72,7.04-2.55,10.01-4.21,14.72-8.26,3.24-2.79,7.44-5.59,9.33-6.22,1.9-.64,4.33-1.22,5.41-1.31,1.08-.09,4.05-1.56,6.62-3.28,2.55-1.72,8.13-6.32,12.4-10.23,5.42-4.98,9.11-7.65,12.29-8.92,2.5-.99,8.41-2.25,13.15-2.79,6.61-.74,10.04-.47,14.9,1.21,3.46,1.2,8.44,3.23,11.05,4.5,2.61,1.28,6.88,3.37,9.49,4.65,2.62,1.27,6.91,3.03,9.55,3.89,2.63.86,7.18,2.05,10.1,2.62,2.92.57,11.1.99,18.18.91,7.07-.07,16.02.22,19.87.64,3.85.42,9.43,1.53,12.4,2.45,2.96.93,9.57,3.86,14.69,6.52,5.11,2.67,10.56,5.49,12.1,6.29,1.53.8,4.63,3.27,6.87,5.5,2.23,2.23,6.82,7.52,10.19,11.73,5.29,6.63,7.01,8.22,12.67,11.72,3.61,2.23,11.77,6.16,18.14,8.73,6.38,2.56,14.77,5.31,18.65,6.1,3.88.78,7.12,1.52,7.21,1.63.08.11,2.83.86,6.1,1.68,3.28.81,10.72,3.07,16.53,5.03,5.82,1.96,14.23,5.32,18.7,7.46,6.6,3.18,9.31,5.08,14.52,10.22,5.96,5.89,6.65,6.96,9.95,15.51,1.95,5.05,4.33,12.85,5.3,17.33.96,4.48,2.45,10.3,3.32,12.95.87,2.64,3.7,8.07,6.31,12.07,2.61,4,8.08,10.95,12.15,15.43,4.07,4.48,8.51,9.9,9.87,12.05,1.36,2.14,3.21,5.7,4.12,7.9.91,2.21,2.16,6.68,2.79,9.94.62,3.27.7,8.85.18,12.4-.52,3.56-.47,10.51.1,15.46.58,4.95,2.29,12.86,3.81,17.56,1.51,4.71,2.84,10.09,2.93,11.96.1,1.87-.67,7.33-1.7,12.13-1.03,4.81-1.85,11.01-1.8,13.78.04,2.79.69,10.17,1.45,16.41.76,6.24,2.01,14.23,2.76,17.74.76,3.51,2.01,8.63,2.78,11.36.77,2.74,1.36,8.34,1.31,12.47Z"/>
  <path class="st2" d="M224.15,171.09c3.3,3.87,3.42,3.92,1.39.74-1.21-1.9-5.73-7.41-10.03-12.25-4.3-4.84-7.97-8.65-8.15-8.46-.18.18,2.71,3.81,6.43,8.06,3.73,4.25,8.39,9.62,10.36,11.91Z"/>
  <path class="st0" d="M224.15,171.09c3.3,3.87,3.42,3.92,1.39.74-1.21-1.9-5.73-7.41-10.03-12.25-4.3-4.84-7.97-8.65-8.15-8.46-.18.18,2.71,3.81,6.43,8.06,3.73,4.25,8.39,9.62,10.36,11.91Z"/>
  <path class="st2" d="M230.03,127.74c2.26,1.63,7.63,4.84,11.94,7.15,7.64,4.07,7.89,4.3,9.84,8.55,1.11,2.4,2.34,4.35,2.75,4.32.41-.03.34-.42-.16-.91-.5-.47-.98-2.55-1.06-4.6-.08-2.14-.62-3.56-1.25-3.34-.73.26-1.59-.76-2.58-3.08-.82-1.91-2.08-4.45-2.81-5.67-.73-1.21-.54-.14.43,2.4.98,2.53,1.46,4.58,1.1,4.56-.36-.02-3.9-1.9-7.86-4.16-4.52-2.59-10.78-7.35-16.86-12.83l-9.68-8.7,6.05,6.68c3.33,3.67,7.9,8.01,10.16,9.64Z"/>
  <path class="st0" d="M230.03,127.74c2.26,1.63,7.63,4.84,11.94,7.15,7.64,4.07,7.89,4.3,9.84,8.55,1.11,2.4,2.34,4.35,2.75,4.32.41-.03.34-.42-.16-.91-.5-.47-.98-2.55-1.06-4.6-.08-2.14-.62-3.56-1.25-3.34-.73.26-1.59-.76-2.58-3.08-.82-1.91-2.08-4.45-2.81-5.67-.73-1.21-.54-.14.43,2.4.98,2.53,1.46,4.58,1.1,4.56-.36-.02-3.9-1.9-7.86-4.16-4.52-2.59-10.78-7.35-16.86-12.83l-9.68-8.7,6.05,6.68c3.33,3.67,7.9,8.01,10.16,9.64Z"/>
  <path class="st2" d="M143.5,276.74c5.61-1.19,11.7-2.35,13.52-2.56s4.62-.6,6.2-.87c1.59-.26,6.51-1.05,10.95-1.75,4.43-.7,12.61-1.76,18.17-2.34,5.55-.59,13.83-1.23,18.39-1.42,4.55-.2,13.05.03,18.89.5,5.83.47,14.65,1.41,19.62,2.09,4.96.69,11.53,1.53,14.59,1.87,3.06.35,5.34.23,5.06-.25-.29-.47-8.48-1.99-18.2-3.35-9.73-1.36-24.07-2.5-31.89-2.55-7.81-.04-17.27.38-20.99.93-3.73.55-11.12,1.44-16.42,1.97-5.3.54-16.48,2.28-24.85,3.9-8.36,1.61-17.15,3.39-19.53,3.97-2.38.57-4.19,1.27-4.02,1.54.17.27,4.91-.48,10.52-1.68Z"/>
  <path class="st0" d="M143.5,276.74c5.61-1.19,11.7-2.35,13.52-2.56s4.62-.6,6.2-.87c1.59-.26,6.51-1.05,10.95-1.75,4.43-.7,12.61-1.76,18.17-2.34,5.55-.59,13.83-1.23,18.39-1.42,4.55-.2,13.05.03,18.89.5,5.83.47,14.65,1.41,19.62,2.09,4.96.69,11.53,1.53,14.59,1.87,3.06.35,5.34.23,5.06-.25-.29-.47-8.48-1.99-18.2-3.35-9.73-1.36-24.07-2.5-31.89-2.55-7.81-.04-17.27.38-20.99.93-3.73.55-11.12,1.44-16.42,1.97-5.3.54-16.48,2.28-24.85,3.9-8.36,1.61-17.15,3.39-19.53,3.97-2.38.57-4.19,1.27-4.02,1.54.17.27,4.91-.48,10.52-1.68Z"/>
</svg>