<?xml version="1.0" encoding="UTF-8"?>
<svg id="Layer_1" xmlns="http://www.w3.org/2000/svg" version="1.1" viewBox="0 0 141 284.67">
  <!-- Generator: Adobe Illustrator 30.0.0, SVG Export Plug-In . SVG Version: 2.1.1 Build 123)  -->
  <defs>
    <style>
      .st0 {
        stroke: #fff;
        stroke-miterlimit: 10;
      }

      .st0, .st1 {
        fill: #fff;
        isolation: isolate;
      }
    </style>
  </defs>
  <path d="M66.06,271.44c2.87,2.45,4.18,3,5.31,2.25.82-.55,2-.66,2.61-.25s1.51.08,1.99-.75c.48-.83.87-5.33.88-10,0-4.67-.47-11.42-1.06-15-.58-3.58-2.1-10.1-3.37-14.5-1.27-4.4-4.22-11.83-6.55-16.5-2.34-4.67-6.58-11.88-9.44-16-2.86-4.13-9.67-13.6-15.13-21.07-5.46-7.46-14.88-21.12-20.93-30.36-8.56-13.07-11.15-16.39-11.68-14.94-.37,1.03-.65,2.77-.6,3.87.04,1.1.4,6.27.81,11.5.4,5.23,1.45,13.33,2.33,18h0c.87,4.67,2.99,12.33,4.71,17,1.71,4.67,3.75,10.41,4.52,12.75.78,2.34,1.86,4.25,2.41,4.25s5.34,8.21,10.65,18.25c5.3,10.04,10.13,19.15,10.73,20.25s2.61,4.48,4.46,7.5c1.86,3.02,5.66,8.88,8.46,13,2.79,4.13,6.79,8.96,8.89,10.75Z"/>
  <path d="M69.91,134.69c2.45,4.67,4.8,9.51,5.21,10.75s1.09,2.25,1.5,2.24c.41,0,1.23-1.01,1.82-2.25.58-1.23,3.79-7.41,7.12-13.74s7.91-14.99,10.18-19.25l4.13-7.75c-1.74-10.46-2.61-14.17-3.06-15s-1.98-6-3.41-11.5-4.05-14.62-5.82-20.27c-1.76-5.65-3.55-10.27-3.96-10.25-.41,0-1.79,2.16-3.06,4.77-1.28,2.61-4.37,8.35-6.87,12.75-2.51,4.4-6.19,11.26-8.19,15.25s-4.98,11.3-6.63,16.25-3,9.9-3,11-.45,2.23-1,2.5-1.25.39-1.55.25.43-4.3,1.62-9.25c1.47-6.11,4.41-13.5,9.17-23,3.86-7.7,7.84-15.12,8.85-16.5,1.02-1.37,2.12-4.08,2.45-6,.47-2.72-.04-4.72-2.33-9-1.61-3.02-5.93-11.12-9.59-18-3.66-6.87-7.12-12.95-7.7-13.5-.71-.68-1.52-.35-2.5,1-.79,1.1-2.11,4.25-2.92,7-.82,2.75-2.58,8.83-3.91,13.5-1.32,4.67-3.1,10.52-3.93,13-.84,2.48-1.81,6.3-2.15,8.5-.35,2.2-1.47,8.5-2.5,14-1.02,5.5-2.26,12.92-2.76,16.48l-.91,6.48,15.62,15.52c13.62,13.52,16.2,16.61,20.08,24.02h0ZM45.87,64.14c-.55-.3-1-1.09-1-1.75s1.47-6.9,3.25-13.88c1.79-6.97,3.58-12.48,4-12.25.41.24.75,1.33.75,2.43s-1.16,6.84-2.57,12.75-2.76,11.31-3,12-.88,1-1.43.7Z"/>
  <path d="M22.87,147.19c0,.27,2.81,4.63,6.25,9.68,3.44,5.05,7.83,11.46,9.77,14.25s5.76,8.07,8.5,11.74c2.74,3.66,6.78,9.22,8.98,12.34,2.2,3.13,4.56,6.43,5.25,7.34,1.04,1.36,1.19.42.84-5.35-.3-5.11.2-9.43,1.87-16,1.25-4.95,4.16-13.5,6.46-19l4.18-10c-12.36-24.88-12.56-25.14-27.06-39.5-8.06-7.98-16.23-16.52-18.17-19l-3.53-4.5c-1.63,6.98-3.7,15.75-5.66,24-1.95,8.25-3.83,16.83-4.17,19.06-.54,3.55-.17,4.72,2.93,9.25,1.96,2.86,3.56,5.42,3.56,5.69h0ZM24.21,124.77c.08-1.88.61-3.58,1.16-3.76.55-.19,1.29,2.25,1.65,5.42.37,3.17.93,6.77,1.25,8.01.42,1.58.16,2.25-.89,2.26-.81,0-1.69-1-1.96-2.25-.26-1.24-.68-3.16-.92-4.26-.25-1.1-.38-3.54-.29-5.42Z"/>
  <path d="M40.68,239.16c-2.37-4.41-7.01-13.07-10.31-19.25-3.3-6.17-6.56-11.22-7.25-11.22s-1.81-1.24-2.49-2.75-2.27-4.33-3.53-6.25-2.26-3.05-2.21-2.5c.04.55,1.34,4.6,2.89,9s3.17,8.9,3.61,10,4.26,6.95,8.48,13c4.23,6.05,8.95,13.02,10.5,15.5,1.54,2.48,4.43,6.42,6.41,8.77,1.97,2.36,3.81,4.06,4.09,3.79.28-.28-.94-2.65-2.69-5.28-1.76-2.63-5.13-8.39-7.5-12.81Z"/>
  <path d="M82.12,264.04c1.23-1.19,4.36-6.36,6.94-11.5s6.24-12.95,8.13-17.35c1.89-4.4,4.21-10.7,5.16-14,.95-3.3,2.99-10.95,4.53-17s3.61-14.82,4.6-19.5c1.26-5.96,1.79-12.84,1.79-23-.01-9.54-.79-20.14-2.28-31-1.47-10.66-3.05-18.2-4.45-21.29-1.2-2.63-2.4-4.77-2.67-4.74-.28.02-1.47,1.73-2.64,3.79s-6.27,11.62-11.33,21.24c-5.06,9.63-11.65,22.9-14.64,29.5-3,6.6-6.56,16.05-7.91,21-1.34,4.95-2.4,11.25-2.34,14s.5,8.04.98,11.75c.48,3.73,2.06,9.1,3.52,12,1.45,2.89,3.94,9.75,5.52,15.25,2.02,6.99,3.07,13.31,3.49,21,.33,6.05.77,11.23.98,11.5.2.28,1.38-.47,2.62-1.65ZM95.28,206.29c.36-1.16,1.74-6.37,3.06-11.6,1.32-5.22,2.62-12.87,2.88-17,.27-4.18.96-7.61,1.56-7.75s1.14.31,1.2,1c.07.69.03,3.95-.07,7.25-.11,3.3-1.25,10.28-2.54,15.5-1.28,5.23-2.82,10.74-3.42,12.25s-1.59,2.68-2.2,2.6c-.66-.09-.85-1.01-.47-2.25Z"/>
  <path d="M25.42,134.45c.27,1.25,1.15,2.26,1.96,2.25,1.05,0,1.31-.68.89-2.26-.32-1.24-.88-4.84-1.25-8.01-.36-3.17-1.1-5.61-1.65-5.42-.55.18-1.08,1.88-1.16,3.76-.09,1.88.04,4.32.29,5.42.24,1.1.66,3.02.92,4.26Z"/>
  <path class="st1" d="M25.42,134.45c.27,1.25,1.15,2.26,1.96,2.25,1.05,0,1.31-.68.89-2.26-.32-1.24-.88-4.84-1.25-8.01-.36-3.17-1.1-5.61-1.65-5.42-.55.18-1.08,1.88-1.16,3.76-.09,1.88.04,4.32.29,5.42.24,1.1.66,3.02.92,4.26Z"/>
  <path d="M52.87,38.69c0-1.1-.34-2.19-.75-2.43-.42-.23-2.21,5.28-4,12.25-1.78,6.98-3.25,13.22-3.25,13.88s.45,1.45,1,1.75c.55.3,1.19,0,1.43-.7.24-.69,1.59-6.09,3-12s2.57-11.65,2.57-12.75Z"/>
  <path class="st1" d="M52.87,38.69c0-1.1-.34-2.19-.75-2.43-.42-.23-2.21,5.28-4,12.25-1.78,6.98-3.25,13.22-3.25,13.88s.45,1.45,1,1.75c.55.3,1.19,0,1.43-.7.24-.69,1.59-6.09,3-12s2.57-11.65,2.57-12.75Z"/>
  <path d="M95.75,208.54c.61.08,1.6-1.09,2.2-2.6.6-1.51,2.14-7.02,3.42-12.25,1.29-5.22,2.43-12.2,2.54-15.5.1-3.3.14-6.56.07-7.25-.06-.69-.6-1.14-1.2-1s-1.29,3.57-1.56,7.75c-.26,4.13-1.56,11.78-2.88,17-1.32,5.23-2.7,10.44-3.06,11.6-.38,1.24-.19,2.16.47,2.25Z"/>
  <path class="st1" d="M95.75,208.54c.61.08,1.6-1.09,2.2-2.6.6-1.51,2.14-7.02,3.42-12.25,1.29-5.22,2.43-12.2,2.54-15.5.1-3.3.14-6.56.07-7.25-.06-.69-.6-1.14-1.2-1s-1.29,3.57-1.56,7.75c-.26,4.13-1.56,11.78-2.88,17-1.32,5.23-2.7,10.44-3.06,11.6-.38,1.24-.19,2.16.47,2.25Z"/>
  <path d="M78.58,272.69c.3-1.37,1.32-3.17,2.24-4,.93-.83,3.08-3.3,4.78-5.5,1.69-2.2,5.65-9.4,8.79-16s7.03-15.83,8.65-20.5c1.61-4.67,4.67-15.25,6.79-23.5s4.57-19.84,5.45-25.75c.87-5.91,1.59-14.24,1.59-18.5.01-4.26-.91-15.17-2.03-24.25-1.13-9.08-2.72-18.75-3.54-21.5s-2.61-6.91-3.96-9.25c-1.36-2.34-3.03-4.24-3.72-4.23-.73.01-2.42-4.05-4.05-9.75-1.54-5.37-3.45-12.69-4.25-16.27s-3.26-12.24-5.46-19.25c-2.29-7.34-4.52-12.76-5.24-12.77-.69-.02-2.31,1.9-3.61,4.25l-2.35,4.27c-5.5-9.3-9.42-16.5-12.25-22-2.84-5.5-6.37-11.91-7.85-14.25s-3.25-4.1-3.94-3.93c-.69.18-2.35,2.32-3.69,4.75-1.34,2.44-4.61,12.08-7.27,21.43-2.66,9.35-5.5,20.83-6.32,25.5-.83,4.67-2.17,11.09-2.98,14.25-.82,3.16-1.49,7.77-1.49,10.25s-.34,4.5-.75,4.5-2.18-1.69-3.92-3.75c-2.05-2.43-3.5-3.4-4.1-2.75-.51.55-1.5,5.05-2.2,10s-1.91,11.7-2.69,15-1.8,7.13-2.27,8.5c-.47,1.38-1.47,5.12-2.21,8.32l-1.36,5.83c-3.97-5.12-5.52-6.18-6.25-5.8-.91.48-1.21,4.08-1.09,13.4h0c.09,7.01.33,14.33.54,16.25.2,1.92,1.26,8,2.34,13.5,1.09,5.5,2.87,12.36,3.97,15.25l1.99,5.25c-4.4-.88-5.01-.58-5.02.75-.02.96,1.83,7.15,4.1,13.75,2.26,6.6,4.93,13.58,5.93,15.5.99,1.92,3.29,5.52,5.11,8s4.85,6.75,6.75,9.5c1.89,2.75,5.12,7.48,7.16,10.5s7.38,10,11.85,15.5M35.12,88.67c.5-3.56,1.74-10.98,2.76-16.48,1.03-5.5,2.15-11.8,2.5-14,.34-2.2,1.31-6.02,2.15-8.5.83-2.48,2.61-8.33,3.93-13,1.33-4.67,3.09-10.75,3.91-13.5.81-2.75,2.13-5.9,2.92-7,.98-1.35,1.79-1.68,2.5-1,.58.55,4.04,6.63,7.7,13.5,3.66,6.88,7.98,14.98,9.59,18,2.29,4.28,2.8,6.28,2.33,9-.33,1.92-1.43,4.63-2.45,6-1.01,1.38-4.99,8.8-8.85,16.5-4.76,9.5-7.7,16.89-9.17,23-1.19,4.95-1.92,9.11-1.62,9.25s1,.02,1.55-.25,1-1.4,1-2.5,1.35-6.05,3-11,4.63-12.26,6.63-16.25c2-3.99,5.68-10.85,8.19-15.25,2.5-4.4,5.59-10.14,6.87-12.75,1.27-2.61,2.65-4.76,3.06-4.77.41-.02,2.2,4.6,3.96,10.25,1.77,5.65,4.39,14.77,5.82,20.27s2.96,10.67,3.41,11.5,1.32,4.54,3.06,15l-4.13,7.75c-2.27,4.26-6.85,12.92-10.18,19.25s-6.54,12.51-7.12,13.74c-.59,1.24-1.41,2.25-1.82,2.25s-1.09-1-1.5-2.24-2.76-6.08-5.21-10.75c-3.88-7.41-6.46-10.5-20.08-24.02l-15.62-15.52.91-6.48h0ZM16.38,132.25c.34-2.23,2.22-10.81,4.17-19.06,1.96-8.25,4.03-17.02,5.66-24l3.53,4.5c1.94,2.48,10.11,11.02,18.17,19,14.5,14.36,14.7,14.62,27.06,39.5l-4.18,10c-2.3,5.5-5.21,14.05-6.46,19-1.67,6.57-2.17,10.89-1.87,16,.35,5.77.2,6.71-.84,5.35-.69-.91-3.05-4.21-5.25-7.34-2.2-3.12-6.24-8.68-8.98-12.34-2.74-3.67-6.56-8.95-8.5-11.74-1.94-2.79-6.33-9.2-9.77-14.25s-6.25-9.41-6.25-9.68-1.6-2.83-3.56-5.69c-3.1-4.53-3.47-5.7-2.93-9.25ZM50.87,257.25c-.28.27-2.12-1.43-4.09-3.79-1.98-2.35-4.87-6.29-6.41-8.77-1.55-2.48-6.27-9.45-10.5-15.5-4.22-6.05-8.04-11.9-8.48-13s-2.06-5.6-3.61-10-2.85-8.45-2.89-9c-.05-.55.95.58,2.21,2.5s2.85,4.74,3.53,6.25,1.8,2.75,2.49,2.75,3.95,5.05,7.25,11.22c3.3,6.18,7.94,14.84,10.31,19.25,2.37,4.42,5.74,10.18,7.5,12.81,1.75,2.63,2.97,5,2.69,5.28ZM57.17,260.69c-2.8-4.12-6.6-9.98-8.46-13-1.85-3.02-3.86-6.4-4.46-7.5s-5.43-10.21-10.73-20.25c-5.31-10.04-10.1-18.25-10.65-18.25s-1.63-1.91-2.41-4.25c-.77-2.34-2.81-8.08-4.52-12.75-1.72-4.67-3.84-12.33-4.71-17h0c-.88-4.67-1.93-12.77-2.33-18-.41-5.23-.77-10.4-.81-11.5-.05-1.1.23-2.84.6-3.87.53-1.45,3.12,1.87,11.68,14.94,6.05,9.24,15.47,22.9,20.93,30.36,5.46,7.47,12.27,16.94,15.13,21.07,2.86,4.12,7.1,11.33,9.44,16,2.33,4.67,5.28,12.1,6.55,16.5,1.27,4.4,2.79,10.92,3.37,14.5.59,3.58,1.06,10.33,1.06,15-.01,4.67-.4,9.17-.88,10-.48.83-1.38,1.16-1.99.75s-1.79-.3-2.61.25c-1.13.75-2.44.2-5.31-2.25-2.1-1.79-6.1-6.62-8.89-10.75h0ZM75.03,233.19c-1.58-5.5-4.07-12.36-5.52-15.25-1.46-2.9-3.04-8.27-3.52-12-.48-3.71-.92-9-.98-11.75s1-9.05,2.34-14c1.35-4.95,4.91-14.4,7.91-21,2.99-6.6,9.58-19.87,14.64-29.5,5.06-9.62,10.16-19.18,11.33-21.24s2.36-3.77,2.64-3.79c.27-.03,1.47,2.11,2.67,4.74,1.4,3.09,2.98,10.63,4.45,21.29,1.49,10.86,2.27,21.46,2.28,31,0,10.16-.53,17.04-1.79,23-.99,4.68-3.06,13.45-4.6,19.5s-3.58,13.7-4.53,17-3.27,9.6-5.16,14c-1.89,4.4-5.55,12.21-8.13,17.35-2.58,5.14-5.71,10.31-6.94,11.5-1.24,1.18-2.42,1.93-2.62,1.65-.21-.27-.65-5.45-.98-11.5-.42-7.69-1.47-14.01-3.49-21h0Z"/>
  <path class="st0" d="M70.5,282.95c.3-1.37,9.4-13.43,10.32-14.26.93-.83,3.08-3.3,4.78-5.5,1.69-2.2,5.65-9.4,8.79-16s7.03-15.83,8.65-20.5c1.61-4.67,4.67-15.25,6.79-23.5s4.57-19.84,5.45-25.75c.87-5.91,1.59-14.24,1.59-18.5.01-4.26-.91-15.17-2.03-24.25-1.13-9.08-2.72-18.75-3.54-21.5s-2.61-6.91-3.96-9.25c-1.36-2.34-3.03-4.24-3.72-4.23-.73.01-2.42-4.05-4.05-9.75-1.54-5.37-3.45-12.69-4.25-16.27s-3.26-12.24-5.46-19.25c-2.29-7.34-4.52-12.76-5.24-12.77-.69-.02-2.31,1.9-3.61,4.25l-2.35,4.27c-5.5-9.3-9.42-16.5-12.25-22-2.84-5.5-6.37-11.91-7.85-14.25s-3.25-4.1-3.94-3.93c-.69.18-2.35,2.32-3.69,4.75-1.34,2.44-4.61,12.08-7.27,21.43-2.66,9.35-5.5,20.83-6.32,25.5-.83,4.67-2.17,11.09-2.98,14.25-.82,3.16-1.49,7.77-1.49,10.25s-.34,4.5-.75,4.5-2.18-1.69-3.92-3.75c-2.05-2.43-3.5-3.4-4.1-2.75-.51.55-1.5,5.05-2.2,10s-1.91,11.7-2.69,15-1.8,7.13-2.27,8.5c-.47,1.38-1.47,5.12-2.21,8.32l-1.36,5.83c-3.97-5.12-5.52-6.18-6.25-5.8-.91.48-1.21,4.08-1.09,13.4h0c.09,7.01.33,14.33.54,16.25.2,1.92,1.26,8,2.34,13.5,1.09,5.5,2.87,12.36,3.97,15.25l1.99,5.25c-4.4-.88-5.01-.58-5.02.75-.02.96,1.83,7.15,4.1,13.75,2.26,6.6,4.93,13.58,5.93,15.5.99,1.92,3.29,5.52,5.11,8s4.85,6.75,6.75,9.5c1.89,2.75,5.12,7.48,7.16,10.5s21.64,31.48,26.11,36.98M35.12,88.67c.5-3.56,1.74-10.98,2.76-16.48,1.03-5.5,2.15-11.8,2.5-14,.34-2.2,1.31-6.02,2.15-8.5.83-2.48,2.61-8.33,3.93-13,1.33-4.67,3.09-10.75,3.91-13.5.81-2.75,2.13-5.9,2.92-7,.98-1.35,1.79-1.68,2.5-1,.58.55,4.04,6.63,7.7,13.5,3.66,6.88,7.98,14.98,9.59,18,2.29,4.28,2.8,6.28,2.33,9-.33,1.92-1.43,4.63-2.45,6-1.01,1.38-4.99,8.8-8.85,16.5-4.76,9.5-7.7,16.89-9.17,23-1.19,4.95-1.92,9.11-1.62,9.25s1,.02,1.55-.25,1-1.4,1-2.5,1.35-6.05,3-11,4.63-12.26,6.63-16.25c2-3.99,5.68-10.85,8.19-15.25,2.5-4.4,5.59-10.14,6.87-12.75,1.27-2.61,2.65-4.76,3.06-4.77.41-.02,2.2,4.6,3.96,10.25,1.77,5.65,4.39,14.77,5.82,20.27s2.96,10.67,3.41,11.5,1.32,4.54,3.06,15l-4.13,7.75c-2.27,4.26-6.85,12.92-10.18,19.25s-6.54,12.51-7.12,13.74c-.59,1.24-1.41,2.25-1.82,2.25s-1.09-1-1.5-2.24-2.76-6.08-5.21-10.75c-3.88-7.41-6.46-10.5-20.08-24.02l-15.62-15.52.91-6.48h0ZM16.38,132.25c.34-2.23,2.22-10.81,4.17-19.06,1.96-8.25,4.03-17.02,5.66-24l3.53,4.5c1.94,2.48,10.11,11.02,18.17,19,14.5,14.36,14.7,14.62,27.06,39.5l-4.18,10c-2.3,5.5-5.21,14.05-6.46,19-1.67,6.57-2.17,10.89-1.87,16,.35,5.77.2,6.71-.84,5.35-.69-.91-3.05-4.21-5.25-7.34-2.2-3.12-6.24-8.68-8.98-12.34-2.74-3.67-6.56-8.95-8.5-11.74-1.94-2.79-6.33-9.2-9.77-14.25s-6.25-9.41-6.25-9.68-1.6-2.83-3.56-5.69c-3.1-4.53-3.47-5.7-2.93-9.25ZM50.87,257.25c-.28.27-2.12-1.43-4.09-3.79-1.98-2.35-4.87-6.29-6.41-8.77-1.55-2.48-6.27-9.45-10.5-15.5-4.22-6.05-8.04-11.9-8.48-13s-2.06-5.6-3.61-10-2.85-8.45-2.89-9c-.05-.55.95.58,2.21,2.5s2.85,4.74,3.53,6.25,1.8,2.75,2.49,2.75,3.95,5.05,7.25,11.22c3.3,6.18,7.94,14.84,10.31,19.25,2.37,4.42,5.74,10.18,7.5,12.81,1.75,2.63,2.97,5,2.69,5.28ZM57.17,260.69c-2.8-4.12-6.6-9.98-8.46-13-1.85-3.02-3.86-6.4-4.46-7.5s-5.43-10.21-10.73-20.25c-5.31-10.04-10.1-18.25-10.65-18.25s-1.63-1.91-2.41-4.25c-.77-2.34-2.81-8.08-4.52-12.75-1.72-4.67-3.84-12.33-4.71-17h0c-.88-4.67-1.93-12.77-2.33-18-.41-5.23-.77-10.4-.81-11.5-.05-1.1.23-2.84.6-3.87.53-1.45,3.12,1.87,11.68,14.94,6.05,9.24,15.47,22.9,20.93,30.36,5.46,7.47,12.27,16.94,15.13,21.07,2.86,4.12,7.1,11.33,9.44,16,2.33,4.67,5.28,12.1,6.55,16.5,1.27,4.4,2.79,10.92,3.37,14.5.59,3.58,1.06,10.33,1.06,15-.01,4.67-.4,9.17-.88,10-.48.83-1.38,1.16-1.99.75s-1.79-.3-2.61.25c-1.13.75-2.44.2-5.31-2.25-2.1-1.79-6.1-6.62-8.89-10.75h0ZM75.03,233.19c-1.58-5.5-4.07-12.36-5.52-15.25-1.46-2.9-3.04-8.27-3.52-12-.48-3.71-.92-9-.98-11.75s1-9.05,2.34-14c1.35-4.95,4.91-14.4,7.91-21,2.99-6.6,9.58-19.87,14.64-29.5,5.06-9.62,10.16-19.18,11.33-21.24s2.36-3.77,2.64-3.79c.27-.03,1.47,2.11,2.67,4.74,1.4,3.09,2.98,10.63,4.45,21.29,1.49,10.86,2.27,21.46,2.28,31,0,10.16-.53,17.04-1.79,23-.99,4.68-3.06,13.45-4.6,19.5s-3.58,13.7-4.53,17-3.27,9.6-5.16,14c-1.89,4.4-5.55,12.21-8.13,17.35-2.58,5.14-5.71,10.31-6.94,11.5-1.24,1.18-2.42,1.93-2.62,1.65-.21-.27-.65-5.45-.98-11.5-.42-7.69-1.47-14.01-3.49-21h0Z"/>
</svg>