<?xml version="1.0" encoding="UTF-8"?>
<svg id="Layer_1" xmlns="http://www.w3.org/2000/svg" version="1.1" viewBox="0 0 187 205.07">
  <!-- Generator: Adobe Illustrator 30.2.1, SVG Export Plug-In . SVG Version: 2.1.1 Build 1)  -->
  <defs>
    <style>
      .st0, .st1 {
        isolation: isolate;
      }

      .st2 {
        fill: #fff;
      }

      .st1 {
        stroke: #000;
        stroke-miterlimit: 10;
      }
    </style>
  </defs>
  <path class="st2" d="M116.96,53.75l1.04,4.25c11.89-10.37,12.53-11.32,12.8-15.2.16-2.37-.68-10.15-1.88-17.3-1.19-7.15-2.51-13.45-2.94-14-.45-.58-2.15,1.09-4.07,4-1.82,2.75-5.02,8.71-7.11,13.25-2.09,4.54-3.79,8.59-3.78,9s1.12,3.22,2.46,6.25,2.91,7.41,3.48,9.75Z"/>
  <path class="st2" d="M90,70.85c2.2,1.73,5.35,5.4,7,8.15s3.34,4.99,3.75,4.98c.41-.01,1.88-2.58,3.25-5.72,1.38-3.14,4.42-8.2,6.77-11.24,2.35-3.03,4.27-6.2,4.26-7.02,0-.83-.75-3.97-1.65-7-.89-3.03-2.2-6.4-2.89-7.5-.7-1.1-2.05-4.47-3.01-7.5s-1.91-5.84-2.11-6.25-1.32.04-2.47,1c-1.16.96-4.5,5.8-7.43,10.75-2.92,4.95-6.26,12.15-7.41,16-1.16,3.85-2.09,7.27-2.08,7.6.01.33,1.82,2.02,4.02,3.75Z"/>
  <path class="st2" d="M58.05,74.8l3.95,3.2c.02-4.26.92-8.54,2.02-12.25,1.09-3.71,2.54-7.03,3.23-7.38.69-.34,4.48,1.12,8.42,3.25,3.95,2.13,7.44,3.65,7.77,3.38.32-.28.87-2.3,1.22-4.5.54-3.36.11-4.96-2.69-10-1.83-3.3-4.92-8.03-6.85-10.5s-4.63-5.63-6-7c-1.36-1.38-4.31-3.74-6.55-5.25s-4.8-2.71-5.69-2.67c-1.39.06-1.72,2.15-2.28,14.25-.36,7.79-.81,16.87-1.01,20.17-.2,3.3-.16,7.37.08,9.05.29,2.03,1.75,4.11,4.38,6.25Z"/>
  <path class="st2" d="M55,113.28c4.13,3.33,8.07,6.77,8.77,7.64,1.13,1.41,1.27,1.36,1.37-.42.05-1.1.08-2.23.06-2.5-.02-.28-.55-7.03-1.18-15-.68-8.6-1.79-15.93-2.71-18-.86-1.92-2.3-4.35-3.19-5.38s-4.88-4.29-8.87-7.25c-3.99-2.95-10.06-7.1-13.5-9.21s-7.71-4.51-9.5-5.32c-1.79-.82-3.2-1.23-3.15-.91.06.31.88,2.37,1.82,4.57.95,2.2,3.25,7.37,5.11,11.5h0c1.87,4.12,5.4,11.32,7.86,16,2.45,4.67,5.62,10.69,7.03,13.37,1.71,3.23,5.1,6.89,10.08,10.91ZM43.08,84.14c-.51.08-2.57-1.82-4.58-4.21-3.14-3.76-3.4-4.41-1.83-4.71h0c1.13-.21,2.87.93,4.54,2.97,1.49,1.82,2.73,3.87,2.75,4.56.02.69-.37,1.31-.88,1.39Z"/>
  <path class="st2" d="M118.1,62.6c-2.97,3.25-6.53,7.7-7.91,9.9-1.38,2.2-3.5,6.92-4.71,10.5-1.66,4.87-2.12,8.19-1.84,13.25.22,4.08-.04,6.75-.64,6.75-.55,0-1.01-1.01-1.01-2.25-.01-1.24-.5-3.83-1.09-5.75-.59-1.93-2.5-6.35-4.24-9.84-1.78-3.58-5.34-8.42-8.16-11.1-2.75-2.61-8.26-6.39-12.25-8.41-3.99-2.01-7.43-3.54-7.65-3.4s-1.12,2.72-2.01,5.75c-.88,3.02-1.53,7.52-1.44,10,.1,2.47.49,9.45.88,15.5.38,6.05,1.2,14.15,1.82,18h0c.61,3.85,1.23,8.89,1.38,11.2.15,2.39.97,4.76,1.89,5.5.89.71,3.62,4.9,6.07,9.3,2.44,4.4,5.48,11.15,6.75,15s2.59,7.31,2.93,7.7c.35.38.73-2.55.84-6.5.13-4.53,1.35-11.1,3.28-17.7,2.2-7.53,4.94-13.75,9.69-22,3.64-6.33,10.49-17.06,15.22-23.86s11.19-14.79,14.35-17.75c4.48-4.2,6.25-5.26,8-4.81,2.08.53,2.38,0,3.98-6.75.96-4.03,2.08-10.62,2.5-14.65.42-4.02.66-7.51.52-7.75-.14-.23-5.09,3.78-11,8.92-5.91,5.15-13.18,12.01-16.15,15.25h0Z"/>
  <path class="st2" d="M144.68,67.77c.45-.32,5.72-3.46,11.7-6.99h0c5.98-3.53,11.27-6.49,11.75-6.6.48-.1,1.11-1.87,1.41-3.93s.3-4.54,0-5.5-1.44-1.75-2.54-1.75c-1.18,0-5.5,3.5-10.5,8.5-4.68,4.67-9.43,10.38-10.57,12.67-1.14,2.3-1.71,3.92-1.25,3.6Z"/>
  <path class="st2" d="M98.67,162.25c2.02-.96,5.44-3.78,7.59-6.25,2.16-2.48,5.84-7.42,8.19-11,2.34-3.58,6.33-11.67,8.85-18,2.53-6.33,5.69-14.65,7.03-18.5,1.33-3.85,3.13-10.15,3.99-14s2.07-10.38,2.69-14.5c.62-4.13,1.32-7.84,1.56-8.25s-.13-1.03-.82-1.36c-.72-.36-3.49,1.66-6.54,4.75-2.91,2.95-8.31,9.61-12,14.81-3.69,5.19-7.16,10.24-7.71,11.22-.55.97-4.04,6.96-7.75,13.3-3.71,6.34-7.89,15.02-9.28,19.28-1.4,4.26-2.77,9.55-3.06,11.75-.28,2.2-.72,5.39-.97,7.08-.26,1.7-.23,3.31.06,3.57.29.27.64,2.82.76,5.67.13,2.85.58,5.18.99,5.18s1.43-.23,2.25-.5c.82-.28,1.27-.95,1-1.5s1.15-1.79,3.17-2.75h0ZM103.83,142.6c1.29-.6,3.31-3.02,4.5-5.37,1.19-2.36,2.73-4.27,3.42-4.25.69,0,1.25.25,1.25.52s-1.12,2.75-2.5,5.5c-1.37,2.75-2.95,5.23-3.5,5.5s-2.01.21-3.25-.15l-2.25-.65,2.33-1.1h0Z"/>
  <path class="st2" d="M114.12,159c-2.99,3.53-5.52,5.18-11.72,7.66-4.34,1.73-10.71,3.61-14.15,4.17s-6.25,1.43-6.25,1.93,1.69,1.36,3.75,1.91c3.12.85,4.84.62,10.25-1.35,3.57-1.3,7.29-2.35,8.25-2.34.96,0,2.43-1.33,3.25-2.98s2.06-3.02,2.75-3.05,2.71-1.83,4.5-4,3.23-4.51,3.22-5.2c-.02-.69-1.76.77-3.85,3.25Z"/>
  <path class="st2" d="M85.39,166.25c-.33-.96-1.94-5.8-3.58-10.75-1.63-4.95-4.59-11.7-6.57-15-1.99-3.3-6.79-9.3-10.67-13.33-3.89-4.04-12.25-11.7-18.57-17.04-6.32-5.33-14.2-11.72-17.5-14.19-3.3-2.48-7.91-5.72-10.25-7.22s-4.48-2.72-4.75-2.72-.48.34-.46.75,3.06,6.64,6.75,13.84c3.69,7.2,8.72,15.75,11.17,19h0c2.45,3.25,9.88,11.33,16.5,17.96,6.62,6.62,15.86,16.18,20.54,21.23,8.4,9.08,8.55,9.18,13.25,9.2,4.09.02,4.67-.22,4.14-1.73h0Z"/>
  <path class="st2" d="M169.75,55.89c-1.79,1.05-4.82,2.74-6.75,3.78-1.93,1.03-4.85,2.74-6.5,3.8-1.65,1.06-5.48,4.19-8.5,6.95-3.02,2.77-6.04,5.94-6.69,7.06-.66,1.11-1.49,4.5-1.86,7.52-.36,3.02-1.52,8.65-2.57,12.5s-3.31,10.83-5.02,15.5-3.68,9.62-4.37,11c-.69,1.37-2.47,5.65-3.96,9.5s-4.25,9.14-6.12,11.75c-1.88,2.61-3.42,5.09-3.42,5.5-.01.41-2.15,2.89-4.75,5.51-3.37,3.38-4.23,4.76-2.99,4.75.96,0,6.19-4.4,11.62-9.76h0c7.27-7.19,12.08-13.16,18.31-22.75,4.64-7.15,11.77-18.63,15.84-25.5,4.06-6.88,10.06-17.67,13.32-24,3.38-6.54,6.47-14.09,7.17-17.5.67-3.3,1.06-6.34.86-6.75-.21-.41-1.83.1-3.62,1.14ZM148.14,96c-1.07,1.92-2.67,3.81-3.54,4.2-.88.39-1.6.28-1.6-.25s1.16-2.86,2.58-5.2c1.69-2.79,2.91-3.91,3.55-3.25.63.65.28,2.23-.99,4.5Z"/>
  <path class="st2" d="M104.92,183c.42-4.68.73-8.61.68-8.74-.06-.13-2.12.72-4.6,1.89-2.88,1.36-6.39,2.1-9.75,2.07-2.89-.03-5.25.05-5.25.17,0,.11.84.83,1.87,1.6,1.03.76,2.72,3.32,3.75,5.69h0c1.03,2.37,2.44,4.31,3.13,4.32.69,0,1.7.9,2.25,2"/>
  <path class="st1" d="M106.75,192c4.34-8.55,8.45-27.78,10.54-30.52,2.08-2.74,4.27-6.56,4.86-8.48.6-1.92,2.78-5.3,4.86-7.5,2.08-2.2,7.57-9.85,12.2-17,4.63-7.15,10.39-16.38,12.8-20.5,2.4-4.13,4.86-8.4,5.46-9.5.59-1.1,2.31-3.91,3.81-6.25,1.49-2.34,5.27-9.31,8.38-15.5,4-7.94,5.9-13.02,6.45-17.25.43-3.3,1.03-7.01,1.34-8.25.35-1.42.09-2.26-.7-2.27h0c-.69,0-1.82.56-2.52,1.25-1.02,1.03-1.28.98-1.36-.23-.05-.83-.02-2.63.06-4,.08-1.38-.65-3.3-1.64-4.28-.98-.98-2.69-1.76-3.79-1.72-1.1.03-3.35,1.1-5,2.38-1.65,1.27-5.7,5.08-9,8.47-3.3,3.38-6.13,6.03-6.3,5.9-.16-.14.29-5.28,1-11.44.72-6.15.96-11.44.55-11.75s-2.21.44-4,1.67c-1.79,1.22-4.82,3.69-6.75,5.47l-3.5,3.25c-2.03-13.52-3.04-20.71-3.56-24.7-.52-3.99-1.39-8.38-1.94-9.75-.6-1.5-1.8-2.5-3-2.5-1.33,0-3.07,1.74-5.21,5.25-1.76,2.89-5.07,8.85-7.35,13.25l-4.14,8c-2.17-5.1-3.48-6.54-4.3-6.5s-3.75,3.23-6.5,7.08-6.24,9.46-7.75,12.46-3.09,5.46-3.5,5.45-2.32-2.78-4.25-6.17-6.87-9.62-11-13.85c-6.62-6.79-8.12-7.83-12.75-8.84-2.89-.62-5.7-.91-6.25-.63-.61.31-.81,3.99-.5,9.5.31,5.51.11,9.19-.5,9.5-.59.29-.96,5.14-.89,11.75.06,6.19-.17,12.26-.5,13.5-.6,2.2-.75,2.16-6.86-2.01-3.44-2.34-8.73-5.75-11.75-7.58-3.02-1.82-7.42-3.62-9.77-3.99-2.34-.37-4.26-.45-4.26-.17s.91,2.41,2.02,4.75c1.1,2.34,2.01,4.59,2,5s1.75,4.35,3.9,8.75,5.05,10.47,6.43,13.5c1.39,3.02,3.95,7.96,5.7,10.96l3.17,5.46c-7.13-5.36-13.36-9.74-18.45-13.19-5.08-3.45-10.25-6.26-11.49-6.25-1.5.01-2.25.63-2.25,1.84,0,1,2.86,7.64,6.37,14.75,3.5,7.11,8.56,16.16,11.25,20.1,2.68,3.95,11.63,14.12,19.88,22.61s17.25,17.99,20,21.12c2.75,3.13,5.34,6.57,5.75,7.65.41,1.07,2.44,2.99,4.5,4.27s4.76,3.75,6,5.5,2.25,3.97,2.26,4.93c0,.96,11.43,17.2,16.49,14.86M156.5,51.5c5-5,9.32-8.5,10.5-8.5,1.1,0,2.24.79,2.54,1.75s.3,3.44,0,5.5-.93,3.83-1.41,3.93c-.48.11-5.77,3.07-11.75,6.6h0c-5.98,3.53-11.25,6.67-11.7,6.99-.46.32.11-1.3,1.25-3.6,1.14-2.29,5.89-8,10.57-12.67ZM134.25,47.35c5.91-5.14,10.86-9.15,11-8.92.14.24-.1,3.73-.52,7.75-.42,4.03-1.54,10.62-2.5,14.65-1.6,6.76-1.9,7.28-3.98,6.75-1.75-.45-3.52.61-8,4.81-3.16,2.96-9.62,10.95-14.35,17.75-4.73,6.8-11.58,17.53-15.22,23.86-4.75,8.25-7.49,14.47-9.69,22-1.93,6.6-3.15,13.17-3.28,17.7-.11,3.95-.49,6.88-.84,6.5-.34-.39-1.66-3.85-2.93-7.7-1.27-3.85-4.31-10.6-6.75-15-2.45-4.4-5.18-8.59-6.07-9.3-.92-.74-1.74-3.11-1.89-5.5-.15-2.31-.77-7.35-1.38-11.2h0c-.62-3.85-1.44-11.95-1.82-18-.39-6.05-.78-13.03-.88-15.5-.09-2.48.56-6.98,1.44-10,.89-3.03,1.79-5.61,2.01-5.75s3.66,1.39,7.65,3.4c3.99,2.02,9.5,5.8,12.25,8.41,2.82,2.68,6.38,7.52,8.16,11.1,1.74,3.49,3.65,7.91,4.24,9.84.59,1.92,1.08,4.51,1.09,5.75,0,1.24.46,2.25,1.01,2.25.6,0,.86-2.67.64-6.75-.28-5.06.18-8.38,1.84-13.25,1.21-3.58,3.33-8.3,4.71-10.5s4.94-6.65,7.91-9.9c2.97-3.24,10.24-10.1,16.15-15.25ZM95.5,165c.27.55-.18,1.22-1,1.5-.82.27-1.84.5-2.25.5s-.86-2.33-.99-5.18c-.12-2.85-.47-5.4-.76-5.67-.29-.26-.32-1.87-.06-3.57.25-1.69.69-4.88.97-7.08.29-2.2,1.66-7.49,3.06-11.75,1.39-4.26,5.57-12.94,9.28-19.28s7.2-12.33,7.75-13.3c.55-.98,4.02-6.03,7.71-11.22,3.69-5.2,9.09-11.86,12-14.81,3.05-3.09,5.82-5.11,6.54-4.75.69.33,1.06.95.82,1.36s-.94,4.12-1.56,8.25c-.62,4.12-1.83,10.65-2.69,14.5s-2.66,10.15-3.99,14c-1.34,3.85-4.5,12.17-7.03,18.5-2.52,6.33-6.51,14.42-8.85,18-2.35,3.58-6.03,8.52-8.19,11-2.15,2.47-5.57,5.29-7.59,6.25s-3.44,2.2-3.17,2.75h0ZM114.8,28.75c2.09-4.54,5.29-10.5,7.11-13.25,1.92-2.91,3.62-4.58,4.07-4,.43.55,1.75,6.85,2.94,14,1.2,7.15,2.04,14.93,1.88,17.3-.27,3.88-.91,4.83-12.8,15.2l-1.04-4.25c-.57-2.34-2.14-6.72-3.48-9.75-1.34-3.03-2.45-5.84-2.46-6.25s1.69-4.46,3.78-9ZM88.06,59.5c1.15-3.85,4.49-11.05,7.41-16,2.93-4.95,6.27-9.79,7.43-10.75,1.15-.96,2.27-1.41,2.47-1,.2.41,1.15,3.22,2.11,6.25s2.31,6.4,3.01,7.5c.69,1.1,2,4.47,2.89,7.5.9,3.03,1.65,6.17,1.65,7,.01.82-1.91,3.99-4.26,7.02-2.35,3.04-5.39,8.1-6.77,11.24-1.37,3.14-2.84,5.71-3.25,5.72s-2.1-2.23-3.75-4.98-4.8-6.42-7-8.15-4.01-3.42-4.02-3.75c-.01-.33.92-3.75,2.08-7.6h0ZM53.59,59.5c.2-3.3.65-12.38,1.01-20.17.56-12.1.89-14.19,2.28-14.25.89-.04,3.45,1.16,5.69,2.67,2.24,1.51,5.19,3.87,6.55,5.25,1.37,1.37,4.07,4.53,6,7s5.02,7.2,6.85,10.5c2.8,5.04,3.23,6.64,2.69,10-.35,2.2-.9,4.22-1.22,4.5-.33.27-3.82-1.25-7.77-3.38-3.94-2.13-7.73-3.59-8.42-3.25-.69.35-2.14,3.67-3.23,7.38-1.1,3.71-2,7.99-2.02,12.25l-3.95-3.2c-2.63-2.14-4.09-4.22-4.38-6.25-.24-1.68-.28-5.75-.08-9.05ZM37.89,89c-2.46-4.68-5.99-11.88-7.86-16h0c-1.86-4.13-4.16-9.3-5.11-11.5-.94-2.2-1.76-4.26-1.82-4.57-.05-.32,1.36.09,3.15.91,1.79.81,6.06,3.21,9.5,5.32,3.44,2.11,9.51,6.26,13.5,9.21,3.99,2.96,7.98,6.22,8.87,7.25s2.33,3.46,3.19,5.38c.92,2.07,2.03,9.4,2.71,18,.63,7.97,1.16,14.72,1.18,15,.02.27,0,1.4-.06,2.5-.1,1.78-.24,1.83-1.37.42-.7-.87-4.64-4.31-8.77-7.64-4.98-4.02-8.37-7.68-10.08-10.91-1.41-2.68-4.58-8.7-7.03-13.37ZM81.25,167.98c-4.7-.02-4.85-.12-13.25-9.2-4.68-5.05-13.92-14.61-20.54-21.23-6.62-6.63-14.05-14.71-16.5-17.96h0c-2.45-3.25-7.48-11.8-11.17-19s-6.73-13.43-6.75-13.84.19-.75.46-.75,2.41,1.22,4.75,2.72c2.34,1.5,6.95,4.74,10.25,7.22,3.3,2.47,11.18,8.86,17.5,14.19,6.32,5.34,14.68,13,18.57,17.04,3.88,4.03,8.68,10.03,10.67,13.33,1.98,3.3,4.94,10.05,6.57,15,1.64,4.95,3.25,9.79,3.58,10.75.53,1.51-.05,1.75-4.14,1.73ZM97,192c-.55-1.1-1.56-2-2.25-2s-2.1-1.95-3.13-4.32h0c-1.03-2.37-2.72-4.93-3.75-5.69-1.03-.77-1.87-1.49-1.87-1.6,0-.12,2.36-.2,5.25-.17,3.36.03,6.87-.71,9.75-2.07,2.48-1.17,4.54-2.02,4.6-1.89.05.13-.26,4.06-.68,8.74M114.75,160.95c-1.79,2.17-3.81,3.97-4.5,4s-1.93,1.4-2.75,3.05-2.29,2.99-3.25,2.98c-.96,0-4.68,1.04-8.25,2.34-5.41,1.97-7.13,2.2-10.25,1.35-2.06-.55-3.75-1.42-3.75-1.91s2.81-1.37,6.25-1.93,9.81-2.44,14.15-4.17c6.2-2.48,8.73-4.13,11.72-7.66,2.09-2.48,3.83-3.94,3.85-3.25.01.69-1.43,3.03-3.22,5.2ZM172.51,61.5c-.7,3.41-3.79,10.96-7.17,17.5-3.26,6.33-9.26,17.12-13.32,24-4.07,6.87-11.2,18.35-15.84,25.5-6.23,9.59-11.04,15.56-18.31,22.75h0c-5.43,5.36-10.66,9.76-11.62,9.76-1.24,0-.38-1.37,2.99-4.75,2.6-2.62,4.74-5.1,4.75-5.51,0-.41,1.54-2.89,3.42-5.5,1.87-2.61,4.63-7.9,6.12-11.75,1.49-3.85,3.27-8.13,3.96-9.5.69-1.38,2.66-6.33,4.37-11s3.97-11.65,5.02-15.5,2.21-9.48,2.57-12.5c.37-3.02,1.2-6.41,1.86-7.52.65-1.12,3.67-4.29,6.69-7.06,3.02-2.76,6.85-5.89,8.5-6.95s4.57-2.77,6.5-3.8c1.93-1.04,4.96-2.73,6.75-3.78,1.79-1.04,3.41-1.55,3.62-1.14.2.41-.19,3.45-.86,6.75Z"/>
  <path class="st0" d="M36.67,75.22h0c-1.57.3-1.31.95,1.83,4.71,2.01,2.39,4.07,4.29,4.58,4.21s.9-.7.88-1.39-1.26-2.74-2.75-4.56c-1.67-2.04-3.41-3.18-4.54-2.97Z"/>
  <path class="st0" d="M145.58,94.75c-1.42,2.34-2.58,4.68-2.58,5.2s.72.64,1.6.25c.87-.39,2.47-2.28,3.54-4.2,1.27-2.27,1.62-3.85.99-4.5-.64-.66-1.86.46-3.55,3.25Z"/>
  <path class="st0" d="M107,144.5c.55-.27,2.13-2.75,3.5-5.5,1.38-2.75,2.5-5.23,2.5-5.5s-.56-.51-1.25-.52c-.69-.02-2.23,1.89-3.42,4.25-1.19,2.35-3.21,4.77-4.5,5.37l-2.33,1.1,2.25.65c1.24.36,2.7.42,3.25.15h0Z"/>
</svg>