<?xml version="1.0" encoding="UTF-8"?>
<svg id="Layer_1" xmlns="http://www.w3.org/2000/svg" version="1.1" viewBox="0 0 112.9 516.91">
  <!-- Generator: Adobe Illustrator 30.0.0, SVG Export Plug-In . SVG Version: 2.1.1 Build 123)  -->
  <defs>
    <style>
      .st0 {
        fill: #fff;
        isolation: isolate;
      }

      .st0, .st1 {
        stroke: #fff;
        stroke-miterlimit: 10;
      }
    </style>
  </defs>
  <path class="st1" d="M68.23,125.57c1.74-.1,4.52.49,6.17,1.32s4.73,4.09,6.85,7.25,4.82,8,6.01,10.75c1.18,2.75,2.31,4.77,2.51,4.5.19-.27-.05-4.1-.54-8.5s-1.55-11.15-2.37-15c-.85-4.02-2.32-7.85-3.46-9-1.93-1.93-2.15-1.95-6.75-.31-2.61.92-6.33,1.97-8.25,2.32s-4.29.83-5.25,1.06c-.96.24-1.75.81-1.75,1.28s.82,1.68,1.83,2.68h0c1.11,1.12,3.06,1.76,5,1.65Z"/>
  <path class="st1" d="M65.15,116.51c3.13.08,6.29-.66,9.25-2.14,2.48-1.24,5.58-3.43,6.9-4.87,2.19-2.39,2.34-3.19,1.81-9.61-.42-5.08-.18-7.76.86-9.75.84-1.61,1.61-6.8,1.86-12.5.33-7.63.85-10.29,2.35-12.25,1.06-1.37,2.26-3.62,2.68-5,.41-1.37,2.28-4.75,4.14-7.5,3.1-4.56,3.53-6.13,4.94-18,.86-7.15,1.19-13.34.76-13.76-.44-.42-4.85,1.09-9.8,3.35-4.95,2.27-12.6,5.44-17,7.05-4.4,1.62-13.4,4.52-20,6.45-6.6,1.94-16.5,4.16-22,4.94-5.5.79-12.59,1.44-15.75,1.45s-6.88-.43-8.25-.98c-2.1-.84-2.49-.72-2.45.75.02.96.67,3.55,1.42,5.75h0c.76,2.2,2.14,6.7,3.07,10,.93,3.3,2.27,6.67,2.97,7.5.71.83,3.2,2.17,5.53,3,2.34.83,5.11,2.63,6.15,4,1.05,1.38,2.83,4.98,3.95,8,1.13,3.02,2.98,6.85,4.11,8.5,1.14,1.65,3.76,4.58,5.82,6.5s4.26,5.08,4.9,7,2.67,5.75,4.52,8.5c1.84,2.75,4.28,5.9,5.42,7l2.08,2c4.61-5.06,5.77-5.48,9.76-5.38ZM84.9,42.39c.83,0,1.95,1.35,2.5,3s.77,3.45.5,4-.88,1.1-1.36,1.23c-.47.13-1.32-1.34-1.89-3.25-.58-1.91-1.09-3.82-1.15-4.23-.05-.41.57-.75,1.4-.75ZM26.93,63.39c-.53.28-1.48-1.26-2.1-3.41-.83-2.84-.84-4.02-.03-4.34.6-.23,1.45-.05,1.88.41s.88,2.19,1,3.84-.22,3.23-.75,3.5ZM35.65,87.87c-.41.26-1.09.19-1.5-.17-.41-.35-.75-1.47-.75-2.48s.67-1.83,1.5-1.83,1.5.89,1.5,2-.34,2.21-.75,2.48ZM47.9,67.05c-.55.19-1.98-2.24-3.17-5.41-1.19-3.16-2.2-6.31-2.25-7-.04-.69.48-1.25,1.17-1.25.69,0,2.01,1.92,2.94,4.25.93,2.34,1.83,5.33,2,6.66.17,1.32-.14,2.56-.69,2.75ZM74.9,67.89c1.92-.83,4.17-1.5,5-1.5s1.5.34,1.51.75c0,.41-1.46,1.59-3.25,2.62-1.79,1.03-4.05,1.6-5.01,1.27-.96-.32-1.75-.83-1.75-1.12s1.58-1.19,3.5-2.02ZM64.6,48.26c.72-.41,1.64-.54,2.05-.3.41.23,1.42,2.01,2.25,3.93.83,1.92,1.5,4.4,1.5,5.5s-.45,2-1,2-1.56-1.85-2.25-4.11-1.83-4.6-2.55-5.2c-1.06-.89-1.06-1.22,0-1.82Z"/>
  <path class="st1" d="M76.47,176.39c.57,5.77,1.68,14.77,2.46,20l1.42,9.5c-.76-25.58-1.42-35.7-1.96-39-.53-3.3-1.68-10.27-2.55-15.5s-2.11-12.54-2.76-16.25c-1.17-6.72-1.2-6.76-4.43-6.75-1.79,0-3.24.11-3.22.25s.58.95,1.25,1.81h0c.67.85,1.84,4.45,2.59,8,.76,3.54,2.46,11.17,3.77,16.94,1.32,5.77,2.87,15.23,3.43,21h0Z"/>
  <path class="st1" d="M9.47,41.3c2.49.75,6.71.62,15.43-.47,6.6-.82,16.95-2.81,23-4.42,6.05-1.6,15.27-4.48,20.5-6.39,5.23-1.91,11.3-4.21,13.5-5.13,2.2-.91,6.7-2.94,10-4.51,3.42-1.63,6.48-3.85,7.11-5.17.81-1.7.81-2.94,0-4.63-.61-1.28-3.13-3.29-5.61-4.48-2.87-1.38-7.04-2.3-11.5-2.54-3.85-.21-10.38.13-14.5.77-4.13.63-10.88,2.21-15,3.52-4.13,1.31-12.67,4.7-19,7.53-6.33,2.82-13.75,6.51-16.5,8.18s-6.67,4.9-8.71,7.18-3.72,4.82-3.73,5.65c-.02.83.33,2.04.78,2.69h0c.44.66,2.34,1.66,4.23,2.22ZM84.65,8.94c.69-.24,2.05.1,3.03.75,1.52,1.02,1.59,1.49.5,3.1-.81,1.21-1.91,1.67-3.03,1.28-.96-.35-1.75-1.54-1.75-2.66s.56-2.22,1.25-2.47ZM82.21,17.8c.38-.86,1.59-1.41,2.68-1.24,1.09.18,2.14,1,2.32,1.83s-.5,1.84-1.49,2.25c-1,.42-2.36.3-3.01-.26-.66-.57-.88-1.73-.5-2.58ZM77.2,20.19c-1.39,1.39-1.97,1.47-3.19.43h0c-.82-.7-1.31-1.82-1.09-2.5s1.1-1.57,1.94-1.98c.94-.46,2.02-.15,2.79.8,1.02,1.26.94,1.86-.45,3.25ZM71.63,9.44c.16-.85,1.41-1.69,2.78-1.85,1.37-.17,2.84.06,3.26.5.43.44.54,1.59.25,2.55-.28.96-1.57,1.83-2.85,1.92-1.29.09-2.65-.23-3.04-.7h0c-.38-.48-.57-1.56-.4-2.42ZM64.65,14.78c.69-.33,1.7-.1,2.25.5.67.74.67,1.48,0,2.22-.55.6-1.56.81-2.25.45s-1.25-1.09-1.25-1.61.56-1.22,1.25-1.56ZM62.59,25.05c.21-1.44,1.14-2.27,2.81-2.48,1.71-.22,2.7.26,3.14,1.5.36,1,.36,2.43,0,3.18-.44.94-1.51,1.15-3.45.66-2.16-.54-2.75-1.21-2.5-2.86ZM56.61,11.64c.71-.69,2.08-1.03,3.04-.75.96.27,1.75,1.4,1.75,2.5s-.79,2.27-1.75,2.61c-.96.33-2.31.34-3,.02s-1.27-1.15-1.29-1.86c-.03-.7.53-1.83,1.25-2.52ZM52.59,24.02c.21-1.42,1.14-2.23,2.81-2.43,1.37-.17,2.85.06,3.27.5.43.44.54,1.59.25,2.55-.28.96-1.42,1.98-2.52,2.25s-2.48.22-3.06-.12c-.58-.33-.92-1.57-.75-2.75ZM44.86,16.64c.84-.69,2.66-1.02,4.04-.75,1.37.27,2.51,1.06,2.52,1.75,0,.69-.56,1.82-1.25,2.52-.7.69-2.25,1.35-3.44,1.45s-2.39-.47-2.67-1.27-.56-1.68-.63-1.95c-.06-.27.58-1.06,1.43-1.75ZM40.48,28.47c.63-1.93,1.73-3.35,2.52-3.25.77.09,2.07.4,2.9.67.83.28,1.49,1.29,1.47,2.25,0,.96-.8,2.55-1.75,3.53-.94.98-2.43,1.85-3.3,1.92s-1.89-.24-2.25-.7c-.37-.46-.68-.87-.69-.92,0-.04.49-1.62,1.1-3.5ZM33.43,20.75c1.08-.75,2.64-1.13,3.47-.86,1.14.38,1.26.98.5,2.5-.55,1.1-1.59,2.09-2.3,2.2-.72.11-1.83-.4-2.47-1.14-.92-1.05-.75-1.64.8-2.7ZM34.07,26.75c1.47.08,2.82.7,3,1.39.18.69-.57,1.7-1.67,2.25s-2.45.75-3,.45-1-1.38-1-2.39c0-1.36.69-1.8,2.67-1.7ZM25.9,32.89c.83.28,1.52,1.06,1.54,1.75.03.69-.53,1.81-1.25,2.5-.71.69-2.08.99-3.04.67-.96-.32-1.77-1.11-1.79-1.75-.03-.65.65-1.73,1.5-2.42.84-.69,2.21-1.02,3.04-.75ZM17.9,25.89c.83-.83,2.29-1.38,3.25-1.24.97.14,1.86,1.26,2,2.5.17,1.49-.5,2.6-2,3.33-1.24.59-2.81.83-3.5.52s-1.25-1.25-1.25-2.09.67-2.19,1.5-3.02ZM11.97,34.19c.3-.55,1.2-.96,1.99-.9.79.05,1.71.66,2.05,1.35.33.69.12,1.7-.46,2.25-.71.67-1.58.56-2.6-.35-.84-.74-1.28-1.8-.98-2.35Z"/>
  <path class="st1" d="M84.11,207.58c.24-1.28.23-3.08-.02-4-.25-.93-.45.11-.44,2.31s.22,2.96.46,1.69Z"/>
  <path class="st1" d="M89.33,297.89c-.76-2.85-.75-4.14.01-4.5.7-.32.9-3.13.57-8-.28-4.12-.99-14.25-1.58-22.5-.58-8.25-1.69-19.73-2.45-25.5l-1.39-10.5c.71,27.9,1.19,41.17,1.52,47.5.53,9.98.4,11.6-1,12.25-.89.41-1.57,1.09-1.53,1.5.05.41.71,3.68,1.48,7.25s2.27,8.98,3.34,12l1.95,5.5c.11-8.52-.34-12.8-.92-15Z"/>
  <path class="st1" d="M84.39,283.34c0-.8-.42-4.15-.94-7.45-.51-3.3-1.19-13.87-1.51-23.5-.32-9.62-.85-20.42-1.17-24-.33-3.58-1.03-7.62-1.57-9-.53-1.37-2.08-11.05-3.42-21.5-1.35-10.45-2.66-19.19-2.92-19.42-.25-.23-.41,3.15-.34,7.5.07,4.36.49,9.72.94,11.92s1.3,7.15,1.89,11c.58,3.85,1.53,15.1,2.09,25s1.45,20.7,1.97,24c.52,3.3,1.46,10.27,2.1,15.5.63,5.23,1.54,9.93,2.02,10.45.53.58.87.38.86-.5Z"/>
  <path class="st1" d="M54.4,147.01c-.55-.21-.95-.09-.88.25.06.35.6,3.11,1.19,6.13h0c.76,3.84,1.2,4.77,1.47,3.07.22-1.33.13-3.92-.19-5.75-.33-1.82-1.04-3.49-1.59-3.7h0Z"/>
  <path class="st1" d="M111.4,514.39c-.55,0-1.34.15-1.75.34-.41.18-1.54.74-2.51,1.25-.97.5-1.98.57-2.25.16-.27-.41.07-1.64.76-2.74,1.03-1.63.58-6.77-2.58-29.25-2.11-14.99-4.67-33.33-5.69-40.76-1.01-7.43-2.54-19.57-3.4-27-.85-7.43-2.45-23.62-3.55-36-1.1-12.37-2.7-30.82-3.57-41-.86-10.18-2.68-24.12-4.05-31-1.36-6.87-2.24-13.06-1.94-13.75.29-.69-.81-10.59-2.44-22-1.64-11.41-3.46-27.95-4.05-36.75s-1.78-21.17-2.64-27.5-1.92-21.62-2.36-34c-.47-13.12-1.44-25.63-2.34-30-.85-4.12-2.54-9.52-5.95-16.5l-2.84,6c-1.57,3.3-2.85,6.79-2.85,7.75s.99,3.44,2.19,5.5c1.21,2.06,2.29,5.77,2.41,8.25.13,2.48-.42,7.87-1.2,12-.78,4.13-1.98,8.97-2.66,10.76-.68,1.8-1.8,3.26-2.49,3.25-.69,0-1.49-.57-1.79-1.26s.14-4.62.96-8.75c1.37-6.86,1.36-7.97-.2-13-1.05-3.41-1.66-8.55-1.6-13.5.08-6.81.56-8.97,3.24-14.5,1.72-3.58,2.8-6.57,2.39-6.66s-1.99-.43-3.5-.75c-2.07-.44-4.1-2.64-8.17-8.84-2.98-4.54-5.68-9.37-5.99-10.75s-2.48-4.12-4.82-6.09c-3.01-2.53-5.25-5.79-7.59-11-1.82-4.08-3.92-8.53-4.66-9.91-.83-1.53-3.35-3.27-6.51-4.5-4.21-1.63-5.5-2.73-7.04-6-1.04-2.2-2.63-6.7-3.54-10s-2.24-8.7-2.95-12h0c-.7-3.3-1.33-6.79-1.38-7.75-.06-.96,1.59-3.6,3.65-5.86,2.06-2.26,6.9-6.06,10.75-8.44,3.85-2.39,11.27-6.33,16.5-8.76s13.77-5.87,19-7.63c6.27-2.11,13.25-3.59,20.5-4.33,8.32-.85,12.34-.83,16.5.05,3.02.65,7.08,2.22,9,3.5,1.92,1.27,4.53,3.87,5.78,5.77,1.93,2.92,2.27,4.75,2.24,11.95-.02,4.67-.48,12.33-1.03,17-.85,7.19-1.62,9.5-4.98,15-2.19,3.58-3.99,7.51-3.99,8.75-.01,1.24-1.03,2.9-2.27,3.69-2,1.29-2.31,2.52-2.84,11.25-.36,5.92-1.21,11-2.16,12.81-1.13,2.15-1.44,4.7-1.09,9,.37,4.55.05,6.88-3.16,13.24l3.25,3.63c1.98,2.22,3.25,4.7,3.26,6.38.01,1.51.68,5.23,1.49,8.25s1.48,7.52,1.48,10c.01,2.48.69,7.09,1.51,10.25.83,3.16,2.2,6.76,3.04,8s1.4,3.82,1.25,5.75c-.21,2.68-.73,3.5-2.18,3.5s-2.37-1.35-3.62-5c-.95-2.75-4.27-10.17-7.38-16.5-3.12-6.33-6.16-11.95-6.75-12.5-.77-.71-.89.44-.42,4,.36,2.75,1.52,10.4,2.58,17s3.26,20.33,4.88,30.5,3.45,25.92,4.07,35,1.35,18.98,1.61,22c.27,3.02.91,12.25,1.42,20.5s1.42,17.7,2.02,21c.59,3.3,1.22,11.63,1.38,18.5.17,6.88.55,12.95.86,13.5s1.04,5.27,1.62,10.5c.59,5.23,1.32,16.25,1.63,24.5s.99,24.23,1.52,35.5c.52,11.27,1.41,24.77,1.96,30,.56,5.23,1.46,15.13,2.02,22,.55,6.87,1.67,17.68,2.48,24s2.16,18.7,3,27.5,1.52,17.69,1.52,19.75-.45,3.75-1,3.75h0Z"/>
  <path class="st1" d="M94.93,371.39c-.24-3.57-.68-7.18-.98-8s-.94-9.6-1.42-19.5c-.6-12.41-1.35-19.09-2.42-21.5-1-2.26-1.53-2.79-1.49-1.5.03,1.1.42,6.27.87,11.5h0c.44,5.23,1.31,15.35,1.92,22.5.62,7.15,1.75,19.98,2.53,28.5.77,8.52,1.76,18.74,2.18,22.69.43,3.96.92,7.11,1.09,7,.17-.1-.18-8.06-.77-17.69-.59-9.62-1.27-20.43-1.51-24Z"/>
  <path class="st0" d="M85.15,14.07c1.12.39,2.22-.07,3.03-1.28,1.09-1.61,1.02-2.08-.5-3.1-.98-.65-2.34-.99-3.03-.75-.69.25-1.25,1.36-1.25,2.47s.79,2.31,1.75,2.66Z"/>
  <path class="st0" d="M65.09,27.91c1.94.49,3.01.28,3.45-.66.36-.75.36-2.18,0-3.18-.44-1.24-1.43-1.72-3.14-1.5-1.67.21-2.6,1.04-2.81,2.48-.25,1.65.34,2.32,2.5,2.86Z"/>
  <path class="st0" d="M53.34,26.77c.58.34,1.96.39,3.06.12s2.24-1.29,2.52-2.25c.29-.96.18-2.11-.25-2.55-.42-.44-1.9-.67-3.27-.5-1.67.2-2.6,1.01-2.81,2.43-.17,1.18.17,2.42.75,2.75Z"/>
  <path class="st0" d="M42.32,33.59c.87-.07,2.36-.94,3.3-1.92.95-.98,1.74-2.57,1.75-3.53.02-.96-.64-1.97-1.47-2.25-.83-.27-2.13-.58-2.9-.67-.79-.1-1.89,1.32-2.52,3.25-.61,1.88-1.11,3.46-1.1,3.5,0,.05.32.46.69.92.36.46,1.38.77,2.25.7Z"/>
  <path class="st0" d="M46.73,21.61c1.19-.1,2.74-.76,3.44-1.45.69-.7,1.26-1.83,1.25-2.52s-1.15-1.48-2.52-1.75c-1.38-.27-3.2.06-4.04.75-.85.69-1.49,1.48-1.43,1.75.07.27.35,1.15.63,1.95s1.48,1.37,2.67,1.27Z"/>
  <path class="st0" d="M56.65,16.02c.69.32,2.04.31,3-.02.96-.34,1.75-1.51,1.75-2.61s-.79-2.23-1.75-2.5c-.96-.28-2.33.06-3.04.75-.72.69-1.28,1.82-1.25,2.52.02.71.6,1.54,1.29,1.86Z"/>
  <path class="st0" d="M64.65,17.95c.69.36,1.7.15,2.25-.45.67-.74.67-1.48,0-2.22-.55-.6-1.56-.83-2.25-.5-.69.34-1.25,1.04-1.25,1.56s.56,1.25,1.25,1.61Z"/>
  <path class="st0" d="M74.86,16.14c-.84.41-1.72,1.3-1.94,1.98s.27,1.8,1.09,2.5h0c1.22,1.04,1.8.96,3.19-.43s1.47-1.99.45-3.25c-.77-.95-1.85-1.26-2.79-.8Z"/>
  <path class="st0" d="M85.72,20.64c.99-.41,1.67-1.42,1.49-2.25s-1.23-1.65-2.32-1.83c-1.09-.17-2.3.38-2.68,1.24-.38.85-.16,2.01.5,2.58.65.56,2.01.68,3.01.26Z"/>
  <path class="st0" d="M72.03,11.86c.39.47,1.75.79,3.04.7,1.28-.09,2.57-.96,2.85-1.92.29-.96.18-2.11-.25-2.55-.42-.44-1.89-.67-3.26-.5-1.37.16-2.62,1-2.78,1.85-.17.86.02,1.94.4,2.42h0Z"/>
  <path class="st0" d="M32.4,30.84c.55.3,1.9.1,3-.45,1.1-.55,1.85-1.56,1.67-2.25s-1.53-1.31-3-1.39c-1.98-.1-2.67.34-2.67,1.7,0,1.01.45,2.09,1,2.39Z"/>
  <path class="st0" d="M46.59,57.64c-.93-2.33-2.25-4.24-2.94-4.25-.69,0-1.21.56-1.17,1.25.05.69,1.06,3.84,2.25,7,1.19,3.17,2.62,5.6,3.17,5.41s.86-1.43.69-2.75c-.17-1.33-1.07-4.32-2-6.66Z"/>
  <path class="st0" d="M34.9,83.39c-.83,0-1.5.83-1.5,1.83s.34,2.13.75,2.48c.41.36,1.09.43,1.5.17.41-.27.75-1.38.75-2.48s-.67-2-1.5-2Z"/>
  <path class="st0" d="M73.15,71.03c.96.33,3.22-.24,5.01-1.27s3.25-2.21,3.25-2.62c-.01-.41-.68-.75-1.51-.75s-3.08.67-5,1.5-3.5,1.74-3.5,2.02.79.8,1.75,1.12Z"/>
  <path class="st0" d="M107.88,463.39c-.81-6.32-1.93-17.13-2.48-24-.56-6.87-1.46-16.77-2.02-22-.55-5.23-1.44-18.73-1.96-30-.53-11.27-1.21-27.25-1.52-35.5s-1.04-19.27-1.63-24.5c-.58-5.23-1.31-9.95-1.62-10.5s-.69-6.62-.86-13.5c-.16-6.87-.79-15.2-1.38-18.5-.6-3.3-1.51-12.75-2.02-21s-1.15-17.48-1.42-20.5c-.26-3.02-.99-12.92-1.61-22s-2.45-24.83-4.07-35-3.82-23.9-4.88-30.5-2.22-14.25-2.58-17c-.47-3.56-.35-4.71.42-4,.59.55,3.63,6.17,6.75,12.5,3.11,6.33,6.43,13.75,7.38,16.5,1.25,3.65,2.23,5,3.62,5s1.97-.82,2.18-3.5c.15-1.93-.41-4.51-1.25-5.75s-2.21-4.84-3.04-8c-.82-3.16-1.5-7.77-1.51-10.25,0-2.48-.67-6.98-1.48-10s-1.48-6.74-1.49-8.25c-.01-1.68-1.28-4.16-3.26-6.38l-3.25-3.63c3.21-6.36,3.53-8.69,3.16-13.24-.35-4.3-.04-6.85,1.09-9,.95-1.81,1.8-6.89,2.16-12.81.53-8.73.84-9.96,2.84-11.25,1.24-.79,2.26-2.45,2.27-3.69,0-1.24,1.8-5.17,3.99-8.75,3.36-5.5,4.13-7.81,4.98-15,.55-4.67,1.01-12.33,1.03-17,.03-7.2-.31-9.03-2.24-11.95-1.25-1.9-3.86-4.5-5.78-5.77-1.92-1.28-5.98-2.85-9-3.5-4.16-.88-8.18-.9-16.5-.05-7.25.74-14.23,2.22-20.5,4.33-5.23,1.76-13.77,5.2-19,7.63s-12.65,6.37-16.5,8.76c-3.85,2.38-8.69,6.18-10.75,8.44s-3.71,4.9-3.65,5.86c.05.96.68,4.45,1.38,7.75h0c.71,3.3,2.04,8.7,2.95,12,.91,3.3,2.5,7.8,3.54,10,1.54,3.27,2.83,4.37,7.04,6,3.16,1.23,5.68,2.97,6.51,4.5.74,1.38,2.84,5.83,4.66,9.91,2.34,5.21,4.58,8.47,7.59,11,2.34,1.97,4.51,4.71,4.82,6.09s3.01,6.21,5.99,10.75c4.07,6.2,6.1,8.4,8.17,8.84,1.51.32,3.09.66,3.5.75s-.67,3.08-2.39,6.66c-2.68,5.53-3.16,7.69-3.24,14.5-.06,4.95.55,10.09,1.6,13.5,1.56,5.03,1.57,6.14.2,13-.82,4.13-1.26,8.06-.96,8.75s1.1,1.26,1.79,1.26c.69,0,1.81-1.45,2.49-3.25.68-1.79,1.88-6.63,2.66-10.76.78-4.13,1.33-9.52,1.2-12-.12-2.48-1.2-6.19-2.41-8.25-1.2-2.06-2.19-4.54-2.19-5.5s1.28-4.45,2.85-7.75l2.84-6c3.41,6.98,5.1,12.38,5.95,16.5.9,4.37,1.87,16.88,2.34,30,.44,12.38,1.5,27.67,2.36,34s2.05,18.7,2.64,27.5,2.41,25.34,4.05,36.75c1.63,11.41,2.73,21.31,2.44,22-.3.69.58,6.88,1.94,13.75,1.37,6.88,3.19,20.82,4.05,31,.87,10.18,2.47,28.63,3.57,41,1.1,12.38,2.7,28.57,3.55,36,.86,7.43,2.39,19.57,3.4,27,1.02,7.43,3.58,25.77,5.69,40.76,3.16,22.48,3.61,27.62,2.58,29.25-.69,1.1-1.03,2.33-.76,2.74s1.28.34,2.25-.16c.97-.51,2.1-1.07,2.51-1.25.41-.19,1.2-.34,1.75-.34s1-1.69,1-3.75-.68-10.95-1.52-19.75-2.19-21.18-3-27.5h0ZM55.99,150.71c.32,1.83.41,4.42.19,5.75-.27,1.7-.71.77-1.47-3.07h0c-.59-3.02-1.13-5.78-1.19-6.13-.07-.34.33-.46.88-.25s1.26,1.88,1.59,3.7h0ZM84.09,203.58c.25.92.26,2.72.02,4-.24,1.27-.45.51-.46-1.69s.19-3.24.44-2.31ZM5.24,39.08c-.45-.65-.8-1.86-.78-2.69.01-.83,1.69-3.37,3.73-5.65,2.04-2.28,5.96-5.51,8.71-7.18,2.75-1.67,10.17-5.36,16.5-8.18,6.33-2.83,14.87-6.22,19-7.53,4.12-1.31,10.87-2.89,15-3.52,4.12-.64,10.65-.98,14.5-.77,4.46.24,8.63,1.16,11.5,2.54,2.48,1.19,5,3.2,5.61,4.48.81,1.69.81,2.93,0,4.63-.63,1.32-3.69,3.54-7.11,5.17-3.3,1.57-7.8,3.6-10,4.51-2.2.92-8.27,3.22-13.5,5.13-5.23,1.91-14.45,4.79-20.5,6.39-6.05,1.61-16.4,3.6-23,4.42-8.72,1.09-12.94,1.22-15.43.47-1.89-.56-3.79-1.56-4.23-2.22h0ZM55.39,121.89l-2.08-2c-1.14-1.1-3.58-4.25-5.42-7-1.85-2.75-3.88-6.58-4.52-8.5s-2.84-5.08-4.9-7-4.68-4.85-5.82-6.5c-1.13-1.65-2.98-5.48-4.11-8.5-1.12-3.02-2.9-6.62-3.95-8-1.04-1.37-3.81-3.17-6.15-4-2.33-.83-4.82-2.17-5.53-3-.7-.83-2.04-4.2-2.97-7.5s-2.31-7.8-3.07-10h0c-.75-2.2-1.4-4.79-1.42-5.75-.04-1.47.35-1.59,2.45-.75,1.37.55,5.09.99,8.25.98s10.25-.66,15.75-1.45c5.5-.78,15.4-3,22-4.94,6.6-1.93,15.6-4.83,20-6.45,4.4-1.61,12.05-4.78,17-7.05,4.95-2.26,9.36-3.77,9.8-3.35.43.42.1,6.61-.76,13.76-1.41,11.87-1.84,13.44-4.94,18-1.86,2.75-3.73,6.13-4.14,7.5-.42,1.38-1.62,3.63-2.68,5-1.5,1.96-2.02,4.62-2.35,12.25-.25,5.7-1.02,10.89-1.86,12.5-1.04,1.99-1.28,4.67-.86,9.75.53,6.42.38,7.22-1.81,9.61-1.32,1.44-4.42,3.63-6.9,4.87-2.96,1.48-6.12,2.22-9.25,2.14-3.99-.1-5.15.32-9.76,5.38ZM63.23,123.92c-1.01-1-1.83-2.21-1.83-2.68s.79-1.04,1.75-1.28c.96-.23,3.33-.71,5.25-1.06s5.64-1.4,8.25-2.32c4.6-1.64,4.82-1.62,6.75.31,1.14,1.15,2.61,4.98,3.46,9,.82,3.85,1.88,10.6,2.37,15s.73,8.23.54,8.5c-.2.27-1.33-1.75-2.51-4.5-1.19-2.75-3.89-7.59-6.01-10.75s-5.2-6.42-6.85-7.25-4.43-1.42-6.17-1.32c-1.94.11-3.89-.53-5-1.65h0ZM69.27,138.45c-.75-3.55-1.92-7.15-2.59-8h0c-.67-.86-1.23-1.67-1.25-1.81s1.43-.25,3.22-.25c3.23-.01,3.26.03,4.43,6.75.65,3.71,1.89,11.02,2.76,16.25s2.02,12.2,2.55,15.5c.54,3.3,1.2,13.42,1.96,39l-1.42-9.5c-.78-5.23-1.89-14.23-2.46-20-.56-5.77-2.11-15.23-3.43-21-1.31-5.77-3.01-13.4-3.77-16.94h0ZM81.51,273.39c-.64-5.23-1.58-12.2-2.1-15.5-.52-3.3-1.41-14.1-1.97-24s-1.51-21.15-2.09-25c-.59-3.85-1.44-8.8-1.89-11s-.87-7.56-.94-11.92c-.07-4.35.09-7.73.34-7.5.26.23,1.57,8.97,2.92,19.42,1.34,10.45,2.89,20.13,3.42,21.5.54,1.38,1.24,5.42,1.57,9,.32,3.58.85,14.38,1.17,24,.32,9.63,1,20.2,1.51,23.5.52,3.3.94,6.65.94,7.45.01.88-.33,1.08-.86.5-.48-.52-1.39-5.22-2.02-10.45ZM84.96,295.39c-.77-3.57-1.43-6.84-1.48-7.25-.04-.41.64-1.09,1.53-1.5,1.4-.65,1.53-2.27,1-12.25-.33-6.33-.81-19.6-1.52-47.5l1.39,10.5c.76,5.77,1.87,17.25,2.45,25.5.59,8.25,1.3,18.38,1.58,22.5.33,4.87.13,7.68-.57,8-.76.36-.77,1.65-.01,4.5.58,2.2,1.03,6.48.92,15l-1.95-5.5c-1.07-3.02-2.57-8.43-3.34-12ZM97.21,413.08c-.17.11-.66-3.04-1.09-7-.42-3.95-1.41-14.17-2.18-22.69-.78-8.52-1.91-21.35-2.53-28.5-.61-7.15-1.48-17.27-1.92-22.5h0c-.45-5.23-.84-10.4-.87-11.5-.04-1.29.49-.76,1.49,1.5,1.07,2.41,1.82,9.09,2.42,21.5.48,9.9,1.12,18.68,1.42,19.5s.74,4.43.98,8,.92,14.38,1.51,24c.59,9.63.94,17.59.77,17.69Z"/>
  <path class="st0" d="M67.15,55.28c.69,2.26,1.7,4.11,2.25,4.11s1-.9,1-2-.67-3.58-1.5-5.5c-.83-1.92-1.84-3.7-2.25-3.93-.41-.24-1.33-.11-2.05.3-1.06.6-1.06.93,0,1.82.72.6,1.86,2.94,2.55,5.2Z"/>
  <path class="st0" d="M35.1,24.59c.71-.11,1.75-1.1,2.3-2.2.76-1.52.64-2.12-.5-2.5-.83-.27-2.39.11-3.47.86-1.55,1.06-1.72,1.65-.8,2.7.64.74,1.75,1.25,2.47,1.14Z"/>
  <path class="st0" d="M17.65,31c.69.31,2.26.07,3.5-.52,1.5-.73,2.17-1.84,2-3.33-.14-1.24-1.03-2.36-2-2.5-.96-.14-2.42.41-3.25,1.24s-1.5,2.19-1.5,3.02.56,1.78,1.25,2.09Z"/>
  <path class="st0" d="M21.36,36.06c.02.64.83,1.43,1.79,1.75s2.33.02,3.04-.67c.72-.69,1.28-1.81,1.25-2.5-.02-.69-.71-1.47-1.54-1.75-.83-.27-2.2.06-3.04.75-.85.69-1.53,1.77-1.5,2.42Z"/>
  <path class="st0" d="M26.68,56.05c-.43-.46-1.28-.64-1.88-.41-.81.32-.8,1.5.03,4.34.62,2.15,1.57,3.69,2.1,3.41.53-.27.87-1.85.75-3.5s-.57-3.38-1-3.84Z"/>
  <path class="st0" d="M12.95,36.54c1.02.91,1.89,1.02,2.6.35.58-.55.79-1.56.46-2.25-.34-.69-1.26-1.3-2.05-1.35-.79-.06-1.69.35-1.99.9-.3.55.14,1.61.98,2.35Z"/>
  <path class="st0" d="M86.54,50.62c.48-.13,1.09-.68,1.36-1.23.27-.55.05-2.35-.5-4s-1.67-3-2.5-3-1.45.34-1.4.75c.06.41.57,2.32,1.15,4.23.57,1.91,1.42,3.38,1.89,3.25Z"/>
</svg>