<?xml version="1.0" encoding="UTF-8"?>
<svg id="Layer_1" xmlns="http://www.w3.org/2000/svg" version="1.1" viewBox="0 0 304.95 751.28">
  <!-- Generator: Adobe Illustrator 30.0.0, SVG Export Plug-In . SVG Version: 2.1.1 Build 123)  -->
  <defs>
    <style>
      .st0, .st1 {
        stroke: #fff;
        stroke-miterlimit: 10;
      }

      .st1 {
        fill: #fff;
      }
    </style>
  </defs>
  <path class="st0" d="M92.85,182.64c.83.25,5-1.41,9.27-3.68,4.28-2.26,7.65-4.23,7.5-4.37-.15-.14-2.52.68-5.27,1.83s-6.58,2.78-8.5,3.63c-1.92.86-6.42,2.27-10,3.15-4.3,1.05-11.16,1.6-20.25,1.61-7.56.02-13.75.12-13.75.23,0,.1.79.43,1.75.73.96.29,6.7.97,12.75,1.51,8.87.78,12.06.69,16.5-.49,3.03-.81,6.17-2.18,7-3.04.83-.86,2.17-1.36,3-1.11Z"/>
  <path class="st0" d="M76.35,181.36c4.4-.7,11.6-2.51,16-4.01,4.4-1.49,10.7-4.15,14-5.89,3.3-1.75,8.03-4.32,10.5-5.71,2.47-1.4,6.64-4.09,9.25-5.98,2.61-1.88,4.75-4.1,4.75-4.93s-.56-1.74-1.25-2.04c-.69-.29-3.28-.05-5.75.55-2.47.59-10.58,1.46-18,1.93-9.58.6-17.13,1.76-26,4-6.88,1.74-15.42,4.22-19,5.5-3.58,1.29-9.2,3.36-12.5,4.61-3.3,1.25-7.46,3.21-9.24,4.36-1.78,1.15-3.24,2.63-3.25,3.29,0,.66.47,1.4,1.07,1.65.59.25,4.08.96,7.75,1.59,3.67.62,10.5,1.41,15.17,1.75,5.17.37,11.63.11,16.5-.67ZM83.1,165.49c3.44-1.58,7.26-3.15,8.5-3.5,1.7-.49,2.19-.26,2,.91-.14.89-3.29,2.85-7.25,4.52-3.85,1.62-7.56,2.72-8.25,2.46-.69-.27-1.25-.73-1.25-1.02s2.81-1.8,6.25-3.37Z"/>
  <path class="st0" d="M90.35,235.17c3.3-1.17,9.15-3.74,13-5.71,3.85-1.97,8.58-4.62,10.5-5.9,1.92-1.28,7.02-5.78,11.31-10.02,4.3-4.23,9.91-11.08,12.46-15.2,2.55-4.12,6.08-10.88,7.84-15,2.49-5.84,3.27-9.26,3.54-15.47l.35-7.96c-4.65-.38-7.91-1.19-10.25-2.03-4.12-1.49-4.24-1.48-3.75.46.4,1.6-1.27,3.28-8.25,8.36-4.81,3.49-14.71,9.79-22,14-7.29,4.2-13.59,7.65-14,7.66-.41.01-2.8,1.93-5.31,4.25-2.5,2.33-6.96,7.15-9.91,10.73-2.94,3.58-6,8.08-6.79,10-.8,1.92-2.51,5.75-3.8,8.5-1.29,2.75-2.79,7.25-3.33,10-.53,2.75-1.12,6.22-1.29,7.72-.24,2.02.06,2.61,1.18,2.29.83-.24,6.22-1.36,12-2.49,5.78-1.14,13.2-3.02,16.5-4.19ZM109.17,186.04c2.12-3.33,4.1-5.29,5.5-5.45,1.2-.14,2.18.09,2.19.5,0,.41-1.85,3-4.11,5.75-2.25,2.75-4.28,5.11-4.5,5.25-.22.14-.85,0-1.39-.3-.56-.31.45-2.82,2.31-5.75Z"/>
  <path class="st0" d="M82.47,248.34c.94-2.48,2.31-5.51,3.04-6.75,1.04-1.75,1.06-2.25.09-2.23-.69.01-3.37.57-5.96,1.25-4.33,1.13-5.05,1.78-8.75,7.98-2.22,3.71-4.33,8.07-4.69,9.68-.48,2.19-.29,2.88.75,2.74.77-.11,4.19-1.99,7.61-4.18,5.06-3.26,6.52-4.82,7.91-8.49Z"/>
  <path class="st0" d="M136.35,350.84c.32-5.5,1.02-14.5,1.55-20,.53-5.5,1.2-11.58,1.48-13.5.34-2.35.21-3.02-.4-2-.5.83-1.64,7.13-2.53,14-.9,6.88-2.35,19.25-3.24,27.5-.88,8.25-1.74,22.42-1.9,31.5-.16,9.08.06,18.08.49,20,.65,2.91.82,2.23.99-4,.12-4.12.35-8.17.52-9,.16-.83.59-6,.95-11.5.35-5.5.84-12.92,1.07-16.5.23-3.58.69-11,1.02-16.5Z"/>
  <path class="st0" d="M145.66,194.59c-.3-3.15-.46-3-4.76,4.5-2.85,4.96-7.53,10.83-13,16.3-6,6-11.08,9.97-17.05,13.31-4.67,2.61-10.97,5.64-14,6.72-4.16,1.49-5.92,2.76-7.22,5.2-.95,1.77-2.67,5.47-3.81,8.22-1.15,2.75-3.19,9.5-4.54,15-1.34,5.48-2.44,10.07-2.44,10.25,0,.14,1.36.25,3.01.25s4.69-.85,6.75-1.88c2.06-1.03,7.58-4.36,12.25-7.41,4.67-3.04,11.2-8.18,14.5-11.42,3.3-3.24,8.08-8.34,10.62-11.34,2.55-3,7.22-9.72,10.38-14.95,3.84-6.35,6.02-11.16,6.56-14.5.44-2.75,1.31-7.25,1.93-10s.98-6.46.82-8.25Z"/>
  <path class="st0" d="M54.1,164.89c2.89-1.35,12.9-4.36,22.25-6.7,9.35-2.34,16.55-4.36,16-4.48-.55-.13-7.97-2.48-16.5-5.23-8.53-2.74-18.42-6.15-22-7.58-3.56-1.41-6.58-2.57-6.75-2.57-.14.01-.25.57-.25,1.26,0,.91-1.82,1.15-6.75.87-5.51-.31-8.68.22-17.25,2.87-5.78,1.79-10.87,3.56-11.31,3.93-.45.37,2.02,2.95,5.5,5.73,3.5,2.8,10.88,7.13,16.56,9.7,5.64,2.56,11.37,4.65,12.75,4.65s4.86-1.1,7.75-2.45Z"/>
  <path class="st0" d="M206.01,129.34c-1.99,2.47-6.1,6.88-9.14,9.79-3.03,2.91-5.18,5.27-4.77,5.25.41-.02,5.59-2.32,11.5-5.1,5.91-2.78,13-6.55,15.75-8.37s5.67-4.07,6.5-4.99c.83-.92,1.84-1.65,2.25-1.62.41.02,1.57-.75,2.58-1.71,1-.96,4.6-4.34,8-7.5,3.39-3.16,7.12-7.66,8.29-10,1.16-2.34,2.66-4.92,3.33-5.75.67-.83,2.26-3.97,3.53-7,1.28-3.03,2.93-6.06,3.67-6.75s1.37-2.26,1.39-3.5c.03-1.24-.68-2.92-1.58-3.75-1.45-1.34-2.07-1.26-5.79.71-2.3,1.21-7.09,3.43-10.67,4.93-3.58,1.5-9.42,4.64-13,6.98-3.58,2.33-7.46,5.06-8.63,6.06-1.3,1.11-2.38,3.57-2.77,6.32-.35,2.47-.88,6.08-1.16,8-.28,1.92-1.67,5.75-3.09,8.5s-4.21,7.03-6.19,9.5ZM226.13,100.96c.22-.61,1.82-1.91,3.56-2.87s3.5-1.51,3.91-1.22c.41.29-.6,1.92-2.25,3.62-1.88,1.93-3.49,2.81-4.3,2.34-.72-.41-1.13-1.25-.92-1.87Z"/>
  <path class="st0" d="M246.6,111.59c-2.06,2.61-6.34,6.89-9.51,9.5-3.17,2.61-7.11,5.79-8.75,7.06-2.51,1.93-2.59,2.11-.49,1.09,1.37-.67,4.08-2.35,6-3.74,1.92-1.39,5.67-4.59,8.32-7.1,2.65-2.51,7-7.48,9.67-11.06,2.67-3.58,5.78-8.53,6.91-11s2.07-5.29,2.08-6.25-.32-1.59-.73-1.39c-.41.2-2.77,4.36-5.25,9.25-2.47,4.89-6.18,11.03-8.25,13.64Z"/>
  <path class="st0" d="M160.85,145.98c0,3.61.28,4.14,2.25,4.17,1.24,0,3.37.35,4.75.75,1.92.55,4.01-.19,9-3.16,3.58-2.13,8.97-5.94,12-8.46,3.03-2.52,8.06-7.93,11.19-12.01,3.13-4.09,7.15-10.58,8.92-14.43,2.57-5.57,3.35-8.79,3.81-15.76.37-5.54.21-8.77-.42-8.79-.55-.03-2.58,2.04-4.5,4.59-1.92,2.55-8.43,10.33-14.46,17.3-6.02,6.96-13.9,15.73-17.5,19.48-3.6,3.75-8.45,8.02-10.79,9.5-3.88,2.45-4.25,3.04-4.25,6.82Z"/>
  <path class="st0" d="M137.85,106.35c4.67-.65,10.75-1.61,13.5-2.13,2.75-.52,6.58-1.36,8.5-1.86,2.09-.54,3.8-1.73,4.25-2.96.67-1.83.27-2.13-3.5-2.67-2.34-.34-7.4-.08-11.25.57-3.85.66-9.36,1.83-12.25,2.62-2.89.78-6.14,2.43-7.22,3.67s-1.98,1.69-2,1-.68-1.3-1.47-1.35c-.79-.06-1.72.36-2.06.93-.34.57.64,1.56,2.19,2.2,2.14.89,4.84.88,11.31-.02Z"/>
  <path class="st0" d="M129.6,98.76c.41.24,4.8-.64,9.75-1.94,4.95-1.3,11.25-2.48,14-2.61,2.75-.14,6.8.05,9,.43,2.2.37,4.67,1.41,5.5,2.3,1.17,1.28,1.33,2.86.74,7.27-.42,3.1-1.37,8.55-2.11,12.13-.74,3.58-2.31,8.41-3.49,10.75-1.18,2.34-2.13,5.49-2.12,7,.01,2.71.07,2.68,3.98-1.75,2.18-2.47,3.98-4.84,3.98-5.25.01-.41.6-1.31,1.3-2,.71-.69,2.39-2.83,3.75-4.75,1.35-1.92,4.85-8.22,7.78-14,2.92-5.78,6.13-12.97,7.13-16,.99-3.03,2.33-8.42,2.97-12,.64-3.58,1.4-7.63,1.69-9,.3-1.38.52-7.22.5-13-.02-6.31-.67-12.9-1.63-16.5-.88-3.3-2.33-7.58-3.24-9.5-.9-1.92-3.1-5.97-4.88-9-1.78-3.03-5.07-7.53-7.3-10-1.62-1.8-2.55-2.92-2.91-3.64-1.81-2.07-3.92-4.07-4.67-3.15-1.4,1.72-4.49,6.44-4.49,6.44h0c-.84,1.54-1.94,3.46-3.08,5.35-2.16,3.58-7.31,11.9-11.43,18.5-4.13,6.6-9.72,16.5-12.44,22-3.63,7.33-5.49,12.73-6.99,20.25-1.12,5.64-2.04,12.72-2.04,15.75s.34,5.69.75,5.92ZM169.18,25.68c1.21-.24,3,.37,4.06,1.37,1.04.98,2.5,3.25,3.25,5.04s1.36,4.83,1.36,6.75c0,2.44-.45,3.5-1.5,3.5s-1.5-1-1.5-3c0-1.66-1.02-4.23-2.29-5.75-1.26-1.51-3.02-3.82-3.92-5.12-1.55-2.26-1.52-2.4.54-2.79ZM146.35,68.34c.83-1.65,2.17-3,3-3s1.51.11,1.52.25c.02.14-.66,1.94-1.5,4-.83,2.06-1.52,5.1-1.52,6.75,0,2-.5,3-1.5,3-1.08,0-1.5-1.11-1.5-4,0-2.2.67-5.35,1.5-7Z"/>
  <path class="st0" d="M60.85,140.22c3.03,1.11,11.12,3.8,18,5.98,6.87,2.18,15.42,4.49,19,5.14,4.82.89,8.3.91,13.5.11,3.85-.6,9.03-1.31,11.5-1.59,2.47-.27,5.3-1.29,6.27-2.26.97-.97,2.01-3.11,2.3-4.76.36-1.97-.06-3.86-1.21-5.5-.97-1.38-2.91-3.73-4.31-5.23-1.4-1.5-2.89-2.51-3.3-2.25-.41.27-2-.53-3.52-1.77-1.53-1.24-6.77-4.28-11.65-6.75l-8.87-4.5c-19.54.07-29.04.7-33.71,1.45-4.67.74-11.42,2.44-15,3.77-3.58,1.33-7.51,3.06-8.75,3.85-1.24.79-2.25,1.85-2.25,2.36s1.05,1.76,2.33,2.75c1.28,1,5,3.03,8.25,4.5,3.26,1.47,8.39,3.59,11.42,4.7ZM86.35,133.34c.83,0,3.64.91,6.25,2.01,2.61,1.11,4.53,2.26,4.25,2.56-.28.3-3.09-.23-6.25-1.16-3.16-.94-5.75-2.09-5.75-2.56s.67-.85,1.5-.85Z"/>
  <path class="st0" d="M139.83,393.84c-.06-7.15-.42-14.12-.78-15.5-.42-1.57-1.06,1.94-1.74,9.5-.6,6.6-1.16,22.35-1.24,35-.08,12.65.21,27.05.66,32,.44,4.95.47,9.67.06,10.5-.41.83-1,6-1.32,11.5-.32,5.5-.41,10.45-.19,11,.21.55,1.17,7.27,2.14,14.94.97,7.67,2.02,13.86,2.35,13.75.32-.11.27-3.91-.11-8.44-.38-4.54-.52-13.42-.3-19.75.21-6.33.66-20.05,1.01-30.5.35-10.45.78-21.02.94-23.5.16-2.48-.07-9.67-.53-16-.46-6.33-.88-17.35-.95-24.5Z"/>
  <path class="st0" d="M163.57,113.65c.98-4.5,1.56-8.4,1.28-8.67-.28-.26-4.55.35-9.5,1.37-4.95,1.02-13.16,2.09-18.25,2.38-8.86.49-9.25.61-9.17,2.81.04,1.27.95,5.45,2.01,9.3,1.06,3.85,2.43,8.58,3.05,10.5.62,1.92,1.1,6.42,1.08,10-.03,4.3.55,7.68,1.72,10,.98,1.92,2.62,3.86,3.67,4.31,1.15.49,1.99.39,2.14-.25.14-.58,1.26-1.06,2.5-1.06,1.24.01,4.5-.76,7.25-1.71,2.75-.94,5.22-1.89,5.5-2.09.28-.21.62-4.95.76-10.54.2-7.67.75-11.14,2.23-14.16,1.07-2.2,2.76-7.68,3.73-12.19Z"/>
  <path class="st0" d="M166.01,154.03c-5.01-1.53-5.44-1.53-6.77.09-.78.94-1.4,3.3-1.37,5.22.02,1.92,1.6,8,3.5,13.5,1.91,5.5,4.91,12.92,6.67,16.5,1.76,3.58,5.03,9.09,7.26,12.25,2.23,3.16,5.99,8.33,8.36,11.5,2.38,3.16,6.03,8,8.13,10.75,2.1,2.75,6.56,7.25,9.92,10s7.12,5.29,8.37,5.65c1.25.35,2.86.35,3.57,0,.72-.36,1.56-2.67,1.86-5.15.31-2.48.04-7.88-.58-12-.63-4.13-1.84-10.42-2.7-14-.85-3.58-2.45-8.98-3.54-12-1.1-3.02-3.42-8.17-5.17-11.44-1.74-3.27-6.38-9.34-10.3-13.5-4.84-5.13-9.5-8.87-14.5-11.64-4.05-2.25-9.77-4.82-12.71-5.73ZM186.85,175.34c.55,0,2.08,1.69,3.4,3.75s2.67,4.76,3,6,.15,2.25-.4,2.25-2-2-3.21-4.44c-1.22-2.44-2.57-4.71-3-5.05-.44-.33-.79-1.04-.79-1.56s.45-.95,1-.95Z"/>
  <path class="st0" d="M165.24,191.84c-1.89-3.85-3.39-6.33-3.34-5.5.06.83,1.34,4.42,2.85,8,1.51,3.58,4.74,9.52,7.17,13.21,2.44,3.69,7.13,9.84,10.43,13.67,3.3,3.83,6.56,7.23,7.25,7.54.69.32-3.74-6.28-9.83-14.67-6.09-8.39-12.63-18.4-14.53-22.25Z"/>
  <path class="st0" d="M273.85,160.81c-2.47.24-13.72.74-25,1.1-11.28.37-22.3,1.01-24.5,1.42-2.34.43-7.94.16-13.5-.65-5.22-.76-10.4-1.26-11.5-1.11-1.28.17-.37.77,2.5,1.64,2.47.76,6.53,1.96,9,2.66,2.47.71,5.85,1.6,7.5,1.98,1.65.38,5.47,1.03,8.5,1.45,3.03.42,9.33.36,14-.13,4.67-.48,13.67-2.28,20-3.99,6.33-1.71,12.85-3.49,14.5-3.96,2.48-.7,2.21-.77-1.5-.41Z"/>
  <path class="st0" d="M146.88,232.34c.6-4.12.92-8.17.72-9-.2-.83-1.34,3.67-2.53,10-1.2,6.33-2.86,16.11-3.7,21.75-.84,5.64-2.18,14.64-2.99,20-.82,5.36-2.17,15.94-3,23.5-.84,7.56-1.49,15.66-1.45,18,.04,2.34.25,3.8.47,3.25.21-.55,1.35-7.3,2.52-15,1.17-7.7,2.5-16.48,2.96-19.5.45-3.02,1.33-9.1,1.94-13.5.61-4.4,1.76-13.4,2.55-20,.79-6.6,1.92-15.37,2.51-19.5Z"/>
  <path class="st0" d="M294.08,145.76c-2.05-1.7-6.2-4.73-9.23-6.74-3.97-2.63-8.14-4.25-15-5.82-7.15-1.64-12.97-2.2-23.5-2.27-11.6-.07-14.51.21-17,1.65-1.65.96-8.4,4.23-15,7.28-6.59,3.03-12.32,5.51-12.75,5.51-.41-.02-3.11,1.04-6,2.34-2.89,1.3-6.83,2.7-8.75,3.11-1.92.41-4.17,1.12-5,1.56-1.17.64-.83,1.06,1.5,1.92,1.65.6,3.67,1.33,4.5,1.62.83.29,8.47,1.42,17,2.52,8.54,1.1,17.75,1.74,20.5,1.43,2.75-.31,14.67-.98,26.5-1.5,12.09-.52,25-1.65,29.5-2.57,4.4-.9,9.91-2.5,12.25-3.55,2.33-1.05,4.23-2.24,4.23-2.66-.01-.41-1.7-2.14-3.75-3.83ZM238.35,141.32c-.55.55-4.71,1.46-9.25,2.01-4.54.56-8.7,1.24-9.25,1.51-.55.27-1.45.25-2-.05-.55-.3-1-.98-1-1.5s1.69-1.4,3.75-1.94c2.06-.55,7.12-1.01,11.25-1.02,5.04-.02,7.17.31,6.5.99Z"/>
  <path class="st0" d="M148.85,246.84c-.55.27-1,1.85-1,3.5s-.7,8.06-1.55,14.25c-.85,6.19-2.21,15.3-3.01,20.25-.8,4.95-1.45,9.79-1.45,10.75.01.96.46,1.75,1.01,1.75s1.22-1.24,1.48-2.75,1.41-11.52,2.54-22.25c1.14-10.73,2.27-20.96,2.52-22.75.28-1.97.07-3.05-.54-2.75Z"/>
  <path class="st0" d="M158.41,567.84c1.42,7.7,3.21,16.7,3.97,20,.77,3.3,2.57,10.95,4.01,17,1.44,6.05,4.9,17.08,7.7,24.5,2.8,7.42,5.91,14.85,6.92,16.5,1.01,1.65,1.84,2.33,1.84,1.5s-3.07-10.5-6.84-21.5c-3.76-11-7.47-23.06-8.25-26.8-1.24-5.99-1.23-6.91.09-7.67,1.3-.76,1.15-1.86-1.12-8.2-1.45-4.03-3.31-9.58-4.14-12.33-.83-2.75-2.67-9.73-4.08-15.5-1.41-5.77-2.99-12.52-3.51-15-.7-3.36-.93-3.74-.92-1.5.01,1.65.4,5.7.88,9,.48,3.3,2.03,12.3,3.45,20Z"/>
  <path class="st0" d="M183.83,638.34c4.55,13.48,9.91,28.32,11.92,33,2.01,4.68,7.15,14.57,11.42,22,4.27,7.43,10.67,17.55,14.22,22.5,3.56,4.95,7.7,10.39,9.21,12.09,1.51,1.69,5.79,4.73,9.5,6.75,3.71,2.01,6.75,3.43,6.75,3.16s-2.16-3.99-4.8-8.25c-2.65-4.26-8.56-14.27-13.15-22.25-4.59-7.98-10.68-18.55-13.53-23.5-2.85-4.95-6.47-11.25-8.04-14-1.56-2.75-4.17-7.48-5.78-10.5-1.61-3.02-5.4-10.45-8.42-16.5-3.02-6.05-6.36-12.58-7.42-14.5-1.06-1.92-3.37-6.65-5.14-10.5-1.76-3.85-4.41-9.48-5.89-12.5-1.52-3.13-2.68-4.64-2.68-3.5-.01,1.1.79,4.25,1.77,7,.98,2.75,5.51,16.02,10.06,29.5Z"/>
  <path class="st0" d="M143.25,507.42c.22.23.65,6.72.97,14.42.31,7.7,1.45,18.95,2.53,25,1.08,6.05,3.61,16.4,5.63,23,2.01,6.6,4.05,12.67,4.54,13.5.77,1.33.87,1.33.88,0,.01-.83-.67-4.42-1.51-8-.84-3.58-2.19-10.55-3-15.5-.81-4.95-2.12-15.75-2.91-24-.8-8.25-1.49-17.48-1.54-20.5-.05-3.02-1.08-13.67-2.29-23.66-1.21-10-2.54-17.98-2.95-17.75-.41.22-.75,7.76-.75,16.74s.18,16.52.4,16.75Z"/>
  <path class="st1" d="M172.56,33.59c1.27,1.52,2.29,4.09,2.29,5.75,0,2,.5,3,1.5,3,1.05,0,1.5-1.06,1.5-3.5,0-1.92-.61-4.96-1.36-6.75s-2.21-4.06-3.25-5.04c-1.06-1-2.85-1.61-4.06-1.37-2.06.39-2.09.53-.54,2.79.9,1.3,2.66,3.61,3.92,5.12Z"/>
  <path class="st1" d="M227.05,102.83c.81.47,2.42-.41,4.3-2.34,1.65-1.7,2.66-3.33,2.25-3.62-.41-.29-2.17.26-3.91,1.22s-3.34,2.26-3.56,2.87c-.21.62.2,1.46.92,1.87Z"/>
  <path class="st1" d="M146.35,79.34c1,0,1.5-1,1.5-3,0-1.65.69-4.69,1.52-6.75.84-2.06,1.52-3.86,1.5-4-.01-.14-.69-.25-1.52-.25s-2.17,1.35-3,3c-.83,1.65-1.5,4.8-1.5,7,0,2.89.42,4,1.5,4Z"/>
  <path class="st1" d="M108.25,192.09c.22-.14,2.25-2.5,4.5-5.25,2.26-2.75,4.11-5.34,4.11-5.75,0-.41-.99-.64-2.19-.5-1.4.16-3.38,2.12-5.5,5.45-1.86,2.93-2.87,5.44-2.31,5.75.54.3,1.17.44,1.39.3Z"/>
  <path class="st1" d="M189.64,182.9c1.21,2.44,2.66,4.44,3.21,4.44s.73-1.01.4-2.25-1.68-3.94-3-6-2.85-3.75-3.4-3.75-1,.43-1,.95.35,1.23.79,1.56c.43.34,1.78,2.61,3,5.05Z"/>
  <path class="st1" d="M78.1,169.88c.69.26,4.4-.84,8.25-2.46,3.96-1.67,7.11-3.63,7.25-4.52.19-1.17-.3-1.4-2-.91-1.24.35-5.06,1.92-8.5,3.5-3.44,1.57-6.25,3.09-6.25,3.37s.56.75,1.25,1.02Z"/>
  <path class="st1" d="M231.85,140.33c-4.13.01-9.19.47-11.25,1.02-2.06.54-3.75,1.42-3.75,1.94s.45,1.2,1,1.5c.55.3,1.45.32,2,.05.55-.27,4.71-.95,9.25-1.51,4.54-.55,8.7-1.46,9.25-2.01.67-.68-1.46-1.01-6.5-.99Z"/>
  <path class="st1" d="M90.6,136.75c3.16.93,5.97,1.46,6.25,1.16.28-.3-1.64-1.45-4.25-2.56-2.61-1.1-5.42-2.01-6.25-2.01s-1.5.38-1.5.85,2.59,1.62,5.75,2.56Z"/>
  <path class="st1" d="M294.52,143.19c-3.4-2.56-8.42-6.04-11.17-7.74-3.15-1.95-8.33-3.82-14-5.05-5.12-1.11-14.02-2.08-20.62-2.25l-11.63-.31c9.33-8.53,14.08-13.7,16.58-17,2.49-3.3,5.85-8.47,7.44-11.5,2.43-4.59,2.86-6.44,2.57-11.17-.23-3.78-1.04-6.61-2.44-8.5-1.15-1.55-3.18-3.46-4.5-4.22-2.23-1.29-3.45-.88-16.9,5.61-7.97,3.85-15.85,8.19-17.5,9.64-1.65,1.45-3.56,2.64-4.25,2.64s-1.25-.9-1.25-2-.45-4.03-1-6.5c-.64-2.89-1.54-4.5-2.5-4.5-.83,0-2.02,1.01-2.65,2.25-.64,1.24-3.11,4.84-5.5,8-2.39,3.16-4.35,6.2-4.35,6.75s-.57,1.34-1.27,1.75c-.69.41-2.55,2.33-4.13,4.25-1.58,1.92-5.39,6.37-8.48,9.88-3.09,3.51-7.53,8.35-9.87,10.75-2.34,2.41-4.47,4.37-4.75,4.37s1.04-2.14,2.91-4.75c1.88-2.61,5.93-9.59,9-15.5,3.08-5.91,6.49-13,7.59-15.75,1.1-2.75,2.94-10.29,4.09-16.75,1.61-9.02,1.98-14.3,1.61-22.75-.26-6.08-1.18-13.01-2.04-15.5-.86-2.47-2.52-6.53-3.69-9-1.16-2.47-2.65-5.4-3.3-6.5-.64-1.1-2.58-4.03-4.31-6.5-1.73-2.47-4.21-5.54-5.5-6.81-.73-.71-1.63-1.3-2.45-1.66-2.23-1.54-5.37-3.8-6.62-5.14-1.62-1.74-3.37,2.18-4.02,3.88-.09.24-.17.49-.22.74-.02,0-.03,0-.04,0-.83,0-2.69,1.91-4.15,4.25-1.45,2.34-2.89,4.92-3.19,5.75-.31.83-2.65,4.65-5.22,8.5-2.57,3.85-5.52,8.57-6.55,10.48-1.04,1.92-2.51,4.17-3.26,5-.76.84-4.04,6.92-7.3,13.52-4.46,9.06-6.39,14.39-7.87,21.75-1.08,5.36-1.95,13.24-1.93,17.5.03,7.31-.12,7.82-2.5,9-1.95.96-2.39,1.76-1.93,3.5.33,1.24,1.21,2.7,1.96,3.25s1.39,2.35,1.43,4c.04,1.65.95,5.47,2.01,8.5,1.06,3.03,1.96,6.17,1.99,7,.03.99-1.07.45-3.22-1.59-1.8-1.69-4.85-3.98-6.77-5.08-1.92-1.11-7.66-3.43-12.75-5.17-6.8-2.32-11.04-3.16-16-3.16-3.71,0-12.6.73-19.75,1.61-9.08,1.12-15.19,2.48-20.25,4.5-3.99,1.59-7.81,2.66-8.5,2.37-.69-.29-2.94,1.51-5,4-3.29,3.97-3.56,4.67-2.21,5.77.85.69,1.53,1.81,1.5,2.5-.02.77.83,1.08,2.21.81,1.24-.24,3.49.21,5,1,1.51.79,2.75,1.55,2.75,1.69s-3.49.27-7.75.29c-4.79.02-9.28.66-11.75,1.67-2.2.9-7.34,2.68-11.41,3.96-4.08,1.28-7.59,2.82-7.79,3.42s2.46,3.6,5.92,6.66c4.33,3.84,9.69,7.15,17.28,10.68l11,5.13c-3.88,2.51-6.47,4.64-8.27,6.34-1.8,1.71-3.27,3.55-3.27,4.1s2.82,1.98,6.27,3.19c3.45,1.2,8.74,2.87,11.77,3.7,3.02.84,8.87,1.94,13,2.45,4.12.52,10.97.88,15.22.8l7.72-.14c-6.63,6.98-10.17,11.02-12.13,13.5-1.97,2.48-5.64,8.77-8.16,14-3.12,6.46-4.96,11.9-5.76,17-1.09,6.98-1.04,7.59.72,8.77,1.04.71,2.56,1.02,3.39.71.83-.31,3.3-.87,5.5-1.23l4-.65c-4.36,6.9-6.5,10.81-7.57,13.15-1.06,2.34-1.93,4.44-1.93,4.68s.67,1.13,1.5,2c.83.86,2.51,1.57,3.75,1.57,1.24-.01,4.28-1.35,6.75-3,2.47-1.64,4.64-2.65,4.82-2.24.17.41-.62,4.34-1.77,8.74-1.14,4.4-1.8,8.23-1.46,8.5.34.27,2.7.67,5.26.87,3.68.29,5.95-.28,10.9-2.75,3.44-1.72,9.29-5.07,13-7.45,3.71-2.38,10.62-8.12,15.34-12.75,4.73-4.63,10.13-10.35,12-12.7,1.88-2.36,4.66-6.41,6.18-9,1.52-2.6,3.21-5.73,3.75-6.97.54-1.23,1.08-2.23,1.23-2.23.14.01-.76,5.74-1.99,12.75-1.24,7-2.92,17-3.74,22.23-.83,5.23-2.19,14.23-3.03,20-.84,5.77-1.98,14.33-2.54,19-.55,4.67-1.7,15.92-2.56,25-.89,9.54-1.65,29.37-1.8,47-.14,16.77.08,40.4.5,52.5.42,12.1,1.28,31,1.9,42,.63,11,1.58,23.38,2.11,27.5.53,4.13,1.39,10.65,1.91,14.5.52,3.85,1.6,11.27,2.41,16.5.8,5.23,3.75,18.5,6.55,29.5s6.15,22.7,7.45,26c1.29,3.3,4.49,12.3,7.1,20,2.61,7.7,8.02,22.1,12.03,32,4.01,9.9,10.41,24.07,14.22,31.5,3.81,7.43,9.24,17.66,12.08,22.75,2.83,5.09,5.15,9.48,5.15,9.75s2.18,4.89,4.83,10.25c2.66,5.36,7.27,13.42,10.25,17.9,2.98,4.49,6.21,9.55,7.17,11.25.96,1.71,2.76,3.49,4,3.97,1.24.48,2.76,1.49,3.39,2.25.63.76,5.24,3.29,10.25,5.63,6.49,3.03,9.61,4,10.86,3.39.96-.48,2.09-1.6,2.5-2.5.5-1.1-.53-3.73-3.07-7.89-2.11-3.44-6.54-10.75-9.86-16.25-3.33-5.5-10.66-18.1-16.3-28-5.64-9.9-11.74-20.48-13.55-23.5-1.8-3.02-5.62-10-8.49-15.5-2.86-5.5-8.24-16.08-11.95-23.5-3.71-7.42-7.66-15.52-8.77-18-1.11-2.48-3.01-6.75-4.23-9.5-1.22-2.75-4.23-10.85-6.7-18-2.47-7.15-5.77-17.95-7.33-24-1.56-6.05-3.97-16.63-5.35-23.5-1.39-6.87-3.67-19.02-5.07-27-1.41-7.98-3.01-18.55-3.57-23.5-.55-4.95-1.47-12.83-2.03-17.5-.57-4.67-1.72-19.75-2.56-33.5-.85-13.75-1.79-41.2-2.1-61-.46-29.5-.26-38.8,1.1-51.5.91-8.52,2.06-17.98,2.55-21s1.36-9.77,1.94-15c.57-5.23,1.72-16.02,2.56-24s2.51-23.27,3.7-34,2.32-24.11,2.5-29.75c.29-9.09.5-10.11,1.87-9,.85.69,1.53,2.04,1.5,3-.02.96.72,3.44,1.66,5.5.93,2.06,4.06,7.35,6.95,11.75,2.89,4.4,8.09,10.95,11.56,14.55,3.46,3.6,10.23,9.11,15.04,12.25,8.21,5.35,9.04,5.67,13.5,5.19,3.04-.32,5.47-1.27,6.75-2.61,1.75-1.85,1.98-3.38,1.87-12.25-.08-6.67-.9-13.38-2.39-19.63-1.24-5.23-3.27-12.2-4.51-15.5s-3.85-8.7-5.8-12-6.38-8.87-9.86-12.37c-3.47-3.51-6.98-6.79-7.81-7.3-1.04-.64-.73-.71,1-.24,1.37.38,3.62,1.55,5,2.61,1.37,1.06,6.1,2.96,10.5,4.22,4.4,1.26,10.25,2.84,13,3.52,2.75.68,8.37,1.49,12.5,1.79,4.28.32,10.5.02,14.5-.7,3.85-.69,12.85-2.74,20-4.56,7.15-1.82,15.25-4.19,18-5.26,2.75-1.08,7.7-3.31,11-4.96,3.3-1.65,6.54-3.62,7.2-4.37.66-.76.96-2.28.67-3.38-.3-1.1-3.31-4.09-6.7-6.65ZM260.1,88.7c.41-.2.74.43.73,1.39s-.95,3.78-2.08,6.25-4.24,7.42-6.91,11c-2.67,3.58-7.02,8.55-9.67,11.06-2.65,2.51-6.4,5.71-8.32,7.1-1.92,1.39-4.63,3.07-6,3.74-2.1,1.02-2.02.84.49-1.09,1.64-1.27,5.58-4.45,8.75-7.06,3.17-2.61,7.45-6.89,9.51-9.5,2.07-2.61,5.78-8.75,8.25-13.64,2.48-4.89,4.84-9.05,5.25-9.25ZM215.29,111.34c.28-1.92.81-5.53,1.16-8,.39-2.75,1.47-5.21,2.77-6.32,1.17-1,5.05-3.73,8.63-6.06,3.58-2.34,9.42-5.48,13-6.98,3.58-1.5,8.37-3.72,10.67-4.93,3.72-1.97,4.34-2.05,5.79-.71.9.83,1.61,2.51,1.58,3.75-.02,1.24-.65,2.81-1.39,3.5s-2.39,3.72-3.67,6.75c-1.27,3.03-2.86,6.17-3.53,7-.67.83-2.17,3.41-3.33,5.75-1.17,2.34-4.9,6.84-8.29,10-3.4,3.16-7,6.54-8,7.5-1.01.96-2.17,1.73-2.58,1.71-.41-.03-1.42.7-2.25,1.62-.83.92-3.75,3.17-6.5,4.99s-9.84,5.59-15.75,8.37c-5.91,2.78-11.09,5.08-11.5,5.1-.41.02,1.74-2.34,4.77-5.25,3.04-2.91,7.15-7.32,9.14-9.79,1.98-2.47,4.77-6.75,6.19-9.5s2.81-6.58,3.09-8.5ZM175.89,129.66c3.6-3.75,11.48-12.52,17.5-19.48,6.03-6.97,12.54-14.75,14.46-17.3,1.92-2.55,3.95-4.62,4.5-4.59.63.02.79,3.25.42,8.79-.46,6.97-1.24,10.19-3.81,15.76-1.77,3.85-5.79,10.34-8.92,14.43-3.13,4.08-8.16,9.49-11.19,12.01-3.03,2.52-8.42,6.33-12,8.46-4.99,2.97-7.08,3.71-9,3.16-1.38-.4-3.51-.74-4.75-.75-1.97-.03-2.25-.56-2.25-4.17s.37-4.37,4.25-6.82c2.34-1.48,7.19-5.75,10.79-9.5ZM130.89,77.09c1.5-7.52,3.36-12.92,6.99-20.25,2.72-5.5,8.31-15.4,12.44-22,4.12-6.6,9.27-14.92,11.43-18.5,1.14-1.89,2.25-3.81,3.08-5.35h0s3.09-4.72,4.49-6.44c.75-.92,2.87,1.09,4.67,3.15.36.72,1.29,1.84,2.91,3.64,2.23,2.47,5.52,6.97,7.3,10,1.78,3.03,3.98,7.08,4.88,9,.91,1.92,2.36,6.2,3.24,9.5.96,3.6,1.61,10.19,1.63,16.5.02,5.78-.2,11.62-.5,13-.29,1.37-1.05,5.42-1.69,9-.64,3.58-1.98,8.97-2.97,12-1,3.03-4.21,10.22-7.13,16-2.93,5.78-6.43,12.08-7.78,14-1.36,1.92-3.04,4.06-3.75,4.75-.7.69-1.29,1.59-1.3,2,0,.41-1.8,2.78-3.98,5.25-3.91,4.43-3.97,4.46-3.98,1.75-.01-1.51.94-4.66,2.12-7,1.18-2.34,2.75-7.17,3.49-10.75.74-3.58,1.69-9.03,2.11-12.13.59-4.41.43-5.99-.74-7.27-.83-.89-3.3-1.93-5.5-2.3-2.2-.38-6.25-.57-9-.43-2.75.13-9.05,1.31-14,2.61-4.95,1.3-9.34,2.18-9.75,1.94-.41-.23-.75-2.89-.75-5.92s.92-10.11,2.04-15.75ZM126.54,106.37c-1.55-.64-2.53-1.63-2.19-2.2.34-.57,1.27-.99,2.06-.93.79.05,1.45.66,1.47,1.35s.92.24,2-1,4.33-2.89,7.22-3.67c2.89-.79,8.4-1.96,12.25-2.62,3.85-.65,8.91-.91,11.25-.57,3.77.54,4.17.84,3.5,2.67-.45,1.23-2.16,2.42-4.25,2.96-1.92.5-5.75,1.34-8.5,1.86-2.75.52-8.83,1.48-13.5,2.13-6.47.9-9.17.91-11.31.02ZM41.18,131.02c-1.28-.99-2.33-2.23-2.33-2.75s1.01-1.57,2.25-2.36c1.24-.79,5.17-2.52,8.75-3.85,3.58-1.33,10.33-3.03,15-3.77,4.67-.75,14.17-1.38,33.71-1.45l8.87,4.5c4.88,2.47,10.12,5.51,11.65,6.75,1.52,1.24,3.11,2.04,3.52,1.77.41-.26,1.9.75,3.3,2.25,1.4,1.5,3.34,3.85,4.31,5.23,1.15,1.64,1.57,3.53,1.21,5.5-.29,1.65-1.33,3.79-2.3,4.76-.97.97-3.8,1.99-6.27,2.26-2.47.28-7.65.99-11.5,1.59-5.2.8-8.68.78-13.5-.11-3.58-.65-12.13-2.96-19-5.14-6.88-2.18-14.97-4.87-18-5.98-3.03-1.11-8.16-3.23-11.42-4.7-3.25-1.47-6.97-3.5-8.25-4.5ZM33.6,162.69c-5.68-2.57-13.06-6.9-16.56-9.7-3.48-2.78-5.95-5.36-5.5-5.73.44-.37,5.53-2.14,11.31-3.93,8.57-2.65,11.74-3.18,17.25-2.87,4.93.28,6.75.04,6.75-.87,0-.69.11-1.25.25-1.26.17,0,3.19,1.16,6.75,2.57,3.58,1.43,13.47,4.84,22,7.58,8.53,2.75,15.95,5.1,16.5,5.23.55.12-6.65,2.14-16,4.48-9.35,2.34-19.36,5.35-22.25,6.7-2.89,1.35-6.38,2.45-7.75,2.45s-7.11-2.09-12.75-4.65ZM44.68,180.28c-3.67-.63-7.16-1.34-7.75-1.59-.6-.25-1.07-.99-1.07-1.65.01-.66,1.47-2.14,3.25-3.29,1.78-1.15,5.94-3.11,9.24-4.36,3.3-1.25,8.92-3.32,12.5-4.61,3.58-1.28,12.12-3.76,19-5.5,8.87-2.24,16.42-3.4,26-4,7.42-.47,15.53-1.34,18-1.93,2.47-.6,5.06-.84,5.75-.55.69.3,1.25,1.21,1.25,2.04s-2.14,3.05-4.75,4.93c-2.61,1.89-6.78,4.58-9.25,5.98-2.47,1.39-7.2,3.96-10.5,5.71-3.3,1.74-9.6,4.4-14,5.89-4.4,1.5-11.6,3.31-16,4.01-4.87.78-11.33,1.04-16.5.67-4.67-.34-11.5-1.13-15.17-1.75ZM82.85,186.79c-4.44,1.18-7.63,1.27-16.5.49-6.05-.54-11.79-1.22-12.75-1.51-.96-.3-1.75-.63-1.75-.73,0-.11,6.19-.21,13.75-.23,9.09-.01,15.95-.56,20.25-1.61,3.58-.88,8.08-2.29,10-3.15,1.92-.85,5.75-2.48,8.5-3.63s5.12-1.97,5.27-1.83c.15.14-3.22,2.11-7.5,4.37-4.27,2.27-8.44,3.93-9.27,3.68-.83-.25-2.17.25-3,1.11-.83.86-3.97,2.23-7,3.04ZM61.85,241.85c-1.12.32-1.42-.27-1.18-2.29.17-1.5.76-4.97,1.29-7.72.54-2.75,2.04-7.25,3.33-10,1.29-2.75,3-6.58,3.8-8.5.79-1.92,3.85-6.42,6.79-10,2.95-3.58,7.41-8.4,9.91-10.73,2.51-2.32,4.9-4.24,5.31-4.25.41-.01,6.71-3.46,14-7.66,7.29-4.21,17.19-10.51,22-14,6.98-5.08,8.65-6.76,8.25-8.36-.49-1.94-.37-1.95,3.75-.46,2.34.84,5.6,1.65,10.25,2.03l-.35,7.96c-.27,6.21-1.05,9.63-3.54,15.47-1.76,4.12-5.29,10.88-7.84,15-2.55,4.12-8.16,10.97-12.46,15.2-4.29,4.24-9.39,8.74-11.31,10.02-1.92,1.28-6.65,3.93-10.5,5.9-3.85,1.97-9.7,4.54-13,5.71-3.3,1.17-10.72,3.05-16.5,4.19-5.78,1.13-11.17,2.25-12,2.49ZM74.56,256.83c-3.42,2.19-6.84,4.07-7.61,4.18-1.04.14-1.23-.55-.75-2.74.36-1.61,2.47-5.97,4.69-9.68,3.7-6.2,4.42-6.85,8.75-7.98,2.59-.68,5.27-1.24,5.96-1.25.97-.02.95.48-.09,2.23-.73,1.24-2.1,4.27-3.04,6.75-1.39,3.67-2.85,5.23-7.91,8.49ZM142.91,212.84c-.54,3.34-2.72,8.15-6.56,14.5-3.16,5.23-7.83,11.95-10.38,14.95-2.54,3-7.32,8.1-10.62,11.34-3.3,3.24-9.83,8.38-14.5,11.42-4.67,3.05-10.19,6.38-12.25,7.41-2.06,1.03-5.1,1.88-6.75,1.88s-3.01-.11-3.01-.25c0-.18,1.1-4.77,2.44-10.25,1.35-5.5,3.39-12.25,4.54-15,1.14-2.75,2.86-6.45,3.81-8.22,1.3-2.44,3.06-3.71,7.22-5.2,3.03-1.08,9.33-4.11,14-6.72,5.97-3.34,11.05-7.31,17.05-13.31,5.47-5.47,10.15-11.34,13-16.3,4.3-7.5,4.46-7.65,4.76-4.5.16,1.79-.2,5.5-.82,8.25s-1.49,7.25-1.93,10ZM133.31,395.34c-.17.83-.4,4.88-.52,9-.17,6.23-.34,6.91-.99,4-.43-1.92-.65-10.92-.49-20,.16-9.08,1.02-23.25,1.9-31.5.89-8.25,2.34-20.62,3.24-27.5.89-6.87,2.03-13.17,2.53-14,.61-1.02.74-.35.4,2-.28,1.92-.95,8-1.48,13.5-.53,5.5-1.23,14.5-1.55,20-.33,5.5-.79,12.92-1.02,16.5-.23,3.58-.72,11-1.07,16.5-.36,5.5-.79,10.67-.95,11.5ZM141.31,434.34c-.16,2.48-.59,13.05-.94,23.5-.35,10.45-.8,24.17-1.01,30.5-.22,6.33-.08,15.21.3,19.75.38,4.53.43,8.33.11,8.44-.33.11-1.38-6.08-2.35-13.75-.97-7.67-1.93-14.39-2.14-14.94-.22-.55-.13-5.5.19-11,.32-5.5.91-10.67,1.32-11.5.41-.83.38-5.55-.06-10.5-.45-4.95-.74-19.35-.66-32,.08-12.65.64-28.4,1.24-35,.68-7.56,1.32-11.07,1.74-9.5.36,1.38.72,8.35.78,15.5.07,7.15.49,18.17.95,24.5.46,6.33.69,13.52.53,16ZM139.88,285.34c-.46,3.02-1.79,11.8-2.96,19.5-1.17,7.7-2.31,14.45-2.52,15-.22.55-.43-.91-.47-3.25-.04-2.34.61-10.44,1.45-18,.83-7.56,2.18-18.14,3-23.5.81-5.36,2.15-14.36,2.99-20,.84-5.64,2.5-15.42,3.7-21.75,1.19-6.33,2.33-10.83,2.53-10,.2.83-.12,4.88-.72,9-.59,4.13-1.72,12.9-2.51,19.5-.79,6.6-1.94,15.6-2.55,20-.61,4.4-1.49,10.48-1.94,13.5ZM174.68,605.34c1.48,3.02,4.13,8.65,5.89,12.5,1.77,3.85,4.08,8.58,5.14,10.5,1.06,1.92,4.4,8.45,7.42,14.5,3.02,6.05,6.81,13.48,8.42,16.5,1.61,3.02,4.22,7.75,5.78,10.5,1.57,2.75,5.19,9.05,8.04,14,2.85,4.95,8.94,15.52,13.53,23.5,4.59,7.98,10.5,17.99,13.15,22.25,2.64,4.26,4.8,7.98,4.8,8.25s-3.04-1.15-6.75-3.16c-3.71-2.02-7.99-5.06-9.5-6.75-1.51-1.7-5.65-7.14-9.21-12.09-3.55-4.95-9.95-15.07-14.22-22.5-4.27-7.43-9.41-17.32-11.42-22-2.01-4.68-7.37-19.52-11.92-33-4.55-13.48-9.08-26.75-10.06-29.5-.98-2.75-1.78-5.9-1.77-7,0-1.14,1.16.37,2.68,3.5ZM155,540.34c.52,2.48,2.1,9.23,3.51,15,1.41,5.77,3.25,12.75,4.08,15.5.83,2.75,2.69,8.3,4.14,12.33,2.27,6.34,2.42,7.44,1.12,8.2-1.32.76-1.33,1.68-.09,7.67.78,3.74,4.49,15.8,8.25,26.8,3.77,11,6.84,20.67,6.84,21.5s-.83.15-1.84-1.5c-1.01-1.65-4.12-9.08-6.92-16.5-2.8-7.42-6.26-18.45-7.7-24.5-1.44-6.05-3.24-13.7-4.01-17-.76-3.3-2.55-12.3-3.97-20-1.42-7.7-2.97-16.7-3.45-20-.48-3.3-.87-7.35-.88-9-.01-2.24.22-1.86.92,1.5ZM143.6,473.93c.41-.23,1.74,7.75,2.95,17.75,1.21,9.99,2.24,20.64,2.29,23.66.05,3.02.74,12.25,1.54,20.5.79,8.25,2.1,19.05,2.91,24,.81,4.95,2.16,11.92,3,15.5.84,3.58,1.52,7.17,1.51,8-.01,1.33-.11,1.33-.88,0-.49-.83-2.53-6.9-4.54-13.5-2.02-6.6-4.55-16.95-5.63-23-1.08-6.05-2.22-17.3-2.53-25-.32-7.7-.75-14.19-.97-14.42-.22-.23-.4-7.76-.4-16.75s.34-16.52.75-16.74ZM149.39,249.59c-.25,1.79-1.38,12.02-2.52,22.75-1.13,10.73-2.28,20.74-2.54,22.25s-.93,2.75-1.48,2.75-1-.79-1.01-1.75c0-.96.65-5.8,1.45-10.75.8-4.95,2.16-14.06,3.01-20.25.85-6.19,1.55-12.6,1.55-14.25s.45-3.23,1-3.5c.61-.3.82.78.54,2.75ZM156.85,150.54c-.28.2-2.75,1.15-5.5,2.09-2.75.95-6.01,1.72-7.25,1.71-1.24,0-2.36.48-2.5,1.06-.15.64-.99.74-2.14.25-1.05-.45-2.69-2.39-3.67-4.31-1.17-2.32-1.75-5.7-1.72-10,.02-3.58-.46-8.08-1.08-10-.62-1.92-1.99-6.65-3.05-10.5-1.06-3.85-1.97-8.03-2.01-9.3-.08-2.2.31-2.32,9.17-2.81,5.09-.29,13.3-1.36,18.25-2.38,4.95-1.02,9.22-1.63,9.5-1.37.28.27-.3,4.17-1.28,8.67-.97,4.51-2.66,9.99-3.73,12.19-1.48,3.02-2.03,6.49-2.23,14.16-.14,5.59-.48,10.33-.76,10.54ZM189.6,228.76c-.69-.31-3.95-3.71-7.25-7.54-3.3-3.83-7.99-9.98-10.43-13.67-2.43-3.69-5.66-9.63-7.17-13.21-1.51-3.58-2.79-7.17-2.85-8-.05-.83,1.45,1.65,3.34,5.5,1.9,3.85,8.44,13.86,14.53,22.25,6.09,8.39,10.52,14.99,9.83,14.67ZM193.22,171.4c3.92,4.16,8.56,10.23,10.3,13.5,1.75,3.27,4.07,8.42,5.17,11.44,1.09,3.02,2.69,8.42,3.54,12,.86,3.58,2.07,9.87,2.7,14,.62,4.12.89,9.52.58,12-.3,2.48-1.14,4.79-1.86,5.15-.71.35-2.32.35-3.57,0-1.25-.36-5.01-2.9-8.37-5.65s-7.82-7.25-9.92-10c-2.1-2.75-5.75-7.59-8.13-10.75-2.37-3.17-6.13-8.34-8.36-11.5-2.23-3.16-5.5-8.67-7.26-12.25-1.76-3.58-4.76-11-6.67-16.5-1.9-5.5-3.48-11.58-3.5-13.5-.03-1.92.59-4.28,1.37-5.22,1.33-1.62,1.76-1.62,6.77-.09,2.94.91,8.66,3.48,12.71,5.73,5,2.77,9.66,6.51,14.5,11.64ZM275.35,161.22c-1.65.47-8.17,2.25-14.5,3.96-6.33,1.71-15.33,3.51-20,3.99-4.67.49-10.97.55-14,.13-3.03-.42-6.85-1.07-8.5-1.45-1.65-.38-5.03-1.27-7.5-1.98-2.47-.7-6.53-1.9-9-2.66-2.87-.87-3.78-1.47-2.5-1.64,1.1-.15,6.28.35,11.5,1.11,5.56.81,11.16,1.08,13.5.65,2.2-.41,13.22-1.05,24.5-1.42,11.28-.36,22.53-.86,25-1.1,3.71-.36,3.98-.29,1.5.41ZM293.6,152.25c-2.34,1.05-7.85,2.65-12.25,3.55-4.5.92-17.41,2.05-29.5,2.57-11.83.52-23.75,1.19-26.5,1.5-2.75.31-11.96-.33-20.5-1.43-8.53-1.1-16.17-2.23-17-2.52-.83-.29-2.85-1.02-4.5-1.62-2.33-.86-2.67-1.28-1.5-1.92.83-.44,3.08-1.15,5-1.56,1.92-.41,5.86-1.81,8.75-3.11,2.89-1.3,5.59-2.36,6-2.34.43,0,6.16-2.48,12.75-5.51,6.6-3.05,13.35-6.32,15-7.28,2.49-1.44,5.4-1.72,17-1.65,10.53.07,16.35.63,23.5,2.27,6.86,1.57,11.03,3.19,15,5.82,3.03,2.01,7.18,5.04,9.23,6.74,2.05,1.69,3.74,3.42,3.75,3.83,0,.42-1.9,1.61-4.23,2.66Z"/>
</svg>