<?xml version="1.0" encoding="UTF-8"?>
<svg id="Layer_1" xmlns="http://www.w3.org/2000/svg" version="1.1" viewBox="0 0 304.95 276.29">
  <!-- Generator: Adobe Illustrator 30.2.1, SVG Export Plug-In . SVG Version: 2.1.1 Build 1)  -->
  <defs>
    <style>
      .st0, .st1, .st2, .st3, .st4 {
        stroke-miterlimit: 10;
      }

      .st0, .st1, .st2, .st5 {
        fill: #fff;
      }

      .st0, .st1, .st3 {
        stroke: #fff;
      }

      .st0, .st1, .st5 {
        isolation: isolate;
      }

      .st0, .st3 {
        stroke-width: 3px;
      }

      .st2, .st4 {
        stroke: #000;
      }
    </style>
  </defs>
  <path class="st2" d="M92.85,182.64c.83.25,5-1.41,9.27-3.68,4.28-2.26,7.65-4.23,7.5-4.37s-2.52.68-5.27,1.83-6.58,2.78-8.5,3.63c-1.92.86-6.42,2.27-10,3.15-4.3,1.05-11.16,1.6-20.25,1.61-7.56.02-13.75.12-13.75.23,0,.1.79.43,1.75.73.96.29,6.7.97,12.75,1.51,8.87.78,12.06.69,16.5-.49,3.03-.81,6.17-2.18,7-3.04s2.17-1.36,3-1.11Z"/>
  <path class="st2" d="M76.35,181.36c4.4-.7,11.6-2.51,16-4.01,4.4-1.49,10.7-4.15,14-5.89,3.3-1.75,8.03-4.32,10.5-5.71,2.47-1.4,6.64-4.09,9.25-5.98,2.61-1.88,4.75-4.1,4.75-4.93s-.56-1.74-1.25-2.04c-.69-.29-3.28-.05-5.75.55-2.47.59-10.58,1.46-18,1.93-9.58.6-17.13,1.76-26,4-6.88,1.74-15.42,4.22-19,5.5-3.58,1.29-9.2,3.36-12.5,4.61s-7.46,3.21-9.24,4.36-3.24,2.63-3.25,3.29c0,.66.47,1.4,1.07,1.65.59.25,4.08.96,7.75,1.59,3.67.62,10.5,1.41,15.17,1.75,5.17.37,11.63.11,16.5-.67ZM83.1,165.49c3.44-1.58,7.26-3.15,8.5-3.5,1.7-.49,2.19-.26,2,.91-.14.89-3.29,2.85-7.25,4.52-3.85,1.62-7.56,2.72-8.25,2.46-.69-.27-1.25-.73-1.25-1.02s2.81-1.8,6.25-3.37h0Z"/>
  <path class="st2" d="M90.35,235.17c3.3-1.17,9.15-3.74,13-5.71s8.58-4.62,10.5-5.9,7.02-5.78,11.31-10.02c4.3-4.23,9.91-11.08,12.46-15.2s6.08-10.88,7.84-15c2.49-5.84,3.27-9.26,3.54-15.47l.35-7.96c-4.65-.38-7.91-1.19-10.25-2.03-4.12-1.49-4.24-1.48-3.75.46.4,1.6-1.27,3.28-8.25,8.36-4.81,3.49-14.71,9.79-22,14-7.29,4.2-13.59,7.65-14,7.66-.41,0-2.8,1.93-5.31,4.25-2.5,2.33-6.96,7.15-9.91,10.73-2.94,3.58-6,8.08-6.79,10-.8,1.92-2.51,5.75-3.8,8.5s-2.79,7.25-3.33,10c-.53,2.75-1.12,6.22-1.29,7.72-.24,2.02.06,2.61,1.18,2.29.83-.24,6.22-1.36,12-2.49,5.78-1.14,13.2-3.02,16.5-4.19h0ZM109.17,186.04c2.12-3.33,4.1-5.29,5.5-5.45,1.2-.14,2.18.09,2.19.5,0,.41-1.85,3-4.11,5.75-2.25,2.75-4.28,5.11-4.5,5.25s-.85,0-1.39-.3c-.56-.31.45-2.82,2.31-5.75Z"/>
  <path class="st2" d="M82.47,248.34c.94-2.48,2.31-5.51,3.04-6.75,1.04-1.75,1.06-2.25.09-2.23-.69,0-3.37.57-5.96,1.25-4.33,1.13-5.05,1.78-8.75,7.98-2.22,3.71-4.33,8.07-4.69,9.68-.48,2.19-.29,2.88.75,2.74.77-.11,4.19-1.99,7.61-4.18,5.06-3.26,6.52-4.82,7.91-8.49h0Z"/>
  <path class="st2" d="M145.66,194.59c-.3-3.15-.46-3-4.76,4.5-2.85,4.96-7.53,10.83-13,16.3-6,6-11.08,9.97-17.05,13.31-4.67,2.61-10.97,5.64-14,6.72-4.16,1.49-5.92,2.76-7.22,5.2-.95,1.77-2.67,5.47-3.81,8.22-1.15,2.75-3.19,9.5-4.54,15-1.34,5.48-2.44,10.07-2.44,10.25,0,.14,1.36.25,3.01.25s4.69-.85,6.75-1.88,7.58-4.36,12.25-7.41c4.67-3.04,11.2-8.18,14.5-11.42s8.08-8.34,10.62-11.34c2.55-3,7.22-9.72,10.38-14.95,3.84-6.35,6.02-11.16,6.56-14.5.44-2.75,1.31-7.25,1.93-10s.98-6.46.82-8.25Z"/>
  <path class="st2" d="M54.1,164.89c2.89-1.35,12.9-4.36,22.25-6.7s16.55-4.36,16-4.48c-.55-.13-7.97-2.48-16.5-5.23-8.53-2.74-18.42-6.15-22-7.58-3.56-1.41-6.58-2.57-6.75-2.57-.14,0-.25.57-.25,1.26,0,.91-1.82,1.15-6.75.87-5.51-.31-8.68.22-17.25,2.87-5.78,1.79-10.87,3.56-11.31,3.93-.45.37,2.02,2.95,5.5,5.73,3.5,2.8,10.88,7.13,16.56,9.7,5.64,2.56,11.37,4.65,12.75,4.65s4.86-1.1,7.75-2.45h0Z"/>
  <path class="st2" d="M206.01,129.34c-1.99,2.47-6.1,6.88-9.14,9.79-3.03,2.91-5.18,5.27-4.77,5.25.41-.02,5.59-2.32,11.5-5.1s13-6.55,15.75-8.37,5.67-4.07,6.5-4.99,1.84-1.65,2.25-1.62c.41.02,1.57-.75,2.58-1.71,1-.96,4.6-4.34,8-7.5,3.39-3.16,7.12-7.66,8.29-10,1.16-2.34,2.66-4.92,3.33-5.75s2.26-3.97,3.53-7c1.28-3.03,2.93-6.06,3.67-6.75s1.37-2.26,1.39-3.5c.03-1.24-.68-2.92-1.58-3.75-1.45-1.34-2.07-1.26-5.79.71-2.3,1.21-7.09,3.43-10.67,4.93s-9.42,4.64-13,6.98c-3.58,2.33-7.46,5.06-8.63,6.06-1.3,1.11-2.38,3.57-2.77,6.32-.35,2.47-.88,6.08-1.16,8s-1.67,5.75-3.09,8.5-4.21,7.03-6.19,9.5h0ZM226.13,100.96c.22-.61,1.82-1.91,3.56-2.87s3.5-1.51,3.91-1.22-.6,1.92-2.25,3.62c-1.88,1.93-3.49,2.81-4.3,2.34-.72-.41-1.13-1.25-.92-1.87Z"/>
  <path class="st2" d="M246.6,111.59c-2.06,2.61-6.34,6.89-9.51,9.5s-7.11,5.79-8.75,7.06c-2.51,1.93-2.59,2.11-.49,1.09,1.37-.67,4.08-2.35,6-3.74s5.67-4.59,8.32-7.1c2.65-2.51,7-7.48,9.67-11.06,2.67-3.58,5.78-8.53,6.91-11s2.07-5.29,2.08-6.25-.32-1.59-.73-1.39-2.77,4.36-5.25,9.25c-2.47,4.89-6.18,11.03-8.25,13.64h0Z"/>
  <path class="st2" d="M160.85,145.98c0,3.61.28,4.14,2.25,4.17,1.24,0,3.37.35,4.75.75,1.92.55,4.01-.19,9-3.16,3.58-2.13,8.97-5.94,12-8.46s8.06-7.93,11.19-12.01c3.13-4.09,7.15-10.58,8.92-14.43,2.57-5.57,3.35-8.79,3.81-15.76.37-5.54.21-8.77-.42-8.79-.55-.03-2.58,2.04-4.5,4.59-1.92,2.55-8.43,10.33-14.46,17.3-6.02,6.96-13.9,15.73-17.5,19.48s-8.45,8.02-10.79,9.5c-3.88,2.45-4.25,3.04-4.25,6.82h0Z"/>
  <path class="st2" d="M137.85,106.35c4.67-.65,10.75-1.61,13.5-2.13s6.58-1.36,8.5-1.86c2.09-.54,3.8-1.73,4.25-2.96.67-1.83.27-2.13-3.5-2.67-2.34-.34-7.4-.08-11.25.57-3.85.66-9.36,1.83-12.25,2.62-2.89.78-6.14,2.43-7.22,3.67s-1.98,1.69-2,1-.68-1.3-1.47-1.35c-.79-.06-1.72.36-2.06.93s.64,1.56,2.19,2.2c2.14.89,4.84.88,11.31-.02Z"/>
  <path class="st2" d="M129.6,98.76c.41.24,4.8-.64,9.75-1.94s11.25-2.48,14-2.61c2.75-.14,6.8.05,9,.43,2.2.37,4.67,1.41,5.5,2.3,1.17,1.28,1.33,2.86.74,7.27-.42,3.1-1.37,8.55-2.11,12.13-.74,3.58-2.31,8.41-3.49,10.75-1.18,2.34-2.13,5.49-2.12,7,0,2.71.07,2.68,3.98-1.75,2.18-2.47,3.98-4.84,3.98-5.25s.6-1.31,1.3-2c.71-.69,2.39-2.83,3.75-4.75,1.35-1.92,4.85-8.22,7.78-14,2.92-5.78,6.13-12.97,7.13-16,.99-3.03,2.33-8.42,2.97-12s1.4-7.63,1.69-9c.3-1.38.52-7.22.5-13-.02-6.31-.67-12.9-1.63-16.5-.88-3.3-2.33-7.58-3.24-9.5-.9-1.92-3.1-5.97-4.88-9s-5.07-7.53-7.3-10c-1.62-1.8-2.55-2.92-2.91-3.64-1.81-2.07-3.92-4.07-4.67-3.15-1.4,1.72-4.49,6.44-4.49,6.44h0c-.84,1.54-1.94,3.46-3.08,5.35-2.16,3.58-7.31,11.9-11.43,18.5-4.13,6.6-9.72,16.5-12.44,22-3.63,7.33-5.49,12.73-6.99,20.25-1.12,5.64-2.04,12.72-2.04,15.75s.34,5.69.75,5.92h0ZM169.18,25.68c1.21-.24,3,.37,4.06,1.37,1.04.98,2.5,3.25,3.25,5.04.75,1.79,1.36,4.83,1.36,6.75,0,2.44-.45,3.5-1.5,3.5s-1.5-1-1.5-3c0-1.66-1.02-4.23-2.29-5.75-1.26-1.51-3.02-3.82-3.92-5.12-1.55-2.26-1.52-2.4.54-2.79ZM146.35,68.34c.83-1.65,2.17-3,3-3s1.51.11,1.52.25c.02.14-.66,1.94-1.5,4-.83,2.06-1.52,5.1-1.52,6.75,0,2-.5,3-1.5,3-1.08,0-1.5-1.11-1.5-4,0-2.2.67-5.35,1.5-7Z"/>
  <path class="st2" d="M60.85,140.22c3.03,1.11,11.12,3.8,18,5.98,6.87,2.18,15.42,4.49,19,5.14,4.82.89,8.3.91,13.5.11,3.85-.6,9.03-1.31,11.5-1.59,2.47-.27,5.3-1.29,6.27-2.26s2.01-3.11,2.3-4.76c.36-1.97-.06-3.86-1.21-5.5-.97-1.38-2.91-3.73-4.31-5.23-1.4-1.5-2.89-2.51-3.3-2.25-.41.27-2-.53-3.52-1.77-1.53-1.24-6.77-4.28-11.65-6.75l-8.87-4.5c-19.54.07-29.04.7-33.71,1.45-4.67.74-11.42,2.44-15,3.77-3.58,1.33-7.51,3.06-8.75,3.85-1.24.79-2.25,1.85-2.25,2.36s1.05,1.76,2.33,2.75c1.28,1,5,3.03,8.25,4.5,3.26,1.47,8.39,3.59,11.42,4.7ZM86.35,133.34c.83,0,3.64.91,6.25,2.01,2.61,1.11,4.53,2.26,4.25,2.56s-3.09-.23-6.25-1.16c-3.16-.94-5.75-2.09-5.75-2.56s.67-.85,1.5-.85h0Z"/>
  <path class="st2" d="M163.57,113.65c.98-4.5,1.56-8.4,1.28-8.67-.28-.26-4.55.35-9.5,1.37-4.95,1.02-13.16,2.09-18.25,2.38-8.86.49-9.25.61-9.17,2.81.04,1.27.95,5.45,2.01,9.3,1.06,3.85,2.43,8.58,3.05,10.5.62,1.92,1.1,6.42,1.08,10-.03,4.3.55,7.68,1.72,10,.98,1.92,2.62,3.86,3.67,4.31,1.15.49,1.99.39,2.14-.25.14-.58,1.26-1.06,2.5-1.06s4.5-.76,7.25-1.71c2.75-.94,5.22-1.89,5.5-2.09.28-.21.62-4.95.76-10.54.2-7.67.75-11.14,2.23-14.16,1.07-2.2,2.76-7.68,3.73-12.19h0Z"/>
  <path class="st2" d="M166.01,154.03c-5.01-1.53-5.44-1.53-6.77.09-.78.94-1.4,3.3-1.37,5.22.02,1.92,1.6,8,3.5,13.5,1.91,5.5,4.91,12.92,6.67,16.5s5.03,9.09,7.26,12.25,5.99,8.33,8.36,11.5c2.38,3.16,6.03,8,8.13,10.75s6.56,7.25,9.92,10,7.12,5.29,8.37,5.65c1.25.35,2.86.35,3.57,0,.72-.36,1.56-2.67,1.86-5.15.31-2.48.04-7.88-.58-12-.63-4.13-1.84-10.42-2.7-14-.85-3.58-2.45-8.98-3.54-12-1.1-3.02-3.42-8.17-5.17-11.44-1.74-3.27-6.38-9.34-10.3-13.5-4.84-5.13-9.5-8.87-14.5-11.64-4.05-2.25-9.77-4.82-12.71-5.73ZM186.85,175.34c.55,0,2.08,1.69,3.4,3.75s2.67,4.76,3,6,.15,2.25-.4,2.25-2-2-3.21-4.44c-1.22-2.44-2.57-4.71-3-5.05-.44-.33-.79-1.04-.79-1.56s.45-.95,1-.95Z"/>
  <path class="st2" d="M165.24,191.84c-1.89-3.85-3.39-6.33-3.34-5.5.06.83,1.34,4.42,2.85,8,1.51,3.58,4.74,9.52,7.17,13.21,2.44,3.69,7.13,9.84,10.43,13.67,3.3,3.83,6.56,7.23,7.25,7.54.69.32-3.74-6.28-9.83-14.67s-12.63-18.4-14.53-22.25Z"/>
  <path class="st2" d="M273.85,160.81c-2.47.24-13.72.74-25,1.1-11.28.37-22.3,1.01-24.5,1.42-2.34.43-7.94.16-13.5-.65-5.22-.76-10.4-1.26-11.5-1.11-1.28.17-.37.77,2.5,1.64,2.47.76,6.53,1.96,9,2.66,2.47.71,5.85,1.6,7.5,1.98,1.65.38,5.47,1.03,8.5,1.45s9.33.36,14-.13c4.67-.48,13.67-2.28,20-3.99,6.33-1.71,12.85-3.49,14.5-3.96,2.48-.7,2.21-.77-1.5-.41h0Z"/>
  <path class="st2" d="M294.08,145.76c-2.05-1.7-6.2-4.73-9.23-6.74-3.97-2.63-8.14-4.25-15-5.82-7.15-1.64-12.97-2.2-23.5-2.27-11.6-.07-14.51.21-17,1.65-1.65.96-8.4,4.23-15,7.28-6.59,3.03-12.32,5.51-12.75,5.51-.41-.02-3.11,1.04-6,2.34s-6.83,2.7-8.75,3.11-4.17,1.12-5,1.56c-1.17.64-.83,1.06,1.5,1.92,1.65.6,3.67,1.33,4.5,1.62s8.47,1.42,17,2.52c8.54,1.1,17.75,1.74,20.5,1.43,2.75-.31,14.67-.98,26.5-1.5,12.09-.52,25-1.65,29.5-2.57,4.4-.9,9.91-2.5,12.25-3.55,2.33-1.05,4.23-2.24,4.23-2.66-.01-.41-1.7-2.14-3.75-3.83h0ZM238.35,141.32c-.55.55-4.71,1.46-9.25,2.01-4.54.56-8.7,1.24-9.25,1.51-.55.27-1.45.25-2-.05s-1-.98-1-1.5,1.69-1.4,3.75-1.94c2.06-.55,7.12-1.01,11.25-1.02,5.04-.02,7.17.31,6.5.99h0Z"/>
  <path class="st4" d="M172.56,33.59c1.27,1.52,2.29,4.09,2.29,5.75,0,2,.5,3,1.5,3,1.05,0,1.5-1.06,1.5-3.5,0-1.92-.61-4.96-1.36-6.75s-2.21-4.06-3.25-5.04c-1.06-1-2.85-1.61-4.06-1.37-2.06.39-2.09.53-.54,2.79.9,1.3,2.66,3.61,3.92,5.12Z"/>
  <path class="st4" d="M227.05,102.83c.81.47,2.42-.41,4.3-2.34,1.65-1.7,2.66-3.33,2.25-3.62s-2.17.26-3.91,1.22-3.34,2.26-3.56,2.87c-.21.62.2,1.46.92,1.87Z"/>
  <path class="st4" d="M146.35,79.34c1,0,1.5-1,1.5-3,0-1.65.69-4.69,1.52-6.75.84-2.06,1.52-3.86,1.5-4,0-.14-.69-.25-1.52-.25s-2.17,1.35-3,3-1.5,4.8-1.5,7c0,2.89.42,4,1.5,4Z"/>
  <path class="st4" d="M108.25,192.09c.22-.14,2.25-2.5,4.5-5.25,2.26-2.75,4.11-5.34,4.11-5.75s-.99-.64-2.19-.5c-1.4.16-3.38,2.12-5.5,5.45-1.86,2.93-2.87,5.44-2.31,5.75.54.3,1.17.44,1.39.3Z"/>
  <path class="st4" d="M189.64,182.9c1.21,2.44,2.66,4.44,3.21,4.44s.73-1.01.4-2.25-1.68-3.94-3-6-2.85-3.75-3.4-3.75-1,.43-1,.95.35,1.23.79,1.56c.43.34,1.78,2.61,3,5.05Z"/>
  <path class="st4" d="M78.1,169.88c.69.26,4.4-.84,8.25-2.46,3.96-1.67,7.11-3.63,7.25-4.52.19-1.17-.3-1.4-2-.91-1.24.35-5.06,1.92-8.5,3.5-3.44,1.57-6.25,3.09-6.25,3.37s.56.75,1.25,1.02h0Z"/>
  <path class="st4" d="M231.85,140.33c-4.13,0-9.19.47-11.25,1.02-2.06.54-3.75,1.42-3.75,1.94s.45,1.2,1,1.5,1.45.32,2,.05,4.71-.95,9.25-1.51c4.54-.55,8.7-1.46,9.25-2.01.67-.68-1.46-1.01-6.5-.99h0Z"/>
  <path class="st4" d="M90.6,136.75c3.16.93,5.97,1.46,6.25,1.16s-1.64-1.45-4.25-2.56c-2.61-1.1-5.42-2.01-6.25-2.01s-1.5.38-1.5.85,2.59,1.62,5.75,2.56h0Z"/>
  <path class="st4" d="M154.97,199.37c2.15-4.39,3.06-9.88,4.43-8.77.85.69,1.53,2.04,1.5,3-.02.96.72,3.44,1.66,5.5.93,2.06,4.06,7.35,6.95,11.75s8.09,10.95,11.56,14.55c3.46,3.6,10.23,9.11,15.04,12.25,8.21,5.35,9.04,5.67,13.5,5.19,3.04-.32,5.47-1.27,6.75-2.61,1.75-1.85,1.98-3.38,1.87-12.25-.08-6.67-.9-13.38-2.39-19.63-1.24-5.23-3.27-12.2-4.51-15.5s-3.85-8.7-5.8-12-6.38-8.87-9.86-12.37c-3.47-3.51-6.98-6.79-7.81-7.3-1.04-.64-.73-.71,1-.24,1.37.38,3.62,1.55,5,2.61,1.37,1.06,6.1,2.96,10.5,4.22s10.25,2.84,13,3.52c2.75.68,8.37,1.49,12.5,1.79,4.28.32,10.5.02,14.5-.7,3.85-.69,12.85-2.74,20-4.56,7.15-1.82,15.25-4.19,18-5.26,2.75-1.08,7.7-3.31,11-4.96,3.3-1.65,6.54-3.62,7.2-4.37.66-.76.96-2.28.67-3.38-.3-1.1-3.31-4.09-6.7-6.65h0c-3.4-2.57-8.42-6.05-11.17-7.75-3.15-1.95-8.33-3.82-14-5.05-5.12-1.11-14.02-2.08-20.62-2.25l-11.63-.31c9.33-8.53,14.08-13.7,16.58-17,2.49-3.3,5.85-8.47,7.44-11.5,2.43-4.59,2.86-6.44,2.57-11.17-.23-3.78-1.04-6.61-2.44-8.5-1.15-1.55-3.18-3.46-4.5-4.22-2.23-1.29-3.45-.88-16.9,5.61-7.97,3.85-15.85,8.19-17.5,9.64s-3.56,2.64-4.25,2.64-1.25-.9-1.25-2-.45-4.03-1-6.5c-.64-2.89-1.54-4.5-2.5-4.5-.83,0-2.02,1.01-2.65,2.25-.64,1.24-3.11,4.84-5.5,8s-4.35,6.2-4.35,6.75-.57,1.34-1.27,1.75c-.69.41-2.55,2.33-4.13,4.25s-5.39,6.37-8.48,9.88c-3.09,3.51-7.53,8.35-9.87,10.75-2.34,2.41-4.47,4.37-4.75,4.37s1.04-2.14,2.91-4.75c1.88-2.61,5.93-9.59,9-15.5,3.08-5.91,6.49-13,7.59-15.75,1.1-2.75,2.94-10.29,4.09-16.75,1.61-9.02,1.98-14.3,1.61-22.75-.26-6.08-1.18-13.01-2.04-15.5-.86-2.47-2.52-6.53-3.69-9-1.16-2.47-2.65-5.4-3.3-6.5-.64-1.1-2.58-4.03-4.31-6.5-1.73-2.47-4.21-5.54-5.5-6.81-.73-.71-1.63-1.3-2.45-1.66-2.23-1.54-5.37-3.8-6.62-5.14-1.62-1.74-3.37,2.18-4.02,3.88-.09.24-.17.49-.22.74h-.04c-.83,0-2.69,1.91-4.15,4.25-1.45,2.34-2.89,4.92-3.19,5.75-.31.83-2.65,4.65-5.22,8.5s-5.52,8.57-6.55,10.48c-1.04,1.92-2.51,4.17-3.26,5-.76.84-4.04,6.92-7.3,13.52-4.46,9.06-6.39,14.39-7.87,21.75-1.08,5.36-1.95,13.24-1.93,17.5.03,7.31-.12,7.82-2.5,9-1.95.96-2.39,1.76-1.93,3.5.33,1.24,1.21,2.7,1.96,3.25s1.39,2.35,1.43,4,.95,5.47,2.01,8.5c1.06,3.03,1.96,6.17,1.99,7,.03.99-1.07.45-3.22-1.59-1.8-1.69-4.85-3.98-6.77-5.08-1.92-1.11-7.66-3.43-12.75-5.17-6.8-2.32-11.04-3.16-16-3.16-3.71,0-12.6.73-19.75,1.61-9.08,1.12-15.19,2.48-20.25,4.5-3.99,1.59-7.81,2.66-8.5,2.37s-2.94,1.51-5,4c-3.29,3.97-3.56,4.67-2.21,5.77.85.69,1.53,1.81,1.5,2.5-.02.77.83,1.08,2.21.81,1.24-.24,3.49.21,5,1s2.75,1.55,2.75,1.69-3.49.27-7.75.29c-4.79.02-9.28.66-11.75,1.67-2.2.9-7.34,2.68-11.41,3.96-4.08,1.28-7.59,2.82-7.79,3.42s2.46,3.6,5.92,6.66c4.33,3.84,9.69,7.15,17.28,10.68l11,5.13c-3.88,2.51-6.47,4.64-8.27,6.34-1.8,1.71-3.27,3.55-3.27,4.1s2.82,1.98,6.27,3.19c3.45,1.2,8.74,2.87,11.77,3.7,3.02.84,8.87,1.94,13,2.45,4.12.52,10.97.88,15.22.8l7.72-.14c-6.63,6.98-10.17,11.02-12.13,13.5-1.97,2.48-5.64,8.77-8.16,14-3.12,6.46-4.96,11.9-5.76,17-1.09,6.98-1.04,7.59.72,8.77,1.04.71,2.56,1.02,3.39.71.83-.31,3.3-.87,5.5-1.23l4-.65c-4.36,6.9-6.5,10.81-7.57,13.15-1.06,2.34-1.93,4.44-1.93,4.68s.67,1.13,1.5,2c.83.86,2.51,1.57,3.75,1.57,1.24-.01,4.28-1.35,6.75-3,2.47-1.64,4.64-2.65,4.82-2.24.17.41-.62,4.34-1.77,8.74-1.14,4.4-1.8,8.23-1.46,8.5.34.27,2.7.67,5.26.87,3.68.29,5.95-.28,10.9-2.75,3.44-1.72,9.29-5.07,13-7.45s10.62-8.12,15.34-12.75c4.73-4.63,10.13-10.35,12-12.7,1.88-2.36,4.66-6.41,6.18-9,1.52-2.6,3.21-5.73,3.75-6.97.54-1.23,1.08-2.23,1.23-2.23M260.1,88.7c.41-.2.74.43.73,1.39s-.95,3.78-2.08,6.25-4.24,7.42-6.91,11-7.02,8.55-9.67,11.06c-2.65,2.51-6.4,5.71-8.32,7.1s-4.63,3.07-6,3.74c-2.1,1.02-2.02.84.49-1.09,1.64-1.27,5.58-4.45,8.75-7.06s7.45-6.89,9.51-9.5c2.07-2.61,5.78-8.75,8.25-13.64,2.48-4.89,4.84-9.05,5.25-9.25h0ZM215.29,111.34c.28-1.92.81-5.53,1.16-8,.39-2.75,1.47-5.21,2.77-6.32,1.17-1,5.05-3.73,8.63-6.06,3.58-2.34,9.42-5.48,13-6.98s8.37-3.72,10.67-4.93c3.72-1.97,4.34-2.05,5.79-.71.9.83,1.61,2.51,1.58,3.75-.02,1.24-.65,2.81-1.39,3.5s-2.39,3.72-3.67,6.75c-1.27,3.03-2.86,6.17-3.53,7s-2.17,3.41-3.33,5.75c-1.17,2.34-4.9,6.84-8.29,10-3.4,3.16-7,6.54-8,7.5-1.01.96-2.17,1.73-2.58,1.71-.41-.03-1.42.7-2.25,1.62-.83.92-3.75,3.17-6.5,4.99s-9.84,5.59-15.75,8.37-11.09,5.08-11.5,5.1,1.74-2.34,4.77-5.25c3.04-2.91,7.15-7.32,9.14-9.79,1.98-2.47,4.77-6.75,6.19-9.5s2.81-6.58,3.09-8.5h0ZM175.89,129.66c3.6-3.75,11.48-12.52,17.5-19.48,6.03-6.97,12.54-14.75,14.46-17.3,1.92-2.55,3.95-4.62,4.5-4.59.63.02.79,3.25.42,8.79-.46,6.97-1.24,10.19-3.81,15.76-1.77,3.85-5.79,10.34-8.92,14.43-3.13,4.08-8.16,9.49-11.19,12.01s-8.42,6.33-12,8.46c-4.99,2.97-7.08,3.71-9,3.16-1.38-.4-3.51-.74-4.75-.75-1.97-.03-2.25-.56-2.25-4.17s.37-4.37,4.25-6.82c2.34-1.48,7.19-5.75,10.79-9.5h0ZM130.89,77.09c1.5-7.52,3.36-12.92,6.99-20.25,2.72-5.5,8.31-15.4,12.44-22,4.12-6.6,9.27-14.92,11.43-18.5,1.14-1.89,2.25-3.81,3.08-5.35h0s3.09-4.72,4.49-6.44c.75-.92,2.87,1.09,4.67,3.15.36.72,1.29,1.84,2.91,3.64,2.23,2.47,5.52,6.97,7.3,10s3.98,7.08,4.88,9c.91,1.92,2.36,6.2,3.24,9.5.96,3.6,1.61,10.19,1.63,16.5.02,5.78-.2,11.62-.5,13-.29,1.37-1.05,5.42-1.69,9s-1.98,8.97-2.97,12c-1,3.03-4.21,10.22-7.13,16-2.93,5.78-6.43,12.08-7.78,14-1.36,1.92-3.04,4.06-3.75,4.75-.7.69-1.29,1.59-1.3,2,0,.41-1.8,2.78-3.98,5.25-3.91,4.43-3.97,4.46-3.98,1.75,0-1.51.94-4.66,2.12-7s2.75-7.17,3.49-10.75,1.69-9.03,2.11-12.13c.59-4.41.43-5.99-.74-7.27-.83-.89-3.3-1.93-5.5-2.3-2.2-.38-6.25-.57-9-.43-2.75.13-9.05,1.31-14,2.61s-9.34,2.18-9.75,1.94c-.41-.23-.75-2.89-.75-5.92s.92-10.11,2.04-15.75h0ZM126.54,106.37c-1.55-.64-2.53-1.63-2.19-2.2s1.27-.99,2.06-.93c.79.05,1.45.66,1.47,1.35s.92.24,2-1,4.33-2.89,7.22-3.67c2.89-.79,8.4-1.96,12.25-2.62,3.85-.65,8.91-.91,11.25-.57,3.77.54,4.17.84,3.5,2.67-.45,1.23-2.16,2.42-4.25,2.96-1.92.5-5.75,1.34-8.5,1.86-2.75.52-8.83,1.48-13.5,2.13-6.47.9-9.17.91-11.31.02ZM41.18,131.02c-1.28-.99-2.33-2.23-2.33-2.75s1.01-1.57,2.25-2.36,5.17-2.52,8.75-3.85,10.33-3.03,15-3.77c4.67-.75,14.17-1.38,33.71-1.45l8.87,4.5c4.88,2.47,10.12,5.51,11.65,6.75,1.52,1.24,3.11,2.04,3.52,1.77.41-.26,1.9.75,3.3,2.25s3.34,3.85,4.31,5.23c1.15,1.64,1.57,3.53,1.21,5.5-.29,1.65-1.33,3.79-2.3,4.76s-3.8,1.99-6.27,2.26c-2.47.28-7.65.99-11.5,1.59-5.2.8-8.68.78-13.5-.11-3.58-.65-12.13-2.96-19-5.14-6.88-2.18-14.97-4.87-18-5.98s-8.16-3.23-11.42-4.7c-3.25-1.47-6.97-3.5-8.25-4.5h0ZM33.6,162.69c-5.68-2.57-13.06-6.9-16.56-9.7-3.48-2.78-5.95-5.36-5.5-5.73.44-.37,5.53-2.14,11.31-3.93,8.57-2.65,11.74-3.18,17.25-2.87,4.93.28,6.75.04,6.75-.87,0-.69.11-1.25.25-1.26.17,0,3.19,1.16,6.75,2.57,3.58,1.43,13.47,4.84,22,7.58,8.53,2.75,15.95,5.1,16.5,5.23.55.12-6.65,2.14-16,4.48s-19.36,5.35-22.25,6.7c-2.89,1.35-6.38,2.45-7.75,2.45s-7.11-2.09-12.75-4.65h0ZM44.68,180.28c-3.67-.63-7.16-1.34-7.75-1.59-.6-.25-1.07-.99-1.07-1.65s1.47-2.14,3.25-3.29,5.94-3.11,9.24-4.36,8.92-3.32,12.5-4.61c3.58-1.28,12.12-3.76,19-5.5,8.87-2.24,16.42-3.4,26-4,7.42-.47,15.53-1.34,18-1.93,2.47-.6,5.06-.84,5.75-.55.69.3,1.25,1.21,1.25,2.04s-2.14,3.05-4.75,4.93c-2.61,1.89-6.78,4.58-9.25,5.98-2.47,1.39-7.2,3.96-10.5,5.71-3.3,1.74-9.6,4.4-14,5.89-4.4,1.5-11.6,3.31-16,4.01-4.87.78-11.33,1.04-16.5.67-4.67-.34-11.5-1.13-15.17-1.75ZM82.85,186.79c-4.44,1.18-7.63,1.27-16.5.49-6.05-.54-11.79-1.22-12.75-1.51-.96-.3-1.75-.63-1.75-.73,0-.11,6.19-.21,13.75-.23,9.09,0,15.95-.56,20.25-1.61,3.58-.88,8.08-2.29,10-3.15,1.92-.85,5.75-2.48,8.5-3.63s5.12-1.97,5.27-1.83c.15.14-3.22,2.11-7.5,4.37-4.27,2.27-8.44,3.93-9.27,3.68s-2.17.25-3,1.11-3.97,2.23-7,3.04ZM61.85,241.85c-1.12.32-1.42-.27-1.18-2.29.17-1.5.76-4.97,1.29-7.72.54-2.75,2.04-7.25,3.33-10s3-6.58,3.8-8.5c.79-1.92,3.85-6.42,6.79-10,2.95-3.58,7.41-8.4,9.91-10.73,2.51-2.32,4.9-4.24,5.31-4.25.41,0,6.71-3.46,14-7.66,7.29-4.21,17.19-10.51,22-14,6.98-5.08,8.65-6.76,8.25-8.36-.49-1.94-.37-1.95,3.75-.46,2.34.84,5.6,1.65,10.25,2.03l-.35,7.96c-.27,6.21-1.05,9.63-3.54,15.47-1.76,4.12-5.29,10.88-7.84,15s-8.16,10.97-12.46,15.2c-4.29,4.24-9.39,8.74-11.31,10.02s-6.65,3.93-10.5,5.9-9.7,4.54-13,5.71c-3.3,1.17-10.72,3.05-16.5,4.19-5.78,1.13-11.17,2.25-12,2.49h0ZM74.56,256.83c-3.42,2.19-6.84,4.07-7.61,4.18-1.04.14-1.23-.55-.75-2.74.36-1.61,2.47-5.97,4.69-9.68,3.7-6.2,4.42-6.85,8.75-7.98,2.59-.68,5.27-1.24,5.96-1.25.97-.02.95.48-.09,2.23-.73,1.24-2.1,4.27-3.04,6.75-1.39,3.67-2.85,5.23-7.91,8.49ZM142.91,212.84c-.54,3.34-2.72,8.15-6.56,14.5-3.16,5.23-7.83,11.95-10.38,14.95-2.54,3-7.32,8.1-10.62,11.34-3.3,3.24-9.83,8.38-14.5,11.42-4.67,3.05-10.19,6.38-12.25,7.41s-5.1,1.88-6.75,1.88-3.01-.11-3.01-.25c0-.18,1.1-4.77,2.44-10.25,1.35-5.5,3.39-12.25,4.54-15,1.14-2.75,2.86-6.45,3.81-8.22,1.3-2.44,3.06-3.71,7.22-5.2,3.03-1.08,9.33-4.11,14-6.72,5.97-3.34,11.05-7.31,17.05-13.31,5.47-5.47,10.15-11.34,13-16.3,4.3-7.5,4.46-7.65,4.76-4.5.16,1.79-.2,5.5-.82,8.25s-1.49,7.25-1.93,10ZM156.85,150.54c-.28.2-2.75,1.15-5.5,2.09-2.75.95-6.01,1.72-7.25,1.71-1.24,0-2.36.48-2.5,1.06-.15.64-.99.74-2.14.25-1.05-.45-2.69-2.39-3.67-4.31-1.17-2.32-1.75-5.7-1.72-10,.02-3.58-.46-8.08-1.08-10s-1.99-6.65-3.05-10.5-1.97-8.03-2.01-9.3c-.08-2.2.31-2.32,9.17-2.81,5.09-.29,13.3-1.36,18.25-2.38s9.22-1.63,9.5-1.37c.28.27-.3,4.17-1.28,8.67-.97,4.51-2.66,9.99-3.73,12.19-1.48,3.02-2.03,6.49-2.23,14.16-.14,5.59-.48,10.33-.76,10.54h0ZM189.6,228.76c-.69-.31-3.95-3.71-7.25-7.54-3.3-3.83-7.99-9.98-10.43-13.67-2.43-3.69-5.66-9.63-7.17-13.21s-2.79-7.17-2.85-8c-.05-.83,1.45,1.65,3.34,5.5,1.9,3.85,8.44,13.86,14.53,22.25s10.52,14.99,9.83,14.67ZM193.22,171.4c3.92,4.16,8.56,10.23,10.3,13.5,1.75,3.27,4.07,8.42,5.17,11.44,1.09,3.02,2.69,8.42,3.54,12,.86,3.58,2.07,9.87,2.7,14,.62,4.12.89,9.52.58,12-.3,2.48-1.14,4.79-1.86,5.15-.71.35-2.32.35-3.57,0-1.25-.36-5.01-2.9-8.37-5.65s-7.82-7.25-9.92-10c-2.1-2.75-5.75-7.59-8.13-10.75-2.37-3.17-6.13-8.34-8.36-11.5s-5.5-8.67-7.26-12.25-4.76-11-6.67-16.5c-1.9-5.5-3.48-11.58-3.5-13.5-.03-1.92.59-4.28,1.37-5.22,1.33-1.62,1.76-1.62,6.77-.09,2.94.91,8.66,3.48,12.71,5.73,5,2.77,9.66,6.51,14.5,11.64ZM275.35,161.22c-1.65.47-8.17,2.25-14.5,3.96-6.33,1.71-15.33,3.51-20,3.99-4.67.49-10.97.55-14,.13s-6.85-1.07-8.5-1.45c-1.65-.38-5.03-1.27-7.5-1.98-2.47-.7-6.53-1.9-9-2.66-2.87-.87-3.78-1.47-2.5-1.64,1.1-.15,6.28.35,11.5,1.11,5.56.81,11.16,1.08,13.5.65,2.2-.41,13.22-1.05,24.5-1.42,11.28-.36,22.53-.86,25-1.1,3.71-.36,3.98-.29,1.5.41h0ZM293.6,152.25c-2.34,1.05-7.85,2.65-12.25,3.55-4.5.92-17.41,2.05-29.5,2.57-11.83.52-23.75,1.19-26.5,1.5s-11.96-.33-20.5-1.43c-8.53-1.1-16.17-2.23-17-2.52-.83-.29-2.85-1.02-4.5-1.62-2.33-.86-2.67-1.28-1.5-1.92.83-.44,3.08-1.15,5-1.56s5.86-1.81,8.75-3.11,5.59-2.36,6-2.34c.43,0,6.16-2.48,12.75-5.51,6.6-3.05,13.35-6.32,15-7.28,2.49-1.44,5.4-1.72,17-1.65,10.53.07,16.35.63,23.5,2.27,6.86,1.57,11.03,3.19,15,5.82,3.03,2.01,7.18,5.04,9.23,6.74,2.05,1.69,3.74,3.42,3.75,3.83,0,.42-1.9,1.61-4.23,2.66h0Z"/>
  <path class="st3" d="M-158.24,264.43c2.87,2.45,4.18,3,5.31,2.25.82-.55,2-.66,2.61-.25s1.51.08,1.99-.75c.48-.83.87-5.33.88-10,0-4.67-.47-11.42-1.06-15-.58-3.58-2.1-10.1-3.37-14.5-1.27-4.4-4.22-11.83-6.55-16.5-2.34-4.67-6.58-11.88-9.44-16-2.86-4.13-9.67-13.6-15.13-21.07-5.46-7.46-14.88-21.12-20.93-30.36-8.56-13.07-11.15-16.39-11.68-14.94-.37,1.03-.65,2.77-.6,3.87.04,1.1.4,6.27.81,11.5.4,5.23,1.45,13.33,2.33,18h0c.87,4.67,2.99,12.33,4.71,17,1.71,4.67,3.75,10.41,4.52,12.75.78,2.34,1.86,4.25,2.41,4.25s5.34,8.21,10.65,18.25c5.3,10.04,10.13,19.15,10.73,20.25s2.61,4.48,4.46,7.5c1.86,3.02,5.66,8.88,8.46,13,2.79,4.13,6.79,8.96,8.89,10.75Z"/>
  <path class="st3" d="M-154.39,127.68c2.45,4.67,4.8,9.51,5.21,10.75s1.09,2.25,1.5,2.24c.41,0,1.23-1.01,1.82-2.25.58-1.23,3.79-7.41,7.12-13.74s7.91-14.99,10.18-19.25l4.13-7.75c-1.74-10.46-2.61-14.17-3.06-15s-1.98-6-3.41-11.5-4.05-14.62-5.82-20.27c-1.76-5.65-3.55-10.27-3.96-10.25-.41,0-1.79,2.16-3.06,4.77-1.28,2.61-4.37,8.35-6.87,12.75-2.51,4.4-6.19,11.26-8.19,15.25s-4.98,11.3-6.63,16.25-3,9.9-3,11-.45,2.23-1,2.5-1.25.39-1.55.25.43-4.3,1.62-9.25c1.47-6.11,4.41-13.5,9.17-23,3.86-7.7,7.84-15.12,8.85-16.5,1.02-1.37,2.12-4.08,2.45-6,.47-2.72-.04-4.72-2.33-9-1.61-3.02-5.93-11.12-9.59-18-3.66-6.87-7.12-12.95-7.7-13.5-.71-.68-1.52-.35-2.5,1-.79,1.1-2.11,4.25-2.92,7-.82,2.75-2.58,8.83-3.91,13.5-1.32,4.67-3.1,10.52-3.93,13-.84,2.48-1.81,6.3-2.15,8.5-.35,2.2-1.47,8.5-2.5,14-1.02,5.5-2.26,12.92-2.76,16.48l-.91,6.48,15.62,15.52c13.62,13.52,16.2,16.61,20.08,24.02h0ZM-178.43,57.13c-.55-.3-1-1.09-1-1.75s1.47-6.9,3.25-13.88c1.79-6.97,3.58-12.48,4-12.25.41.24.75,1.33.75,2.43s-1.16,6.84-2.57,12.75-2.76,11.31-3,12-.88,1-1.43.7Z"/>
  <path class="st3" d="M-201.43,140.18c0,.27,2.81,4.63,6.25,9.68,3.44,5.05,7.83,11.46,9.77,14.25s5.76,8.07,8.5,11.74c2.74,3.66,6.78,9.22,8.98,12.34,2.2,3.13,4.56,6.43,5.25,7.34,1.04,1.36,1.19.42.84-5.35-.3-5.11.2-9.43,1.87-16,1.25-4.95,4.16-13.5,6.46-19l4.18-10c-12.36-24.88-12.56-25.14-27.06-39.5-8.06-7.98-16.23-16.52-18.17-19l-3.53-4.5c-1.63,6.98-3.7,15.75-5.66,24-1.95,8.25-3.83,16.83-4.17,19.06-.54,3.55-.17,4.72,2.93,9.25,1.96,2.86,3.56,5.42,3.56,5.69h0ZM-200.09,117.76c.08-1.88.61-3.58,1.16-3.76.55-.19,1.29,2.25,1.65,5.42.37,3.17.93,6.77,1.25,8.01.42,1.58.16,2.25-.89,2.26-.81,0-1.69-1-1.96-2.25-.26-1.24-.68-3.16-.92-4.26-.25-1.1-.38-3.54-.29-5.42Z"/>
  <path class="st3" d="M-183.62,232.15c-2.37-4.41-7.01-13.07-10.31-19.25-3.3-6.17-6.56-11.22-7.25-11.22s-1.81-1.24-2.49-2.75-2.27-4.33-3.53-6.25-2.26-3.05-2.21-2.5c.04.55,1.34,4.6,2.89,9s3.17,8.9,3.61,10,4.26,6.95,8.48,13c4.23,6.05,8.95,13.02,10.5,15.5,1.54,2.48,4.43,6.42,6.41,8.77,1.97,2.36,3.81,4.06,4.09,3.79.28-.28-.94-2.65-2.69-5.28-1.76-2.63-5.13-8.39-7.5-12.81Z"/>
  <path class="st3" d="M-142.18,257.03c1.23-1.19,4.36-6.36,6.94-11.5s6.24-12.95,8.13-17.35c1.89-4.4,4.21-10.7,5.16-14,.95-3.3,2.99-10.95,4.53-17s3.61-14.82,4.6-19.5c1.26-5.96,1.79-12.84,1.79-23-.01-9.54-.79-20.14-2.28-31-1.47-10.66-3.05-18.2-4.45-21.29-1.2-2.63-2.4-4.77-2.67-4.74-.28.02-1.47,1.73-2.64,3.79s-6.27,11.62-11.33,21.24c-5.06,9.63-11.65,22.9-14.64,29.5-3,6.6-6.56,16.05-7.91,21-1.34,4.95-2.4,11.25-2.34,14s.5,8.04.98,11.75c.48,3.73,2.06,9.1,3.52,12,1.45,2.89,3.94,9.75,5.52,15.25,2.02,6.99,3.07,13.31,3.49,21,.33,6.05.77,11.23.98,11.5.2.28,1.38-.47,2.62-1.65ZM-129.02,199.28c.36-1.16,1.74-6.37,3.06-11.6,1.32-5.22,2.62-12.87,2.88-17,.27-4.18.96-7.61,1.56-7.75s1.14.31,1.2,1c.07.69.03,3.95-.07,7.25-.11,3.3-1.25,10.28-2.54,15.5-1.28,5.23-2.82,10.74-3.42,12.25s-1.59,2.68-2.2,2.6c-.66-.09-.85-1.01-.47-2.25Z"/>
  <path class="st3" d="M-198.88,127.44c.27,1.25,1.15,2.26,1.96,2.25,1.05,0,1.31-.68.89-2.26-.32-1.24-.88-4.84-1.25-8.01-.36-3.17-1.1-5.61-1.65-5.42-.55.18-1.08,1.88-1.16,3.76-.09,1.88.04,4.32.29,5.42.24,1.1.66,3.02.92,4.26Z"/>
  <path class="st0" d="M-198.88,127.44c.27,1.25,1.15,2.26,1.96,2.25,1.05,0,1.31-.68.89-2.26-.32-1.24-.88-4.84-1.25-8.01-.36-3.17-1.1-5.61-1.65-5.42-.55.18-1.08,1.88-1.16,3.76-.09,1.88.04,4.32.29,5.42.24,1.1.66,3.02.92,4.26Z"/>
  <path class="st3" d="M-171.43,31.68c0-1.1-.34-2.19-.75-2.43-.42-.23-2.21,5.28-4,12.25-1.78,6.98-3.25,13.22-3.25,13.88s.45,1.45,1,1.75c.55.3,1.19,0,1.43-.7.24-.69,1.59-6.09,3-12s2.57-11.65,2.57-12.75Z"/>
  <path class="st0" d="M-171.43,31.68c0-1.1-.34-2.19-.75-2.43-.42-.23-2.21,5.28-4,12.25-1.78,6.98-3.25,13.22-3.25,13.88s.45,1.45,1,1.75c.55.3,1.19,0,1.43-.7.24-.69,1.59-6.09,3-12s2.57-11.65,2.57-12.75Z"/>
  <path class="st3" d="M-128.55,201.53c.61.08,1.6-1.09,2.2-2.6.6-1.51,2.14-7.02,3.42-12.25,1.29-5.22,2.43-12.2,2.54-15.5.1-3.3.14-6.56.07-7.25-.06-.69-.6-1.14-1.2-1s-1.29,3.57-1.56,7.75c-.26,4.13-1.56,11.78-2.88,17-1.32,5.23-2.7,10.44-3.06,11.6-.38,1.24-.19,2.16.47,2.25Z"/>
  <path class="st0" d="M-128.55,201.53c.61.08,1.6-1.09,2.2-2.6.6-1.51,2.14-7.02,3.42-12.25,1.29-5.22,2.43-12.2,2.54-15.5.1-3.3.14-6.56.07-7.25-.06-.69-.6-1.14-1.2-1s-1.29,3.57-1.56,7.75c-.26,4.13-1.56,11.78-2.88,17-1.32,5.23-2.7,10.44-3.06,11.6-.38,1.24-.19,2.16.47,2.25Z"/>
  <path class="st3" d="M-145.72,265.68c.3-1.37,1.32-3.17,2.24-4,.93-.83,3.08-3.3,4.78-5.5,1.69-2.2,5.65-9.4,8.79-16s7.03-15.83,8.65-20.5c1.61-4.67,4.67-15.25,6.79-23.5s4.57-19.84,5.45-25.75c.87-5.91,1.59-14.24,1.59-18.5.01-4.26-.91-15.17-2.03-24.25-1.13-9.08-2.72-18.75-3.54-21.5s-2.61-6.91-3.96-9.25c-1.36-2.34-3.03-4.24-3.72-4.23-.73.01-2.42-4.05-4.05-9.75-1.54-5.37-3.45-12.69-4.25-16.27s-3.26-12.24-5.46-19.25c-2.29-7.34-4.52-12.76-5.24-12.77-.69-.02-2.31,1.9-3.61,4.25l-2.35,4.27c-5.5-9.3-9.42-16.5-12.25-22-2.84-5.5-6.37-11.91-7.85-14.25s-3.25-4.1-3.94-3.93c-.69.18-2.35,2.32-3.69,4.75-1.34,2.44-4.61,12.08-7.27,21.43-2.66,9.35-5.5,20.83-6.32,25.5-.83,4.67-2.17,11.09-2.98,14.25-.82,3.16-1.49,7.77-1.49,10.25s-.34,4.5-.75,4.5-2.18-1.69-3.92-3.75c-2.05-2.43-3.5-3.4-4.1-2.75-.51.55-1.5,5.05-2.2,10s-1.91,11.7-2.69,15-1.8,7.13-2.27,8.5c-.47,1.38-1.47,5.12-2.21,8.32l-1.36,5.83c-3.97-5.12-5.52-6.18-6.25-5.8-.91.48-1.21,4.08-1.09,13.4h0c.09,7.01.33,14.33.54,16.25.2,1.92,1.26,8,2.34,13.5,1.09,5.5,2.87,12.36,3.97,15.25l1.99,5.25c-4.4-.88-5.01-.58-5.02.75-.02.96,1.83,7.15,4.1,13.75,2.26,6.6,4.93,13.58,5.93,15.5.99,1.92,3.29,5.52,5.11,8s4.85,6.75,6.75,9.5c1.89,2.75,5.12,7.48,7.16,10.5s7.38,10,11.85,15.5M-189.18,81.66c.5-3.56,1.74-10.98,2.76-16.48,1.03-5.5,2.15-11.8,2.5-14,.34-2.2,1.31-6.02,2.15-8.5.83-2.48,2.61-8.33,3.93-13,1.33-4.67,3.09-10.75,3.91-13.5.81-2.75,2.13-5.9,2.92-7,.98-1.35,1.79-1.68,2.5-1,.58.55,4.04,6.63,7.7,13.5,3.66,6.88,7.98,14.98,9.59,18,2.29,4.28,2.8,6.28,2.33,9-.33,1.92-1.43,4.63-2.45,6-1.01,1.38-4.99,8.8-8.85,16.5-4.76,9.5-7.7,16.89-9.17,23-1.19,4.95-1.92,9.11-1.62,9.25s1,.02,1.55-.25,1-1.4,1-2.5,1.35-6.05,3-11,4.63-12.26,6.63-16.25c2-3.99,5.68-10.85,8.19-15.25,2.5-4.4,5.59-10.14,6.87-12.75,1.27-2.61,2.65-4.76,3.06-4.77.41-.02,2.2,4.6,3.96,10.25,1.77,5.65,4.39,14.77,5.82,20.27s2.96,10.67,3.41,11.5,1.32,4.54,3.06,15l-4.13,7.75c-2.27,4.26-6.85,12.92-10.18,19.25s-6.54,12.51-7.12,13.74c-.59,1.24-1.41,2.25-1.82,2.25s-1.09-1-1.5-2.24-2.76-6.08-5.21-10.75c-3.88-7.41-6.46-10.5-20.08-24.02l-15.62-15.52.91-6.48h0ZM-207.92,125.24c.34-2.23,2.22-10.81,4.17-19.06,1.96-8.25,4.03-17.02,5.66-24l3.53,4.5c1.94,2.48,10.11,11.02,18.17,19,14.5,14.36,14.7,14.62,27.06,39.5l-4.18,10c-2.3,5.5-5.21,14.05-6.46,19-1.67,6.57-2.17,10.89-1.87,16,.35,5.77.2,6.71-.84,5.35-.69-.91-3.05-4.21-5.25-7.34-2.2-3.12-6.24-8.68-8.98-12.34-2.74-3.67-6.56-8.95-8.5-11.74-1.94-2.79-6.33-9.2-9.77-14.25s-6.25-9.41-6.25-9.68-1.6-2.83-3.56-5.69c-3.1-4.53-3.47-5.7-2.93-9.25ZM-173.43,250.24c-.28.27-2.12-1.43-4.09-3.79-1.98-2.35-4.87-6.29-6.41-8.77-1.55-2.48-6.27-9.45-10.5-15.5-4.22-6.05-8.04-11.9-8.48-13s-2.06-5.6-3.61-10-2.85-8.45-2.89-9c-.05-.55.95.58,2.21,2.5s2.85,4.74,3.53,6.25,1.8,2.75,2.49,2.75,3.95,5.05,7.25,11.22c3.3,6.18,7.94,14.84,10.31,19.25,2.37,4.42,5.74,10.18,7.5,12.81,1.75,2.63,2.97,5,2.69,5.28ZM-167.13,253.68c-2.8-4.12-6.6-9.98-8.46-13-1.85-3.02-3.86-6.4-4.46-7.5s-5.43-10.21-10.73-20.25c-5.31-10.04-10.1-18.25-10.65-18.25s-1.63-1.91-2.41-4.25c-.77-2.34-2.81-8.08-4.52-12.75-1.72-4.67-3.84-12.33-4.71-17h0c-.88-4.67-1.93-12.77-2.33-18-.41-5.23-.77-10.4-.81-11.5-.05-1.1.23-2.84.6-3.87.53-1.45,3.12,1.87,11.68,14.94,6.05,9.24,15.47,22.9,20.93,30.36,5.46,7.47,12.27,16.94,15.13,21.07,2.86,4.12,7.1,11.33,9.44,16,2.33,4.67,5.28,12.1,6.55,16.5,1.27,4.4,2.79,10.92,3.37,14.5.59,3.58,1.06,10.33,1.06,15-.01,4.67-.4,9.17-.88,10-.48.83-1.38,1.16-1.99.75s-1.79-.3-2.61.25c-1.13.75-2.44.2-5.31-2.25-2.1-1.79-6.1-6.62-8.89-10.75h0ZM-149.27,226.18c-1.58-5.5-4.07-12.36-5.52-15.25-1.46-2.9-3.04-8.27-3.52-12-.48-3.71-.92-9-.98-11.75s1-9.05,2.34-14c1.35-4.95,4.91-14.4,7.91-21,2.99-6.6,9.58-19.87,14.64-29.5,5.06-9.62,10.16-19.18,11.33-21.24s2.36-3.77,2.64-3.79c.27-.03,1.47,2.11,2.67,4.74,1.4,3.09,2.98,10.63,4.45,21.29,1.49,10.86,2.27,21.46,2.28,31,0,10.16-.53,17.04-1.79,23-.99,4.68-3.06,13.45-4.6,19.5s-3.58,13.7-4.53,17-3.27,9.6-5.16,14c-1.89,4.4-5.55,12.21-8.13,17.35-2.58,5.14-5.71,10.31-6.94,11.5-1.24,1.18-2.42,1.93-2.62,1.65-.21-.27-.65-5.45-.98-11.5-.42-7.69-1.47-14.01-3.49-21h0Z"/>
  <path class="st0" d="M-153.8,275.94c.3-1.37,9.4-13.43,10.32-14.26.93-.83,3.08-3.3,4.78-5.5,1.69-2.2,5.65-9.4,8.79-16s7.03-15.83,8.65-20.5c1.61-4.67,4.67-15.25,6.79-23.5s4.57-19.84,5.45-25.75c.87-5.91,1.59-14.24,1.59-18.5.01-4.26-.91-15.17-2.03-24.25-1.13-9.08-2.72-18.75-3.54-21.5s-2.61-6.91-3.96-9.25c-1.36-2.34-3.03-4.24-3.72-4.23-.73.01-2.42-4.05-4.05-9.75-1.54-5.37-3.45-12.69-4.25-16.27s-3.26-12.24-5.46-19.25c-2.29-7.34-4.52-12.76-5.24-12.77-.69-.02-2.31,1.9-3.61,4.25l-2.35,4.27c-5.5-9.3-9.42-16.5-12.25-22-2.84-5.5-6.37-11.91-7.85-14.25s-3.25-4.1-3.94-3.93c-.69.18-2.35,2.32-3.69,4.75-1.34,2.44-4.61,12.08-7.27,21.43-2.66,9.35-5.5,20.83-6.32,25.5-.83,4.67-2.17,11.09-2.98,14.25-.82,3.16-1.49,7.77-1.49,10.25s-.34,4.5-.75,4.5-2.18-1.69-3.92-3.75c-2.05-2.43-3.5-3.4-4.1-2.75-.51.55-1.5,5.05-2.2,10s-1.91,11.7-2.69,15-1.8,7.13-2.27,8.5c-.47,1.38-1.47,5.12-2.21,8.32l-1.36,5.83c-3.97-5.12-5.52-6.18-6.25-5.8-.91.48-1.21,4.08-1.09,13.4h0c.09,7.01.33,14.33.54,16.25.2,1.92,1.26,8,2.34,13.5,1.09,5.5,2.87,12.36,3.97,15.25l1.99,5.25c-4.4-.88-5.01-.58-5.02.75-.02.96,1.83,7.15,4.1,13.75,2.26,6.6,4.93,13.58,5.93,15.5.99,1.92,3.29,5.52,5.11,8s4.85,6.75,6.75,9.5c1.89,2.75,5.12,7.48,7.16,10.5s21.64,31.48,26.11,36.98M-189.18,81.66c.5-3.56,1.74-10.98,2.76-16.48,1.03-5.5,2.15-11.8,2.5-14,.34-2.2,1.31-6.02,2.15-8.5.83-2.48,2.61-8.33,3.93-13,1.33-4.67,3.09-10.75,3.91-13.5.81-2.75,2.13-5.9,2.92-7,.98-1.35,1.79-1.68,2.5-1,.58.55,4.04,6.63,7.7,13.5,3.66,6.88,7.98,14.98,9.59,18,2.29,4.28,2.8,6.28,2.33,9-.33,1.92-1.43,4.63-2.45,6-1.01,1.38-4.99,8.8-8.85,16.5-4.76,9.5-7.7,16.89-9.17,23-1.19,4.95-1.92,9.11-1.62,9.25s1,.02,1.55-.25,1-1.4,1-2.5,1.35-6.05,3-11,4.63-12.26,6.63-16.25c2-3.99,5.68-10.85,8.19-15.25,2.5-4.4,5.59-10.14,6.87-12.75,1.27-2.61,2.65-4.76,3.06-4.77.41-.02,2.2,4.6,3.96,10.25,1.77,5.65,4.39,14.77,5.82,20.27s2.96,10.67,3.41,11.5,1.32,4.54,3.06,15l-4.13,7.75c-2.27,4.26-6.85,12.92-10.18,19.25s-6.54,12.51-7.12,13.74c-.59,1.24-1.41,2.25-1.82,2.25s-1.09-1-1.5-2.24-2.76-6.08-5.21-10.75c-3.88-7.41-6.46-10.5-20.08-24.02l-15.62-15.52.91-6.48h0ZM-207.92,125.24c.34-2.23,2.22-10.81,4.17-19.06,1.96-8.25,4.03-17.02,5.66-24l3.53,4.5c1.94,2.48,10.11,11.02,18.17,19,14.5,14.36,14.7,14.62,27.06,39.5l-4.18,10c-2.3,5.5-5.21,14.05-6.46,19-1.67,6.57-2.17,10.89-1.87,16,.35,5.77.2,6.71-.84,5.35-.69-.91-3.05-4.21-5.25-7.34-2.2-3.12-6.24-8.68-8.98-12.34-2.74-3.67-6.56-8.95-8.5-11.74-1.94-2.79-6.33-9.2-9.77-14.25s-6.25-9.41-6.25-9.68-1.6-2.83-3.56-5.69c-3.1-4.53-3.47-5.7-2.93-9.25ZM-173.43,250.24c-.28.27-2.12-1.43-4.09-3.79-1.98-2.35-4.87-6.29-6.41-8.77-1.55-2.48-6.27-9.45-10.5-15.5-4.22-6.05-8.04-11.9-8.48-13s-2.06-5.6-3.61-10-2.85-8.45-2.89-9c-.05-.55.95.58,2.21,2.5s2.85,4.74,3.53,6.25,1.8,2.75,2.49,2.75,3.95,5.05,7.25,11.22c3.3,6.18,7.94,14.84,10.31,19.25,2.37,4.42,5.74,10.18,7.5,12.81,1.75,2.63,2.97,5,2.69,5.28ZM-167.13,253.68c-2.8-4.12-6.6-9.98-8.46-13-1.85-3.02-3.86-6.4-4.46-7.5s-5.43-10.21-10.73-20.25c-5.31-10.04-10.1-18.25-10.65-18.25s-1.63-1.91-2.41-4.25c-.77-2.34-2.81-8.08-4.52-12.75-1.72-4.67-3.84-12.33-4.71-17h0c-.88-4.67-1.93-12.77-2.33-18-.41-5.23-.77-10.4-.81-11.5-.05-1.1.23-2.84.6-3.87.53-1.45,3.12,1.87,11.68,14.94,6.05,9.24,15.47,22.9,20.93,30.36,5.46,7.47,12.27,16.94,15.13,21.07,2.86,4.12,7.1,11.33,9.44,16,2.33,4.67,5.28,12.1,6.55,16.5,1.27,4.4,2.79,10.92,3.37,14.5.59,3.58,1.06,10.33,1.06,15-.01,4.67-.4,9.17-.88,10-.48.83-1.38,1.16-1.99.75s-1.79-.3-2.61.25c-1.13.75-2.44.2-5.31-2.25-2.1-1.79-6.1-6.62-8.89-10.75h0ZM-149.27,226.18c-1.58-5.5-4.07-12.36-5.52-15.25-1.46-2.9-3.04-8.27-3.52-12-.48-3.71-.92-9-.98-11.75s1-9.05,2.34-14c1.35-4.95,4.91-14.4,7.91-21,2.99-6.6,9.58-19.87,14.64-29.5,5.06-9.62,10.16-19.18,11.33-21.24s2.36-3.77,2.64-3.79c.27-.03,1.47,2.11,2.67,4.74,1.4,3.09,2.98,10.63,4.45,21.29,1.49,10.86,2.27,21.46,2.28,31,0,10.16-.53,17.04-1.79,23-.99,4.68-3.06,13.45-4.6,19.5s-3.58,13.7-4.53,17-3.27,9.6-5.16,14c-1.89,4.4-5.55,12.21-8.13,17.35-2.58,5.14-5.71,10.31-6.94,11.5-1.24,1.18-2.42,1.93-2.62,1.65-.21-.27-.65-5.45-.98-11.5-.42-7.69-1.47-14.01-3.49-21h0Z"/>
  <path d="M528.6,15.79l1.04,4.25c11.89-10.37,12.53-11.32,12.8-15.2.16-2.37-.68-10.15-1.88-17.3-1.19-7.15-2.51-13.45-2.94-14-.45-.58-2.15,1.09-4.07,4-1.82,2.75-5.02,8.71-7.11,13.25-2.09,4.54-3.79,8.59-3.78,9s1.12,3.22,2.46,6.25,2.91,7.41,3.48,9.75Z"/>
  <path d="M501.64,32.89c2.2,1.73,5.35,5.4,7,8.15s3.34,4.99,3.75,4.98c.41-.01,1.88-2.58,3.25-5.72,1.38-3.14,4.42-8.2,6.77-11.24,2.35-3.03,4.27-6.2,4.26-7.02,0-.83-.75-3.97-1.65-7-.89-3.03-2.2-6.4-2.89-7.5-.7-1.1-2.05-4.47-3.01-7.5s-1.91-5.84-2.11-6.25-1.32.04-2.47,1c-1.16.96-4.5,5.8-7.43,10.75-2.92,4.95-6.26,12.15-7.41,16-1.16,3.85-2.09,7.27-2.08,7.6.01.33,1.82,2.02,4.02,3.75Z"/>
  <path d="M469.69,36.84l3.95,3.2c.02-4.26.92-8.54,2.02-12.25,1.09-3.71,2.54-7.03,3.23-7.38.69-.34,4.48,1.12,8.42,3.25,3.95,2.13,7.44,3.65,7.77,3.38.32-.28.87-2.3,1.22-4.5.54-3.36.11-4.96-2.69-10-1.83-3.3-4.92-8.03-6.85-10.5s-4.63-5.63-6-7c-1.36-1.38-4.31-3.74-6.55-5.25s-4.8-2.71-5.69-2.67c-1.39.06-1.72,2.15-2.28,14.25-.36,7.79-.81,16.87-1.01,20.17-.2,3.3-.16,7.37.08,9.05.29,2.03,1.75,4.11,4.38,6.25Z"/>
  <path d="M466.64,75.32c4.13,3.33,8.07,6.77,8.77,7.64,1.13,1.41,1.27,1.36,1.37-.42.05-1.1.08-2.23.06-2.5-.02-.28-.55-7.03-1.18-15-.68-8.6-1.79-15.93-2.71-18-.86-1.92-2.3-4.35-3.19-5.38s-4.88-4.29-8.87-7.25c-3.99-2.95-10.06-7.1-13.5-9.21s-7.71-4.51-9.5-5.32c-1.79-.82-3.2-1.23-3.15-.91.06.31.88,2.37,1.82,4.57.95,2.2,3.25,7.37,5.11,11.5h0c1.87,4.12,5.4,11.32,7.86,16,2.45,4.67,5.62,10.69,7.03,13.37,1.71,3.23,5.1,6.89,10.08,10.91ZM454.72,46.18c-.51.08-2.57-1.82-4.58-4.21-3.14-3.76-3.4-4.41-1.83-4.71h0c1.13-.21,2.87.93,4.54,2.97,1.49,1.82,2.73,3.87,2.75,4.56.02.69-.37,1.31-.88,1.39Z"/>
  <path d="M529.74,24.64c-2.97,3.25-6.53,7.7-7.91,9.9-1.38,2.2-3.5,6.92-4.71,10.5-1.66,4.87-2.12,8.19-1.84,13.25.22,4.08-.04,6.75-.64,6.75-.55,0-1.01-1.01-1.01-2.25-.01-1.24-.5-3.83-1.09-5.75-.59-1.93-2.5-6.35-4.24-9.84-1.78-3.58-5.34-8.42-8.16-11.1-2.75-2.61-8.26-6.39-12.25-8.41-3.99-2.01-7.43-3.54-7.65-3.4s-1.12,2.72-2.01,5.75c-.88,3.02-1.53,7.52-1.44,10,.1,2.47.49,9.45.88,15.5.38,6.05,1.2,14.15,1.82,18h0c.61,3.85,1.23,8.89,1.38,11.2.15,2.39.97,4.76,1.89,5.5.89.71,3.62,4.9,6.07,9.3,2.44,4.4,5.48,11.15,6.75,15s2.59,7.31,2.93,7.7c.35.38.73-2.55.84-6.5.13-4.53,1.35-11.1,3.28-17.7,2.2-7.53,4.94-13.75,9.69-22,3.64-6.33,10.49-17.06,15.22-23.86s11.19-14.79,14.35-17.75c4.48-4.2,6.25-5.26,8-4.81,2.08.53,2.38,0,3.98-6.75.96-4.03,2.08-10.62,2.5-14.65.42-4.02.66-7.51.52-7.75-.14-.23-5.09,3.78-11,8.92-5.91,5.15-13.18,12.01-16.15,15.25h0Z"/>
  <path d="M556.32,29.81c.45-.32,5.72-3.46,11.7-6.99h0c5.98-3.53,11.27-6.49,11.75-6.6.48-.1,1.11-1.87,1.41-3.93s.3-4.54,0-5.5-1.44-1.75-2.54-1.75c-1.18,0-5.5,3.5-10.5,8.5-4.68,4.67-9.43,10.38-10.57,12.67-1.14,2.3-1.71,3.92-1.25,3.6Z"/>
  <path d="M510.31,124.29c2.02-.96,5.44-3.78,7.59-6.25,2.16-2.48,5.84-7.42,8.19-11,2.34-3.58,6.33-11.67,8.85-18,2.53-6.33,5.69-14.65,7.03-18.5,1.33-3.85,3.13-10.15,3.99-14s2.07-10.38,2.69-14.5c.62-4.13,1.32-7.84,1.56-8.25s-.13-1.03-.82-1.36c-.72-.36-3.49,1.66-6.54,4.75-2.91,2.95-8.31,9.61-12,14.81-3.69,5.19-7.16,10.24-7.71,11.22-.55.97-4.04,6.96-7.75,13.3-3.71,6.34-7.89,15.02-9.28,19.28-1.4,4.26-2.77,9.55-3.06,11.75-.28,2.2-.72,5.39-.97,7.08-.26,1.7-.23,3.31.06,3.57.29.27.64,2.82.76,5.67.13,2.85.58,5.18.99,5.18s1.43-.23,2.25-.5c.82-.28,1.27-.95,1-1.5s1.15-1.79,3.17-2.75h0ZM515.47,104.64c1.29-.6,3.31-3.02,4.5-5.37,1.19-2.36,2.73-4.27,3.42-4.25.69,0,1.25.25,1.25.52s-1.12,2.75-2.5,5.5c-1.37,2.75-2.95,5.23-3.5,5.5s-2.01.21-3.25-.15l-2.25-.65,2.33-1.1h0Z"/>
  <path d="M525.76,121.04c-2.99,3.53-5.52,5.18-11.72,7.66-4.34,1.73-10.71,3.61-14.15,4.17s-6.25,1.43-6.25,1.93,1.69,1.36,3.75,1.91c3.12.85,4.84.62,10.25-1.35,3.57-1.3,7.29-2.35,8.25-2.34.96,0,2.43-1.33,3.25-2.98s2.06-3.02,2.75-3.05,2.71-1.83,4.5-4,3.23-4.51,3.22-5.2c-.02-.69-1.76.77-3.85,3.25Z"/>
  <path d="M497.03,128.29c-.33-.96-1.94-5.8-3.58-10.75-1.63-4.95-4.59-11.7-6.57-15-1.99-3.3-6.79-9.3-10.67-13.33-3.89-4.04-12.25-11.7-18.57-17.04-6.32-5.33-14.2-11.72-17.5-14.19-3.3-2.48-7.91-5.72-10.25-7.22s-4.48-2.72-4.75-2.72-.48.34-.46.75,3.06,6.64,6.75,13.84c3.69,7.2,8.72,15.75,11.17,19h0c2.45,3.25,9.88,11.33,16.5,17.96,6.62,6.62,15.86,16.18,20.54,21.23,8.4,9.08,8.55,9.18,13.25,9.2,4.09.02,4.67-.22,4.14-1.73h0Z"/>
  <path d="M581.39,17.93c-1.79,1.05-4.82,2.74-6.75,3.78-1.93,1.03-4.85,2.74-6.5,3.8-1.65,1.06-5.48,4.19-8.5,6.95-3.02,2.77-6.04,5.94-6.69,7.06-.66,1.11-1.49,4.5-1.86,7.52-.36,3.02-1.52,8.65-2.57,12.5s-3.31,10.83-5.02,15.5-3.68,9.62-4.37,11c-.69,1.37-2.47,5.65-3.96,9.5s-4.25,9.14-6.12,11.75c-1.88,2.61-3.42,5.09-3.42,5.5-.01.41-2.15,2.89-4.75,5.51-3.37,3.38-4.23,4.76-2.99,4.75.96,0,6.19-4.4,11.62-9.76h0c7.27-7.19,12.08-13.16,18.31-22.75,4.64-7.15,11.77-18.63,15.84-25.5,4.06-6.88,10.06-17.67,13.32-24,3.38-6.54,6.47-14.09,7.17-17.5.67-3.3,1.06-6.34.86-6.75-.21-.41-1.83.1-3.62,1.14ZM559.78,58.04c-1.07,1.92-2.67,3.81-3.54,4.2-.88.39-1.6.28-1.6-.25s1.16-2.86,2.58-5.2c1.69-2.79,2.91-3.91,3.55-3.25.63.65.28,2.23-.99,4.5Z"/>
  <path d="M516.56,145.04c.42-4.68.73-8.61.68-8.74-.06-.13-2.12.72-4.6,1.89-2.88,1.36-6.39,2.1-9.75,2.07-2.89-.03-5.25.05-5.25.17,0,.11.84.83,1.87,1.6,1.03.76,2.72,3.32,3.75,5.69h0c1.03,2.37,2.44,4.31,3.13,4.32.69,0,1.7.9,2.25,2"/>
  <path class="st1" d="M518.39,154.04c4.34-8.55,8.45-27.78,10.54-30.52,2.08-2.74,4.27-6.56,4.86-8.48.6-1.92,2.78-5.3,4.86-7.5,2.08-2.2,7.57-9.85,12.2-17,4.63-7.15,10.39-16.38,12.8-20.5,2.4-4.13,4.86-8.4,5.46-9.5.59-1.1,2.31-3.91,3.81-6.25,1.49-2.34,5.27-9.31,8.38-15.5,4-7.94,5.9-13.02,6.45-17.25.43-3.3,1.03-7.01,1.34-8.25.35-1.42.09-2.26-.7-2.27h0c-.69,0-1.82.56-2.52,1.25-1.02,1.03-1.28.98-1.36-.23-.05-.83-.02-2.63.06-4,.08-1.38-.65-3.3-1.64-4.28-.98-.98-2.69-1.76-3.79-1.72-1.1.03-3.35,1.1-5,2.38-1.65,1.27-5.7,5.08-9,8.47-3.3,3.38-6.13,6.03-6.3,5.9-.16-.14.29-5.28,1-11.44.72-6.15.96-11.44.55-11.75s-2.21.44-4,1.67c-1.79,1.22-4.82,3.69-6.75,5.47l-3.5,3.25c-2.03-13.52-3.04-20.71-3.56-24.7-.52-3.99-1.39-8.38-1.94-9.75-.6-1.5-1.8-2.5-3-2.5-1.33,0-3.07,1.74-5.21,5.25-1.76,2.89-5.07,8.85-7.35,13.25l-4.14,8c-2.17-5.1-3.48-6.54-4.3-6.5s-3.75,3.23-6.5,7.08-6.24,9.46-7.75,12.46-3.09,5.46-3.5,5.45-2.32-2.78-4.25-6.17-6.87-9.62-11-13.85c-6.62-6.79-8.12-7.83-12.75-8.84-2.89-.62-5.7-.91-6.25-.63-.61.31-.81,3.99-.5,9.5.31,5.51.11,9.19-.5,9.5-.59.29-.96,5.14-.89,11.75.06,6.19-.17,12.26-.5,13.5-.6,2.2-.75,2.16-6.86-2.01-3.44-2.34-8.73-5.75-11.75-7.58-3.02-1.82-7.42-3.62-9.77-3.99-2.34-.37-4.26-.45-4.26-.17s.91,2.41,2.02,4.75c1.1,2.34,2.01,4.59,2,5s1.75,4.35,3.9,8.75,5.05,10.47,6.43,13.5c1.39,3.02,3.95,7.96,5.7,10.96l3.17,5.46c-7.13-5.36-13.36-9.74-18.45-13.19-5.08-3.45-10.25-6.26-11.49-6.25-1.5.01-2.25.63-2.25,1.84,0,1,2.86,7.64,6.37,14.75,3.5,7.11,8.56,16.16,11.25,20.1,2.68,3.95,11.63,14.12,19.88,22.61s17.25,17.99,20,21.12c2.75,3.13,5.34,6.57,5.75,7.65.41,1.07,2.44,2.99,4.5,4.27s4.76,3.75,6,5.5,2.25,3.97,2.26,4.93c0,.96,11.43,17.2,16.49,14.86M568.14,13.54c5-5,9.32-8.5,10.5-8.5,1.1,0,2.24.79,2.54,1.75s.3,3.44,0,5.5-.93,3.83-1.41,3.93c-.48.11-5.77,3.07-11.75,6.6h0c-5.98,3.53-11.25,6.67-11.7,6.99-.46.32.11-1.3,1.25-3.6,1.14-2.29,5.89-8,10.57-12.67ZM545.89,9.39c5.91-5.14,10.86-9.15,11-8.92.14.24-.1,3.73-.52,7.75-.42,4.03-1.54,10.62-2.5,14.65-1.6,6.76-1.9,7.28-3.98,6.75-1.75-.45-3.52.61-8,4.81-3.16,2.96-9.62,10.95-14.35,17.75-4.73,6.8-11.58,17.53-15.22,23.86-4.75,8.25-7.49,14.47-9.69,22-1.93,6.6-3.15,13.17-3.28,17.7-.11,3.95-.49,6.88-.84,6.5-.34-.39-1.66-3.85-2.93-7.7-1.27-3.85-4.31-10.6-6.75-15-2.45-4.4-5.18-8.59-6.07-9.3-.92-.74-1.74-3.11-1.89-5.5-.15-2.31-.77-7.35-1.38-11.2h0c-.62-3.85-1.44-11.95-1.82-18-.39-6.05-.78-13.03-.88-15.5-.09-2.48.56-6.98,1.44-10,.89-3.03,1.79-5.61,2.01-5.75s3.66,1.39,7.65,3.4c3.99,2.02,9.5,5.8,12.25,8.41,2.82,2.68,6.38,7.52,8.16,11.1,1.74,3.49,3.65,7.91,4.24,9.84.59,1.92,1.08,4.51,1.09,5.75,0,1.24.46,2.25,1.01,2.25.6,0,.86-2.67.64-6.75-.28-5.06.18-8.38,1.84-13.25,1.21-3.58,3.33-8.3,4.71-10.5s4.94-6.65,7.91-9.9c2.97-3.24,10.24-10.1,16.15-15.25ZM507.14,127.04c.27.55-.18,1.22-1,1.5-.82.27-1.84.5-2.25.5s-.86-2.33-.99-5.18c-.12-2.85-.47-5.4-.76-5.67-.29-.26-.32-1.87-.06-3.57.25-1.69.69-4.88.97-7.08.29-2.2,1.66-7.49,3.06-11.75,1.39-4.26,5.57-12.94,9.28-19.28s7.2-12.33,7.75-13.3c.55-.98,4.02-6.03,7.71-11.22,3.69-5.2,9.09-11.86,12-14.81,3.05-3.09,5.82-5.11,6.54-4.75.69.33,1.06.95.82,1.36s-.94,4.12-1.56,8.25c-.62,4.12-1.83,10.65-2.69,14.5s-2.66,10.15-3.99,14c-1.34,3.85-4.5,12.17-7.03,18.5-2.52,6.33-6.51,14.42-8.85,18-2.35,3.58-6.03,8.52-8.19,11-2.15,2.47-5.57,5.29-7.59,6.25s-3.44,2.2-3.17,2.75h0ZM526.44-9.21c2.09-4.54,5.29-10.5,7.11-13.25,1.92-2.91,3.62-4.58,4.07-4,.43.55,1.75,6.85,2.94,14,1.2,7.15,2.04,14.93,1.88,17.3-.27,3.88-.91,4.83-12.8,15.2l-1.04-4.25c-.57-2.34-2.14-6.72-3.48-9.75-1.34-3.03-2.45-5.84-2.46-6.25s1.69-4.46,3.78-9ZM499.7,21.54c1.15-3.85,4.49-11.05,7.41-16,2.93-4.95,6.27-9.79,7.43-10.75,1.15-.96,2.27-1.41,2.47-1,.2.41,1.15,3.22,2.11,6.25s2.31,6.4,3.01,7.5c.69,1.1,2,4.47,2.89,7.5.9,3.03,1.65,6.17,1.65,7,.01.82-1.91,3.99-4.26,7.02-2.35,3.04-5.39,8.1-6.77,11.24-1.37,3.14-2.84,5.71-3.25,5.72s-2.1-2.23-3.75-4.98-4.8-6.42-7-8.15-4.01-3.42-4.02-3.75c-.01-.33.92-3.75,2.08-7.6h0ZM465.23,21.54c.2-3.3.65-12.38,1.01-20.17.56-12.1.89-14.19,2.28-14.25.89-.04,3.45,1.16,5.69,2.67,2.24,1.51,5.19,3.87,6.55,5.25,1.37,1.37,4.07,4.53,6,7s5.02,7.2,6.85,10.5c2.8,5.04,3.23,6.64,2.69,10-.35,2.2-.9,4.22-1.22,4.5-.33.27-3.82-1.25-7.77-3.38-3.94-2.13-7.73-3.59-8.42-3.25-.69.35-2.14,3.67-3.23,7.38-1.1,3.71-2,7.99-2.02,12.25l-3.95-3.2c-2.63-2.14-4.09-4.22-4.38-6.25-.24-1.68-.28-5.75-.08-9.05ZM449.53,51.04c-2.46-4.68-5.99-11.88-7.86-16h0c-1.86-4.13-4.16-9.3-5.11-11.5-.94-2.2-1.76-4.26-1.82-4.57-.05-.32,1.36.09,3.15.91,1.79.81,6.06,3.21,9.5,5.32,3.44,2.11,9.51,6.26,13.5,9.21,3.99,2.96,7.98,6.22,8.87,7.25s2.33,3.46,3.19,5.38c.92,2.07,2.03,9.4,2.71,18,.63,7.97,1.16,14.72,1.18,15,.02.27,0,1.4-.06,2.5-.1,1.78-.24,1.83-1.37.42-.7-.87-4.64-4.31-8.77-7.64-4.98-4.02-8.37-7.68-10.08-10.91-1.41-2.68-4.58-8.7-7.03-13.37ZM492.89,130.02c-4.7-.02-4.85-.12-13.25-9.2-4.68-5.05-13.92-14.61-20.54-21.23-6.62-6.63-14.05-14.71-16.5-17.96h0c-2.45-3.25-7.48-11.8-11.17-19s-6.73-13.43-6.75-13.84.19-.75.46-.75,2.41,1.22,4.75,2.72c2.34,1.5,6.95,4.74,10.25,7.22,3.3,2.47,11.18,8.86,17.5,14.19,6.32,5.34,14.68,13,18.57,17.04,3.88,4.03,8.68,10.03,10.67,13.33,1.98,3.3,4.94,10.05,6.57,15,1.64,4.95,3.25,9.79,3.58,10.75.53,1.51-.05,1.75-4.14,1.73ZM508.64,154.04c-.55-1.1-1.56-2-2.25-2s-2.1-1.95-3.13-4.32h0c-1.03-2.37-2.72-4.93-3.75-5.69-1.03-.77-1.87-1.49-1.87-1.6,0-.12,2.36-.2,5.25-.17,3.36.03,6.87-.71,9.75-2.07,2.48-1.17,4.54-2.02,4.6-1.89.05.13-.26,4.06-.68,8.74M526.39,122.99c-1.79,2.17-3.81,3.97-4.5,4s-1.93,1.4-2.75,3.05-2.29,2.99-3.25,2.98c-.96,0-4.68,1.04-8.25,2.34-5.41,1.97-7.13,2.2-10.25,1.35-2.06-.55-3.75-1.42-3.75-1.91s2.81-1.37,6.25-1.93,9.81-2.44,14.15-4.17c6.2-2.48,8.73-4.13,11.72-7.66,2.09-2.48,3.83-3.94,3.85-3.25.01.69-1.43,3.03-3.22,5.2ZM584.15,23.54c-.7,3.41-3.79,10.96-7.17,17.5-3.26,6.33-9.26,17.12-13.32,24-4.07,6.87-11.2,18.35-15.84,25.5-6.23,9.59-11.04,15.56-18.31,22.75h0c-5.43,5.36-10.66,9.76-11.62,9.76-1.24,0-.38-1.37,2.99-4.75,2.6-2.62,4.74-5.1,4.75-5.51,0-.41,1.54-2.89,3.42-5.5,1.87-2.61,4.63-7.9,6.12-11.75,1.49-3.85,3.27-8.13,3.96-9.5.69-1.38,2.66-6.33,4.37-11s3.97-11.65,5.02-15.5,2.21-9.48,2.57-12.5c.37-3.02,1.2-6.41,1.86-7.52.65-1.12,3.67-4.29,6.69-7.06,3.02-2.76,6.85-5.89,8.5-6.95s4.57-2.77,6.5-3.8c1.93-1.04,4.96-2.73,6.75-3.78,1.79-1.04,3.41-1.55,3.62-1.14.2.41-.19,3.45-.86,6.75Z"/>
  <path class="st5" d="M448.31,37.26h0c-1.57.3-1.31.95,1.83,4.71,2.01,2.39,4.07,4.29,4.58,4.21s.9-.7.88-1.39-1.26-2.74-2.75-4.56c-1.67-2.04-3.41-3.18-4.54-2.97Z"/>
  <path class="st5" d="M557.22,56.79c-1.42,2.34-2.58,4.68-2.58,5.2s.72.64,1.6.25c.87-.39,2.47-2.28,3.54-4.2,1.27-2.27,1.62-3.85.99-4.5-.64-.66-1.86.46-3.55,3.25Z"/>
  <path class="st5" d="M518.64,106.54c.55-.27,2.13-2.75,3.5-5.5,1.38-2.75,2.5-5.23,2.5-5.5s-.56-.51-1.25-.52c-.69-.02-2.23,1.89-3.42,4.25-1.19,2.35-3.21,4.77-4.5,5.37l-2.33,1.1,2.25.65c1.24.36,2.7.42,3.25.15h0Z"/>
</svg>