<?xml version="1.0" encoding="UTF-8"?>
<svg id="Layer_1" xmlns="http://www.w3.org/2000/svg" version="1.1" viewBox="0 0 292.33 754.66">
  <!-- Generator: Adobe Illustrator 30.2.1, SVG Export Plug-In . SVG Version: 2.1.1 Build 1)  -->
  <defs>
    <style>
      .st0, .st1 {
        fill: #fff;
        isolation: isolate;
      }

      .st0, .st1, .st2 {
        stroke: #fff;
        stroke-miterlimit: 10;
        stroke-width: 3px;
      }

      .st1 {
        opacity: .81;
      }
    </style>
  </defs>
  <path class="st2" d="M60.9,140.62c-2.19,1.97-3.19,3.89-3.5,6.75-.23,2.2.13,5.58.82,7.5h0c1.04,2.93,1.77,3.54,4.49,3.75,1.79.14,4.6-.42,6.25-1.25s3.77-2.74,4.7-4.25c.94-1.51,1.62-4.33,1.5-6.25-.14-2.28-1.16-4.46-2.95-6.27-1.7-1.71-3.8-2.76-5.5-2.75-1.57,0-4.07,1.2-5.81,2.77ZM68.21,143.3c.97.31,2.01,1.81,2.33,3.32.36,1.71-.02,3.6-1,5-.87,1.24-2.45,2.28-3.51,2.32s-2.63-.67-3.5-1.57c-.86-.9-1.57-1.95-1.58-2.32,0-.38,1.23-2.18,2.75-4,1.87-2.25,3.33-3.14,4.51-2.75Z"/>
  <path class="st2" d="M76.21,125.24c-1.51.75-3.08,2.43-3.49,3.75-.4,1.31-.72,2.61-.69,2.88.02.27.67,2.08,1.44,4,.77,1.92,2.1,3.84,2.95,4.25s2.22.52,3.04.25c.83-.27,1.5-.95,1.5-1.5s.91-2.01,2.02-3.25,2.01-3.04,2-4-.81-2.9-1.77-4.29c-.96-1.4-2.31-2.75-3-3-.69-.26-2.49.15-4,.91Z"/>
  <path class="st2" d="M103.62,148.93c-.72-1.51-2.48-2.77-4.66-3.33-2.61-.66-4.33-.49-6.75.69-1.79.87-4.15,3.04-5.25,4.83-1.09,1.79-1.99,4.15-1.98,5.25,0,1.1.59,3.13,1.3,4.5,1.12,2.17,1.89,2.47,5.74,2.26,3.5-.19,5.13-.94,7.7-3.5,1.8-1.79,3.67-4.38,4.16-5.76.59-1.63.5-3.35-.26-4.94ZM100.09,156.12c-1.82,2.19-1.94,2.2-4.5.48-1.45-.97-2.63-2.32-2.64-3s.55-1.8,1.25-2.5,2.28-1.26,3.51-1.25c1.24,0,2.7.92,3.25,2.02.77,1.53.56,2.53-.87,4.25Z"/>
  <path class="st2" d="M92.71,99.84c-4.19-.02-5.68.44-7.38,2.25-1.16,1.26-2.63,3.29-3.25,4.53-.61,1.24-1.11,3.94-1.11,6,.01,2.06.58,4.76,1.27,6s2.37,3.01,3.73,3.93c2.33,1.57,2.8,1.57,7.24,0,3.38-1.2,5.18-2.54,6.25-4.68.83-1.65,1.5-5.25,1.5-8s-.67-6.12-1.5-7.5c-1.29-2.15-2.23-2.5-6.75-2.53ZM95.78,112.26c-1.24.82-2.35.79-4.25-.12-1.41-.68-2.58-1.81-2.58-2.5-.01-.7.55-2.09,1.25-3.09.86-1.24,2.23-1.72,4.26-1.5,2.57.27,3,.74,3,3.21,0,1.6-.75,3.39-1.68,4Z"/>
  <path class="st2" d="M130.46,151.12c-3.13-1.56-3.95-1.6-7.75-.36-2.34.76-5.49,2.67-7,4.25-1.51,1.57-2.7,3.65-2.63,4.61.06.96.32,2.65.57,3.74h0c.27,1.19,1.13,1.88,2.13,1.71.93-.16,2.36.43,3.18,1.3.83.87,2.85,1.56,4.5,1.53,1.65-.04,4.45-1.07,6.23-2.3s3.73-3.35,4.35-4.73c.61-1.37.85-3.74.52-5.25-.4-1.83-1.77-3.33-4.1-4.5h0ZM125.96,164.37c-1.1.27-2.45.25-3-.05h0c-.55-.3-1-.98-1-1.5s.57-.96,1.25-.97c.93,0,.9-.26-.1-.98-.93-.66-1.01-1.13-.25-1.48.6-.29,2-.07,3.1.48s2,1.67,2,2.5-.9,1.72-2,2Z"/>
  <path class="st2" d="M145.18,96.59c-.94-.98-2.51-1.77-3.47-1.75s-1.97.48-2.25,1.03-1.29.98-2.25.97c-.96-.02-2.99.88-4.5,2-2.11,1.56-2.75,2.86-2.75,5.63s.77,4.35,3.4,6.9h0c1.87,1.81,4.23,3.36,5.25,3.43,1.02.08,3.09-.78,4.6-1.9,1.51-1.11,3.4-3.27,4.2-4.78,1.1-2.08,1.22-3.6.48-6.25-.54-1.92-1.76-4.3-2.71-5.28ZM144.51,107.62c-.85.69-2.45,1-3.55.69-1.1-.3-2-1.2-2-2s.9-1.89,2-2.44,2.68-.78,3.5-.5c.83.27,1.52,1.06,1.55,1.75.02.69-.65,1.81-1.5,2.5Z"/>
  <path class="st2" d="M161.41,125.62c.85-2.06,1.57-4.76,1.59-6s-.88-3.49-2-5c-1.5-2.02-2.9-2.75-5.29-2.74-1.78,0-4.6.9-6.25,2s-3.54,3.01-4.21,4.24c-.67,1.24-1.23,3.27-1.25,4.52-.02,1.31,1.71,4.16,4.09,6.73h0c2.27,2.45,4.86,4.48,5.75,4.5.89.03,2.61-.97,3.82-2.23,1.2-1.25,2.89-3.96,3.75-6.02ZM152.21,120.78h0c-.68-.62-1.25-1.69-1.25-2.36,0-.79,1.52-1.19,4.25-1.14,3.56.07,4.25.42,4.25,2.09,0,1.49-.76,2.07-3,2.27-1.65.15-3.56-.23-4.25-.86Z"/>
  <path class="st2" d="M80.68,165.62c1.55-2.28,2-3.94,1.5-5.57-.4-1.28-1.62-2.57-2.72-2.86-1.1-.3-3.24-.26-4.75.07-1.51.34-3.87,1.73-5.25,3.11s-2.47,3.06-2.44,3.75c.04.69.44,2.22.89,3.42.46,1.19,1.55,2.65,2.44,3.25,1.19.8,2.45.69,4.86-.42,1.79-.83,4.25-2.97,5.47-4.75Z"/>
  <path class="st2" d="M90.91,41.06c.58-.1,1.95-.64,3.05-1.19s3.02-2.61,4.25-4.58c1.5-2.39,1.58-4.24.25-5.55-1.1-1.1-4.01-2.23-6.5-2.55-3.37-.43-4.94-.17-6.25,1.05-.96.9-1.75,2.65-1.75,3.9s1.33,3.8,2.95,5.69c1.62,1.89,3.42,3.34,4,3.23Z"/>
  <path class="st2" d="M42.71,85.89c-1.62-.01-3.77,1-5.25,2.48-1.37,1.37-2.95,3.62-3.5,5-.55,1.37-.97,2.84-.93,3.25.03.41.45,1.72.92,2.9h0c.48,1.18,1.91,2.87,3.19,3.75,1.28.89,3.22,1.63,4.32,1.65s2.56-.54,3.24-1.26c.69-.71,1.03-1.63.75-2.04-.27-.41.41-2.21,1.51-4s2.01-4.38,2.03-5.75c.02-1.38-.76-3.28-1.74-4.23-.99-.94-3.02-1.73-4.54-1.75ZM45.76,94.63c-1.04,1.06-2.31,1.46-3.25,1.01h0c-.85-.4-1.55-1.07-1.55-1.5s1.01-1.37,2.25-2.1c1.61-.95,2.54-1.02,3.25-.24.68.73.45,1.65-.7,2.83Z"/>
  <path class="st2" d="M104.73,32.47c.4.6,1.75,1.62,2.98,2.25,1.24.63,3.27,1.16,4.5,1.17,1.24,0,3.48-1.23,4.98-2.75,1.51-1.52,2.74-3.33,2.75-4.02s-1.21-2.17-2.73-3.29c-1.51-1.11-4.21-2.01-6-2-1.78.02-4.15.49-5.25,1.04-1.28.64-1.99,1.99-1.98,3.75.01,1.51.34,3.24.75,3.85h0Z"/>
  <path class="st2" d="M107.55,175.37c1.3-2.2,2.4-5.12,2.43-6.5.04-1.37-.68-3.17-1.59-4-1.24-1.12-2.84-1.33-6.3-.82-2.76.4-5.14,1.41-5.9,2.5-.69,1-1.26,3.71-1.25,6.01.01,2.95.73,5.02,2.42,7,2.28,2.68,2.52,2.74,5.11,1.31,1.5-.83,3.78-3.3,5.08-5.5h0ZM100.96,174.37c0-.28.28-1.28.61-2.24.38-1.1,1.48-1.64,3-1.5,1.63.16,2.23.72,1.89,1.74-.27.82-.5,1.72-.5,2s-1.12.5-2.5.5-2.5-.23-2.5-.5Z"/>
  <path class="st2" d="M91.16,172.37c.27-1.65.8-3.67,1.17-4.5.53-1.17-.27-1.63-3.59-2.07-3.43-.45-4.53-.2-5.53,1.25-.69,1-2.71,2.72-4.5,3.82-1.79,1.09-2.57,2.01-1.75,2.03.83.02,2.74-.88,4.25-2,1.51-1.11,3.09-1.8,3.5-1.51.41.28.3.95-.25,1.49-.55.54-3.25,2.09-6,3.45s-4.78,2.5-4.5,2.52,4.55,1.4,9.5,3.05c4.95,1.65,9.56,2.99,10.25,2.98.84,0,.55-1.23-.9-3.76-1.41-2.47-1.97-4.78-1.65-6.75h0Z"/>
  <path class="st2" d="M139.99,129.62c.02-1.24-.77-3.03-1.75-3.97-1.04-1.01-3.24-1.7-5.28-1.66-1.92.05-4.57.37-5.88.73-1.3.36-3.22,2.23-4.25,4.15s-1.87,4.4-1.86,5.5.58,3.01,1.27,4.25h0c.69,1.24,2.43,3.04,3.88,4,2.57,1.71,2.73,1.68,6.74-1,2.3-1.54,4.76-4.29,5.6-6.25.83-1.92,1.51-4.51,1.53-5.75ZM135.51,133.62c-.85.69-2.45,1-3.55.69-1.12-.31-2-1.4-2-2.5,0-1.27.86-2.11,2.5-2.44,1.38-.28,2.95-.28,3.5,0,.55.27,1.02,1.06,1.05,1.75.02.69-.65,1.81-1.5,2.5Z"/>
  <path class="st2" d="M52.34,122.65c1.31,1.41,3.26,2.26,5.12,2.24,1.65-.01,4.46-.93,6.25-2.02,1.79-1.1,3.92-3.01,4.75-4.25.82-1.24,1.58-4.27,1.68-6.75.12-2.76-.46-5.56-1.49-7.25-1.35-2.19-2.45-2.76-5.44-2.79-3.11-.04-4.64.76-8.98,4.75-4.15,3.8-5.22,5.41-5.17,7.79.03,1.65.3,3.67.61,4.5h0c.3.83,1.5,2.52,2.67,3.78ZM57.74,111.59c.95-.98,2.96-1.77,4.47-1.75,1.7.02,2.99.7,3.38,1.78.34.96,0,2.77-.75,4.03-.92,1.51-2.41,2.32-4.46,2.41-1.7.08-3.38-.23-3.75-.69h0c-.37-.46-.66-1.55-.64-2.42,0-.87.8-2.38,1.75-3.36Z"/>
  <path class="st2" d="M148.75,134.37c-3.71-3.49-4.97-4.46-5.2-4.41-.22.04-1.06,1.96-1.86,4.27l-1.46,4.18,4.26-2.02,4.26-2.02h0Z"/>
  <path class="st2" d="M46.96,148.3c2.77-.63,3.03-.86,1.25-1.11-1.24-.18-2.25-.77-2.25-1.32s.9-1,2-1c1.2,0,3-1.5,4.5-3.75,1.38-2.06,2.51-4.99,2.5-6.5,0-1.9-1.08-3.68-3.5-5.75-2-1.72-4.68-3.01-6.25-3.03-1.51-.02-3.99.88-5.5,2-1.51,1.11-3.42,3.38-4.25,5.03-.82,1.65-1.5,3.79-1.5,4.75s.79,3.32,1.75,5.25c.96,1.92,3.1,4.11,4.75,4.86,2.03.93,4.13,1.11,6.5.57ZM47.46,134.87c2.77,0,3.45.36,3.24,1.75-.15.96-1.05,1.86-2,2-.96.14-2.41-.25-3.24-.86-.82-.62-1.5-1.52-1.5-2s1.58-.89,3.5-.89Z"/>
  <path class="st2" d="M41.59,70.91h0c1.45,1.19,3.37,2.14,4.25,2.11.89-.03,3.31-1.88,5.37-4.1,2.42-2.62,3.76-5.02,3.77-6.8,0-1.51-.63-3.65-1.42-4.75-1.03-1.43-2.58-2-5.44-2s-4.71.68-6.61,2.5c-2,1.93-2.6,3.46-2.58,6.68.02,3.29.6,4.66,2.66,6.36ZM46.01,62.5c1.68-.07,3.6.16,4.25.51.79.43.36,1.18-1.3,2.26-1.37.9-3.28,1.36-4.25,1.03h0c-.96-.33-1.75-1.29-1.75-2.13,0-1.01,1.04-1.58,3.05-1.67Z"/>
  <path class="st2" d="M55.99,81.98c-1.24.8-1.09,1.35,1,3.45,1.57,1.58,3.56,2.48,5.47,2.45,1.65-.02,4.8-.9,7-1.96,2.67-1.28,4.63-3.19,5.88-5.74,1.49-3,1.69-4.55.96-7.31-.61-2.29-2.12-4.28-4.38-5.78-1.9-1.25-4.7-2.26-6.21-2.25-1.51.02-4.1.7-5.75,1.53-1.7.85-3.65,3.02-4.5,5-.82,1.92-1.48,3.84-1.45,4.25s.82,1.8,1.75,3.08h0c1.48,2.03,1.51,2.46.23,3.28ZM58.57,75.13c.38-1.1,1.48-1.64,3-1.5,1.65.17,2.39.86,2.39,2.24,0,1.1-.78,2.27-1.75,2.61-.96.33-2.31.34-3,.02-.68-.32-1.25-.82-1.25-1.11s.28-1.3.61-2.26Z"/>
  <path class="st2" d="M96.46,88.87c1.65,0,3.34-1.11,4.97-3.25,1.36-1.79,2.49-3.81,2.5-4.5.02-.69-.87-2.15-1.97-3.25-1.16-1.16-3.36-2.01-5.25-2.02-1.79-.02-4.82.6-6.75,1.37-1.92.77-4.29,2.13-5.25,3.03-.96.89-1.75,2.89-1.75,4.45s1,3.85,2.31,5.19c1.71,1.74,3.29,2.31,6,2.17,2.79-.14,3.57-.56,3.19-1.69-.36-1.07.22-1.5,2-1.5ZM92.71,86.34c-.96-.32-1.75-.78-1.75-1.03s.68-1.12,1.5-1.94,2.4-1.5,3.5-1.5c1.33,0,2,.67,2,2,0,1.1-.78,2.24-1.75,2.52-.96.29-2.53.27-3.5-.05Z"/>
  <path class="st2" d="M68.4,173.1c-.58-.4-1.82-1.86-2.76-3.23-.93-1.38-1.69-3.96-1.69-5.75,0-2.95-.27-3.25-2.99-3.25-2.26,0-3.35-.68-4.42-2.75-.79-1.51-1.57-4.62-1.75-6.9l-.33-4.14c-6.83,3.44-9.25,3.9-12.25,3.57-2.34-.25-4.23-.42-4.21-.37.03.05.92,1.84,1.99,3.99h0c1.16,2.31,4.29,5.61,7.71,8.11,3.17,2.32,9.02,5.85,13.01,7.85s7.59,3.63,8,3.62c.41,0,.27-.34-.31-.75h0Z"/>
  <path class="st2" d="M96.67,123.13c-2.44,1.61-5.58,2.76-7.46,2.75-3.16-.01-3.22.06-2.08,2.74.93,2.2.85,3.55-.39,6.75-1.12,2.88-2.64,4.56-5.43,6-3.51,1.81-3.88,2.37-3.9,6-.01,2.2-.39,4.72-.84,5.59-.67,1.31-.17,1.63,2.78,1.75h0c2.82.13,3.62-.22,3.64-1.59.01-.96,2.15-3.73,4.75-6.14,4.63-4.32,4.82-4.39,10.22-3.86,4.22.41,5.92,1.09,7.29,2.89,1.16,1.54,1.66,3.58,1.42,5.86-.2,1.92-1.34,4.96-2.53,6.75l-2.18,3.25c4.65,0,6.68.23,7.5.5,1.13.38,1.51-.31,1.52-2.75.01-1.79.8-4.22,1.75-5.4s3.64-3.09,5.98-4.25c2.34-1.15,5.83-2.1,7.75-2.1s4.29.41,5.25.91c1.44.76,1.93.32,2.75-2.47.55-1.86.78-3.38.5-3.38s-1.4.67-2.5,1.49-3.01,1.48-4.25,1.47-3.94-1.65-6-3.65c-3.6-3.48-3.73-3.84-3.25-8.97.42-4.5,1.09-5.93,4.26-9.12,3.1-3.12,4.37-3.74,7.25-3.53,1.92.14,5.07.92,6.99,1.75,3.33,1.43,3.5,1.4,3.5-.5,0-1.1.22-2.67.5-3.5.35-1.04-.19-1.49-1.75-1.47-1.24.02-4.05-1.16-6.25-2.62s-4.11-2.26-4.25-1.78-1.16,2.33-2.25,4.12c-1.1,1.79-4.01,4.26-6.46,5.5-3.84,1.94-4.82,2.08-7,1-1.55-.76-3.52-3.41-5.04-6.75-1.37-3.02-2.39-6.24-2.25-7.15.14-.9-.31-1.8-1-2-.83-.23-1.25.82-1.25,3.15,0,1.92-.69,4.96-1.54,6.75-.84,1.79-3.43,4.49-5.75,6.01ZM105.46,121.53c1.65-.05,4.47.91,6.25,2.13,2.21,1.5,3.25,3.01,3.25,4.71,0,1.5-1.49,4.11-3.75,6.54-2.06,2.23-4.31,4.03-5,4-.68-.02-2.48.7-4,1.61-2.58,1.56-2.92,1.55-5.6-.21-1.56-1.03-3.22-2.79-3.68-3.91h0c-.46-1.12-.87-2.82-.9-3.78-.04-.96.38-2.88.93-4.25.56-1.4,2.88-3.44,5.25-4.63,2.34-1.16,5.6-2.16,7.25-2.21h0Z"/>
  <path class="st2" d="M140.9,155.66c1.13.67,2.96,1.21,4.06,1.21s3.17-1.24,4.59-2.75c1.43-1.51,3.25-4.33,4.05-6.25s1.32-4.84,1.16-6.48c-.22-2.23-1.01-3.24-3.11-4-2.26-.82-3.53-.63-6.42.98-1.99,1.1-4.41,3.13-5.39,4.5-.99,1.38-2.02,3.63-2.29,5-.28,1.38-.1,3.42.4,4.54.49,1.13,1.82,2.59,2.95,3.25ZM146.71,146.86c.97-1.11,2.77-2.01,4-2,1.33,0,2.25.62,2.25,1.51,0,.82-1.12,2.17-2.5,3-1.37.82-3.17,1.29-4,1.02-.82-.26-1.5-.71-1.5-1s.79-1.43,1.75-2.53Z"/>
  <path class="st2" d="M112.71,91.84c-3.19-.03-4.94.6-7,2.5-1.51,1.39-2.72,3.09-2.69,3.78.04.69.46,2.17.95,3.29h0c.48,1.13,1.8,2.59,2.93,3.25,1.13.67,2.17,1.23,2.31,1.25s1.83-1.33,3.75-2.99c1.93-1.66,3.16-3.03,2.75-3.03-.41-.01-1.65.43-2.75.98-1.26.63-2.65.65-3.75.07-1.62-.87-1.6-.98.25-1.6,1.1-.36,2.68-.87,3.5-1.12,1.33-.4,1.33-.55,0-1.32-.82-.47-2.06-.67-2.75-.44-.69.22-1.25-.04-1.25-.59s1.58-1,3.5-1,3.69.56,3.92,1.25.46.01.5-1.5c.08-2.58-.19-2.75-4.17-2.78Z"/>
  <path class="st2" d="M76.21,38.84c-1.51,0-4.43.67-6.5,1.5-2.06.84-4.65,2.43-5.75,3.53s-1.98,2.79-1.96,3.75.62,3.11,1.32,4.77,2.71,4.02,4.46,5.25l3.18,2.23c4.65-3.1,7.12-5.91,8.48-8.25s2.49-5.15,2.51-6.25c.01-1.1-.65-3.01-1.48-4.25-.94-1.41-2.54-2.26-4.26-2.28ZM75.71,51.38c-1.23.84-3.03,1.25-4,.92h0c-.96-.33-1.75-1.24-1.75-2.02s1.02-1.63,2.25-1.9c1.24-.27,3.04-.49,4-.5.97,0,1.75.44,1.75.99s-1.01,1.68-2.25,2.51Z"/>
  <path class="st2" d="M94.66,130.44c-.19,1.13-.14,2.71.11,3.5.25.78,1.18,2.23,2.07,3.21s2.19,1.77,2.87,1.75c.69-.02,1.03-.48.75-1.03-.27-.55.4-1,1.5-1s3.02-.56,4.25-1.25c1.24-.69,3.05-1.93,4.04-2.75.98-.83,1.78-2.4,1.78-3.5s-.95-2.9-2.11-4c-1.76-1.68-2.86-1.89-6.78-1.29-2.57.4-5.46,1.52-6.41,2.5-.96.99-1.89,2.72-2.07,3.86ZM101.13,131.1c.21-1.05,1.42-1.83,3.09-1.98,2.12-.19,2.68.15,2.48,1.5-.16,1.12-1.27,1.83-3.08,1.98-2.22.18-2.76-.14-2.49-1.5h0Z"/>
  <path class="st2" d="M112.01,113.87c.01,1.92.47,4.36,1.03,5.42h0c.69,1.31,1.96,1.87,3.97,1.75s3.91-1.29,5.95-3.67c1.65-1.92,2.99-4.29,2.98-5.25,0-.96-.34-2.25-.75-2.85-.4-.61-1.74-1.62-2.98-2.25s-3.04-1.16-4-1.18c-.96-.01-2.75,1-3.98,2.25-1.45,1.49-2.22,3.5-2.22,5.78Z"/>
  <path class="st2" d="M160.62,154.37c.64-.55,2.3-3.25,3.69-6,1.4-2.75,3.28-7.02,4.18-9.5.91-2.48,1.94-6.42,2.31-8.77.36-2.34,1.22-4.59,1.91-5,.68-.4,1.92-3.21,2.74-6.23s1.49-8.2,1.49-11.5-.65-10.05-1.46-15c-.81-4.95-2.19-11.48-3.07-14.5-.89-3.02-2.48-8.2-3.54-11.5s-3.39-8.48-5.17-11.5-7.96-10.26-13.74-16.08c-9.4-9.47-11.55-11.09-20.5-15.44-8.05-3.92-11.27-4.95-16.5-5.28-4.47-.28-9.31.26-15.5,1.75-4.95,1.2-12.15,3.77-16,5.72-3.85,1.96-11.72,6.7-17.5,10.55s-12.22,8.64-14.33,10.64-4.24,4.43-4.75,5.39c-.82,1.56-.51,1.69,2.83,1.2,2.75-.4,4.62,0,7,1.5,2.78,1.76,3.25,2.62,3.25,6.05,0,3.67.17,3.92,2,3,1.1-.55,3.91-1,6.25-.99,2.34,0,5.47.79,6.95,1.75,1.49.96,3.48,2.86,4.43,4.24.94,1.37,1.75,4.11,1.79,6.08.05,2.37-.78,4.73-2.49,7-1.41,1.88-4.56,4.43-7,5.66-2.43,1.23-6.12,2.24-8.18,2.25-2.95.01-4.18-.58-5.76-2.74-1.11-1.51-2.5-5-3.09-7.75s-.81-5.56-.49-6.25c.42-.89-.27-.82-2.41.25-1.65.83-4.35,1.5-6,1.5-2.01,0-4.13-1.07-6.43-3.25l-3.44-3.25c-1.46,3.87-2.66,9.27-3.6,14.5s-1.87,16.25-2.07,24.5c-.21,8.25-.13,15.9.16,17h0c.29,1.1.95,3.58,1.46,5.5l.93,3.5c9.89-9.22,10.89-9.72,13.99-9.3,1.93.26,4.4.81,5.5,1.22,1.82.68,1.79.56-.25-1.34-1.24-1.14-2.73-3.77-3.31-5.83-.71-2.55-.73-4.71-.05-6.75.55-1.65,2.94-4.62,5.31-6.59,2.36-1.98,5.31-4.12,6.55-4.75,1.24-.64,3.71-.9,5.5-.59,1.79.31,3.96,1.1,4.84,1.75.87.65,2.11,2.19,2.75,3.43.64,1.24,1.16,3.83,1.16,5.75s-.59,4.96-1.31,6.75c-.72,1.79-3.09,4.58-5.25,6.21-2.63,1.98-5.36,3.06-8.19,3.25l-4.25.29c3.53,5.16,4.12,7.31,3.87,9.48l-.37,3.26c6.2-4.19,8.79-5.7,9.75-6.07s1.73-1.46,1.72-2.42c-.02-.96.88-2.99,2-4.5,1.11-1.51,3.49-3.12,5.28-3.58,2.68-.69,3.2-1.26,2.94-3.25-.17-1.33-.56-4.22-.86-6.42-.37-2.65,0-5.1,1.06-7.25.88-1.79,3.41-5.05,5.61-7.25l4-4c-4.65-2.33-6.71-4.01-7.57-5.25-1.07-1.54-1.39-3.44-1-6,.39-2.59,1.42-4.33,3.32-5.61,1.51-1.02,4.55-2.43,6.75-3.13,2.27-.72,5.73-1,8-.65,2.2.34,4.8,1.41,5.78,2.38.98.97,1.77,2.89,1.75,4.26s-.94,3.96-2.03,5.75c-1.1,1.79-4.49,4.71-7.53,6.5-3.05,1.79-5.41,3.3-5.25,3.37.15.07,2.31.43,4.78.8,4.14.63,4.6.48,5.75-1.87.69-1.4,2.83-3.22,4.75-4.05,1.93-.83,5.19-1.51,7.25-1.52s4.31.53,5,1.2,1.25,2.82,1.26,4.77c0,1.95-.63,4.45-1.42,5.55-1.32,1.86-1.19,2.05,1.75,2.66,1.74.37,3.95.93,4.91,1.25,1.32.45,1.76.03,1.78-1.66.02-1.24,1.03-3.8,2.25-5.68,1.22-1.89,3.68-4.03,5.47-4.75,1.79-.73,4.49-1.32,6-1.33,1.51,0,3.76.67,5,1.5s2.89,2.75,3.68,4.26c.93,1.77,1.28,4.62,1,8l-.43,5.25c4.26-.96,6.63-.99,8-.69,1.38.31,3.74,1.72,5.25,3.13,1.91,1.77,2.75,3.56,2.76,5.81,0,1.79-.87,5.73-1.94,8.75s-2.76,6.07-3.76,6.77-2.16,1.37-2.59,1.5-.28,1.58.33,3.23c.92,2.49.75,3.85-1.02,8-1.17,2.75-3.57,6.46-5.33,8.25s-4.32,3.5-5.7,3.8c-1.37.3-3.74.07-5.25-.5-2.55-.97-2.84-.82-4.06,2.2-.72,1.79-2.86,4.44-4.75,5.89s-4.9,2.92-6.69,3.25c-2.03.38-4.38.04-6.25-.89-1.65-.83-3.45-1.5-4-1.5s-1,.79-1,1.75c-.01.96-.95,3.33-2.1,5.25-1.16,1.92-3.52,4.78-5.25,6.35l-3.15,2.85c9.3-.75,15.49-2.15,19.75-3.59,4.26-1.43,11.91-4.67,17-7.18,8.29-4.1,9.77-5.26,14.25-11.25,2.75-3.67,5.52-7.13,6.16-7.68ZM51.38,100.12c-.78,1.51-2.88,3.74-4.67,4.95-1.78,1.21-4.37,2.2-5.75,2.2s-3.89-.98-5.59-2.16c-1.7-1.19-3.56-3.64-4.14-5.45h0c-.57-1.81-.82-4.19-.54-5.29s1.46-3.13,2.63-4.5c1.17-1.38,3.04-3.28,4.14-4.23,1.15-.99,3.71-1.75,6-1.77,2.92-.04,4.58.56,6.12,2.22,1.22,1.31,2.36,4.19,2.67,6.78.36,2.91.05,5.47-.87,7.25ZM82.49,28.62c1.36-1.51,3.94-3.22,5.72-3.78,2.23-.71,4.58-.71,7.5,0,3.44.83,4.54.74,5.75-.47.83-.83,2.74-1.79,4.25-2.14,1.52-.35,5.06-.46,7.88-.25,3.34.25,5.89,1.09,7.29,2.39,1.18,1.1,2.14,3.12,2.13,4.5-.01,1.48-1.34,3.81-3.28,5.73-1.8,1.78-4.84,3.67-6.77,4.19-1.92.53-4.62.74-6,.46-1.37-.29-3.17-1.15-4-1.94-1.3-1.24-1.95-.97-5,2.09-2.66,2.67-4.33,3.51-7,3.51-2.53,0-4.22-.77-6.11-2.77-1.44-1.52-3.12-3.67-3.72-4.77-.61-1.1-1.11-2.45-1.11-3,.01-.55,1.12-2.24,2.47-3.75ZM83.05,50.12c-1.05,2.34-3.09,5.37-4.52,6.75-1.88,1.81-2.25,2.69-1.33,3.19.69.39.89,1.06.43,1.5-.46.45-2.52.81-4.58.81-2.49,0-4.95-.89-7.37-2.68-1.99-1.47-4.27-3.95-5.06-5.5-.8-1.55-1.49-4.28-1.55-6.07-.09-2.6.6-3.81,3.41-6,1.94-1.51,5.43-3.5,7.75-4.42,2.33-.92,5.36-1.42,6.73-1.12,1.38.3,3.51,1.5,4.75,2.67,1.23,1.17,2.47,3.13,2.75,4.37.28,1.24-.36,4.16-1.41,6.5ZM111.12,66.06c-1.46,2.03-3.78,4.21-5.16,4.84-1.37.62-4.52,1.4-7,1.72-2.85.36-5.76.06-7.94-.84-1.89-.78-4.28-2.76-5.31-4.41h0c-1.5-2.4-1.76-4.21-1.33-9,.42-4.53,1.23-6.84,3.32-9.44,1.52-1.9,4.56-4.23,6.76-5.19,2.33-1.02,4.21-1.35,4.5-.8.28.53,2.46.84,4.86.69,3.64-.22,4.67.15,6.27,2.24,1.06,1.37,2.56,4.3,4.78,10.5l.05-4.25c.02-2.52.86-5.47,2.04-7.25,1.1-1.65,3.92-4.12,6.25-5.48,2.34-1.36,5.49-2.49,7-2.5,1.52,0,3.77.38,5,.87,1.24.49,3.56,2.17,5.17,3.75,2.5,2.46,2.82,3.35,2.25,6.36-.37,1.92-1.79,5.19-3.17,7.25-1.37,2.06-4.41,5.11-6.75,6.78-2.87,2.04-5.38,3.01-7.75,2.97-1.92-.04-4.21-.61-5.09-1.28-.87-.67-2.28-2.57-4.64-7.22l-.73,3c-.4,1.65-1.92,4.66-3.38,6.69ZM165.63,75.22c-.46,2.83-1.43,6.27-2.16,7.65-.72,1.37-2.37,3.48-3.66,4.68-1.29,1.2-3.58,2.67-5.1,3.25-1.51.59-3.87,1.07-5.25,1.07s-3.54-1.01-4.82-2.25c-1.27-1.24-2.56-2.93-2.86-3.75-.45-1.24-.96-1.12-2.93.7-1.31,1.21-4.41,2.92-6.89,3.8-2.47.89-5.85,1.37-7.5,1.09-1.65-.29-4.27-1.45-5.83-2.6-1.56-1.14-3.24-3.07-3.73-4.28h0c-.49-1.22-.67-3.56-.4-5.21s.48-3.79.47-4.75c0-1.01,1.79-2.8,4.24-4.24,2.7-1.58,6.63-2.73,10.75-3.16,5.69-.6,6.75-.43,8.5,1.31,1.33,1.32,3.33.88,6-1.32,2.2-1.81,5.24-3.53,6.75-3.82,1.52-.29,4.19-.18,5.95.23s4.57,2.03,6.25,3.6c2.92,2.73,3.02,3.07,2.22,8h0Z"/>
  <path class="st2" d="M130.71,69.53c-2.33.36-5.93,1.71-8,3-2.06,1.28-4.2,3.46-4.75,4.84-.55,1.37-1,3.21-1,4.08s1.32,2.85,2.93,4.42c2.05,2,3.98,2.87,6.5,2.92,1.96.04,4.59-.43,5.82-1.05,1.24-.61,3.28-2.08,4.53-3.25,1.72-1.6,2.27-3.22,2.27-6.62,0-3.1-.64-5.2-2.03-6.75-1.72-1.92-2.65-2.15-6.27-1.59h0ZM130.21,81.42c-.68,1.35-2.06,2.54-3.05,2.65s-2.34-.43-3-1.2-1.2-2.1-1.21-2.95.55-2.12,1.25-2.82,1.94-1.28,2.76-1.29c.83-.02,2.18.69,3,1.56,1.24,1.32,1.29,2.02.25,4.05Z"/>
  <path class="st2" d="M246.27,118.6c2.35-3.54,2.75-5.05,2.43-9.23-.2-2.75-.68-5.79-1.06-6.75-.46-1.19-.2-1.75.82-1.75.83,0,1.51-.11,1.52-.25s-.51-1.83-1.14-3.75c-.64-1.92-2.22-4.96-3.52-6.75s-3.93-3.92-5.86-4.75c-1.92-.83-3.5-1.95-3.5-2.5s-.34-.8-.75-.55c-.41.24-6.6-2.48-13.75-6.05s-15.92-8.34-19.5-10.6c-3.57-2.25-9.54-6.06-13.25-8.45-3.97-2.56-9.12-7.17-12.5-11.19-3.16-3.77-7.44-8.94-9.5-11.5-2.44-3.03-5.59-5.48-9-7.01-2.89-1.3-7.5-2.93-10.25-3.62-2.75-.7-6.99-1.65-9.42-2.1-2.42-.46-4.53-.71-4.67-.56-.15.15,2.22,1.82,5.25,3.7h0c3.03,1.89,9.51,7.48,14.4,12.43s10.59,11.7,12.67,15c2.09,3.3,4.77,8.48,5.96,11.5,1.2,3.02,3.1,8.88,4.22,13,1.13,4.13,2.48,9.75,3,12.5.53,2.75,1.27,8.83,1.65,13.5.59,7.25.31,10.04-1.87,19-1.41,5.77-3.46,15-4.55,20.5s-2.43,11.13-2.96,12.5c-.54,1.38-2.49,4.18-4.33,6.22-1.84,2.05-4.7,4.04-6.35,4.42-2.95.68-2.92.62,1.57-3.72,2.69-2.6,5.08-6.07,5.82-8.42.69-2.2,1.11-4.11.93-4.24-.17-.14-1.89,2.1-3.82,4.96-1.92,2.87-3.96,5.68-4.52,6.24-.56.57-2.69,3.06-4.72,5.54s-3.71,5.06-3.73,5.75c-.02.92,1.47,1.1,5.72.66,3.16-.32,8.45-1.2,11.75-1.94,3.3-.75,10.05-3.24,15-5.53,4.95-2.3,11.7-5.47,15-7.06,3.73-1.79,9.22-5.93,14.5-10.94,4.68-4.43,11.88-10.57,16-13.66,4.13-3.08,7.62-5.64,7.76-5.69s.4-.99.59-2.09c.2-1.25,1.23-2.1,2.74-2.27,1.56-.18,3.41-1.77,5.22-4.5h0ZM187.72,78.55c.42-.5,2.49-.08,4.71.96,2.31,1.08,4.72,3.22,5.75,5.11.98,1.79,1.45,3.26,1.03,3.28-.41.02-1.87-1-3.25-2.26-1.37-1.27-3.96-3.18-5.74-4.25-1.78-1.08-2.9-2.36-2.5-2.84ZM211.34,132.07c-.61.72-3.31,2.05-6,2.97-2.68.91-6.23,1.75-7.88,1.85-1.65.11-3.59.1-4.31-.02h0c-.72-.11-1.03-.65-.69-1.2s1.61-.95,2.81-.88c1.21.06,5.12-.8,8.69-1.92,3.58-1.12,6.95-2.05,7.5-2.06.6-.02.56.48-.12,1.26ZM215.46,111.87c-.27,0-5.67-2.51-12-5.57h0c-6.7-3.25-11.5-6.17-11.5-7s.45-1.43,1-1.43,1.79.43,2.75.97c.97.53,5.13,2.33,9.25,3.99,5.56,2.25,7.96,3.81,9.25,6.04.97,1.65,1.53,3,1.25,3ZM227.21,125.69c-1.51-.1-3.87.58-5.25,1.51-1.37.92-2.83,1.68-3.25,1.68h0c-.41-.01-.75-.3-.75-.66s1.69-1.71,3.75-2.99c2.07-1.28,4.77-2.34,6-2.35,1.34-.01,2.25.6,2.25,1.49,0,1.01-.89,1.44-2.75,1.32Z"/>
  <path class="st2" d="M248.49,122.87c-.32-.28-1.84.85-3.39,2.5l-2.8,3"/>
  <path class="st2" d="M159.96,67.7c-1.53-1.2-4.04-1.96-6.5-1.96-3.06,0-4.65.67-6.76,2.82-1.6,1.64-2.93,4.27-3.19,6.31-.24,1.92-.02,5.07.49,7h0c.5,1.92,1.65,4.28,2.55,5.24,1.19,1.26,2.5,1.57,4.77,1.13,1.73-.34,4.16-1.24,5.39-1.99,1.24-.76,2.93-2.73,3.75-4.38.83-1.65,1.62-5.07,1.75-7.61.21-3.89-.14-4.91-2.25-6.56h0ZM154.46,77.67c-1.65.17-3.56.07-4.25-.22-.68-.29-1.25-.99-1.25-1.56s.9-1.47,2-2.02,3.02-.89,4.25-.75c1.5.17,2.25.92,2.25,2.25,0,1.49-.77,2.08-3,2.3Z"/>
  <path class="st2" d="M102.96,45.34c-1.92.37-5.52,1.33-8,2.13-2.47.79-5.12,2.45-5.87,3.67-.76,1.23-1.55,4.48-1.75,7.23s.05,5.97.55,7.15c.51,1.18,1.97,2.87,3.25,3.75,1.28.89,3.67,1.62,5.32,1.62s5.03-.67,7.5-1.49c2.9-.95,5.04-2.44,6-4.16.83-1.48,1.49-4.97,1.47-7.78-.03-3.66-.73-6.18-2.5-8.95-2.3-3.6-2.7-3.82-5.97-3.17h0ZM99.71,58c-1.23.62-3,.9-3.92.62h0c-1.2-.36-1.48-1.11-1-2.7.53-1.72,1.3-2.13,3.6-1.87,1.6.17,3.07.88,3.25,1.57s-.69,1.76-1.93,2.38Z"/>
  <path class="st2" d="M119.09,56.87c.55,1.37,1.76,3.3,2.69,4.28.92.98,2.92,1.77,4.43,1.75,2.25-.03,2.66-.4,2.25-2.03-.39-1.56-.11-1.87,1.25-1.42,1.21.4,2.91-.68,5.5-3.5,2.35-2.55,3.99-5.49,4.38-7.83.56-3.33.28-4.06-2.5-6.5-1.72-1.51-4.25-2.75-5.63-2.75s-3.51.5-4.75,1.12c-1.23.61-3.72,2.53-5.52,4.25-2.52,2.42-3.25,3.92-3.18,6.63.04,1.92.53,4.62,1.08,6h0ZM126.26,49.46c.2-.6,1.64-1.09,3.2-1.09s2.99.56,3.17,1.25-.57,1.7-1.67,2.25c-1.39.69-2.47.64-3.53-.16h0c-.84-.64-1.37-1.65-1.17-2.25Z"/>
  <path class="st2" d="M146.46,150.39c.83.27,2.63-.2,4-1.02,1.38-.83,2.5-2.18,2.5-3,0-.89-.92-1.51-2.25-1.51-1.23,0-3.03.89-4,2-.96,1.1-1.75,2.25-1.75,2.53s.68.74,1.5,1Z"/>
  <path class="st1" d="M146.46,150.39c.83.27,2.63-.2,4-1.02,1.38-.83,2.5-2.18,2.5-3,0-.89-.92-1.51-2.25-1.51-1.23,0-3.03.89-4,2-.96,1.1-1.75,2.25-1.75,2.53s.68.74,1.5,1Z"/>
  <path class="st2" d="M56.63,117.37c.37.46,2.05.77,3.75.69,2.05-.09,3.54-.9,4.46-2.41.75-1.26,1.09-3.07.75-4.03-.39-1.08-1.68-1.76-3.38-1.78-1.51-.02-3.52.77-4.47,1.75s-1.74,2.49-1.75,3.36c-.02.87.27,1.96.64,2.42h0Z"/>
  <path class="st1" d="M56.63,117.37c.37.46,2.05.77,3.75.69,2.05-.09,3.54-.9,4.46-2.41.75-1.26,1.09-3.07.75-4.03-.39-1.08-1.68-1.76-3.38-1.78-1.51-.02-3.52.77-4.47,1.75s-1.74,2.49-1.75,3.36c-.02.87.27,1.96.64,2.42h0Z"/>
  <path class="st2" d="M92.96,128.37c-.55,1.37-.97,3.29-.93,4.25.03.96.44,2.66.9,3.78h0c.46,1.12,2.12,2.88,3.68,3.91,2.68,1.76,3.02,1.77,5.6.21,1.52-.91,3.32-1.63,4-1.61.69.03,2.94-1.77,5-4,2.26-2.43,3.75-5.04,3.75-6.54,0-1.7-1.04-3.21-3.25-4.71-1.78-1.22-4.6-2.18-6.25-2.13s-4.91,1.05-7.25,2.21c-2.37,1.19-4.69,3.23-5.25,4.63ZM109.92,125.37c1.16,1.1,2.11,2.9,2.11,4s-.8,2.67-1.78,3.5c-.99.82-2.8,2.06-4.04,2.75-1.23.69-3.15,1.25-4.25,1.25s-1.77.45-1.5,1c.28.55-.06,1.01-.75,1.03-.68.02-1.98-.77-2.87-1.75s-1.82-2.43-2.07-3.21c-.25-.79-.3-2.37-.11-3.5.18-1.14,1.11-2.87,2.07-3.86.95-.98,3.84-2.1,6.41-2.5,3.92-.6,5.02-.39,6.78,1.29Z"/>
  <path class="st1" d="M92.96,128.37c-.55,1.37-.97,3.29-.93,4.25.03.96.44,2.66.9,3.78h0c.46,1.12,2.12,2.88,3.68,3.91,2.68,1.76,3.02,1.77,5.6.21,1.52-.91,3.32-1.63,4-1.61.69.03,2.94-1.77,5-4,2.26-2.43,3.75-5.04,3.75-6.54,0-1.7-1.04-3.21-3.25-4.71-1.78-1.22-4.6-2.18-6.25-2.13s-4.91,1.05-7.25,2.21c-2.37,1.19-4.69,3.23-5.25,4.63ZM109.92,125.37c1.16,1.1,2.11,2.9,2.11,4s-.8,2.67-1.78,3.5c-.99.82-2.8,2.06-4.04,2.75-1.23.69-3.15,1.25-4.25,1.25s-1.77.45-1.5,1c.28.55-.06,1.01-.75,1.03-.68.02-1.98-.77-2.87-1.75s-1.82-2.43-2.07-3.21c-.25-.79-.3-2.37-.11-3.5.18-1.14,1.11-2.87,2.07-3.86.95-.98,3.84-2.1,6.41-2.5,3.92-.6,5.02-.39,6.78,1.29Z"/>
  <path class="st2" d="M44.71,66.3h0c.97.33,2.88-.13,4.25-1.03,1.66-1.08,2.09-1.83,1.3-2.26-.65-.35-2.57-.58-4.25-.51-2.01.09-3.05.66-3.05,1.67,0,.84.79,1.8,1.75,2.13Z"/>
  <path class="st1" d="M44.71,66.3h0c.97.33,2.88-.13,4.25-1.03,1.66-1.08,2.09-1.83,1.3-2.26-.65-.35-2.57-.58-4.25-.51-2.01.09-3.05.66-3.05,1.67,0,.84.79,1.8,1.75,2.13Z"/>
  <path class="st2" d="M135.96,129.37c-.55-.28-2.12-.28-3.5,0-1.64.33-2.5,1.17-2.5,2.44,0,1.1.88,2.19,2,2.5,1.1.31,2.7,0,3.55-.69s1.52-1.81,1.5-2.5c-.03-.69-.5-1.48-1.05-1.75Z"/>
  <path class="st1" d="M135.96,129.37c-.55-.28-2.12-.28-3.5,0-1.64.33-2.5,1.17-2.5,2.44,0,1.1.88,2.19,2,2.5,1.1.31,2.7,0,3.55-.69s1.52-1.81,1.5-2.5c-.03-.69-.5-1.48-1.05-1.75Z"/>
  <path class="st2" d="M45.46,137.76c.83.61,2.28,1,3.24.86.95-.14,1.85-1.04,2-2,.21-1.39-.47-1.75-3.24-1.75-1.92,0-3.5.4-3.5.89s.68,1.38,1.5,2Z"/>
  <path class="st1" d="M45.46,137.76c.83.61,2.28,1,3.24.86.95-.14,1.85-1.04,2-2,.21-1.39-.47-1.75-3.24-1.75-1.92,0-3.5.4-3.5.89s.68,1.38,1.5,2Z"/>
  <path class="st2" d="M59.21,78.5c.69.32,2.04.31,3-.02.97-.34,1.75-1.51,1.75-2.61,0-1.38-.74-2.07-2.39-2.24-1.52-.14-2.62.4-3,1.5-.33.96-.61,1.98-.61,2.26s.57.79,1.25,1.11Z"/>
  <path class="st1" d="M59.21,78.5c.69.32,2.04.31,3-.02.97-.34,1.75-1.51,1.75-2.61,0-1.38-.74-2.07-2.39-2.24-1.52-.14-2.62.4-3,1.5-.33.96-.61,1.98-.61,2.26s.57.79,1.25,1.11Z"/>
  <path class="st2" d="M227.71,122.88c-1.23.01-3.93,1.07-6,2.35-2.06,1.28-3.75,2.63-3.75,2.99s.34.65.75.66h0c.42,0,1.88-.76,3.25-1.68,1.38-.93,3.74-1.61,5.25-1.51,1.86.12,2.75-.31,2.75-1.32,0-.89-.91-1.5-2.25-1.49Z"/>
  <path class="st1" d="M227.71,122.88c-1.23.01-3.93,1.07-6,2.35-2.06,1.28-3.75,2.63-3.75,2.99s.34.65.75.66h0c.42,0,1.88-.76,3.25-1.68,1.38-.93,3.74-1.61,5.25-1.51,1.86.12,2.75-.31,2.75-1.32,0-.89-.91-1.5-2.25-1.49Z"/>
  <path class="st2" d="M97.96,83.87c0-1.33-.67-2-2-2-1.1,0-2.67.67-3.5,1.5s-1.5,1.7-1.5,1.94.79.71,1.75,1.03c.97.32,2.54.34,3.5.05.97-.28,1.75-1.42,1.75-2.52Z"/>
  <path class="st1" d="M97.96,83.87c0-1.33-.67-2-2-2-1.1,0-2.67.67-3.5,1.5s-1.5,1.7-1.5,1.94.79.71,1.75,1.03c.97.32,2.54.34,3.5.05.97-.28,1.75-1.42,1.75-2.52Z"/>
  <path class="st2" d="M103.62,132.6c1.81-.15,2.92-.86,3.08-1.98.2-1.35-.36-1.69-2.48-1.5-1.67.15-2.88.93-3.09,1.98-.27,1.36.27,1.68,2.49,1.5Z"/>
  <path class="st1" d="M103.62,132.6c1.81-.15,2.92-.86,3.08-1.98.2-1.35-.36-1.69-2.48-1.5-1.67.15-2.88.93-3.09,1.98-.27,1.36.27,1.68,2.49,1.5Z"/>
  <path class="st2" d="M250.73,120.46c-.28-9.08,2.87-8.88,3.36-9.84.52-1.04.42-4.67-.25-9-.62-3.99-2.11-8.83-3.32-10.75-1.2-1.92-3.51-4.46-5.12-5.64s-8.1-4.59-14.43-7.6c-6.32-3-16.67-8.52-23-12.26-6.32-3.74-13.23-7.74-15.34-8.9-2.12-1.15-6.39-4.83-9.5-8.17-3.11-3.33-8.58-9.48-12.16-13.66-4.64-5.43-7.86-8.2-11.25-9.68-2.61-1.15-6.21-2.38-8-2.73s-4.04-1.03-5-1.5-4.56-1.27-8-1.78-11.42-1.7-17.75-2.65c-9.91-1.48-12.54-1.54-19-.45-4.12.7-9.97,2.13-13,3.18s-8.42,3.52-12,5.49c-3.57,1.96-10.1,5.91-14.5,8.78-4.4,2.86-10.87,7.87-14.39,11.14-3.51,3.26-8.3,8.63-10.63,11.93-2.34,3.3-5.19,8.25-6.34,11s-3.05,11.3-4.23,19-2.3,18.73-2.5,24.5c-.23,7.1.14,12.45,1.16,16.5h0c.82,3.3,2.61,8.25,3.98,11,1.36,2.75,2.47,5.56,2.46,6.25,0,.69,1.12,3.73,2.49,6.75,1.38,3.02,4.08,7.08,6,9,1.93,1.92,6.09,5.25,9.25,7.38,3.16,2.14,10.47,5.99,16.25,8.55s14.1,5.79,18.5,7.17,11.38,2.78,15.5,3.11c4.53.36,10.07.09,14-.67,3.58-.7,10.78-3.07,16-5.27,5.29-2.23,11.49-4.1,14-4.24,2.47-.13,8.78-.78,14-1.45,5.22-.66,11.97-1.9,15-2.75,3.03-.86,8.43-2.9,12-4.55,3.58-1.65,8.75-3.88,11.5-4.97,2.75-1.08,6.58-2.91,8.5-4.07,1.93-1.16,6.65-5.07,10.5-8.69s10.15-9.17,14-12.33c3.85-3.17,7.56-5.75,8.25-5.74M41.51,57.87c1.9-1.82,3.71-2.5,6.61-2.5s4.41.57,5.44,2c.79,1.1,1.43,3.24,1.42,4.75,0,1.78-1.35,4.18-3.77,6.8-2.06,2.22-4.48,4.07-5.37,4.1-.88.03-2.8-.92-4.25-2.11h0c-2.06-1.7-2.64-3.07-2.66-6.36-.02-3.22.58-4.75,2.58-6.68ZM55.76,78.7h0c-.93-1.28-1.72-2.67-1.75-3.08s.63-2.33,1.45-4.25c.85-1.98,2.8-4.15,4.5-5,1.65-.83,4.24-1.51,5.75-1.53,1.51,0,4.31,1,6.21,2.25,2.26,1.5,3.77,3.49,4.38,5.78.73,2.76.53,4.31-.96,7.31-1.25,2.55-3.21,4.46-5.88,5.74-2.2,1.06-5.35,1.94-7,1.96-1.91.03-3.9-.87-5.47-2.45-2.09-2.1-2.24-2.65-1-3.45,1.28-.82,1.25-1.25-.23-3.28ZM35.71,142.87c-.96-1.93-1.75-4.29-1.75-5.25s.68-3.1,1.5-4.75c.83-1.65,2.74-3.92,4.25-5.03,1.51-1.12,3.99-2.02,5.5-2,1.57.02,4.25,1.31,6.25,3.03,2.42,2.07,3.5,3.85,3.5,5.75,0,1.51-1.12,4.44-2.5,6.5-1.5,2.25-3.3,3.75-4.5,3.75-1.1,0-2,.45-2,1s1.01,1.14,2.25,1.32c1.78.25,1.52.48-1.25,1.11-2.37.54-4.47.36-6.5-.57-1.65-.75-3.79-2.94-4.75-4.86ZM49.06,114.37c-.05-2.38,1.02-3.99,5.17-7.79,4.34-3.99,5.87-4.79,8.98-4.75,2.99.03,4.09.6,5.44,2.79,1.03,1.69,1.61,4.49,1.49,7.25-.1,2.48-.86,5.51-1.68,6.75-.83,1.24-2.96,3.15-4.75,4.25-1.79,1.09-4.6,2.01-6.25,2.02-1.86.02-3.81-.83-5.12-2.24-1.17-1.26-2.37-2.95-2.67-3.78h0c-.31-.83-.58-2.85-.61-4.5ZM68.71,173.85c-.41,0-4.01-1.62-8-3.62s-9.84-5.53-13.01-7.85c-3.42-2.5-6.55-5.8-7.71-8.11h0c-1.07-2.15-1.96-3.94-1.99-3.99-.02-.05,1.87.12,4.21.37,3,.33,5.42-.13,12.25-3.57l.33,4.14c.18,2.28.96,5.39,1.75,6.9,1.07,2.07,2.16,2.75,4.42,2.75,2.72,0,3,.3,2.99,3.25,0,1.79.76,4.37,1.69,5.75.94,1.37,2.18,2.83,2.76,3.23.58.41.72.75.31.75h0ZM94.46,90.37c.38,1.13-.4,1.55-3.19,1.69-2.71.14-4.29-.43-6-2.17-1.31-1.34-2.31-3.58-2.31-5.19s.79-3.56,1.75-4.45c.96-.9,3.33-2.26,5.25-3.03,1.93-.77,4.96-1.39,6.75-1.37,1.89.01,4.09.86,5.25,2.02,1.1,1.1,1.99,2.56,1.97,3.25-.01.69-1.14,2.71-2.5,4.5-1.63,2.14-3.32,3.25-4.97,3.25-1.78,0-2.36.43-2,1.5ZM116.88,94.62c-.04,1.51-.27,2.19-.5,1.5s-1.99-1.25-3.92-1.25-3.5.45-3.5,1,.56.81,1.25.59c.69-.23,1.93-.03,2.75.44,1.33.77,1.33.92,0,1.32-.82.25-2.4.76-3.5,1.12-1.85.62-1.87.73-.25,1.6,1.1.58,2.49.56,3.75-.07,1.1-.55,2.34-.99,2.75-.98.41,0-.82,1.37-2.75,3.03-1.92,1.66-3.61,3.01-3.75,2.99s-1.18-.58-2.31-1.25c-1.13-.66-2.45-2.12-2.93-3.25h0c-.49-1.12-.91-2.6-.95-3.29-.03-.69,1.18-2.39,2.69-3.78,2.06-1.9,3.81-2.53,7-2.5,3.98.03,4.25.2,4.17,2.78ZM118.21,105.84c.96.02,2.76.55,4,1.18s2.58,1.64,2.98,2.25c.41.6.75,1.89.75,2.85.01.96-1.33,3.33-2.98,5.25-2.04,2.38-3.94,3.55-5.95,3.67s-3.28-.44-3.97-1.75h0c-.56-1.06-1.02-3.5-1.03-5.42,0-2.28.77-4.29,2.22-5.78,1.23-1.25,3.02-2.26,3.98-2.25ZM103.96,110.37c0-2.33.42-3.38,1.25-3.15.69.2,1.14,1.1,1,2-.14.91.88,4.13,2.25,7.15,1.52,3.34,3.49,5.99,5.04,6.75,2.18,1.08,3.16.94,7-1,2.45-1.24,5.36-3.71,6.46-5.5,1.09-1.79,2.11-3.64,2.25-4.12s2.05.32,4.25,1.78,5.01,2.64,6.25,2.62c1.56-.02,2.1.43,1.75,1.47-.28.83-.5,2.4-.5,3.5,0,1.9-.17,1.93-3.5.5-1.92-.83-5.07-1.61-6.99-1.75-2.88-.21-4.15.41-7.25,3.53-3.17,3.19-3.84,4.62-4.26,9.12-.48,5.13-.35,5.49,3.25,8.97,2.06,2,4.76,3.64,6,3.65s3.15-.65,4.25-1.47,2.22-1.49,2.5-1.49.05,1.52-.5,3.38c-.82,2.79-1.31,3.23-2.75,2.47-.96-.5-3.32-.91-5.25-.91s-5.41.95-7.75,2.1c-2.34,1.16-5.03,3.07-5.98,4.25s-1.74,3.61-1.75,5.4c-.01,2.44-.39,3.13-1.52,2.75-.82-.27-2.85-.5-7.5-.5l2.18-3.25c1.19-1.79,2.33-4.83,2.53-6.75.24-2.28-.26-4.32-1.42-5.86-1.37-1.8-3.07-2.48-7.29-2.89-5.4-.53-5.59-.46-10.22,3.86-2.6,2.41-4.74,5.18-4.75,6.14-.02,1.37-.82,1.72-3.64,1.59h0c-2.95-.12-3.45-.44-2.78-1.75.45-.87.83-3.39.84-5.59.02-3.63.39-4.19,3.9-6,2.79-1.44,4.31-3.12,5.43-6,1.24-3.2,1.32-4.55.39-6.75-1.14-2.68-1.08-2.75,2.08-2.74,1.88.01,5.02-1.14,7.46-2.75,2.32-1.52,4.91-4.22,5.75-6.01.85-1.79,1.54-4.83,1.54-6.75h0ZM137.55,147.87c.27-1.37,1.3-3.62,2.29-5,.98-1.37,3.4-3.4,5.39-4.5,2.89-1.61,4.16-1.8,6.42-.98,2.1.76,2.89,1.77,3.11,4,.16,1.64-.36,4.56-1.16,6.48s-2.62,4.74-4.05,6.25c-1.42,1.51-3.49,2.75-4.59,2.75s-2.93-.54-4.06-1.21c-1.13-.66-2.46-2.12-2.95-3.25-.5-1.12-.68-3.16-.4-4.54ZM132.86,141.62c-4.01,2.68-4.17,2.71-6.74,1-1.45-.96-3.19-2.76-3.88-4h0c-.69-1.24-1.26-3.15-1.27-4.25s.83-3.58,1.86-5.5,2.95-3.79,4.25-4.15c1.31-.36,3.96-.68,5.88-.73,2.04-.04,4.24.65,5.28,1.66.98.94,1.77,2.73,1.75,3.97-.02,1.24-.7,3.83-1.53,5.75-.84,1.96-3.3,4.71-5.6,6.25ZM140.23,138.41l1.46-4.18c.8-2.31,1.64-4.23,1.86-4.27.23-.05,1.49.92,5.2,4.41l-4.26,2.02-4.26,2.02h0ZM153.84,133.87c-.89-.02-3.48-2.05-5.75-4.5h0c-2.38-2.57-4.11-5.42-4.09-6.73.02-1.25.58-3.28,1.25-4.52.67-1.23,2.56-3.14,4.21-4.24,1.65-1.1,4.47-2,6.25-2,2.39-.01,3.79.72,5.29,2.74,1.12,1.51,2.02,3.76,2,5s-.74,3.94-1.59,6c-.86,2.06-2.55,4.77-3.75,6.02-1.21,1.26-2.93,2.26-3.82,2.23ZM147.41,108.12c-.8,1.51-2.69,3.67-4.2,4.78-1.51,1.12-3.58,1.98-4.6,1.9-1.02-.07-3.38-1.62-5.25-3.43h0c-2.63-2.55-3.4-4.12-3.4-6.9s.64-4.07,2.75-5.63c1.51-1.12,3.54-2.02,4.5-2,.96.01,1.97-.42,2.25-.97s1.29-1.01,2.25-1.03,2.53.77,3.47,1.75c.95.98,2.17,3.36,2.71,5.28.74,2.65.62,4.17-.48,6.25ZM134.04,160.87c-.62,1.38-2.57,3.5-4.35,4.73s-4.58,2.26-6.23,2.3c-1.65.03-3.67-.66-4.5-1.53-.82-.87-2.25-1.46-3.18-1.3-1,.17-1.86-.52-2.13-1.71h0c-.25-1.09-.51-2.78-.57-3.74-.07-.96,1.12-3.04,2.63-4.61,1.51-1.58,4.66-3.49,7-4.25,3.8-1.24,4.62-1.2,7.75.36,2.33,1.17,3.7,2.67,4.1,4.5.33,1.51.09,3.88-.52,5.25h0ZM99.72,159.63c-2.57,2.56-4.2,3.31-7.7,3.5-3.85.21-4.62-.09-5.74-2.26-.71-1.37-1.3-3.4-1.3-4.5-.01-1.1.89-3.46,1.98-5.25,1.1-1.79,3.46-3.96,5.25-4.83,2.42-1.18,4.14-1.35,6.75-.69,2.18.56,3.94,1.82,4.66,3.33.76,1.59.85,3.31.26,4.94-.49,1.38-2.36,3.97-4.16,5.76h0ZM99.46,117.87c-1.07,2.14-2.87,3.48-6.25,4.68-4.44,1.57-4.91,1.57-7.24,0-1.36-.92-3.04-2.69-3.73-3.93s-1.26-3.94-1.27-6c0-2.06.5-4.76,1.11-6,.62-1.24,2.09-3.27,3.25-4.53,1.7-1.81,3.19-2.27,7.38-2.25,4.52.03,5.46.38,6.75,2.53.83,1.38,1.5,4.75,1.5,7.5s-.67,6.35-1.5,8ZM83.21,127.33c.96,1.39,1.76,3.33,1.77,4.29.01.96-.89,2.76-2,4s-2.02,2.7-2.02,3.25-.67,1.23-1.5,1.5c-.82.27-2.19.16-3.04-.25s-2.18-2.33-2.95-4.25-1.42-3.73-1.44-4c-.03-.27.29-1.57.69-2.88.41-1.32,1.98-3,3.49-3.75,1.51-.76,3.31-1.17,4-.91.69.25,2.04,1.6,3,3ZM72.21,140.6c1.79,1.81,2.81,3.99,2.95,6.27.12,1.92-.56,4.74-1.5,6.25-.93,1.51-3.05,3.42-4.7,4.25s-4.46,1.39-6.25,1.25c-2.72-.21-3.45-.82-4.49-3.75h0c-.69-1.92-1.05-5.3-.82-7.5.31-2.86,1.31-4.78,3.5-6.75,1.74-1.57,4.24-2.76,5.81-2.77,1.7,0,3.8,1.04,5.5,2.75ZM70.35,170.79c-.89-.6-1.98-2.06-2.44-3.25-.45-1.2-.85-2.73-.89-3.42-.03-.69,1.07-2.38,2.44-3.75s3.74-2.77,5.25-3.11c1.51-.33,3.65-.37,4.75-.07,1.1.29,2.32,1.58,2.72,2.86.5,1.63.05,3.29-1.5,5.57-1.22,1.78-3.68,3.92-5.47,4.75-2.41,1.11-3.67,1.22-4.86.42ZM93.71,182.88c-.69,0-5.3-1.33-10.25-2.98s-9.22-3.03-9.5-3.05,1.75-1.16,4.5-2.52,5.45-2.91,6-3.45.66-1.21.25-1.49c-.41-.29-1.99.4-3.5,1.51-1.51,1.12-3.42,2.02-4.25,2-.82-.02-.04-.94,1.75-2.03,1.79-1.1,3.81-2.82,4.5-3.82,1-1.45,2.1-1.7,5.53-1.25,3.32.44,4.12.9,3.59,2.07-.37.83-.9,2.85-1.17,4.5-.32,1.97.24,4.28,1.65,6.75,1.45,2.53,1.74,3.75.9,3.76h0ZM97.36,179.56c-1.69-1.98-2.41-4.05-2.42-7-.01-2.3.56-5.01,1.25-6.01.76-1.09,3.14-2.1,5.9-2.5,3.46-.51,5.06-.3,6.3.82.91.83,1.63,2.63,1.59,4-.03,1.38-1.13,4.3-2.43,6.5s-3.58,4.67-5.08,5.5c-2.59,1.43-2.83,1.37-5.11-1.31h0ZM140.21,173.3c-5.09,2.51-12.74,5.75-17,7.18-4.26,1.44-10.45,2.84-19.75,3.59l3.15-2.85c1.73-1.57,4.09-4.43,5.25-6.35,1.15-1.92,2.09-4.29,2.1-5.25,0-.96.45-1.75,1-1.75s2.35.67,4,1.5c1.87.93,4.22,1.27,6.25.89,1.79-.33,4.8-1.8,6.69-3.25s4.03-4.1,4.75-5.89c1.22-3.02,1.51-3.17,4.06-2.2,1.51.57,3.88.8,5.25.5,1.38-.3,3.94-2.01,5.7-3.8s4.16-5.5,5.33-8.25c1.77-4.15,1.94-5.51,1.02-8-.61-1.65-.76-3.1-.33-3.23s1.59-.8,2.59-1.5,2.69-3.75,3.76-6.77c1.07-3.02,1.94-6.96,1.94-8.75,0-2.25-.85-4.04-2.76-5.81-1.51-1.41-3.87-2.82-5.25-3.13-1.37-.3-3.74-.27-8,.69l.43-5.25c.28-3.38-.07-6.23-1-8-.79-1.51-2.44-3.43-3.68-4.26-1.24-.83-3.49-1.5-5-1.5-1.51.01-4.21.6-6,1.33-1.79.72-4.25,2.86-5.47,4.75-1.22,1.88-2.23,4.44-2.25,5.68-.02,1.69-.46,2.11-1.78,1.66-.96-.32-3.17-.88-4.91-1.25-2.94-.61-3.07-.8-1.75-2.66.79-1.1,1.42-3.6,1.42-5.55-.01-1.95-.57-4.1-1.26-4.77s-2.94-1.21-5-1.2-5.32.69-7.25,1.52c-1.92.83-4.06,2.65-4.75,4.05-1.15,2.35-1.61,2.5-5.75,1.87-2.47-.37-4.63-.73-4.78-.8-.16-.07,2.2-1.58,5.25-3.37,3.04-1.79,6.43-4.71,7.53-6.5,1.09-1.79,2.01-4.38,2.03-5.75s-.77-3.29-1.75-4.26-3.58-2.04-5.78-2.38c-2.27-.35-5.73-.07-8,.65-2.2.7-5.24,2.11-6.75,3.13-1.9,1.28-2.93,3.02-3.32,5.61-.39,2.56-.07,4.46,1,6,.86,1.24,2.92,2.92,7.57,5.25l-4,4c-2.2,2.2-4.73,5.46-5.61,7.25-1.07,2.15-1.43,4.6-1.06,7.25.3,2.2.69,5.09.86,6.42.26,1.99-.26,2.56-2.94,3.25-1.79.46-4.17,2.07-5.28,3.58-1.12,1.51-2.02,3.54-2,4.5,0,.96-.76,2.05-1.72,2.42s-3.55,1.88-9.75,6.07l.37-3.26c.25-2.17-.34-4.32-3.87-9.48l4.25-.29c2.83-.19,5.56-1.27,8.19-3.25,2.16-1.63,4.53-4.42,5.25-6.21.72-1.79,1.31-4.83,1.31-6.75s-.52-4.51-1.16-5.75-1.88-2.78-2.75-3.43c-.88-.65-3.05-1.44-4.84-1.75s-4.26-.05-5.5.59c-1.24.63-4.19,2.77-6.55,4.75-2.37,1.97-4.76,4.94-5.31,6.59-.68,2.04-.66,4.2.05,6.75.58,2.06,2.07,4.69,3.31,5.83,2.04,1.9,2.07,2.02.25,1.34-1.1-.41-3.57-.96-5.5-1.22-3.1-.42-4.1.08-13.99,9.3l-.93-3.5c-.51-1.92-1.17-4.4-1.46-5.5h0c-.29-1.1-.37-8.75-.16-17,.2-8.25,1.13-19.27,2.07-24.5s2.14-10.63,3.6-14.5l3.44,3.25c2.3,2.18,4.42,3.25,6.43,3.25,1.65,0,4.35-.67,6-1.5,2.14-1.07,2.83-1.14,2.41-.25-.32.69-.1,3.5.49,6.25s1.98,6.24,3.09,7.75c1.58,2.16,2.81,2.75,5.76,2.74,2.06-.01,5.75-1.02,8.18-2.25,2.44-1.23,5.59-3.78,7-5.66,1.71-2.27,2.54-4.63,2.49-7-.04-1.97-.85-4.71-1.79-6.08-.95-1.38-2.94-3.28-4.43-4.24-1.48-.96-4.61-1.75-6.95-1.75s-5.15.44-6.25.99c-1.83.92-2,.67-2-3,0-3.43-.47-4.29-3.25-6.05-2.38-1.5-4.25-1.9-7-1.5-3.34.49-3.65.36-2.83-1.2.51-.96,2.64-3.39,4.75-5.39s8.55-6.79,14.33-10.64c5.78-3.85,13.65-8.59,17.5-10.55,3.85-1.95,11.05-4.52,16-5.72,6.19-1.49,11.03-2.03,15.5-1.75,5.23.33,8.45,1.36,16.5,5.28,8.95,4.35,11.1,5.97,20.5,15.44,5.78,5.82,11.96,13.06,13.74,16.08s4.11,8.2,5.17,11.5c1.06,3.3,2.65,8.48,3.54,11.5.88,3.02,2.26,9.55,3.07,14.5.81,4.95,1.47,11.7,1.46,15,0,3.3-.67,8.48-1.49,11.5s-2.06,5.83-2.74,6.23c-.69.41-1.55,2.66-1.91,5-.37,2.35-1.4,6.29-2.31,8.77-.9,2.48-2.78,6.75-4.18,9.5-1.39,2.75-3.05,5.45-3.69,6s-3.41,4.01-6.16,7.68c-4.48,5.99-5.96,7.15-14.25,11.25h0ZM238.31,125.37c-.19,1.1-.45,2.04-.59,2.09-.14.05-3.63,2.61-7.76,5.69-4.12,3.09-11.32,9.23-16,13.66-5.28,5.01-10.77,9.15-14.5,10.94-3.3,1.59-10.05,4.76-15,7.06-4.95,2.29-11.7,4.78-15,5.53-3.3.74-8.59,1.62-11.75,1.94-4.25.44-5.74.26-5.72-.66.02-.69,1.7-3.27,3.73-5.75s4.16-4.97,4.72-5.54c.56-.56,2.6-3.37,4.52-6.24,1.93-2.86,3.65-5.1,3.82-4.96.18.13-.24,2.04-.93,4.24-.74,2.35-3.13,5.82-5.82,8.42-4.49,4.34-4.52,4.4-1.57,3.72,1.65-.38,4.51-2.37,6.35-4.42,1.84-2.04,3.79-4.84,4.33-6.22.53-1.37,1.87-7,2.96-12.5s3.14-14.73,4.55-20.5c2.18-8.96,2.46-11.75,1.87-19-.38-4.67-1.12-10.75-1.65-13.5-.52-2.75-1.87-8.37-3-12.5-1.12-4.12-3.02-9.98-4.22-13-1.19-3.02-3.87-8.2-5.96-11.5-2.08-3.3-7.78-10.05-12.67-15s-11.37-10.54-14.4-12.43h0c-3.03-1.88-5.4-3.55-5.25-3.7.14-.15,2.25.1,4.67.56,2.43.45,6.67,1.4,9.42,2.1,2.75.69,7.36,2.32,10.25,3.62,3.41,1.53,6.56,3.98,9,7.01,2.06,2.56,6.34,7.73,9.5,11.5,3.38,4.02,8.53,8.63,12.5,11.19,3.71,2.39,9.68,6.2,13.25,8.45,3.58,2.26,12.35,7.03,19.5,10.6s13.34,6.29,13.75,6.05c.41-.25.75,0,.75.55s1.58,1.67,3.5,2.5c1.93.83,4.56,2.96,5.86,4.75s2.88,4.83,3.52,6.75c.63,1.92,1.15,3.61,1.14,3.75s-.69.25-1.52.25c-1.02,0-1.28.56-.82,1.75.38.96.86,4,1.06,6.75.32,4.18-.08,5.69-2.43,9.23-1.81,2.73-3.66,4.32-5.22,4.5-1.51.17-2.54,1.02-2.74,2.27h0ZM242.3,128.37l2.8-3c1.55-1.65,3.07-2.78,3.39-2.5"/>
  <path class="st0" d="M248.49,126.97c5.92-4.14,5.1-15.39,5.59-16.35.52-1.04.42-4.67-.25-9-.62-3.99-2.11-8.83-3.32-10.75-1.2-1.92-3.51-4.46-5.12-5.64s-8.1-4.59-14.43-7.6c-6.32-3-16.67-8.52-23-12.26-6.32-3.74-13.23-7.74-15.34-8.9-2.12-1.15-6.39-4.83-9.5-8.17-3.11-3.33-8.58-9.48-12.16-13.66-4.64-5.43-7.86-8.2-11.25-9.68-2.61-1.15-6.21-2.38-8-2.73s-4.04-1.03-5-1.5-4.56-1.27-8-1.78-11.42-1.7-17.75-2.65c-9.91-1.48-12.54-1.54-19-.45-4.12.7-9.97,2.13-13,3.18s-8.42,3.52-12,5.49c-3.57,1.96-10.1,5.91-14.5,8.78-4.4,2.86-10.87,7.87-14.39,11.14-3.51,3.26-8.3,8.63-10.63,11.93-2.34,3.3-5.19,8.25-6.34,11s-3.05,11.3-4.23,19-2.3,18.73-2.5,24.5c-.23,7.1.14,12.45,1.16,16.5h0c.82,3.3,2.61,8.25,3.98,11,1.36,2.75,2.47,5.56,2.46,6.25,0,.69,1.12,3.73,2.49,6.75,1.38,3.02,4.08,7.08,6,9,1.93,1.92,6.09,5.25,9.25,7.38,3.16,2.14,10.47,5.99,16.25,8.55s14.1,5.79,18.5,7.17,11.38,2.78,15.5,3.11c4.53.36,10.07.09,14-.67,3.58-.7,10.78-3.07,16-5.27,5.29-2.23,11.49-4.1,14-4.24,2.47-.13,8.78-.78,14-1.45,5.22-.66,11.97-1.9,15-2.75,3.03-.86,8.43-2.9,12-4.55,3.58-1.65,8.75-3.88,11.5-4.97,2.75-1.08,6.58-2.91,8.5-4.07,1.93-1.16,6.65-5.07,10.5-8.69s10.15-9.17,14-12.33c3.85-3.17,7.56-5.75,8.25-5.74M41.51,57.87c1.9-1.82,3.71-2.5,6.61-2.5s4.41.57,5.44,2c.79,1.1,1.43,3.24,1.42,4.75,0,1.78-1.35,4.18-3.77,6.8-2.06,2.22-4.48,4.07-5.37,4.1-.88.03-2.8-.92-4.25-2.11h0c-2.06-1.7-2.64-3.07-2.66-6.36-.02-3.22.58-4.75,2.58-6.68ZM55.76,78.7h0c-.93-1.28-1.72-2.67-1.75-3.08s.63-2.33,1.45-4.25c.85-1.98,2.8-4.15,4.5-5,1.65-.83,4.24-1.51,5.75-1.53,1.51,0,4.31,1,6.21,2.25,2.26,1.5,3.77,3.49,4.38,5.78.73,2.76.53,4.31-.96,7.31-1.25,2.55-3.21,4.46-5.88,5.74-2.2,1.06-5.35,1.94-7,1.96-1.91.03-3.9-.87-5.47-2.45-2.09-2.1-2.24-2.65-1-3.45,1.28-.82,1.25-1.25-.23-3.28ZM35.71,142.87c-.96-1.93-1.75-4.29-1.75-5.25s.68-3.1,1.5-4.75c.83-1.65,2.74-3.92,4.25-5.03,1.51-1.12,3.99-2.02,5.5-2,1.57.02,4.25,1.31,6.25,3.03,2.42,2.07,3.5,3.85,3.5,5.75,0,1.51-1.12,4.44-2.5,6.5-1.5,2.25-3.3,3.75-4.5,3.75-1.1,0-2,.45-2,1s1.01,1.14,2.25,1.32c1.78.25,1.52.48-1.25,1.11-2.37.54-4.47.36-6.5-.57-1.65-.75-3.79-2.94-4.75-4.86ZM49.06,114.37c-.05-2.38,1.02-3.99,5.17-7.79,4.34-3.99,5.87-4.79,8.98-4.75,2.99.03,4.09.6,5.44,2.79,1.03,1.69,1.61,4.49,1.49,7.25-.1,2.48-.86,5.51-1.68,6.75-.83,1.24-2.96,3.15-4.75,4.25-1.79,1.09-4.6,2.01-6.25,2.02-1.86.02-3.81-.83-5.12-2.24-1.17-1.26-2.37-2.95-2.67-3.78h0c-.31-.83-.58-2.85-.61-4.5ZM68.71,173.85c-.41,0-4.01-1.62-8-3.62s-9.84-5.53-13.01-7.85c-3.42-2.5-6.55-5.8-7.71-8.11h0c-1.07-2.15-1.96-3.94-1.99-3.99-.02-.05,1.87.12,4.21.37,3,.33,5.42-.13,12.25-3.57l.33,4.14c.18,2.28.96,5.39,1.75,6.9,1.07,2.07,2.16,2.75,4.42,2.75,2.72,0,3,.3,2.99,3.25,0,1.79.76,4.37,1.69,5.75.94,1.37,2.18,2.83,2.76,3.23.58.41.72.75.31.75h0ZM94.46,90.37c.38,1.13-.4,1.55-3.19,1.69-2.71.14-4.29-.43-6-2.17-1.31-1.34-2.31-3.58-2.31-5.19s.79-3.56,1.75-4.45c.96-.9,3.33-2.26,5.25-3.03,1.93-.77,4.96-1.39,6.75-1.37,1.89.01,4.09.86,5.25,2.02,1.1,1.1,1.99,2.56,1.97,3.25-.01.69-1.14,2.71-2.5,4.5-1.63,2.14-3.32,3.25-4.97,3.25-1.78,0-2.36.43-2,1.5ZM116.88,94.62c-.04,1.51-.27,2.19-.5,1.5s-1.99-1.25-3.92-1.25-3.5.45-3.5,1,.56.81,1.25.59c.69-.23,1.93-.03,2.75.44,1.33.77,1.33.92,0,1.32-.82.25-2.4.76-3.5,1.12-1.85.62-1.87.73-.25,1.6,1.1.58,2.49.56,3.75-.07,1.1-.55,2.34-.99,2.75-.98.41,0-.82,1.37-2.75,3.03-1.92,1.66-3.61,3.01-3.75,2.99s-1.18-.58-2.31-1.25c-1.13-.66-2.45-2.12-2.93-3.25h0c-.49-1.12-.91-2.6-.95-3.29-.03-.69,1.18-2.39,2.69-3.78,2.06-1.9,3.81-2.53,7-2.5,3.98.03,4.25.2,4.17,2.78ZM118.21,105.84c.96.02,2.76.55,4,1.18s2.58,1.64,2.98,2.25c.41.6.75,1.89.75,2.85.01.96-1.33,3.33-2.98,5.25-2.04,2.38-3.94,3.55-5.95,3.67s-3.28-.44-3.97-1.75h0c-.56-1.06-1.02-3.5-1.03-5.42,0-2.28.77-4.29,2.22-5.78,1.23-1.25,3.02-2.26,3.98-2.25ZM103.96,110.37c0-2.33.42-3.38,1.25-3.15.69.2,1.14,1.1,1,2-.14.91.88,4.13,2.25,7.15,1.52,3.34,3.49,5.99,5.04,6.75,2.18,1.08,3.16.94,7-1,2.45-1.24,5.36-3.71,6.46-5.5,1.09-1.79,2.11-3.64,2.25-4.12s2.05.32,4.25,1.78,5.01,2.64,6.25,2.62c1.56-.02,2.1.43,1.75,1.47-.28.83-.5,2.4-.5,3.5,0,1.9-.17,1.93-3.5.5-1.92-.83-5.07-1.61-6.99-1.75-2.88-.21-4.15.41-7.25,3.53-3.17,3.19-3.84,4.62-4.26,9.12-.48,5.13-.35,5.49,3.25,8.97,2.06,2,4.76,3.64,6,3.65s3.15-.65,4.25-1.47,2.22-1.49,2.5-1.49.05,1.52-.5,3.38c-.82,2.79-1.31,3.23-2.75,2.47-.96-.5-3.32-.91-5.25-.91s-5.41.95-7.75,2.1c-2.34,1.16-5.03,3.07-5.98,4.25s-1.74,3.61-1.75,5.4c-.01,2.44-.39,3.13-1.52,2.75-.82-.27-2.85-.5-7.5-.5l2.18-3.25c1.19-1.79,2.33-4.83,2.53-6.75.24-2.28-.26-4.32-1.42-5.86-1.37-1.8-3.07-2.48-7.29-2.89-5.4-.53-5.59-.46-10.22,3.86-2.6,2.41-4.74,5.18-4.75,6.14-.02,1.37-.82,1.72-3.64,1.59h0c-2.95-.12-3.45-.44-2.78-1.75.45-.87.83-3.39.84-5.59.02-3.63.39-4.19,3.9-6,2.79-1.44,4.31-3.12,5.43-6,1.24-3.2,1.32-4.55.39-6.75-1.14-2.68-1.08-2.75,2.08-2.74,1.88.01,5.02-1.14,7.46-2.75,2.32-1.52,4.91-4.22,5.75-6.01.85-1.79,1.54-4.83,1.54-6.75h0ZM137.55,147.87c.27-1.37,1.3-3.62,2.29-5,.98-1.37,3.4-3.4,5.39-4.5,2.89-1.61,4.16-1.8,6.42-.98,2.1.76,2.89,1.77,3.11,4,.16,1.64-.36,4.56-1.16,6.48s-2.62,4.74-4.05,6.25c-1.42,1.51-3.49,2.75-4.59,2.75s-2.93-.54-4.06-1.21c-1.13-.66-2.46-2.12-2.95-3.25-.5-1.12-.68-3.16-.4-4.54ZM132.86,141.62c-4.01,2.68-4.17,2.71-6.74,1-1.45-.96-3.19-2.76-3.88-4h0c-.69-1.24-1.26-3.15-1.27-4.25s.83-3.58,1.86-5.5,2.95-3.79,4.25-4.15c1.31-.36,3.96-.68,5.88-.73,2.04-.04,4.24.65,5.28,1.66.98.94,1.77,2.73,1.75,3.97-.02,1.24-.7,3.83-1.53,5.75-.84,1.96-3.3,4.71-5.6,6.25ZM140.23,138.41l1.46-4.18c.8-2.31,1.64-4.23,1.86-4.27.23-.05,1.49.92,5.2,4.41l-4.26,2.02-4.26,2.02h0ZM153.84,133.87c-.89-.02-3.48-2.05-5.75-4.5h0c-2.38-2.57-4.11-5.42-4.09-6.73.02-1.25.58-3.28,1.25-4.52.67-1.23,2.56-3.14,4.21-4.24,1.65-1.1,4.47-2,6.25-2,2.39-.01,3.79.72,5.29,2.74,1.12,1.51,2.02,3.76,2,5s-.74,3.94-1.59,6c-.86,2.06-2.55,4.77-3.75,6.02-1.21,1.26-2.93,2.26-3.82,2.23ZM147.41,108.12c-.8,1.51-2.69,3.67-4.2,4.78-1.51,1.12-3.58,1.98-4.6,1.9-1.02-.07-3.38-1.62-5.25-3.43h0c-2.63-2.55-3.4-4.12-3.4-6.9s.64-4.07,2.75-5.63c1.51-1.12,3.54-2.02,4.5-2,.96.01,1.97-.42,2.25-.97s1.29-1.01,2.25-1.03,2.53.77,3.47,1.75c.95.98,2.17,3.36,2.71,5.28.74,2.65.62,4.17-.48,6.25ZM134.04,160.87c-.62,1.38-2.57,3.5-4.35,4.73s-4.58,2.26-6.23,2.3c-1.65.03-3.67-.66-4.5-1.53-.82-.87-2.25-1.46-3.18-1.3-1,.17-1.86-.52-2.13-1.71h0c-.25-1.09-.51-2.78-.57-3.74-.07-.96,1.12-3.04,2.63-4.61,1.51-1.58,4.66-3.49,7-4.25,3.8-1.24,4.62-1.2,7.75.36,2.33,1.17,3.7,2.67,4.1,4.5.33,1.51.09,3.88-.52,5.25h0ZM99.72,159.63c-2.57,2.56-4.2,3.31-7.7,3.5-3.85.21-4.62-.09-5.74-2.26-.71-1.37-1.3-3.4-1.3-4.5-.01-1.1.89-3.46,1.98-5.25,1.1-1.79,3.46-3.96,5.25-4.83,2.42-1.18,4.14-1.35,6.75-.69,2.18.56,3.94,1.82,4.66,3.33.76,1.59.85,3.31.26,4.94-.49,1.38-2.36,3.97-4.16,5.76h0ZM99.46,117.87c-1.07,2.14-2.87,3.48-6.25,4.68-4.44,1.57-4.91,1.57-7.24,0-1.36-.92-3.04-2.69-3.73-3.93s-1.26-3.94-1.27-6c0-2.06.5-4.76,1.11-6,.62-1.24,2.09-3.27,3.25-4.53,1.7-1.81,3.19-2.27,7.38-2.25,4.52.03,5.46.38,6.75,2.53.83,1.38,1.5,4.75,1.5,7.5s-.67,6.35-1.5,8ZM83.21,127.33c.96,1.39,1.76,3.33,1.77,4.29.01.96-.89,2.76-2,4s-2.02,2.7-2.02,3.25-.67,1.23-1.5,1.5c-.82.27-2.19.16-3.04-.25s-2.18-2.33-2.95-4.25-1.42-3.73-1.44-4c-.03-.27.29-1.57.69-2.88.41-1.32,1.98-3,3.49-3.75,1.51-.76,3.31-1.17,4-.91.69.25,2.04,1.6,3,3ZM72.21,140.6c1.79,1.81,2.81,3.99,2.95,6.27.12,1.92-.56,4.74-1.5,6.25-.93,1.51-3.05,3.42-4.7,4.25s-4.46,1.39-6.25,1.25c-2.72-.21-3.45-.82-4.49-3.75h0c-.69-1.92-1.05-5.3-.82-7.5.31-2.86,1.31-4.78,3.5-6.75,1.74-1.57,4.24-2.76,5.81-2.77,1.7,0,3.8,1.04,5.5,2.75ZM70.35,170.79c-.89-.6-1.98-2.06-2.44-3.25-.45-1.2-.85-2.73-.89-3.42-.03-.69,1.07-2.38,2.44-3.75s3.74-2.77,5.25-3.11c1.51-.33,3.65-.37,4.75-.07,1.1.29,2.32,1.58,2.72,2.86.5,1.63.05,3.29-1.5,5.57-1.22,1.78-3.68,3.92-5.47,4.75-2.41,1.11-3.67,1.22-4.86.42ZM93.71,182.88c-.69,0-5.3-1.33-10.25-2.98s-9.22-3.03-9.5-3.05,1.75-1.16,4.5-2.52,5.45-2.91,6-3.45.66-1.21.25-1.49c-.41-.29-1.99.4-3.5,1.51-1.51,1.12-3.42,2.02-4.25,2-.82-.02-.04-.94,1.75-2.03,1.79-1.1,3.81-2.82,4.5-3.82,1-1.45,2.1-1.7,5.53-1.25,3.32.44,4.12.9,3.59,2.07-.37.83-.9,2.85-1.17,4.5-.32,1.97.24,4.28,1.65,6.75,1.45,2.53,1.74,3.75.9,3.76h0ZM97.36,179.56c-1.69-1.98-2.41-4.05-2.42-7-.01-2.3.56-5.01,1.25-6.01.76-1.09,3.14-2.1,5.9-2.5,3.46-.51,5.06-.3,6.3.82.91.83,1.63,2.63,1.59,4-.03,1.38-1.13,4.3-2.43,6.5s-3.58,4.67-5.08,5.5c-2.59,1.43-2.83,1.37-5.11-1.31h0ZM140.21,173.3c-5.09,2.51-12.74,5.75-17,7.18-4.26,1.44-10.45,2.84-19.75,3.59l3.15-2.85c1.73-1.57,4.09-4.43,5.25-6.35,1.15-1.92,2.09-4.29,2.1-5.25,0-.96.45-1.75,1-1.75s2.35.67,4,1.5c1.87.93,4.22,1.27,6.25.89,1.79-.33,4.8-1.8,6.69-3.25s4.03-4.1,4.75-5.89c1.22-3.02,1.51-3.17,4.06-2.2,1.51.57,3.88.8,5.25.5,1.38-.3,3.94-2.01,5.7-3.8s4.16-5.5,5.33-8.25c1.77-4.15,1.94-5.51,1.02-8-.61-1.65-.76-3.1-.33-3.23s1.59-.8,2.59-1.5,2.69-3.75,3.76-6.77c1.07-3.02,1.94-6.96,1.94-8.75,0-2.25-.85-4.04-2.76-5.81-1.51-1.41-3.87-2.82-5.25-3.13-1.37-.3-3.74-.27-8,.69l.43-5.25c.28-3.38-.07-6.23-1-8-.79-1.51-2.44-3.43-3.68-4.26-1.24-.83-3.49-1.5-5-1.5-1.51.01-4.21.6-6,1.33-1.79.72-4.25,2.86-5.47,4.75-1.22,1.88-2.23,4.44-2.25,5.68-.02,1.69-.46,2.11-1.78,1.66-.96-.32-3.17-.88-4.91-1.25-2.94-.61-3.07-.8-1.75-2.66.79-1.1,1.42-3.6,1.42-5.55-.01-1.95-.57-4.1-1.26-4.77s-2.94-1.21-5-1.2-5.32.69-7.25,1.52c-1.92.83-4.06,2.65-4.75,4.05-1.15,2.35-1.61,2.5-5.75,1.87-2.47-.37-4.63-.73-4.78-.8-.16-.07,2.2-1.58,5.25-3.37,3.04-1.79,6.43-4.71,7.53-6.5,1.09-1.79,2.01-4.38,2.03-5.75s-.77-3.29-1.75-4.26-3.58-2.04-5.78-2.38c-2.27-.35-5.73-.07-8,.65-2.2.7-5.24,2.11-6.75,3.13-1.9,1.28-2.93,3.02-3.32,5.61-.39,2.56-.07,4.46,1,6,.86,1.24,2.92,2.92,7.57,5.25l-4,4c-2.2,2.2-4.73,5.46-5.61,7.25-1.07,2.15-1.43,4.6-1.06,7.25.3,2.2.69,5.09.86,6.42.26,1.99-.26,2.56-2.94,3.25-1.79.46-4.17,2.07-5.28,3.58-1.12,1.51-2.02,3.54-2,4.5,0,.96-.76,2.05-1.72,2.42s-3.55,1.88-9.75,6.07l.37-3.26c.25-2.17-.34-4.32-3.87-9.48l4.25-.29c2.83-.19,5.56-1.27,8.19-3.25,2.16-1.63,4.53-4.42,5.25-6.21.72-1.79,1.31-4.83,1.31-6.75s-.52-4.51-1.16-5.75-1.88-2.78-2.75-3.43c-.88-.65-3.05-1.44-4.84-1.75s-4.26-.05-5.5.59c-1.24.63-4.19,2.77-6.55,4.75-2.37,1.97-4.76,4.94-5.31,6.59-.68,2.04-.66,4.2.05,6.75.58,2.06,2.07,4.69,3.31,5.83,2.04,1.9,2.07,2.02.25,1.34-1.1-.41-3.57-.96-5.5-1.22-3.1-.42-4.1.08-13.99,9.3l-.93-3.5c-.51-1.92-1.17-4.4-1.46-5.5h0c-.29-1.1-.37-8.75-.16-17,.2-8.25,1.13-19.27,2.07-24.5s2.14-10.63,3.6-14.5l3.44,3.25c2.3,2.18,4.42,3.25,6.43,3.25,1.65,0,4.35-.67,6-1.5,2.14-1.07,2.83-1.14,2.41-.25-.32.69-.1,3.5.49,6.25s1.98,6.24,3.09,7.75c1.58,2.16,2.81,2.75,5.76,2.74,2.06-.01,5.75-1.02,8.18-2.25,2.44-1.23,5.59-3.78,7-5.66,1.71-2.27,2.54-4.63,2.49-7-.04-1.97-.85-4.71-1.79-6.08-.95-1.38-2.94-3.28-4.43-4.24-1.48-.96-4.61-1.75-6.95-1.75s-5.15.44-6.25.99c-1.83.92-2,.67-2-3,0-3.43-.47-4.29-3.25-6.05-2.38-1.5-4.25-1.9-7-1.5-3.34.49-3.65.36-2.83-1.2.51-.96,2.64-3.39,4.75-5.39s8.55-6.79,14.33-10.64c5.78-3.85,13.65-8.59,17.5-10.55,3.85-1.95,11.05-4.52,16-5.72,6.19-1.49,11.03-2.03,15.5-1.75,5.23.33,8.45,1.36,16.5,5.28,8.95,4.35,11.1,5.97,20.5,15.44,5.78,5.82,11.96,13.06,13.74,16.08s4.11,8.2,5.17,11.5c1.06,3.3,2.65,8.48,3.54,11.5.88,3.02,2.26,9.55,3.07,14.5.81,4.95,1.47,11.7,1.46,15,0,3.3-.67,8.48-1.49,11.5s-2.06,5.83-2.74,6.23c-.69.41-1.55,2.66-1.91,5-.37,2.35-1.4,6.29-2.31,8.77-.9,2.48-2.78,6.75-4.18,9.5-1.39,2.75-3.05,5.45-3.69,6s-3.41,4.01-6.16,7.68c-4.48,5.99-5.96,7.15-14.25,11.25h0ZM238.31,125.37c-.19,1.1-.45,2.04-.59,2.09-.14.05-3.63,2.61-7.76,5.69-4.12,3.09-11.32,9.23-16,13.66-5.28,5.01-10.77,9.15-14.5,10.94-3.3,1.59-10.05,4.76-15,7.06-4.95,2.29-11.7,4.78-15,5.53-3.3.74-8.59,1.62-11.75,1.94-4.25.44-5.74.26-5.72-.66.02-.69,1.7-3.27,3.73-5.75s4.16-4.97,4.72-5.54c.56-.56,2.6-3.37,4.52-6.24,1.93-2.86,3.65-5.1,3.82-4.96.18.13-.24,2.04-.93,4.24-.74,2.35-3.13,5.82-5.82,8.42-4.49,4.34-4.52,4.4-1.57,3.72,1.65-.38,4.51-2.37,6.35-4.42,1.84-2.04,3.79-4.84,4.33-6.22.53-1.37,1.87-7,2.96-12.5s3.14-14.73,4.55-20.5c2.18-8.96,2.46-11.75,1.87-19-.38-4.67-1.12-10.75-1.65-13.5-.52-2.75-1.87-8.37-3-12.5-1.12-4.12-3.02-9.98-4.22-13-1.19-3.02-3.87-8.2-5.96-11.5-2.08-3.3-7.78-10.05-12.67-15s-11.37-10.54-14.4-12.43h0c-3.03-1.88-5.4-3.55-5.25-3.7.14-.15,2.25.1,4.67.56,2.43.45,6.67,1.4,9.42,2.1,2.75.69,7.36,2.32,10.25,3.62,3.41,1.53,6.56,3.98,9,7.01,2.06,2.56,6.34,7.73,9.5,11.5,3.38,4.02,8.53,8.63,12.5,11.19,3.71,2.39,9.68,6.2,13.25,8.45,3.58,2.26,12.35,7.03,19.5,10.6s13.34,6.29,13.75,6.05c.41-.25.75,0,.75.55s1.58,1.67,3.5,2.5c1.93.83,4.56,2.96,5.86,4.75s2.88,4.83,3.52,6.75c.63,1.92,1.15,3.61,1.14,3.75s-.69.25-1.52.25c-1.02,0-1.28.56-.82,1.75.38.96.86,4,1.06,6.75.32,4.18-.08,5.69-2.43,9.23-1.81,2.73-3.66,4.32-5.22,4.5-1.51.17-2.54,1.02-2.74,2.27h0ZM242.3,128.37l2.8-3c1.55-1.65,3.07-2.78,3.39-2.5"/>
  <path class="st2" d="M98.39,54.05c-2.3-.26-3.07.15-3.6,1.87-.48,1.59-.2,2.34,1,2.7h0c.92.28,2.69,0,3.92-.62,1.24-.62,2.11-1.69,1.93-2.38-.18-.69-1.65-1.4-3.25-1.57Z"/>
  <path class="st1" d="M98.39,54.05c-2.3-.26-3.07.15-3.6,1.87-.48,1.59-.2,2.34,1,2.7h0c.92.28,2.69,0,3.92-.62,1.24-.62,2.11-1.69,1.93-2.38-.18-.69-1.65-1.4-3.25-1.57Z"/>
  <path class="st2" d="M105.96,174.37c0-.28.23-1.18.5-2,.34-1.02-.26-1.58-1.89-1.74-1.52-.14-2.62.4-3,1.5-.33.96-.61,1.96-.61,2.24s1.13.5,2.5.5,2.5-.23,2.5-.5Z"/>
  <path class="st1" d="M105.96,174.37c0-.28.23-1.18.5-2,.34-1.02-.26-1.58-1.89-1.74-1.52-.14-2.62.4-3,1.5-.33.96-.61,1.96-.61,2.24s1.13.5,2.5.5,2.5-.23,2.5-.5Z"/>
  <path class="st2" d="M76.21,47.88c-.96,0-2.76.23-4,.5-1.23.27-2.25,1.13-2.25,1.9s.79,1.69,1.75,2.02h0c.97.33,2.77-.08,4-.92,1.24-.83,2.25-1.96,2.25-2.51s-.78-1-1.75-.99Z"/>
  <path class="st1" d="M76.21,47.88c-.96,0-2.76.23-4,.5-1.23.27-2.25,1.13-2.25,1.9s.79,1.69,1.75,2.02h0c.97.33,2.77-.08,4-.92,1.24-.83,2.25-1.96,2.25-2.51s-.78-1-1.75-.99Z"/>
  <path class="st2" d="M63.7,146.05c-1.52,1.82-2.76,3.62-2.75,4,0,.37.72,1.42,1.58,2.32.87.9,2.44,1.61,3.5,1.57s2.64-1.08,3.51-2.32c.98-1.4,1.36-3.29,1-5-.32-1.51-1.36-3.01-2.33-3.32-1.18-.39-2.64.5-4.51,2.75Z"/>
  <path class="st1" d="M63.7,146.05c-1.52,1.82-2.76,3.62-2.75,4,0,.37.72,1.42,1.58,2.32.87.9,2.44,1.61,3.5,1.57s2.64-1.08,3.51-2.32c.98-1.4,1.36-3.29,1-5-.32-1.51-1.36-3.01-2.33-3.32-1.18-.39-2.64.5-4.51,2.75Z"/>
  <path class="st2" d="M126.96,75.81c-.82.01-2.07.6-2.76,1.29s-1.26,1.97-1.25,2.82.55,2.18,1.21,2.95c.66.77,2.01,1.31,3,1.2s2.37-1.3,3.05-2.65c1.04-2.03.99-2.73-.25-4.05-.82-.87-2.17-1.58-3-1.56Z"/>
  <path class="st1" d="M126.96,75.81c-.82.01-2.07.6-2.76,1.29s-1.26,1.97-1.25,2.82.55,2.18,1.21,2.95c.66.77,2.01,1.31,3,1.2s2.37-1.3,3.05-2.65c1.04-2.03.99-2.73-.25-4.05-.82-.87-2.17-1.58-3-1.56Z"/>
  <path class="st2" d="M43.21,92.04c-1.24.73-2.25,1.68-2.25,2.1s.7,1.1,1.55,1.5h0c.94.45,2.21.05,3.25-1.01,1.15-1.18,1.38-2.1.7-2.83-.71-.78-1.64-.71-3.25.24Z"/>
  <path class="st1" d="M43.21,92.04c-1.24.73-2.25,1.68-2.25,2.1s.7,1.1,1.55,1.5h0c.94.45,2.21.05,3.25-1.01,1.15-1.18,1.38-2.1.7-2.83-.71-.78-1.64-.71-3.25.24Z"/>
  <path class="st2" d="M115.23,56.37c2.36,4.65,3.77,6.55,4.64,7.22.88.67,3.17,1.24,5.09,1.28,2.37.04,4.88-.93,7.75-2.97,2.34-1.67,5.38-4.72,6.75-6.78,1.38-2.06,2.8-5.33,3.17-7.25.57-3.01.25-3.9-2.25-6.36-1.61-1.58-3.93-3.26-5.17-3.75-1.23-.49-3.48-.88-5-.87-1.51,0-4.66,1.14-7,2.5-2.33,1.36-5.15,3.83-6.25,5.48-1.18,1.78-2.02,4.73-2.04,7.25l-.05,4.25c-2.22-6.2-3.72-9.13-4.78-10.5-1.6-2.09-2.63-2.46-6.27-2.24-2.4.15-4.58-.16-4.86-.69-.29-.55-2.17-.22-4.5.8-2.2.96-5.24,3.29-6.76,5.19-2.09,2.6-2.9,4.91-3.32,9.44-.43,4.79-.17,6.6,1.33,9h0c1.03,1.65,3.42,3.63,5.31,4.41,2.18.9,5.09,1.2,7.94.84,2.48-.32,5.63-1.1,7-1.72,1.38-.63,3.7-2.81,5.16-4.84,1.46-2.03,2.98-5.04,3.38-6.69,0,0,.73-3,.73-3ZM121.19,44.24c1.8-1.72,4.29-3.64,5.52-4.25,1.24-.62,3.38-1.12,4.75-1.12s3.91,1.24,5.63,2.75c2.78,2.44,3.06,3.17,2.5,6.5-.39,2.34-2.03,5.28-4.38,7.83-2.59,2.82-4.29,3.9-5.5,3.5-1.36-.45-1.64-.14-1.25,1.42.41,1.63,0,2-2.25,2.03-1.51.02-3.51-.77-4.43-1.75-.93-.98-2.14-2.91-2.69-4.28h0c-.55-1.38-1.04-4.08-1.08-6-.07-2.71.66-4.21,3.18-6.63ZM109.96,65.24c-.96,1.72-3.1,3.21-6,4.16-2.47.82-5.85,1.49-7.5,1.49s-4.04-.73-5.32-1.62c-1.28-.88-2.74-2.57-3.25-3.75-.5-1.18-.75-4.4-.55-7.15s.99-6,1.75-7.23c.75-1.22,3.4-2.88,5.87-3.67,2.48-.8,6.08-1.76,8-2.13,3.27-.65,3.67-.43,5.97,3.17,1.77,2.77,2.47,5.29,2.5,8.95.02,2.81-.64,6.3-1.47,7.78h0Z"/>
  <path class="st1" d="M115.23,56.37c2.36,4.65,3.77,6.55,4.64,7.22.88.67,3.17,1.24,5.09,1.28,2.37.04,4.88-.93,7.75-2.97,2.34-1.67,5.38-4.72,6.75-6.78,1.38-2.06,2.8-5.33,3.17-7.25.57-3.01.25-3.9-2.25-6.36-1.61-1.58-3.93-3.26-5.17-3.75-1.23-.49-3.48-.88-5-.87-1.51,0-4.66,1.14-7,2.5-2.33,1.36-5.15,3.83-6.25,5.48-1.18,1.78-2.02,4.73-2.04,7.25l-.05,4.25c-2.22-6.2-3.72-9.13-4.78-10.5-1.6-2.09-2.63-2.46-6.27-2.24-2.4.15-4.58-.16-4.86-.69-.29-.55-2.17-.22-4.5.8-2.2.96-5.24,3.29-6.76,5.19-2.09,2.6-2.9,4.91-3.32,9.44-.43,4.79-.17,6.6,1.33,9h0c1.03,1.65,3.42,3.63,5.31,4.41,2.18.9,5.09,1.2,7.94.84,2.48-.32,5.63-1.1,7-1.72,1.38-.63,3.7-2.81,5.16-4.84,1.46-2.03,2.98-5.04,3.38-6.69,0,0,.73-3,.73-3ZM121.19,44.24c1.8-1.72,4.29-3.64,5.52-4.25,1.24-.62,3.38-1.12,4.75-1.12s3.91,1.24,5.63,2.75c2.78,2.44,3.06,3.17,2.5,6.5-.39,2.34-2.03,5.28-4.38,7.83-2.59,2.82-4.29,3.9-5.5,3.5-1.36-.45-1.64-.14-1.25,1.42.41,1.63,0,2-2.25,2.03-1.51.02-3.51-.77-4.43-1.75-.93-.98-2.14-2.91-2.69-4.28h0c-.55-1.38-1.04-4.08-1.08-6-.07-2.71.66-4.21,3.18-6.63ZM109.96,65.24c-.96,1.72-3.1,3.21-6,4.16-2.47.82-5.85,1.49-7.5,1.49s-4.04-.73-5.32-1.62c-1.28-.88-2.74-2.57-3.25-3.75-.5-1.18-.75-4.4-.55-7.15s.99-6,1.75-7.23c.75-1.22,3.4-2.88,5.87-3.67,2.48-.8,6.08-1.76,8-2.13,3.27-.65,3.67-.43,5.97,3.17,1.77,2.77,2.47,5.29,2.5,8.95.02,2.81-.64,6.3-1.47,7.78h0Z"/>
  <path class="st2" d="M49.58,86.09c-1.54-1.66-3.2-2.26-6.12-2.22-2.29.02-4.85.78-6,1.77-1.1.95-2.97,2.85-4.14,4.23-1.17,1.37-2.35,3.4-2.63,4.5s-.03,3.48.54,5.29h0c.58,1.81,2.44,4.26,4.14,5.45,1.7,1.18,4.22,2.16,5.59,2.16s3.97-.99,5.75-2.2c1.79-1.21,3.89-3.44,4.67-4.95.92-1.78,1.23-4.34.87-7.25-.31-2.59-1.45-5.47-2.67-6.78ZM46.96,97.62c-1.1,1.79-1.78,3.59-1.51,4,.28.41-.06,1.33-.75,2.04-.68.72-2.14,1.28-3.24,1.26s-3.04-.76-4.32-1.65c-1.28-.88-2.71-2.57-3.19-3.75h0c-.47-1.18-.89-2.49-.92-2.9-.04-.41.38-1.88.93-3.25.55-1.38,2.13-3.63,3.5-5,1.48-1.48,3.63-2.49,5.25-2.48,1.52.02,3.55.81,4.54,1.75.98.95,1.76,2.85,1.74,4.23-.02,1.37-.93,3.96-2.03,5.75Z"/>
  <path class="st1" d="M49.58,86.09c-1.54-1.66-3.2-2.26-6.12-2.22-2.29.02-4.85.78-6,1.77-1.1.95-2.97,2.85-4.14,4.23-1.17,1.37-2.35,3.4-2.63,4.5s-.03,3.48.54,5.29h0c.58,1.81,2.44,4.26,4.14,5.45,1.7,1.18,4.22,2.16,5.59,2.16s3.97-.99,5.75-2.2c1.79-1.21,3.89-3.44,4.67-4.95.92-1.78,1.23-4.34.87-7.25-.31-2.59-1.45-5.47-2.67-6.78ZM46.96,97.62c-1.1,1.79-1.78,3.59-1.51,4,.28.41-.06,1.33-.75,2.04-.68.72-2.14,1.28-3.24,1.26s-3.04-.76-4.32-1.65c-1.28-.88-2.71-2.57-3.19-3.75h0c-.47-1.18-.89-2.49-.92-2.9-.04-.41.38-1.88.93-3.25.55-1.38,2.13-3.63,3.5-5,1.48-1.48,3.63-2.49,5.25-2.48,1.52.02,3.55.81,4.54,1.75.98.95,1.76,2.85,1.74,4.23-.02,1.37-.93,3.96-2.03,5.75Z"/>
  <path class="st2" d="M84.46,43.62c-.28-1.24-1.52-3.2-2.75-4.37-1.24-1.17-3.37-2.37-4.75-2.67-1.37-.3-4.4.2-6.73,1.12-2.32.92-5.81,2.91-7.75,4.42-2.81,2.19-3.5,3.4-3.41,6,.06,1.79.75,4.52,1.55,6.07.79,1.55,3.07,4.03,5.06,5.5,2.42,1.79,4.88,2.68,7.37,2.68,2.06,0,4.12-.36,4.58-.81.46-.44.26-1.11-.43-1.5-.92-.5-.55-1.38,1.33-3.19,1.43-1.38,3.47-4.41,4.52-6.75s1.69-5.26,1.41-6.5ZM79.44,51.62c-1.36,2.34-3.83,5.15-8.48,8.25l-3.18-2.23c-1.75-1.23-3.76-3.59-4.46-5.25s-1.3-3.81-1.32-4.77.86-2.65,1.96-3.75,3.69-2.69,5.75-3.53c2.07-.83,4.99-1.51,6.5-1.5,1.72.02,3.32.87,4.26,2.28.83,1.24,1.49,3.15,1.48,4.25-.02,1.1-1.15,3.91-2.51,6.25Z"/>
  <path class="st1" d="M84.46,43.62c-.28-1.24-1.52-3.2-2.75-4.37-1.24-1.17-3.37-2.37-4.75-2.67-1.37-.3-4.4.2-6.73,1.12-2.32.92-5.81,2.91-7.75,4.42-2.81,2.19-3.5,3.4-3.41,6,.06,1.79.75,4.52,1.55,6.07.79,1.55,3.07,4.03,5.06,5.5,2.42,1.79,4.88,2.68,7.37,2.68,2.06,0,4.12-.36,4.58-.81.46-.44.26-1.11-.43-1.5-.92-.5-.55-1.38,1.33-3.19,1.43-1.38,3.47-4.41,4.52-6.75s1.69-5.26,1.41-6.5ZM79.44,51.62c-1.36,2.34-3.83,5.15-8.48,8.25l-3.18-2.23c-1.75-1.23-3.76-3.59-4.46-5.25s-1.3-3.81-1.32-4.77.86-2.65,1.96-3.75,3.69-2.69,5.75-3.53c2.07-.83,4.99-1.51,6.5-1.5,1.72.02,3.32.87,4.26,2.28.83,1.24,1.49,3.15,1.48,4.25-.02,1.1-1.15,3.91-2.51,6.25Z"/>
  <path class="st2" d="M84.85,40.14c1.89,2,3.58,2.77,6.11,2.77,2.67,0,4.34-.84,7-3.51,3.05-3.06,3.7-3.33,5-2.09.83.79,2.63,1.65,4,1.94,1.38.28,4.08.07,6-.46,1.93-.52,4.97-2.41,6.77-4.19,1.94-1.92,3.27-4.25,3.28-5.73.01-1.38-.95-3.4-2.13-4.5-1.4-1.3-3.95-2.14-7.29-2.39-2.82-.21-6.36-.1-7.88.25-1.51.35-3.42,1.31-4.25,2.14-1.21,1.21-2.31,1.3-5.75.47-2.92-.71-5.27-.71-7.5,0-1.78.56-4.36,2.27-5.72,3.78-1.35,1.51-2.46,3.2-2.47,3.75,0,.55.5,1.9,1.11,3,.6,1.1,2.28,3.25,3.72,4.77ZM105.96,24.87c1.1-.55,3.47-1.02,5.25-1.04,1.79-.01,4.49.89,6,2,1.52,1.12,2.74,2.6,2.73,3.29s-1.24,2.5-2.75,4.02c-1.5,1.52-3.74,2.76-4.98,2.75-1.23,0-3.26-.54-4.5-1.17-1.23-.63-2.58-1.65-2.98-2.25h0c-.41-.61-.74-2.34-.75-3.85-.01-1.76.7-3.11,1.98-3.75ZM85.71,28.24c1.31-1.22,2.88-1.48,6.25-1.05,2.49.32,5.4,1.45,6.5,2.55,1.33,1.31,1.25,3.16-.25,5.55-1.23,1.97-3.15,4.03-4.25,4.58s-2.47,1.09-3.05,1.19c-.58.11-2.38-1.34-4-3.23s-2.95-4.45-2.95-5.69.79-3,1.75-3.9Z"/>
  <path class="st1" d="M84.85,40.14c1.89,2,3.58,2.77,6.11,2.77,2.67,0,4.34-.84,7-3.51,3.05-3.06,3.7-3.33,5-2.09.83.79,2.63,1.65,4,1.94,1.38.28,4.08.07,6-.46,1.93-.52,4.97-2.41,6.77-4.19,1.94-1.92,3.27-4.25,3.28-5.73.01-1.38-.95-3.4-2.13-4.5-1.4-1.3-3.95-2.14-7.29-2.39-2.82-.21-6.36-.1-7.88.25-1.51.35-3.42,1.31-4.25,2.14-1.21,1.21-2.31,1.3-5.75.47-2.92-.71-5.27-.71-7.5,0-1.78.56-4.36,2.27-5.72,3.78-1.35,1.51-2.46,3.2-2.47,3.75,0,.55.5,1.9,1.11,3,.6,1.1,2.28,3.25,3.72,4.77ZM105.96,24.87c1.1-.55,3.47-1.02,5.25-1.04,1.79-.01,4.49.89,6,2,1.52,1.12,2.74,2.6,2.73,3.29s-1.24,2.5-2.75,4.02c-1.5,1.52-3.74,2.76-4.98,2.75-1.23,0-3.26-.54-4.5-1.17-1.23-.63-2.58-1.65-2.98-2.25h0c-.41-.61-.74-2.34-.75-3.85-.01-1.76.7-3.11,1.98-3.75ZM85.71,28.24c1.31-1.22,2.88-1.48,6.25-1.05,2.49.32,5.4,1.45,6.5,2.55,1.33,1.31,1.25,3.16-.25,5.55-1.23,1.97-3.15,4.03-4.25,4.58s-2.47,1.09-3.05,1.19c-.58.11-2.38-1.34-4-3.23s-2.95-4.45-2.95-5.69.79-3,1.75-3.9Z"/>
  <path class="st2" d="M127.43,51.71h0c1.06.8,2.14.85,3.53.16,1.1-.55,1.85-1.56,1.67-2.25s-1.61-1.25-3.17-1.25-3,.49-3.2,1.09.33,1.61,1.17,2.25Z"/>
  <path class="st1" d="M127.43,51.71h0c1.06.8,2.14.85,3.53.16,1.1-.55,1.85-1.56,1.67-2.25s-1.61-1.25-3.17-1.25-3,.49-3.2,1.09.33,1.61,1.17,2.25Z"/>
  <path class="st2" d="M163.41,67.22c-1.68-1.57-4.49-3.19-6.25-3.6s-4.43-.52-5.95-.23c-1.51.29-4.55,2.01-6.75,3.82-2.66,2.2-4.66,2.64-6,1.32-1.75-1.74-2.81-1.91-8.5-1.31-4.12.43-8.05,1.58-10.75,3.16-2.45,1.44-4.24,3.23-4.24,4.24.01.96-.2,3.1-.47,4.75s-.09,3.99.4,5.21h0c.49,1.21,2.17,3.14,3.73,4.28,1.56,1.15,4.18,2.31,5.83,2.6,1.65.28,5.03-.2,7.5-1.09,2.48-.88,5.58-2.59,6.89-3.8,1.97-1.82,2.48-1.94,2.93-.7.3.82,1.59,2.51,2.86,3.75,1.28,1.24,3.45,2.25,4.82,2.25s3.74-.48,5.25-1.07c1.52-.58,3.81-2.05,5.1-3.25,1.29-1.2,2.94-3.31,3.66-4.68.73-1.38,1.7-4.82,2.16-7.65.8-4.93.7-5.27-2.22-8h0ZM136.74,84.49c-1.25,1.17-3.29,2.64-4.53,3.25-1.23.62-3.86,1.09-5.82,1.05-2.52-.05-4.45-.92-6.5-2.92-1.61-1.57-2.93-3.56-2.93-4.42s.45-2.71,1-4.08c.55-1.38,2.69-3.56,4.75-4.84,2.07-1.29,5.67-2.64,8-3,3.62-.56,4.55-.33,6.27,1.59,1.39,1.55,2.02,3.65,2.03,6.75,0,3.4-.55,5.02-2.27,6.62ZM162.21,74.26c-.13,2.54-.92,5.96-1.75,7.61-.82,1.65-2.51,3.62-3.75,4.38-1.23.75-3.66,1.65-5.39,1.99-2.27.44-3.58.13-4.77-1.13-.9-.96-2.05-3.32-2.55-5.24h0c-.51-1.93-.73-5.08-.49-7,.26-2.04,1.59-4.67,3.19-6.31,2.11-2.15,3.7-2.81,6.76-2.82,2.46,0,4.97.76,6.5,1.96,2.11,1.65,2.46,2.67,2.25,6.56h0Z"/>
  <path class="st1" d="M163.41,67.22c-1.68-1.57-4.49-3.19-6.25-3.6s-4.43-.52-5.95-.23c-1.51.29-4.55,2.01-6.75,3.82-2.66,2.2-4.66,2.64-6,1.32-1.75-1.74-2.81-1.91-8.5-1.31-4.12.43-8.05,1.58-10.75,3.16-2.45,1.44-4.24,3.23-4.24,4.24.01.96-.2,3.1-.47,4.75s-.09,3.99.4,5.21h0c.49,1.21,2.17,3.14,3.73,4.28,1.56,1.15,4.18,2.31,5.83,2.6,1.65.28,5.03-.2,7.5-1.09,2.48-.88,5.58-2.59,6.89-3.8,1.97-1.82,2.48-1.94,2.93-.7.3.82,1.59,2.51,2.86,3.75,1.28,1.24,3.45,2.25,4.82,2.25s3.74-.48,5.25-1.07c1.52-.58,3.81-2.05,5.1-3.25,1.29-1.2,2.94-3.31,3.66-4.68.73-1.38,1.7-4.82,2.16-7.65.8-4.93.7-5.27-2.22-8h0ZM136.74,84.49c-1.25,1.17-3.29,2.64-4.53,3.25-1.23.62-3.86,1.09-5.82,1.05-2.52-.05-4.45-.92-6.5-2.92-1.61-1.57-2.93-3.56-2.93-4.42s.45-2.71,1-4.08c.55-1.38,2.69-3.56,4.75-4.84,2.07-1.29,5.67-2.64,8-3,3.62-.56,4.55-.33,6.27,1.59,1.39,1.55,2.02,3.65,2.03,6.75,0,3.4-.55,5.02-2.27,6.62ZM162.21,74.26c-.13,2.54-.92,5.96-1.75,7.61-.82,1.65-2.51,3.62-3.75,4.38-1.23.75-3.66,1.65-5.39,1.99-2.27.44-3.58.13-4.77-1.13-.9-.96-2.05-3.32-2.55-5.24h0c-.51-1.93-.73-5.08-.49-7,.26-2.04,1.59-4.67,3.19-6.31,2.11-2.15,3.7-2.81,6.76-2.82,2.46,0,4.97.76,6.5,1.96,2.11,1.65,2.46,2.67,2.25,6.56h0Z"/>
  <path class="st2" d="M144.46,103.37c-.82-.28-2.4-.05-3.5.5s-2,1.65-2,2.44.9,1.7,2,2c1.1.31,2.7,0,3.55-.69s1.52-1.81,1.5-2.5c-.03-.69-.72-1.48-1.55-1.75Z"/>
  <path class="st1" d="M144.46,103.37c-.82-.28-2.4-.05-3.5.5s-2,1.65-2,2.44.9,1.7,2,2c1.1.31,2.7,0,3.55-.69s1.52-1.81,1.5-2.5c-.03-.69-.72-1.48-1.55-1.75Z"/>
  <path class="st2" d="M211.46,130.81c-.55,0-3.92.94-7.5,2.06-3.57,1.12-7.48,1.98-8.69,1.92-1.2-.07-2.47.33-2.81.88s-.03,1.09.69,1.2h0c.72.12,2.66.13,4.31.02,1.65-.1,5.2-.94,7.88-1.85,2.69-.92,5.39-2.25,6-2.97.68-.78.72-1.28.12-1.26Z"/>
  <path class="st1" d="M211.46,130.81c-.55,0-3.92.94-7.5,2.06-3.57,1.12-7.48,1.98-8.69,1.92-1.2-.07-2.47.33-2.81.88s-.03,1.09.69,1.2h0c.72.12,2.66.13,4.31.02,1.65-.1,5.2-.94,7.88-1.85,2.69-.92,5.39-2.25,6-2.97.68-.78.72-1.28.12-1.26Z"/>
  <path class="st2" d="M199.21,87.9c.42-.02-.05-1.49-1.03-3.28-1.03-1.89-3.44-4.03-5.75-5.11-2.22-1.04-4.29-1.46-4.71-.96-.4.48.72,1.76,2.5,2.84,1.78,1.07,4.37,2.98,5.74,4.25,1.38,1.26,2.84,2.28,3.25,2.26Z"/>
  <path class="st1" d="M199.21,87.9c.42-.02-.05-1.49-1.03-3.28-1.03-1.89-3.44-4.03-5.75-5.11-2.22-1.04-4.29-1.46-4.71-.96-.4.48.72,1.76,2.5,2.84,1.78,1.07,4.37,2.98,5.74,4.25,1.38,1.26,2.84,2.28,3.25,2.26Z"/>
  <path class="st2" d="M159.46,119.37c0-1.67-.69-2.02-4.25-2.09-2.73-.05-4.25.35-4.25,1.14,0,.67.57,1.74,1.25,2.36h0c.69.63,2.6,1.01,4.25.86,2.24-.2,3-.78,3-2.27Z"/>
  <path class="st1" d="M159.46,119.37c0-1.67-.69-2.02-4.25-2.09-2.73-.05-4.25.35-4.25,1.14,0,.67.57,1.74,1.25,2.36h0c.69.63,2.6,1.01,4.25.86,2.24-.2,3-.78,3-2.27Z"/>
  <path class="st2" d="M97.71,149.85c-1.23,0-2.82.56-3.51,1.25s-1.26,1.82-1.25,2.5,1.19,2.03,2.64,3c2.56,1.72,2.68,1.71,4.5-.48,1.43-1.72,1.64-2.72.87-4.25-.55-1.1-2.01-2.01-3.25-2.02Z"/>
  <path class="st1" d="M97.71,149.85c-1.23,0-2.82.56-3.51,1.25s-1.26,1.82-1.25,2.5,1.19,2.03,2.64,3c2.56,1.72,2.68,1.71,4.5-.48,1.43-1.72,1.64-2.72.87-4.25-.55-1.1-2.01-2.01-3.25-2.02Z"/>
  <path class="st2" d="M125.96,159.87c-1.1-.55-2.5-.77-3.1-.48-.76.35-.68.82.25,1.48,1,.72,1.03.97.1.98-.68,0-1.25.45-1.25.97s.45,1.2,1,1.5h0c.55.3,1.9.32,3,.05,1.1-.28,2-1.18,2-2s-.9-1.95-2-2.5Z"/>
  <path class="st1" d="M125.96,159.87c-1.1-.55-2.5-.77-3.1-.48-.76.35-.68.82.25,1.48,1,.72,1.03.97.1.98-.68,0-1.25.45-1.25.97s.45,1.2,1,1.5h0c.55.3,1.9.32,3,.05,1.1-.28,2-1.18,2-2s-.9-1.95-2-2.5Z"/>
  <path class="st2" d="M94.46,105.05c-2.03-.22-3.4.26-4.26,1.5-.7,1-1.26,2.39-1.25,3.09,0,.69,1.17,1.82,2.58,2.5,1.9.91,3.01.94,4.25.12.93-.61,1.68-2.4,1.68-4,0-2.47-.43-2.94-3-3.21Z"/>
  <path class="st1" d="M94.46,105.05c-2.03-.22-3.4.26-4.26,1.5-.7,1-1.26,2.39-1.25,3.09,0,.69,1.17,1.82,2.58,2.5,1.9.91,3.01.94,4.25.12.93-.61,1.68-2.4,1.68-4,0-2.47-.43-2.94-3-3.21Z"/>
  <path class="st2" d="M155.21,73.12c-1.23-.14-3.15.2-4.25.75s-2,1.46-2,2.02.57,1.27,1.25,1.56c.69.29,2.6.39,4.25.22,2.23-.22,3-.81,3-2.3,0-1.33-.75-2.08-2.25-2.25Z"/>
  <path class="st1" d="M155.21,73.12c-1.23-.14-3.15.2-4.25.75s-2,1.46-2,2.02.57,1.27,1.25,1.56c.69.29,2.6.39,4.25.22,2.23-.22,3-.81,3-2.3,0-1.33-.75-2.08-2.25-2.25Z"/>
  <path class="st2" d="M204.96,102.83c-4.12-1.66-8.28-3.46-9.25-3.99-.96-.54-2.2-.97-2.75-.97s-1,.64-1,1.43c0,.83,4.8,3.75,11.5,7h0c6.33,3.06,11.73,5.57,12,5.57s-.28-1.35-1.25-3c-1.29-2.23-3.69-3.79-9.25-6.04Z"/>
  <path class="st1" d="M204.96,102.83c-4.12-1.66-8.28-3.46-9.25-3.99-.96-.54-2.2-.97-2.75-.97s-1,.64-1,1.43c0,.83,4.8,3.75,11.5,7h0c6.33,3.06,11.73,5.57,12,5.57s-.28-1.35-1.25-3c-1.29-2.23-3.69-3.79-9.25-6.04Z"/>
</svg>